<svg width="50" height="50" viewBox="0 0 50 50" fill="none" xmlns="http://www.w3.org/2000/svg">
<g filter="url(#filter0_b_1807_24844)">
<rect width="50" height="50" rx="25" fill="#0C8CE9"/>
</g>
<path d="M25.0596 29.5V24.5" stroke="white" stroke-width="1.5" stroke-miterlimit="10" stroke-linecap="round" stroke-linejoin="round"/>
<path d="M27.5 27H22.5" stroke="white" stroke-width="1.5" stroke-miterlimit="10" stroke-linecap="round" stroke-linejoin="round"/>
<path d="M35 24V30C35 34 34 35 30 35H20C16 35 15 34 15 30V20C15 16 16 15 20 15H21.5C23 15 23.33 15.44 23.9 16.2L25.4 18.2C25.78 18.7 26 19 27 19H30C34 19 35 20 35 24Z" stroke="white" stroke-width="1.5" stroke-miterlimit="10"/>
<defs>
<filter id="filter0_b_1807_24844" x="-23" y="-23" width="96" height="96" filterUnits="userSpaceOnUse" color-interpolation-filters="sRGB">
<feFlood flood-opacity="0" result="BackgroundImageFix"/>
<feGaussianBlur in="BackgroundImageFix" stdDeviation="11.5"/>
<feComposite in2="SourceAlpha" operator="in" result="effect1_backgroundBlur_1807_24844"/>
<feBlend mode="normal" in="SourceGraphic" in2="effect1_backgroundBlur_1807_24844" result="shape"/>
</filter>
</defs>
</svg>
