<svg width="50" height="50" viewBox="0 0 50 50" fill="none" xmlns="http://www.w3.org/2000/svg">
<g filter="url(#filter0_b_1807_24840)">
<rect width="50" height="50" rx="25" fill="#0C8CE9"/>
</g>
<path d="M21 15V18" stroke="white" stroke-width="1.5" stroke-miterlimit="10" stroke-linecap="round" stroke-linejoin="round"/>
<path d="M29 15V18" stroke="white" stroke-width="1.5" stroke-miterlimit="10" stroke-linecap="round" stroke-linejoin="round"/>
<path d="M31.2 34.4C32.9673 34.4 34.4 32.9673 34.4 31.2C34.4 29.4327 32.9673 28 31.2 28C29.4327 28 28 29.4327 28 31.2C28 32.9673 29.4327 34.4 31.2 34.4Z" stroke="white" stroke-width="1.5" stroke-linecap="round" stroke-linejoin="round"/>
<path d="M35 35L34 34" stroke="white" stroke-width="1.5" stroke-linecap="round" stroke-linejoin="round"/>
<path d="M16.5 22.0898H33.5" stroke="white" stroke-width="1.5" stroke-miterlimit="10" stroke-linecap="round" stroke-linejoin="round"/>
<path d="M26.37 35H21C17.5 35 16 33 16 30V21.5C16 18.5 17.5 16.5 21 16.5H29C32.5 16.5 34 18.5 34 21.5V26" stroke="white" stroke-width="1.5" stroke-miterlimit="10" stroke-linecap="round" stroke-linejoin="round"/>
<path d="M24.9955 26.6992H25.0045" stroke="white" stroke-width="2" stroke-linecap="round" stroke-linejoin="round"/>
<path d="M21.2943 26.6992H21.3033" stroke="white" stroke-width="2" stroke-linecap="round" stroke-linejoin="round"/>
<path d="M21.2943 29.6992H21.3033" stroke="white" stroke-width="2" stroke-linecap="round" stroke-linejoin="round"/>
<defs>
<filter id="filter0_b_1807_24840" x="-23" y="-23" width="96" height="96" filterUnits="userSpaceOnUse" color-interpolation-filters="sRGB">
<feFlood flood-opacity="0" result="BackgroundImageFix"/>
<feGaussianBlur in="BackgroundImageFix" stdDeviation="11.5"/>
<feComposite in2="SourceAlpha" operator="in" result="effect1_backgroundBlur_1807_24840"/>
<feBlend mode="normal" in="SourceGraphic" in2="effect1_backgroundBlur_1807_24840" result="shape"/>
</filter>
</defs>
</svg>
