<svg width="164" height="164" viewBox="0 0 164 164" fill="none" xmlns="http://www.w3.org/2000/svg">
<mask id="mask0_1633_3715" style="mask-type:alpha" maskUnits="userSpaceOnUse" x="0" y="0" width="164" height="164">
<circle cx="82" cy="81.7422" r="81.7422" fill="#C4C4C4"/>
</mask>
<g mask="url(#mask0_1633_3715)">
<path opacity="0.1" d="M213.341 120.61C214.453 105.845 211.018 90.4297 206.417 76.7093C199.61 56.2815 186.317 35.348 163.978 30.5133C151.096 27.7348 137.987 30.7134 126.94 37.6931C116.32 44.406 108.046 53.0806 94.9812 54.7588C81.772 56.4593 68.2183 55.7758 54.9425 55.7758C20.8054 55.7758 -6.89663 91.6356 0.0274872 128.99C6.9516 166.345 39.605 192.246 67.307 192.246C92.2026 192.246 112.686 177.314 136.331 173.302C148.057 171.313 159.832 173.669 171.435 170.69C184.922 167.223 197.604 158.959 205.078 146.995C210.168 138.837 212.647 129.852 213.341 120.61Z" fill="#0C8CE9"/>
<path opacity="0.1" d="M224.171 93.3127C225.725 72.6881 220.922 51.1554 214.487 31.9902C204.967 3.45585 186.377 -25.7849 155.135 -32.5381C137.121 -36.4193 118.787 -32.2587 103.337 -22.5092C88.4858 -13.1323 76.9138 -1.01525 58.6427 1.32897C40.1695 3.70425 21.2145 2.74948 2.64808 2.74948C-45.0931 2.74948 -83.8346 52.8398 -74.1512 105.018C-64.4677 157.197 -18.8016 193.377 19.94 193.377C54.7569 193.377 83.4031 172.52 116.471 166.915C132.87 164.136 149.338 167.427 165.565 163.267C184.427 158.423 202.161 146.881 212.614 130.168C219.733 118.773 223.199 106.221 224.171 93.3127Z" fill="#0C8CE9"/>
<g opacity="0.5">
<path d="M13.5207 124.581C15.0973 124.44 18.1348 122.641 18.1401 122.641C18.1454 122.641 16.3749 120.936 16.2473 120.841C14.7961 119.78 11.3801 118.557 9.76571 119.774C9.50265 119.983 9.28554 120.247 9.12855 120.548C8.97157 120.85 8.87823 121.182 8.85464 121.523C8.83105 121.864 8.87773 122.206 8.99164 122.527C9.10555 122.849 9.28412 123.142 9.51571 123.387C10.462 124.471 12.191 124.696 13.5207 124.581Z" fill="#263238"/>
<path d="M19.4641 133.174C20.8774 132.641 23.1969 130.279 23.3784 130.088C24.692 131.456 26.093 132.733 27.5723 133.91C28.4289 134.596 29.3116 135.264 30.231 135.922C29.7752 135.685 29.3724 135.474 29.3142 135.454C27.6373 134.807 24.0401 134.57 22.7838 136.181C22.5789 136.454 22.4328 136.769 22.3551 137.104C22.2775 137.439 22.2702 137.787 22.3335 138.126C22.3969 138.464 22.5296 138.785 22.7228 139.067C22.916 139.349 23.1653 139.585 23.4541 139.761C24.6437 140.55 26.3714 140.299 27.6224 139.822C28.8734 139.346 30.914 137.372 31.4434 136.84C31.7888 137.089 32.1291 137.344 32.4745 137.588C34.1379 138.776 35.8063 139.952 37.4068 141.157C37.9704 141.582 38.508 142.023 39.0507 142.459C38.6479 142.248 38.3087 142.074 38.2558 142.053C36.5789 141.406 32.9817 141.17 31.7254 142.781C31.5259 143.055 31.3847 143.369 31.3112 143.703C31.2376 144.036 31.2333 144.382 31.2985 144.718C31.3637 145.053 31.4969 145.371 31.6896 145.65C31.8822 145.93 32.1298 146.164 32.4165 146.339C33.6059 147.122 35.3336 146.871 36.5847 146.4C37.8358 145.929 39.679 144.136 40.307 143.511C40.8396 143.974 41.3722 144.437 41.905 144.916C42.241 145.246 42.5872 145.544 42.9078 145.897L43.8743 146.921C44.4623 147.588 45.077 148.277 45.6335 148.95C46.0293 149.415 46.3932 149.859 46.7626 150.313C46.2304 149.883 45.0984 149.066 45.0029 149.008C43.4119 148.111 39.9123 147.311 38.4425 148.715C38.2047 148.954 38.0186 149.241 37.8964 149.559C37.7742 149.877 37.7186 150.218 37.7332 150.559C37.7479 150.901 37.8325 151.235 37.9814 151.541C38.1304 151.847 38.3404 152.117 38.5978 152.334C39.6634 153.292 41.4054 153.316 42.7118 153.044C44.1546 152.738 46.7016 150.854 47.0193 150.618C47.6243 151.366 48.2133 152.104 48.7544 152.804C50.2169 154.686 51.4344 156.361 52.374 157.715L53.5436 157.062C52.546 155.692 51.2488 153.969 49.6751 152.035C49.0594 151.27 48.3854 150.469 47.69 149.652C48.3341 148.854 48.9305 148.018 49.476 147.146C50.9092 147.667 53.8381 147.524 54.2167 147.508C54.3248 148.479 54.4167 149.418 54.4922 150.314C54.6928 152.641 54.8052 154.682 54.8751 156.319L56.1439 155.604C56.0438 154.071 55.8975 152.246 55.6747 150.206C55.5716 149.218 55.4414 148.172 55.2949 147.093C55.6617 146.98 58.6741 146.03 59.7758 145.031C60.7841 144.126 61.8166 142.685 61.7122 141.221C61.6986 140.88 61.6152 140.544 61.4672 140.238C61.3193 139.931 61.1102 139.66 60.8536 139.442C60.597 139.224 60.2985 139.063 59.9777 138.971C59.6569 138.879 59.3208 138.858 58.9914 138.908C57.0231 139.265 55.5069 142.631 55.2637 144.45C55.2652 144.559 55.2184 145.743 55.2129 146.489C55.1542 146.052 55.0957 145.626 55.0316 145.172C54.8982 144.277 54.7438 143.388 54.5833 142.433C54.4893 141.977 54.3935 141.513 54.2958 141.043C54.2104 140.574 54.0617 140.095 53.9445 139.615C53.6556 138.506 53.3036 137.403 52.9305 136.295C53.6919 136.181 56.3899 135.706 57.5218 134.983C58.6536 134.259 59.8829 132.978 59.9945 131.533C60.0312 131.193 59.9979 130.849 59.8968 130.523C59.7958 130.197 59.6292 129.896 59.4079 129.641C59.1866 129.385 58.9156 129.18 58.6122 129.038C58.3089 128.897 57.9801 128.822 57.6471 128.82C55.648 128.847 53.6546 131.961 53.1426 133.746C53.1126 133.86 52.8833 135.166 52.7723 135.886C52.542 135.219 52.3172 134.557 52.0607 133.896C51.3292 131.982 50.524 130.069 49.7346 128.156L49.021 126.399C49.2941 126.357 52.5131 125.886 53.7803 125.058C54.9066 124.318 56.1415 123.052 56.2478 121.608C56.2924 121.265 56.2654 120.916 56.1686 120.584C56.0718 120.253 55.9073 119.946 55.6861 119.685C55.465 119.424 55.1922 119.214 54.886 119.069C54.5798 118.924 54.2472 118.848 53.9102 118.846C51.9058 118.874 49.9125 121.987 49.4053 123.745C49.3651 123.881 49.0438 125.761 48.9821 126.243C48.4381 124.953 47.9518 123.657 47.5025 122.366C46.8881 120.621 46.3836 118.837 45.9923 117.026C46.1185 117.024 49.4846 116.529 50.783 115.679C51.9041 114.939 53.1389 113.674 53.2505 112.229C53.288 111.889 53.2554 111.545 53.155 111.219C53.0546 110.893 52.8885 110.593 52.6677 110.337C52.4468 110.081 52.176 109.876 51.8729 109.734C51.5698 109.593 51.2412 109.518 50.9083 109.516C48.904 109.543 46.9106 112.657 46.4035 114.415C46.3633 114.556 46.0125 116.582 45.9755 116.95C45.974 116.842 45.9199 116.74 45.8974 116.633C45.5536 114.803 45.3677 112.947 45.3419 111.084C45.3277 110.058 45.3457 109.074 45.3956 108.116C46.0322 108.108 48.9347 107.959 50.1888 107.326C51.4429 106.693 52.7432 105.599 53.013 104.174C53.0856 103.84 53.0893 103.495 53.0239 103.16C52.9584 102.825 52.8252 102.507 52.6329 102.228C52.4406 101.949 52.1935 101.715 51.9075 101.54C51.6215 101.365 51.303 101.254 50.9726 101.213C48.9759 101.036 46.6632 103.883 45.9657 105.579C45.9301 105.672 45.6439 106.665 45.4642 107.364C45.4951 106.937 45.5152 106.488 45.5516 106.077C45.6828 104.524 45.9001 103.116 46.0986 101.864C46.215 101.155 46.3378 100.521 46.4559 99.9246C47.0718 99.5648 49.5194 98.0988 50.3298 96.9634C51.1402 95.828 51.8286 94.2404 51.4198 92.83C51.3352 92.4976 51.1833 92.1872 50.9738 91.9192C50.7643 91.6512 50.5021 91.4317 50.2043 91.275C49.9065 91.1184 49.5799 91.0282 49.2458 91.0103C48.9118 90.9924 48.5779 91.0472 48.2661 91.1711C46.4142 91.9534 45.6434 95.5797 45.7845 97.4099C45.7867 97.572 46.2678 100.024 46.2991 100.002L46.3359 100.002C46.2122 100.571 46.0839 101.184 45.9564 101.861C45.7316 103.107 45.4669 104.516 45.32 106.069C45.1231 107.74 45.0215 109.422 45.016 111.105C45.0016 112.992 45.1509 114.876 45.4621 116.736C45.4621 116.736 45.4627 116.779 45.463 116.801C45.1925 116.264 44.3829 114.794 44.3078 114.693C43.2349 113.205 40.3783 110.964 38.4771 111.601C38.1642 111.716 37.8785 111.898 37.6385 112.134C37.3985 112.37 37.2096 112.656 37.084 112.972C36.9584 113.288 36.8989 113.628 36.9093 113.969C36.9198 114.311 37 114.646 37.1448 114.954C37.7156 116.281 39.2785 117.054 40.5931 117.371C42.0608 117.723 45.2615 117.068 45.5186 117.016C45.8783 118.9 46.361 120.757 46.9634 122.574C47.3098 123.65 47.6873 124.693 48.0596 125.747C47.8113 125.291 47.5848 124.889 47.5472 124.836C46.4743 123.348 43.6177 121.107 41.7164 121.744C41.4036 121.859 41.1179 122.041 40.8779 122.277C40.6379 122.513 40.4489 122.799 40.3233 123.115C40.1977 123.431 40.1382 123.771 40.1487 124.112C40.1592 124.454 40.2394 124.789 40.3841 125.097C40.955 126.429 42.5179 127.197 43.8272 127.514C45.1365 127.831 47.8921 127.333 48.6163 127.188C48.7744 127.591 48.9221 127.995 49.0802 128.398C49.8278 130.333 50.5858 132.257 51.2647 134.167C51.5055 134.839 51.72 135.512 51.9397 136.184C51.7184 135.782 51.5244 135.444 51.4921 135.396C50.4192 133.908 47.5574 131.667 45.6614 132.304C45.348 132.419 45.0618 132.6 44.8212 132.836C44.5806 133.072 44.3911 133.358 44.265 133.674C44.1388 133.99 44.0789 134.33 44.089 134.672C44.0992 135.013 44.1792 135.349 44.3238 135.657C44.8999 136.984 46.4576 137.757 47.7721 138.074C49.0867 138.391 51.5693 137.935 52.43 137.772C52.6343 138.466 52.8385 139.16 52.9848 139.845C53.086 140.314 53.2184 140.76 53.2987 141.235C53.3789 141.709 53.4695 142.173 53.5547 142.631C53.6829 143.526 53.8272 144.449 53.934 145.328C54.0108 145.938 54.0768 146.521 54.1427 147.103C53.9072 146.431 53.4261 145.124 53.372 145.017C52.6044 143.611 51.5016 142.429 50.1674 141.581C50.0872 141.421 49.9936 141.268 49.8875 141.125C49.6926 140.848 49.4431 140.616 49.1553 140.444C48.8674 140.272 48.5475 140.164 48.2165 140.127C47.8855 140.09 47.5507 140.126 47.2339 140.231C46.9171 140.335 46.6254 140.508 46.3777 140.736C44.9239 142.15 45.4745 145.818 46.2446 147.477C46.2933 147.574 46.9017 148.576 47.3208 149.203C47.0321 148.872 46.7855 148.545 46.4599 148.209C45.8718 147.537 45.2629 146.88 44.6165 146.176L43.6292 145.173C43.3088 144.837 42.9255 144.518 42.5631 144.183C41.7266 143.427 40.843 142.699 39.9388 141.992C40.51 141.444 42.536 139.551 43.0447 138.29C43.5535 137.03 43.9345 135.284 43.2487 134.013C43.1005 133.706 42.8907 133.434 42.6333 133.216C42.3758 132.998 42.0764 132.838 41.7547 132.747C41.433 132.656 41.0962 132.636 40.7665 132.688C40.4368 132.74 40.1216 132.863 39.8415 133.049C38.195 134.223 38.1937 137.936 38.7126 139.696C38.7457 139.804 39.2571 141.023 39.5504 141.684C39.0184 141.265 38.4863 140.84 37.8914 140.432C36.2544 139.249 34.5548 138.105 32.871 136.961L31.3304 135.901C31.5383 135.715 33.965 133.498 34.5767 132.073C35.1171 130.817 35.4665 129.067 34.7807 127.795C34.629 127.494 34.4176 127.229 34.1602 127.017C33.9028 126.805 33.605 126.651 33.2861 126.564C32.9672 126.477 32.6342 126.46 32.3085 126.514C31.9828 126.567 31.6717 126.69 31.3951 126.875C29.7485 128.043 29.7473 131.762 30.2714 133.516C30.31 133.645 31.0499 135.403 31.2559 135.837C30.1295 135.053 29.0134 134.247 27.9394 133.44C26.4879 132.334 25.1074 131.133 23.8065 129.844C23.9 129.756 26.4517 127.451 27.0738 126.016C27.6143 124.765 27.9689 123.009 27.2831 121.738C27.1314 121.433 26.919 121.165 26.6598 120.95C26.4006 120.735 26.1004 120.579 25.7786 120.491C25.4568 120.403 25.1206 120.386 24.792 120.44C24.4633 120.495 24.1496 120.619 23.8711 120.807C22.2245 121.98 22.2232 125.693 22.7473 127.448C22.7861 127.588 23.5856 129.474 23.7533 129.801L23.5187 129.583C22.2477 128.254 21.0954 126.81 20.0758 125.269C19.5011 124.423 19.0002 123.587 18.5257 122.761C19.0466 122.381 21.3901 120.619 22.0939 119.383C22.7977 118.146 23.3011 116.496 22.7564 115.158C22.6388 114.838 22.4569 114.547 22.2225 114.303C21.9882 114.06 21.7066 113.87 21.3962 113.746C21.0858 113.622 20.7534 113.566 20.4208 113.583C20.0881 113.599 19.7626 113.687 19.4654 113.841C17.7057 114.822 17.3094 118.514 17.6396 120.32C17.6409 120.417 17.9438 121.396 18.1904 122.101C17.9852 121.726 17.7641 121.34 17.5749 120.975C16.851 119.606 16.2698 118.29 15.7647 117.157C15.4873 116.496 15.2211 115.894 15.0239 115.33C15.3413 114.687 16.5942 112.065 16.6591 110.67C16.724 109.275 16.3946 107.523 15.3294 106.592C15.0814 106.363 14.7894 106.191 14.4725 106.086C14.1555 105.981 13.8206 105.946 13.4896 105.982C13.1586 106.019 12.8389 106.127 12.5512 106.299C12.2635 106.471 12.0143 106.703 11.8198 106.98C10.6963 108.682 12.0017 112.145 13.1057 113.594C13.2021 113.723 14.9105 115.499 14.9258 115.466L14.9253 115.428C15.1274 115.966 15.3514 116.563 15.6022 117.197C16.0866 118.363 16.6415 119.68 17.3342 121.07C18.0717 122.577 18.8948 124.038 19.7993 125.446C20.8 127.027 21.9351 128.515 23.1915 129.89L23.2395 129.938C22.7092 129.643 21.2623 128.885 21.1195 128.833C19.4425 128.186 15.8454 127.949 14.5943 129.56C14.3946 129.834 14.2533 130.147 14.1793 130.48C14.1054 130.813 14.1007 131.158 14.1654 131.493C14.2301 131.828 14.3628 132.146 14.5548 132.425C14.7469 132.704 14.994 132.938 15.2801 133.113C16.4856 133.912 18.2078 133.65 19.4641 133.174Z" fill="#263238"/>
<path d="M45.1284 107.822C45.1653 107.822 44.5688 105.398 44.5141 105.247C43.8852 103.527 41.6819 100.585 39.6785 100.682C39.3471 100.709 39.0249 100.808 38.7328 100.971C38.4407 101.133 38.1851 101.357 37.9826 101.628C37.7801 101.899 37.6351 102.21 37.557 102.542C37.4789 102.874 37.4695 103.219 37.5293 103.555C37.7438 104.995 39.0597 106.166 40.2369 106.82C41.6156 107.59 45.1232 107.822 45.1284 107.822Z" fill="#263238"/>
<path d="M176.419 131.005C174.991 130.512 172.607 128.215 172.415 128.029C171.141 129.434 169.776 130.75 168.329 131.966C167.491 132.674 166.627 133.367 165.753 134.05C166.197 133.8 166.599 133.578 166.656 133.556C168.315 132.863 171.904 132.527 173.199 134.103C173.406 134.371 173.556 134.681 173.638 135.012C173.721 135.343 173.735 135.688 173.679 136.025C173.623 136.362 173.499 136.683 173.314 136.967C173.129 137.251 172.888 137.491 172.607 137.673C171.439 138.495 169.711 138.292 168.442 137.85C167.173 137.408 165.084 135.491 164.545 134.974L163.53 135.75C161.9 136.983 160.27 138.206 158.703 139.454C158.151 139.894 157.621 140.35 157.09 140.801C157.487 140.579 157.822 140.396 157.879 140.374C159.532 139.681 163.127 139.345 164.422 140.921C164.629 141.189 164.779 141.499 164.861 141.831C164.944 142.162 164.958 142.508 164.902 142.845C164.846 143.182 164.722 143.504 164.537 143.788C164.352 144.073 164.111 144.314 163.829 144.496C162.662 145.312 160.928 145.109 159.664 144.673C158.401 144.236 156.509 142.495 155.864 141.888C155.344 142.365 154.824 142.842 154.305 143.336C153.973 143.676 153.635 143.983 153.325 144.344C153.014 144.705 152.698 145.045 152.392 145.395C151.817 146.078 151.227 146.784 150.684 147.472C150.307 147.947 149.95 148.401 149.593 148.865C150.14 148.42 151.222 147.573 151.321 147.512C152.855 146.572 156.363 145.675 157.866 147.038C158.11 147.27 158.304 147.552 158.435 147.867C158.566 148.181 158.631 148.52 158.626 148.862C158.621 149.204 158.545 149.54 158.405 149.85C158.264 150.16 158.062 150.436 157.811 150.66C156.772 151.647 155.037 151.719 153.718 151.484C152.272 151.217 149.674 149.405 149.35 149.177C148.761 149.941 148.198 150.695 147.671 151.41C146.266 153.332 145.09 155.04 144.188 156.42L142.996 155.799C143.955 154.402 145.21 152.644 146.724 150.667C147.318 149.886 147.97 149.066 148.648 148.23C147.981 147.45 147.36 146.63 146.788 145.775C145.37 146.335 142.438 146.273 142.059 146.267C141.983 147.241 141.912 148.182 141.861 149.08C141.725 151.411 141.669 153.455 141.65 155.093L140.356 154.414C140.414 152.878 140.515 151.05 140.676 149.005C140.757 148.014 140.859 146.965 140.97 145.882C140.6 145.779 137.568 144.913 136.434 143.945C135.406 143.068 134.334 141.655 134.398 140.19C134.402 139.848 134.475 139.511 134.614 139.2C134.753 138.89 134.954 138.613 135.204 138.388C135.454 138.162 135.747 137.994 136.065 137.893C136.383 137.792 136.718 137.761 137.049 137.802C139.031 138.105 140.635 141.428 140.928 143.24C140.93 143.348 141.009 144.53 141.035 145.276C141.087 144.837 141.128 144.41 141.185 143.955C141.289 143.057 141.418 142.163 141.558 141.204C141.636 140.744 141.719 140.278 141.802 139.807C141.884 139.335 142.009 138.853 142.113 138.37C142.377 137.253 142.693 136.141 143.035 135.023C142.271 134.931 139.561 134.53 138.409 133.838C137.258 133.146 135.994 131.899 135.848 130.458C135.801 130.119 135.824 129.775 135.915 129.446C136.007 129.117 136.164 128.812 136.378 128.55C136.592 128.288 136.857 128.076 137.156 127.926C137.455 127.776 137.781 127.693 138.114 127.681C140.118 127.653 142.197 130.711 142.753 132.481C142.791 132.594 143.051 133.893 143.182 134.61C143.394 133.937 143.606 133.269 143.838 132.601C144.522 130.668 145.269 128.733 146.005 126.799C146.234 126.207 146.452 125.615 146.67 125.023C146.401 124.989 143.165 124.606 141.875 123.813C140.734 123.105 139.465 121.874 139.313 120.433C139.267 120.095 139.29 119.75 139.381 119.421C139.472 119.093 139.63 118.787 139.844 118.525C140.058 118.264 140.323 118.051 140.622 117.901C140.921 117.751 141.247 117.668 141.58 117.656C143.584 117.628 145.663 120.686 146.224 122.429C146.262 122.564 146.641 124.434 146.71 124.914C147.219 123.61 147.669 122.301 148.087 120.998C148.655 119.237 149.112 117.44 149.455 115.618C149.329 115.62 145.956 115.218 144.634 114.404C143.488 113.695 142.218 112.464 142.067 111.023C142.021 110.685 142.045 110.34 142.137 110.011C142.229 109.682 142.387 109.377 142.601 109.116C142.815 108.854 143.08 108.641 143.38 108.491C143.679 108.342 144.006 108.258 144.339 108.246C146.343 108.219 148.416 111.276 148.977 113.02C149.021 113.159 149.422 115.175 149.47 115.542C149.468 115.434 149.525 115.331 149.539 115.222C149.835 113.385 149.969 111.523 149.941 109.661C149.927 108.634 149.882 107.651 149.805 106.695C149.169 106.704 146.263 106.636 144.997 106.038C143.731 105.439 142.391 104.382 142.087 102.965C142.004 102.633 141.991 102.288 142.046 101.951C142.102 101.614 142.227 101.293 142.411 101.008C142.596 100.724 142.837 100.482 143.118 100.3C143.4 100.117 143.715 99.9979 144.045 99.949C146.036 99.7162 148.427 102.499 149.165 104.175C149.209 104.266 149.517 105.251 149.716 105.945C149.673 105.519 149.641 105.071 149.593 104.661C149.419 103.112 149.168 101.71 148.93 100.465C148.794 99.7591 148.654 99.1287 148.519 98.5361C147.899 98.1934 145.412 96.7955 144.57 95.683C143.729 94.5704 142.997 93.0024 143.361 91.5813C143.437 91.2486 143.58 90.936 143.781 90.6638C143.982 90.3916 144.236 90.1659 144.528 90.0013C144.819 89.8367 145.141 89.737 145.473 89.7085C145.804 89.6801 146.138 89.7236 146.452 89.8362C148.325 90.5669 149.195 94.1706 149.105 96.004C149.107 96.1661 148.694 98.6309 148.662 98.6098L148.625 98.6103C148.765 99.1758 148.915 99.7845 149.061 100.458C149.32 101.698 149.624 103.099 149.814 104.647C150.055 106.312 150.201 107.99 150.252 109.673C150.32 111.558 150.224 113.446 149.966 115.314L149.967 115.378C150.223 114.834 150.992 113.343 151.064 113.239C152.095 111.723 154.889 109.403 156.807 109.987C157.123 110.094 157.414 110.267 157.661 110.496C157.908 110.726 158.105 111.006 158.24 111.319C158.374 111.632 158.443 111.97 158.441 112.312C158.44 112.653 158.368 112.991 158.231 113.302C157.697 114.645 156.156 115.461 154.856 115.814C153.399 116.207 150.176 115.64 149.918 115.595C149.61 117.488 149.179 119.358 148.627 121.191C148.31 122.276 147.962 123.329 147.619 124.393C147.854 123.931 148.07 123.522 148.106 123.468C149.137 121.951 151.936 119.632 153.849 120.216C154.165 120.322 154.456 120.496 154.703 120.725C154.95 120.954 155.148 121.234 155.283 121.547C155.417 121.859 155.487 122.198 155.486 122.539C155.485 122.881 155.415 123.219 155.279 123.531C154.739 124.879 153.204 125.689 151.898 126.042C150.593 126.395 147.83 125.974 147.102 125.849L146.677 127.071C145.978 129.026 145.273 130.971 144.653 132.898C144.431 133.577 144.235 134.255 144.039 134.933C144.249 134.525 144.428 134.182 144.459 134.133C145.491 132.616 148.29 130.297 150.202 130.881C150.518 130.988 150.809 131.162 151.055 131.391C151.302 131.621 151.499 131.901 151.633 132.213C151.767 132.526 151.836 132.864 151.835 133.206C151.834 133.547 151.763 133.885 151.627 134.196C151.088 135.538 149.552 136.354 148.247 136.707C146.941 137.06 144.447 136.673 143.582 136.534C143.402 137.234 143.217 137.933 143.085 138.622C142.997 139.093 142.877 139.543 142.815 140.02C142.753 140.496 142.67 140.962 142.597 141.422C142.489 142.321 142.375 143.247 142.293 144.129C142.228 144.741 142.178 145.325 142.128 145.909C142.345 145.231 142.795 143.911 142.841 143.803C143.559 142.359 144.625 141.129 145.938 140.231C146.01 140.066 146.099 139.911 146.205 139.767C146.392 139.485 146.634 139.246 146.917 139.066C147.199 138.886 147.516 138.77 147.845 138.724C148.175 138.678 148.51 138.704 148.829 138.8C149.148 138.896 149.444 139.06 149.698 139.281C151.19 140.655 150.746 144.336 150.017 146.017C149.971 146.114 149.39 147.133 148.989 147.771C149.268 147.432 149.537 147.099 149.827 146.754C150.396 146.065 150.982 145.393 151.614 144.67L152.568 143.641C152.884 143.296 153.258 142.967 153.606 142.622C154.421 141.843 155.284 141.09 156.174 140.359C155.588 139.827 153.51 137.991 152.967 136.745C152.424 135.498 151.989 133.764 152.64 132.474C152.782 132.165 152.987 131.891 153.24 131.668C153.493 131.446 153.789 131.281 154.108 131.183C154.427 131.086 154.763 131.059 155.093 131.104C155.423 131.149 155.741 131.265 156.025 131.444C157.703 132.572 157.802 136.283 157.331 138.057C157.301 138.166 156.824 139.399 156.549 140.068C157.069 139.634 157.615 139.194 158.173 138.77C159.782 137.542 161.444 136.352 163.101 135.162L164.606 134.06C164.398 133.879 161.906 131.73 161.255 130.323C160.68 129.083 160.283 127.342 160.933 126.052C161.076 125.743 161.28 125.469 161.533 125.246C161.786 125.024 162.082 124.859 162.402 124.762C162.721 124.666 163.057 124.639 163.387 124.685C163.718 124.731 164.035 124.847 164.318 125.027C165.991 126.15 166.095 129.867 165.625 131.635C165.59 131.766 164.899 133.543 164.7 133.983C165.809 133.168 166.903 132.331 167.949 131.495C169.37 130.351 170.717 129.112 171.981 127.786C171.885 127.701 169.276 125.467 168.609 124.049C168.034 122.814 167.636 121.069 168.287 119.779C168.429 119.47 168.634 119.196 168.886 118.975C169.139 118.753 169.434 118.588 169.753 118.491C170.072 118.395 170.407 118.368 170.737 118.413C171.067 118.459 171.383 118.575 171.666 118.754C173.345 119.882 173.449 123.593 172.973 125.362C172.938 125.503 172.196 127.41 172.038 127.742L172.266 127.517C173.497 126.152 174.607 124.677 175.584 123.11C176.135 122.248 176.612 121.399 177.064 120.56C176.532 120.195 174.141 118.498 173.409 117.281C172.676 116.065 172.122 114.429 172.63 113.077C172.739 112.753 172.912 112.457 173.14 112.208C173.367 111.958 173.644 111.76 173.951 111.628C174.257 111.495 174.588 111.43 174.921 111.437C175.254 111.445 175.582 111.524 175.883 111.67C177.669 112.602 178.167 116.281 177.887 118.095C177.889 118.192 177.608 119.18 177.386 119.891C177.581 119.51 177.791 119.118 177.975 118.748C178.661 117.36 179.201 116.029 179.674 114.882C179.938 114.213 180.183 113.605 180.369 113.034C180.029 112.401 178.71 109.815 178.601 108.422C178.492 107.029 178.742 105.28 179.797 104.319C180.038 104.084 180.325 103.904 180.639 103.79C180.953 103.677 181.287 103.632 181.619 103.66C181.951 103.687 182.273 103.786 182.566 103.95C182.858 104.114 183.113 104.339 183.315 104.611C184.486 106.281 183.276 109.779 182.218 111.258C182.125 111.389 180.461 113.212 180.445 113.179L180.445 113.142C180.263 113.684 180.055 114.287 179.817 114.928C179.37 116.107 178.852 117.439 178.192 118.847C177.5 120.374 176.721 121.857 175.86 123.29C174.907 124.901 173.813 126.419 172.592 127.826L172.545 127.876C173.067 127.566 174.492 126.768 174.634 126.712C176.287 126.019 179.881 125.683 181.176 127.259C181.383 127.527 181.533 127.836 181.616 128.167C181.698 128.498 181.712 128.844 181.656 129.18C181.6 129.517 181.476 129.838 181.291 130.122C181.106 130.406 180.865 130.647 180.584 130.829C179.417 131.661 177.682 131.447 176.419 131.005Z" fill="#263238"/>
<path d="M150.064 106.373C150.027 106.374 150.556 103.934 150.602 103.782C151.183 102.045 153.309 99.0429 155.309 99.0856C155.642 99.1026 155.967 99.1913 156.264 99.3458C156.56 99.5003 156.822 99.7171 157.033 99.9823C157.243 100.248 157.396 100.555 157.483 100.885C157.57 101.215 157.588 101.56 157.537 101.898C157.367 103.343 156.079 104.55 154.926 105.236C153.569 106.044 150.064 106.373 150.064 106.373Z" fill="#263238"/>
</g>
<path d="M13.3209 57.917C11.5232 54.4514 10.7695 51.968 10.7695 51.3935C10.7695 50.2568 13.2406 49.5773 13.2406 49.5773C17.0954 47.5387 35.2265 50.4854 43.3871 51.8445C47.9553 52.6409 52.5766 53.0951 57.2124 53.2035C57.2124 53.2035 58.3429 52.3016 59.6835 51.1649C61.024 50.0283 67.3869 42.5534 69.8826 41.8986C72.3784 41.2438 74.6394 42.8067 74.6394 42.8067C74.6394 42.8067 78.7227 45.2777 78.037 45.7534C77.3513 46.2291 67.3869 54.8159 64.8912 56.4035C62.3954 57.9911 57.1877 57.3116 52.6534 58.2197C48.7492 58.9981 32.9346 59.9618 29.3084 60.2583C26.5851 60.9042 23.7268 60.6662 21.1478 59.5788" fill="white"/>
<path d="M74.6828 42.7823C74.6828 42.7823 72.4157 41.1947 69.9261 41.8742C67.4365 42.5537 61.086 50.0348 59.7269 51.1405C58.3679 52.2463 57.2559 53.1791 57.2559 53.1791C52.6201 53.0708 47.9988 52.6165 43.4305 51.8201C35.27 50.461 17.1388 47.4958 13.284 49.5529C13.284 49.5529 10.813 50.2324 10.813 51.3691C10.8988 52.0046 11.0627 52.6271 11.301 53.2224L11.6408 53.3459C11.6408 53.3459 16.1689 52.8703 25.9418 53.105C35.7148 53.3398 58.3185 54.6803 59.7702 55.2054C60.3879 55.4401 64.7678 54.4517 69.6234 52.7344C73.3299 49.7135 77.6851 45.939 78.1237 45.6734C78.7662 45.2719 74.6828 42.7823 74.6828 42.7823Z" fill="#0C8CE9"/>
<path opacity="0.5" d="M74.6828 42.7823C74.6828 42.7823 72.4157 41.1947 69.9261 41.8742C67.4365 42.5537 61.086 50.0348 59.7269 51.1405C58.3679 52.2463 57.2559 53.1791 57.2559 53.1791C52.6201 53.0708 47.9988 52.6165 43.4305 51.8201C35.27 50.461 17.1388 47.4958 13.284 49.5529C13.284 49.5529 10.813 50.2324 10.813 51.3691C10.8988 52.0046 11.0627 52.6271 11.301 53.2224L11.6408 53.3459C11.6408 53.3459 16.1689 52.8703 25.9418 53.105C35.7148 53.3398 58.3185 54.6803 59.7702 55.2054C60.3879 55.4401 64.7678 54.4517 69.6234 52.7344C73.3299 49.7135 77.6851 45.939 78.1237 45.6734C78.7662 45.2719 74.6828 42.7823 74.6828 42.7823Z" fill="white"/>
<path d="M13.3209 57.917C11.5232 54.4514 10.7695 51.968 10.7695 51.3935C10.7695 50.2568 13.2406 49.5773 13.2406 49.5773C17.0954 47.5387 35.2265 50.4854 43.3871 51.8445C47.9553 52.6409 52.5766 53.0951 57.2124 53.2035C57.2124 53.2035 58.3429 52.3016 59.6835 51.1649C61.024 50.0283 67.3869 42.5534 69.8826 41.8986C72.3784 41.2438 74.6393 42.8067 74.6393 42.8067C74.6393 42.8067 78.7227 45.2777 78.037 45.7534C77.3513 46.2291 67.3869 54.8159 64.8912 56.4035C62.3954 57.9911 57.1877 57.3116 52.6534 58.2197C48.7492 58.9981 32.9346 59.9618 29.3084 60.2583C26.5851 60.9042 23.7268 60.6662 21.1478 59.5788" stroke="#263238" stroke-linecap="round" stroke-linejoin="round"/>
<path d="M102.84 78.0682C103.25 77.2899 103.865 76.6385 104.618 76.1845C105.372 75.7305 106.235 75.4911 107.115 75.4922H148.319C148.319 75.4922 151.297 75.4922 150.407 81.1508C149.518 86.8095 137.298 121.361 134.345 131.807C131.393 142.253 130.769 164.27 130.769 164.27H81.3481C81.3481 164.27 85.2647 111.619 102.84 78.0682Z" fill="white"/>
<path opacity="0.16" d="M121.398 75.4922H107.115C106.235 75.4911 105.372 75.7305 104.619 76.1845C103.865 76.6385 103.25 77.2899 102.84 78.0682C85.265 111.619 81.3052 164.251 81.3052 164.251H103.47L108.937 143.489L131.733 148.19C131.893 146.448 132.079 144.675 132.295 142.926L131.794 137.367C131.794 137.367 127.124 132.455 125.654 131.226C124.184 129.997 125.16 127.779 124.913 118.198C124.665 108.616 116.066 101.728 112.866 95.8287C109.666 89.9291 114.59 86.2412 119.013 80.3416C120.588 78.2103 121.231 76.6412 121.398 75.4922Z" fill="black"/>
<path d="M102.84 78.0682C103.25 77.2899 103.865 76.6385 104.618 76.1845C105.372 75.7305 106.235 75.4911 107.115 75.4922H148.319C148.319 75.4922 151.297 75.4922 150.407 81.1508C149.518 86.8095 137.298 121.361 134.345 131.807C131.393 142.253 130.769 164.27 130.769 164.27H81.3481C81.3481 164.27 85.2647 111.619 102.84 78.0682Z" stroke="#263238" stroke-linecap="round" stroke-linejoin="round"/>
<path d="M143.653 86.6293C139.489 96.3466 130.68 134.814 129.247 165.56H133.225C133.225 165.56 133.843 143.518 136.802 133.097C139.761 122.675 151.993 88.1181 152.864 82.4409C153.735 76.7637 150.776 76.7822 150.776 76.7822C150.776 76.7822 146.995 78.8394 143.653 86.6293Z" fill="#263238" stroke="#263238" stroke-linecap="round" stroke-linejoin="round"/>
<path d="M68.7894 65.8987C68.7894 65.8987 62.2164 62.0439 59.7269 55.2486C57.2373 48.4533 79.2171 37.5684 88.7614 36.8889C98.3057 36.2093 100.999 38.6989 106.676 48.4471C112.354 58.1953 116.196 71.5635 113.249 78.1365C110.303 84.7094 105.317 86.297 108.925 91.7271C112.533 97.1572 122.75 112.576 122.071 119.829C121.391 127.081 114.367 133.419 104.156 134.111C93.9444 134.803 80.3538 128.669 69.0241 118.667C57.6945 108.666 60.635 93.9572 64.6998 89.2005C68.7646 84.4438 74.899 82.6276 75.3499 77.8708C75.8009 73.1141 68.7894 65.8987 68.7894 65.8987Z" fill="#263238" stroke="#263238" stroke-linecap="round" stroke-linejoin="round"/>
<path d="M96.8047 55.1436C100.295 61.6424 104.663 70.3465 106.028 75.6036C108.412 84.8082 96.1437 90.6028 99.5475 95.0321" stroke="white" stroke-linecap="round" stroke-linejoin="round"/>
<path d="M92.0479 46.6309C92.0479 46.6309 93.4069 48.9474 95.2849 52.3575" stroke="white" stroke-linecap="round" stroke-linejoin="round"/>
<path d="M110.358 62.9834C110.761 64.2014 111.022 65.4617 111.137 66.7393" stroke="white" stroke-linecap="round" stroke-linejoin="round"/>
<path d="M94.4077 43.252C94.4077 43.252 105.144 51.1839 109.432 60.6789" stroke="white" stroke-linecap="round" stroke-linejoin="round"/>
<path d="M79.5076 49.2012C71.8412 51.351 60.8143 54.8413 61.71 56.8552" stroke="white" stroke-linecap="round" stroke-linejoin="round"/>
<path d="M86.5933 47.3105C86.5933 47.3105 84.9563 47.7183 82.5161 48.3731" stroke="white" stroke-linecap="round" stroke-linejoin="round"/>
<path d="M77.1104 43.3078C81.5017 41.9239 86.101 41.3176 90.701 41.5163" stroke="white" stroke-linecap="round" stroke-linejoin="round"/>
<path d="M73.9849 44.5865C74.6792 44.2247 75.3974 43.9109 76.1347 43.6475" stroke="white" stroke-linecap="round" stroke-linejoin="round"/>
<path d="M10.7697 51.3936C10.7669 51.4368 10.7669 51.4801 10.7697 51.5233C10.7669 51.4801 10.7669 51.4368 10.7697 51.3936ZM13.321 57.9171C12.2806 56.0118 11.4519 53.9982 10.85 51.9125C11.449 53.9992 12.2778 56.0131 13.321 57.9171ZM10.782 51.5604C10.782 51.5974 10.782 51.6407 10.782 51.6963C10.7944 51.6407 10.7882 51.5974 10.782 51.5604ZM10.8129 51.7333C10.8205 51.7939 10.8329 51.8538 10.85 51.9125C10.8329 51.8538 10.8205 51.7939 10.8129 51.7333ZM13.321 57.9109C15.6314 62.287 18.5058 66.3411 21.8708 69.9695C30.0313 78.8096 53.6049 101.932 55.8474 103.52C58.0898 105.107 57.435 109.636 55.8474 114.17C54.2597 118.704 48.3663 125.29 48.5949 132.53C48.8235 139.77 51.0659 150.889 50.8621 153.157C50.6582 155.424 44.9872 163.133 44.9872 163.133H103.464C103.464 163.133 96.1745 153.867 96.1745 150.698C96.1745 147.529 106.182 106.924 106.633 103.977C107.084 101.03 105.274 98.9917 101.648 98.7631C98.0216 98.5345 84.1962 95.5878 83.5167 93.3207C82.8371 91.0535 87.1429 82.442 87.1429 82.442L73.5523 83.1215C73.5523 83.1215 72.8727 89.0149 71.9646 90.1516C71.0565 91.2883 69.6975 89.0149 66.5222 87.4335C63.3469 85.852 57.2558 84.4868 54.964 82.6706C52.6721 80.8544 30.9394 60.4313 30.9394 60.4313" fill="white"/>
<path d="M58.4355 84.4189C59.566 86.3958 60.6965 88.1811 60.6965 88.1811C60.6965 88.1811 64.5081 90.3247 65.4594 90.3247C66.4108 90.3247 72.1312 93.4135 72.1312 93.4135C72.1312 93.4135 76.9003 92.2212 75.22 88.1687C74.6899 87.1313 74.0207 86.1711 73.2308 85.3147C72.9466 87.1124 72.4895 89.466 71.952 90.1394C71.0439 91.2698 69.6849 89.0027 66.5096 87.4212C64.4525 86.3958 61.1228 85.4568 58.4355 84.4189Z" fill="#0C8CE9"/>
<path d="M46.7971 75.2452C39.7979 68.765 30.9393 60.4562 30.9393 60.4562L25.7872 59.7148L25.1694 60.0608C25.1694 60.0608 39.7114 72.9286 42.8064 74.3618C44.0585 74.9373 45.4191 75.2386 46.7971 75.2452Z" fill="#0C8CE9"/>
<path d="M54.1297 81.9542L53.5737 81.46C53.8579 81.9295 54.0185 82.226 54.0185 82.226L54.1297 81.9542Z" fill="#0C8CE9"/>
<g opacity="0.5">
<path opacity="0.5" d="M58.4355 84.4189C59.566 86.3958 60.6965 88.1811 60.6965 88.1811C60.6965 88.1811 64.5081 90.3247 65.4594 90.3247C66.4108 90.3247 72.1312 93.4135 72.1312 93.4135C72.1312 93.4135 76.9003 92.2212 75.22 88.1687C74.6899 87.1313 74.0207 86.1711 73.2308 85.3147C72.9466 87.1124 72.4895 89.466 71.952 90.1394C71.0439 91.2698 69.6849 89.0027 66.5096 87.4212C64.4525 86.3958 61.1228 85.4568 58.4355 84.4189Z" fill="white"/>
<path opacity="0.5" d="M46.7971 75.2452C39.7979 68.765 30.9393 60.4562 30.9393 60.4562L25.7872 59.7148L25.1694 60.0608C25.1694 60.0608 39.7114 72.9286 42.8064 74.3618C44.0585 74.9373 45.4191 75.2386 46.7971 75.2452Z" fill="white"/>
<path opacity="0.5" d="M54.1297 81.9542L53.5737 81.46C53.8579 81.9295 54.0185 82.226 54.0185 82.226L54.1297 81.9542Z" fill="white"/>
</g>
<path d="M13.321 57.9109C15.6314 62.287 18.5058 66.3411 21.8708 69.9695C30.0313 78.8096 53.6049 101.932 55.8474 103.52C58.0898 105.107 57.435 109.636 55.8474 114.17C54.2597 118.704 48.3663 125.29 48.5949 132.53C48.8235 139.77 51.0659 150.889 50.8621 153.157C50.6582 155.424 44.9872 163.133 44.9872 163.133H103.464C103.464 163.133 96.1745 153.867 96.1745 150.698C96.1745 147.529 106.182 106.924 106.633 103.977C107.084 101.03 105.274 98.9917 101.648 98.7631C98.0216 98.5345 84.1962 95.5878 83.5167 93.3207C82.8371 91.0535 87.1429 82.442 87.1429 82.442L73.5523 83.1215C73.5523 83.1215 72.8727 89.0149 71.9646 90.1516C71.0565 91.2883 69.6975 89.0149 66.5222 87.4335C63.3469 85.852 57.2558 84.4868 54.964 82.6706C52.6721 80.8544 30.9394 60.4313 30.9394 60.4313M10.7697 51.3936C10.7669 51.4368 10.7669 51.4801 10.7697 51.5233C10.7669 51.4801 10.7669 51.4368 10.7697 51.3936V51.3936ZM13.321 57.9171C12.2806 56.0118 11.4519 53.9982 10.85 51.9125C11.449 53.9992 12.2778 56.0131 13.321 57.9171V57.9171ZM10.782 51.5604C10.782 51.5974 10.782 51.6407 10.782 51.6963C10.7944 51.6407 10.7882 51.5974 10.782 51.5604V51.5604ZM10.8129 51.7333C10.8205 51.7939 10.8329 51.8538 10.85 51.9125C10.8329 51.8538 10.8205 51.7939 10.8129 51.7333Z" stroke="#263238" stroke-linecap="round" stroke-linejoin="round"/>
<path d="M30.9394 60.4565C30.9394 60.4565 23.6993 60.5924 19.6592 57.2627" stroke="#263238" stroke-linecap="round" stroke-linejoin="round"/>
<path d="M83.5227 93.3211C82.8432 91.0601 87.1489 82.4424 87.1489 82.4424L73.5583 83.1219C73.5583 83.1219 72.8787 89.0153 71.9706 90.152C71.0625 91.2887 69.7035 89.0153 66.5282 87.4338C66.2873 87.3103 66.0217 87.1929 65.7498 87.0756L64.9282 99.9928C64.9282 99.9928 66.1205 112.502 80.4154 110.124C86.2038 109.16 92.3813 103.996 97.7126 98.189C92.2269 97.182 84.0416 95.057 83.5227 93.3211Z" fill="white"/>
<path d="M83.1399 84.1536C83.1399 84.1536 82.3183 88.7621 81.6573 93.8586C80.9963 98.9551 80.5083 102.748 80.5083 102.748L83.523 93.3211L86.9206 83.332C86.9206 83.332 83.6341 83.332 83.1399 84.1536Z" fill="#0C8CE9"/>
<path opacity="0.5" d="M83.1399 84.1536C83.1399 84.1536 82.3183 88.7621 81.6573 93.8586C80.9963 98.9551 80.5083 102.748 80.5083 102.748L83.523 93.3211L86.9206 83.332C86.9206 83.332 83.6341 83.332 83.1399 84.1536Z" fill="white"/>
<path d="M83.5227 93.3211C82.8432 91.0601 87.1489 82.4424 87.1489 82.4424L73.5583 83.1219C73.5583 83.1219 72.8787 89.0153 71.9706 90.152C71.0625 91.2887 69.7035 89.0153 66.5282 87.4338C66.2873 87.3103 66.0217 87.1929 65.7498 87.0756L64.9282 99.9928C64.9282 99.9928 66.1205 112.502 80.4154 110.124C86.2038 109.16 92.3813 103.996 97.7126 98.189C92.2269 97.182 84.0416 95.057 83.5227 93.3211Z" stroke="#263238" stroke-linecap="round" stroke-linejoin="round"/>
<path d="M71.9648 90.152C71.0567 91.2825 69.6976 89.0153 66.5223 87.4339C64.5208 86.4269 61.3332 85.5127 58.6954 84.5242C57.9479 82.7513 56.9595 80.4409 56.3232 79.0447C55.1927 76.5737 53.3765 78.1366 53.3765 78.1366C52.429 77.059 51.6632 75.8342 51.1093 74.5104C49.9788 72.0394 48.1626 72.2433 45.6731 71.7923C43.1835 71.3413 37.9635 66.5784 37.9635 66.5784C37.9635 66.5784 35.5233 64.7251 34.5164 63.8047C33.3426 66.1151 30.5318 70.1799 24.4531 72.7189C34.1457 82.844 53.8089 102.081 55.8722 103.526C58.1394 105.108 57.4598 109.642 55.8722 114.177C54.2846 118.711 48.3912 125.296 48.6198 132.536C48.8483 139.776 51.0908 150.896 50.8869 153.163C50.6831 155.183 46.1611 161.515 45.1789 162.874L47.4831 163.134H59.4799C59.412 157.055 59.4181 132.246 63.5756 122.362C68.3385 111.001 71.9648 90.152 71.9648 90.152Z" fill="#0C8CE9"/>
<path opacity="0.16" d="M66.5222 87.4339C64.5207 86.4269 61.3331 85.5126 58.6953 84.5242C57.9478 82.7513 56.9594 80.4409 56.3231 79.0447C55.1926 76.5737 53.3764 78.1366 53.3764 78.1366C52.4289 77.059 51.6631 75.8342 51.1092 74.5104C49.9787 72.0394 48.1625 72.2433 45.6729 71.7923C43.1834 71.3413 37.9634 66.5784 37.9634 66.5784C37.9634 66.5784 35.5232 64.7251 34.5163 63.8047C34.0138 64.7857 33.4158 65.7148 32.731 66.5784C36.7834 70.007 41.256 73.6394 42.8189 74.3621C45.9077 75.7892 46.6305 74.5969 48.9965 76.0301C51.3625 77.4633 54.0003 82.2077 54.0003 82.2077C54.0003 82.2077 55.4335 78.3899 56.6258 81.0154C57.818 83.6409 60.6782 88.1628 60.6782 88.1628C60.6782 88.1628 64.4898 90.3064 65.4412 90.3064C66.1886 90.3064 69.8519 92.2091 71.4087 93.0307C71.7546 91.2207 71.9461 90.1335 71.9461 90.1335C71.0566 91.2825 69.6975 89.0153 66.5222 87.4339Z" fill="black"/>
<path d="M71.9648 90.152C71.0567 91.2825 69.6976 89.0153 66.5223 87.4339C64.5208 86.4269 61.3332 85.5127 58.6954 84.5242C57.9479 82.7513 56.9595 80.4409 56.3232 79.0447C55.1927 76.5737 53.3765 78.1366 53.3765 78.1366C52.429 77.059 51.6632 75.8342 51.1093 74.5104C49.9788 72.0394 48.1626 72.2433 45.6731 71.7923C43.1835 71.3413 37.9635 66.5784 37.9635 66.5784C37.9635 66.5784 35.5233 64.7251 34.5164 63.8047C33.3426 66.1151 30.5318 70.1799 24.4531 72.7189C34.1457 82.844 53.8089 102.081 55.8722 103.526C58.1394 105.108 57.4598 109.642 55.8722 114.177C54.2846 118.711 48.3912 125.296 48.6198 132.536C48.8483 139.776 51.0908 150.896 50.8869 153.163C50.6831 155.183 46.1611 161.515 45.1789 162.874L47.4831 163.134H59.4799C59.412 157.055 59.4181 132.246 63.5756 122.362C68.3385 111.001 71.9648 90.152 71.9648 90.152Z" stroke="#263238" stroke-linecap="round" stroke-linejoin="round"/>
<path d="M72.1251 89.3613C72.1251 89.3613 69.3081 88.4964 67.5722 90.0161C65.8363 91.5358 63.2479 99.3319 61.722 107.789C60.7816 112.712 61.4306 117.807 63.5753 122.337C63.5753 122.337 67.1398 112.99 68.2208 108.438C69.3019 103.885 72.1251 89.3613 72.1251 89.3613Z" fill="#0C8CE9"/>
<path opacity="0.16" d="M66.7197 90.7382C66.7197 90.7382 68.7583 90.244 69.5985 90.5282C70.3059 90.8316 70.9672 91.233 71.5629 91.7205L72.1251 89.3606C71.2818 88.9298 70.3254 88.7721 69.3884 88.9097C67.9861 89.1938 66.7197 90.7382 66.7197 90.7382Z" fill="black"/>
<path d="M72.1251 89.3613C72.1251 89.3613 69.3081 88.4964 67.5722 90.0161C65.8363 91.5358 63.2479 99.3319 61.722 107.789C60.7816 112.712 61.4306 117.807 63.5753 122.337C63.5753 122.337 67.1398 112.99 68.2208 108.438C69.3019 103.885 72.1251 89.3613 72.1251 89.3613Z" stroke="#263238" stroke-linecap="round" stroke-linejoin="round"/>
<path d="M53.154 90.1028L56.7802 104.836L48.6196 86.248" stroke="#263238" stroke-linecap="round" stroke-linejoin="round"/>
<path d="M77.0426 163.134H103.47C103.47 163.134 96.1807 153.868 96.1807 150.698C96.1807 147.529 106.188 106.924 106.639 103.978C107.09 101.031 105.28 98.9923 101.654 98.7637C98.0278 98.5352 84.2024 95.5885 83.5228 93.3213C83.5228 93.3213 78.309 111.681 76.499 124.147C74.9422 134.841 76.5546 157.03 77.0426 163.134Z" fill="#0C8CE9"/>
<path opacity="0.16" d="M101.654 98.7633C98.6825 98.578 88.8664 96.5641 85.0425 94.5996L86.4324 97.8119C88.9508 99.148 91.6593 100.09 94.4633 100.604C99.0655 101.426 103.347 101.265 106.145 105.379L106.281 105.583C106.454 104.793 106.571 104.237 106.608 103.977C107.096 101.03 105.28 98.9919 101.654 98.7633Z" fill="black"/>
<path d="M77.0426 163.134H103.47C103.47 163.134 96.1807 153.868 96.1807 150.698C96.1807 147.529 106.188 106.924 106.639 103.978C107.09 101.031 105.28 98.9923 101.654 98.7637C98.0278 98.5352 84.2024 95.5885 83.5228 93.3213C83.5228 93.3213 78.309 111.681 76.499 124.147C74.9422 134.841 76.5546 157.03 77.0426 163.134Z" stroke="#263238" stroke-linecap="round" stroke-linejoin="round"/>
<path d="M83.5229 93.3213C83.5229 93.3213 76.5299 115.561 76.499 124.147C76.499 124.147 86.4325 112.12 87.7298 103.669C89.0271 95.2178 83.5229 93.3213 83.5229 93.3213Z" fill="#0C8CE9"/>
<path opacity="0.16" d="M82.3184 96.163C83.3691 96.1278 84.4127 96.349 85.3587 96.8075C86.3048 97.266 87.125 97.948 87.7484 98.7946C87.7484 98.7946 86.377 94.7607 83.523 93.3213L82.3184 96.163Z" fill="black"/>
<path d="M83.5229 93.3213C83.5229 93.3213 76.5299 115.561 76.499 124.147C76.499 124.147 86.4325 112.12 87.7298 103.669C89.0271 95.2178 83.5229 93.3213 83.5229 93.3213Z" stroke="#263238" stroke-linecap="round" stroke-linejoin="round"/>
<path d="M158.178 158.951C158.178 158.951 163.3 159.161 166.654 159.643C168.891 159.946 171.143 160.126 173.4 160.18C173.4 160.18 171.547 156.437 169.57 155.38C167.593 154.324 164.01 152.434 161.008 152.854C158.005 153.274 153.712 156.301 154.07 157.265C154.429 158.228 156.029 158.661 158.178 158.951Z" fill="white"/>
<path d="M158.178 158.951C158.178 158.951 163.3 159.161 166.654 159.643C168.891 159.946 171.143 160.126 173.4 160.18C173.4 160.18 171.547 156.437 169.57 155.38C167.593 154.324 164.01 152.434 161.008 152.854C158.005 153.274 153.712 156.301 154.07 157.265C154.429 158.228 156.029 158.661 158.178 158.951Z" fill="#0C8CE9"/>
<path opacity="0.5" d="M158.178 158.951C158.178 158.951 163.3 159.161 166.654 159.643C168.891 159.946 171.143 160.126 173.4 160.18C173.4 160.18 171.547 156.437 169.57 155.38C167.593 154.324 164.01 152.434 161.008 152.854C158.005 153.274 153.712 156.301 154.07 157.265C154.429 158.228 156.029 158.661 158.178 158.951Z" fill="white"/>
<path d="M158.178 158.951C158.178 158.951 163.3 159.161 166.654 159.643C168.891 159.946 171.143 160.126 173.4 160.18C173.4 160.18 171.547 156.437 169.57 155.38C167.593 154.324 164.01 152.434 161.008 152.854C158.005 153.274 153.712 156.301 154.07 157.265C154.429 158.228 156.029 158.661 158.178 158.951Z" stroke="#263238" stroke-linecap="round" stroke-linejoin="round"/>
<path d="M163.788 153.954C163.788 153.954 169.2 153.781 170.275 154.325C171.349 154.868 176.205 163.196 175.476 163.801C174.747 164.406 172.733 164.227 172.795 163.554C172.857 162.88 168.322 158.42 168.322 158.42L164.795 157.648L163.788 153.954Z" stroke="#263238" stroke-linecap="round" stroke-linejoin="round"/>
<path d="M160.582 152.835C160.582 152.835 166.061 152.656 167.148 153.212C168.236 153.768 173.153 162.188 172.412 162.806C171.67 163.423 169.644 163.232 169.706 162.552C169.768 161.873 165.178 157.357 165.178 157.357L161.607 156.573L160.582 152.835Z" fill="white"/>
<path d="M160.582 152.835C160.582 152.835 166.061 152.656 167.148 153.212C168.236 153.768 173.153 162.188 172.412 162.806C171.67 163.423 169.644 163.232 169.706 162.552C169.768 161.873 165.178 157.357 165.178 157.357L161.607 156.573L160.582 152.835Z" fill="#0C8CE9"/>
<path opacity="0.5" d="M160.582 152.835C160.582 152.835 166.061 152.656 167.148 153.212C168.236 153.768 173.153 162.188 172.412 162.806C171.67 163.423 169.644 163.232 169.706 162.552C169.768 161.873 165.178 157.357 165.178 157.357L161.607 156.573L160.582 152.835Z" fill="white"/>
<path d="M160.582 152.835C160.582 152.835 166.061 152.656 167.148 153.212C168.236 153.768 173.153 162.188 172.412 162.806C171.67 163.423 169.644 163.232 169.706 162.552C169.768 161.873 165.178 157.357 165.178 157.357L161.607 156.573L160.582 152.835Z" stroke="#263238" stroke-linecap="round" stroke-linejoin="round"/>
<path d="M98.2811 121.441C102.247 127.551 110.21 143.032 112.533 144.774C116.159 147.492 140.4 154.09 142.735 155.894C145.07 157.697 144.909 159.508 147.121 160.169C149.333 160.83 157.623 162.726 160.786 163.023C163.949 163.319 162.534 161.361 162.534 161.361L157.141 157.654L161.842 156.493C161.842 156.493 166.556 162.164 167.439 162.473C168.322 162.782 169.879 162.473 169.78 161.775C169.607 160.657 164.579 151.508 162.793 151.118C161.008 150.729 150.173 152.23 150.173 152.23C150.173 152.23 127.445 136.904 127.038 136.36C127.038 136.36 125.679 132.505 124.567 130.918C123.455 129.33 122.75 129.787 122.75 129.787C122.75 129.787 123.208 127.742 122.528 127.063L118.902 123.437L118.772 123.61C118.154 122.374 117.537 120.966 116.857 119.36C114.961 114.893 108.246 102.359 107.115 100.549C106.269 99.196 99.1769 98.2261 95.5815 97.8184" fill="#0C8CE9"/>
<path opacity="0.16" d="M114.071 121.831C117.036 124.462 116.048 124.462 115.387 126.773C114.726 129.083 115.881 125.951 118.679 126.118C121.478 126.285 120.656 129.898 120.323 130.559C119.989 131.22 123.782 132.042 123.121 133.519C122.46 134.995 118.679 137.139 116.542 139.282C114.405 141.426 122.133 135.823 124.764 135.662C125.567 135.607 126.228 135.712 126.784 135.699C126.201 134.046 125.452 132.457 124.548 130.955C123.411 129.367 122.732 129.824 122.732 129.824C122.732 129.824 123.189 127.78 122.51 127.1L118.883 123.474L118.754 123.647C118.136 122.411 117.518 121.003 116.839 119.397C114.942 114.93 108.227 102.396 107.097 100.586C106.25 99.2331 99.1583 98.2632 95.563 97.8555L95.8904 100.716L95.9707 100.777C95.9707 100.777 100.412 101.599 101.895 101.766C103.378 101.933 105.188 103.242 105.021 104.237C104.854 105.231 100.579 109.667 101.895 110.001C103.211 110.334 104.693 106.708 106.176 107.202C107.659 107.696 111.087 119.199 114.071 121.831Z" fill="black"/>
<path d="M98.2811 121.441C102.247 127.551 110.21 143.032 112.533 144.774C116.159 147.492 140.4 154.09 142.735 155.894C145.07 157.697 144.909 159.508 147.121 160.169C149.333 160.83 157.623 162.726 160.786 163.023C163.949 163.319 162.534 161.361 162.534 161.361L157.141 157.654L161.842 156.493C161.842 156.493 166.556 162.164 167.439 162.473C168.322 162.782 169.879 162.473 169.78 161.775C169.607 160.657 164.579 151.508 162.793 151.118C161.008 150.729 150.173 152.23 150.173 152.23C150.173 152.23 127.445 136.904 127.038 136.36C127.038 136.36 125.679 132.505 124.567 130.918C123.455 129.33 122.75 129.787 122.75 129.787C122.75 129.787 123.208 127.742 122.528 127.063L118.902 123.437L118.772 123.61C118.154 122.374 117.537 120.966 116.857 119.36C114.961 114.893 108.246 102.359 107.115 100.549C106.269 99.196 99.1769 98.2261 95.5815 97.8184" stroke="#263238" stroke-linecap="round" stroke-linejoin="round"/>
<path d="M98.3429 113.059C98.1761 113.615 98.034 114.171 97.9229 114.739" stroke="#263238" stroke-linecap="round" stroke-linejoin="round"/>
<path d="M104.347 102.834C102.406 105.047 100.769 107.508 99.4795 110.154" stroke="#263238" stroke-linecap="round" stroke-linejoin="round"/>
<path d="M113.422 137.911C115.09 135.44 117.747 132.308 120.675 131.412" stroke="#263238" stroke-linecap="round" stroke-linejoin="round"/>
<path d="M111.575 140.95C111.575 140.95 111.872 140.369 112.403 139.492" stroke="#263238" stroke-linecap="round" stroke-linejoin="round"/>
<path d="M111.575 137.046C111.575 137.046 114.608 129.46 117.642 127.508C120.675 125.555 118.939 129.46 118.939 129.46" stroke="#263238" stroke-linecap="round" stroke-linejoin="round"/>
<path d="M142.735 155.899C145.076 157.709 144.909 159.513 147.121 160.174C149.332 160.835 157.623 162.732 160.785 163.028C163.948 163.325 162.534 161.366 162.534 161.366L157.141 157.66L161.842 156.498C161.842 156.498 166.555 162.169 167.439 162.478C168.322 162.787 170.002 162.898 169.78 161.78C169.348 159.618 164.578 151.513 162.793 151.124C161.008 150.735 150.172 152.236 150.172 152.236C150.172 152.236 129.471 138.027 127.204 136.489C118.414 137.336 114.231 141.938 112.471 144.699L112.532 144.749C116.159 147.491 140.399 154.089 142.735 155.899Z" fill="white"/>
<path d="M169.774 161.806C168.65 159.057 164.573 151.538 162.787 151.149C161.002 150.76 150.167 152.261 150.167 152.261C150.167 152.261 129.466 138.053 127.198 136.515C124.891 136.715 122.627 137.263 120.483 138.139C123.751 139.993 145.533 152.348 148.282 152.898C151.198 153.515 160.928 151.915 162.639 153.064C163.726 153.793 166.963 158.927 169.15 162.572C169.774 162.479 170.003 162.362 169.774 161.806Z" fill="#0C8CE9"/>
<path opacity="0.5" d="M169.774 161.806C168.02 157.87 164.573 151.538 162.787 151.149C161.002 150.76 150.167 152.261 150.167 152.261C150.167 152.261 129.466 138.053 127.198 136.515C124.891 136.715 122.627 137.263 120.483 138.139C123.751 139.993 145.533 152.348 148.282 152.898C151.198 153.515 160.928 151.915 162.639 153.064C163.726 153.793 166.963 158.927 169.15 162.572C169.774 162.479 170.021 162.355 169.774 161.806Z" fill="white"/>
<path d="M142.735 155.899C145.076 157.709 144.909 159.513 147.121 160.174C149.332 160.835 157.623 162.732 160.785 163.028C163.948 163.325 162.534 161.366 162.534 161.366L157.141 157.66L161.842 156.498C161.842 156.498 166.555 162.169 167.439 162.478C168.322 162.787 170.002 162.898 169.78 161.78C169.348 159.618 164.578 151.513 162.793 151.124C161.008 150.735 150.172 152.236 150.172 152.236C150.172 152.236 129.471 138.027 127.204 136.489C118.414 137.336 114.231 141.938 112.471 144.699L112.532 144.749C116.159 147.491 140.399 154.089 142.735 155.899Z" stroke="#263238" stroke-linecap="round" stroke-linejoin="round"/>
<path d="M88.1375 48.0273L69.5306 55.7925C69.3051 59.0627 68.4954 62.2659 67.1399 65.2504C64.9407 69.9021 66.2256 78.7051 68.3384 83.4557C70.4511 88.2062 79.7607 86.3468 83.1645 85.7537C85.4731 85.3146 87.7342 84.6546 89.9166 83.7831C90.9103 84.166 91.9852 84.2899 93.0399 84.1429C94.0947 83.9959 95.0947 83.583 95.9459 82.9429C95.9459 82.9429 85.9877 54.9895 88.1375 48.0273Z" fill="white"/>
<path d="M88.1375 48.0273L69.5306 55.7925C69.3051 59.0627 68.4954 62.2659 67.1399 65.2504C64.9407 69.9021 66.2256 78.7051 68.3384 83.4557C68.692 84.2196 69.261 84.8637 69.9754 85.3089V84.9506C69.9754 84.9506 66.5222 76.3947 67.177 71.4588C67.8318 66.523 70.6364 64.0458 70.9638 60.9261C71.2913 57.8064 71.1245 56.3238 77.3823 54.0196C83.6402 51.7153 86.2657 49.5779 86.9205 51.876C87.5753 54.174 90.2131 69.3214 92.0232 72.9415C93.8332 76.5615 93.6664 80.3545 90.8741 81.9916C88.052 83.6857 85.0281 85.0181 81.8734 85.9576L83.1892 85.729C85.4978 85.2899 87.7589 84.6299 89.9413 83.7584C90.935 84.1414 92.0099 84.2652 93.0646 84.1182C94.1194 83.9712 95.1194 83.5583 95.9706 82.9182C95.9706 82.9182 85.9877 54.9895 88.1375 48.0273Z" fill="#0C8CE9"/>
<path opacity="0.5" d="M88.1375 48.0273L69.5306 55.7925C69.3051 59.0627 68.4954 62.2659 67.1399 65.2504C64.9407 69.9021 66.2256 78.7051 68.3384 83.4557C68.692 84.2196 69.261 84.8637 69.9754 85.3089V84.9506C69.9754 84.9506 66.5222 76.3947 67.177 71.4588C67.8318 66.523 70.6364 64.0458 70.9638 60.9261C71.2913 57.8064 71.1245 56.3238 77.3823 54.0196C83.6402 51.7153 86.2657 49.5779 86.9205 51.876C87.5753 54.174 90.2131 69.3214 92.0232 72.9415C93.8332 76.5615 93.6664 80.3545 90.8741 81.9916C88.052 83.6857 85.0281 85.0181 81.8734 85.9576L83.1892 85.729C85.4978 85.2899 87.7589 84.6299 89.9413 83.7584C90.935 84.1414 92.0099 84.2652 93.0646 84.1182C94.1194 83.9712 95.1194 83.5583 95.9706 82.9182C95.9706 82.9182 85.9877 54.9895 88.1375 48.0273Z" fill="white"/>
<path d="M88.1375 48.0273L69.5306 55.7925C69.3051 59.0627 68.4954 62.2659 67.1399 65.2504C64.9407 69.9021 66.2256 78.7051 68.3384 83.4557C70.4511 88.2062 79.7607 86.3468 83.1645 85.7537C85.4731 85.3146 87.7342 84.6546 89.9166 83.7831C90.9103 84.1661 91.9852 84.2899 93.0399 84.1429C94.0947 83.9959 95.0947 83.583 95.9459 82.9429C95.9459 82.9429 85.9877 54.9895 88.1375 48.0273Z" stroke="#263238" stroke-linecap="round" stroke-linejoin="round"/>
<path d="M96.2175 88.2247C96.2175 89.6641 95.4021 90.8317 94.4013 90.8317C93.4006 90.8317 92.5913 89.6641 92.5913 88.2247C92.5913 86.7854 93.4006 83.1221 94.4013 83.1221C95.4021 83.1221 96.2175 86.7854 96.2175 88.2247Z" fill="#0C8CE9" stroke="#263238" stroke-linecap="round" stroke-linejoin="round"/>
<path d="M112.142 167.355H44.3934L42.1844 130.111C42.1233 129.75 42.1413 129.38 42.2371 129.027C42.3329 128.673 42.5043 128.345 42.7394 128.064C42.9745 127.783 43.2677 127.557 43.5988 127.4C43.9299 127.244 44.291 127.161 44.6572 127.157H111.852C112.22 127.157 112.584 127.237 112.919 127.392C113.253 127.547 113.55 127.773 113.787 128.054C114.025 128.335 114.199 128.665 114.297 129.02C114.394 129.376 114.412 129.748 114.351 130.111L112.142 167.355Z" fill="#263238" stroke="#263238" stroke-linecap="round" stroke-linejoin="round"/>
<path d="M47.73 128.047H111.364C111.723 128.043 112.079 128.118 112.407 128.267C112.734 128.415 113.025 128.633 113.26 128.906C113.494 129.178 113.666 129.499 113.763 129.845C113.861 130.191 113.881 130.554 113.823 130.909" stroke="white" stroke-linecap="round" stroke-linejoin="round"/>
<path d="M42.6787 130.323C42.7318 129.7 43.0179 129.119 43.4799 128.698C43.9419 128.276 44.5458 128.044 45.1713 128.048" stroke="white" stroke-linecap="round" stroke-linejoin="round"/>
<path d="M112.426 163.729H44.1099V167.355H112.426V163.729Z" fill="white" stroke="#263238" stroke-linecap="round" stroke-linejoin="round"/>
<path d="M82.0176 147.677C82.5144 147.205 82.8706 146.6 83.0456 145.931C83.2205 145.262 83.2071 144.557 83.0068 143.896C82.8064 143.234 82.4274 142.644 81.9129 142.192C81.3985 141.739 80.7695 141.444 80.098 141.339C79.4265 141.235 78.7396 141.325 78.116 141.599C77.4923 141.874 76.9572 142.321 76.5718 142.891C76.1864 143.461 75.9663 144.131 75.9368 144.822C75.9072 145.514 76.0694 146.2 76.4048 146.801L75.67 147.5L75.8458 148.746L74.7037 148.418L73.784 149.296L73.9598 150.54L72.8177 150.214L72.0258 150.968L72.1325 151.733L71.4367 151.536L70.9754 151.974L70.9062 153.126L72.5938 153.558L78.0713 148.352C78.7213 148.648 79.4425 148.742 80.1445 148.622C80.8465 148.502 81.4981 148.173 82.0176 147.677ZM81.4826 143.144C81.6228 143.297 81.7153 143.489 81.7485 143.695C81.7816 143.902 81.7539 144.114 81.6687 144.304C81.5836 144.495 81.445 144.655 81.2703 144.765C81.0956 144.876 80.8928 144.93 80.6875 144.923C80.4822 144.916 80.2836 144.847 80.1169 144.724C79.9502 144.602 79.8228 144.432 79.7509 144.236C79.679 144.04 79.6658 143.827 79.713 143.623C79.7602 143.419 79.8656 143.234 80.0159 143.092C80.1155 142.997 80.2325 142.923 80.3601 142.874C80.4878 142.826 80.6236 142.803 80.7598 142.808C80.8961 142.813 81.03 142.845 81.154 142.902C81.278 142.96 81.3897 143.042 81.4826 143.144Z" fill="#F8F8F8"/>
</g>
</svg>
