<svg width="359" height="407" viewBox="0 0 359 407" fill="none" xmlns="http://www.w3.org/2000/svg">
<g clip-path="url(#clip0_1241_4015)">
<path d="M26.778 192.156C26.9197 197.445 27.8058 202.688 29.4101 207.73C29.4457 207.847 29.4852 207.962 29.5236 208.079H39.3453C39.335 207.974 39.3243 207.857 39.314 207.73C38.6592 200.202 42.4003 154.927 46.9148 147.091C46.5192 147.726 26.0165 168.235 26.778 192.156Z" fill="#F1F1F1"/>
<path d="M27.5151 207.73C27.5973 207.847 27.6826 207.964 27.7701 208.079H35.1386C35.0828 207.98 35.0181 207.862 34.943 207.73C33.7258 205.533 30.123 198.965 26.7788 192.156C23.1864 184.839 19.8877 177.244 20.1655 174.495C20.0794 175.115 17.5924 194.014 27.5151 207.73Z" fill="#F1F1F1"/>
<path d="M241.849 42.8885C242.13 43.5838 242.56 44.209 243.109 44.7201C243.658 45.2311 244.312 45.6156 245.026 45.8465C245.739 46.0774 246.495 46.149 247.239 46.0563C247.983 45.9636 248.698 45.7088 249.333 45.31L263.554 56.7168L264.434 47.2845L250.795 37.8984C250.054 36.8759 248.964 36.1606 247.731 35.8881C246.498 35.6157 245.208 35.8049 244.106 36.42C243.003 37.0351 242.164 38.0333 241.748 39.2255C241.332 40.4177 241.368 41.721 241.849 42.8885Z" fill="#9F616A"/>
<path d="M263.872 46.3985L258.564 42.6484L252.544 49.604L259.547 53.7542L263.872 46.3985Z" fill="#0C8CE9"/>
<path d="M262.709 43.8547L280.596 50.737L297.814 39.4624C299.594 38.2971 301.737 37.8193 303.842 38.1181C305.948 38.417 307.874 39.472 309.259 41.0864C310.643 42.7007 311.394 44.7639 311.369 46.8907C311.344 49.0176 310.546 51.0627 309.124 52.6443L308.97 52.8153L282.487 67.0139L253.56 53.799L262.709 43.8547Z" fill="#3F3D56"/>
<path d="M257.666 207.368H71.2842L78.0423 75.4062H107.209L134.104 94.2579H264.424L257.666 207.368Z" fill="#E5E5E5"/>
<path d="M212.042 167.126L104.315 122.761C103.939 122.606 103.639 122.307 103.483 121.931C103.326 121.555 103.325 121.132 103.48 120.755L152.292 2.22753C152.448 1.85092 152.747 1.55141 153.123 1.3947C153.499 1.23799 153.922 1.23689 154.299 1.39163L262.025 45.7563C262.402 45.9119 262.701 46.2105 262.858 46.5867C263.015 46.9629 263.016 47.3858 262.861 47.7628L214.048 166.29C213.893 166.667 213.594 166.966 213.218 167.123C212.842 167.28 212.419 167.281 212.042 167.126Z" fill="white"/>
<path d="M212.042 167.126L104.315 122.761C103.939 122.606 103.639 122.307 103.483 121.931C103.326 121.555 103.325 121.132 103.48 120.755L152.292 2.22753C152.448 1.85092 152.747 1.55141 153.123 1.3947C153.499 1.23799 153.922 1.23689 154.299 1.39163L262.025 45.7563C262.402 45.9119 262.701 46.2105 262.858 46.5867C263.015 46.9629 263.016 47.3858 262.861 47.7628L214.048 166.29C213.893 166.667 213.594 166.966 213.218 167.123C212.842 167.28 212.419 167.281 212.042 167.126ZM154.065 1.96011C153.839 1.86725 153.585 1.86791 153.359 1.96193C153.133 2.05596 152.954 2.23567 152.861 2.46165L104.048 120.989C103.955 121.215 103.956 121.469 104.05 121.695C104.144 121.92 104.324 122.1 104.55 122.193L212.276 166.558C212.502 166.65 212.756 166.65 212.981 166.556C213.207 166.462 213.386 166.282 213.48 166.056L262.293 47.5287C262.385 47.3025 262.385 47.0487 262.291 46.823C262.197 46.5973 262.017 46.4181 261.791 46.3248L154.065 1.96011Z" fill="#3F3D56"/>
<path d="M184.49 60.0642L157.772 49.0608C157.395 48.9052 157.096 48.6066 156.939 48.2304C156.782 47.8542 156.781 47.4313 156.936 47.0543L167.939 20.3359C168.095 19.9593 168.394 19.6598 168.77 19.5031C169.146 19.3464 169.569 19.3453 169.946 19.5L196.664 30.5034C197.041 30.659 197.34 30.9576 197.497 31.3338C197.654 31.71 197.655 32.1329 197.5 32.5099L186.497 59.2283C186.341 59.6049 186.043 59.9044 185.666 60.0611C185.29 60.2178 184.867 60.2189 184.49 60.0642ZM169.712 20.0685C169.486 19.9756 169.232 19.9763 169.006 20.0703C168.78 20.1644 168.601 20.3441 168.508 20.57L157.505 47.2884C157.412 47.5146 157.412 47.7684 157.506 47.9941C157.6 48.2198 157.78 48.399 158.006 48.4923L184.724 59.4957C184.951 59.5886 185.204 59.5879 185.43 59.4939C185.656 59.3999 185.835 59.2201 185.928 58.9942L196.932 32.2758C197.025 32.0496 197.024 31.7958 196.93 31.5701C196.836 31.3444 196.656 31.1652 196.43 31.0719L169.712 20.0685Z" fill="#F2F2F2"/>
<path d="M175.47 60.1727L148.752 49.1694C148.413 49.0293 148.143 48.7605 148.002 48.422C147.861 48.0835 147.86 47.7028 147.999 47.3635L159.003 20.6451C159.143 20.3062 159.411 20.0366 159.75 19.8956C160.089 19.7545 160.469 19.7535 160.808 19.8928L187.527 30.8962C187.866 31.0362 188.135 31.305 188.276 31.6435C188.417 31.9821 188.418 32.3628 188.279 32.702L177.276 59.4204C177.136 59.7594 176.867 60.029 176.528 60.17C176.19 60.311 175.809 60.312 175.47 60.1727Z" fill="#0C8CE9"/>
<path d="M226.933 96.6592L143.367 62.2444C143.199 62.1752 143.046 62.0736 142.917 61.9454C142.789 61.8172 142.686 61.665 142.617 61.4973C142.547 61.3296 142.511 61.1498 142.51 60.9681C142.51 60.7865 142.545 60.6065 142.614 60.4386C142.684 60.2706 142.785 60.1179 142.913 59.9892C143.042 59.8605 143.194 59.7583 143.362 59.6884C143.529 59.6186 143.709 59.5824 143.891 59.582C144.072 59.5817 144.252 59.6171 144.42 59.6863L227.986 94.1011C228.326 94.2408 228.595 94.5095 228.737 94.8482C228.878 95.1868 228.878 95.5676 228.739 95.9069C228.599 96.2461 228.33 96.5159 227.992 96.657C227.653 96.7981 227.272 96.7989 226.933 96.6592Z" fill="#CCCCCC"/>
<path d="M203.123 97.1597L139.738 71.0559C139.57 70.9867 139.418 70.8852 139.289 70.757C139.16 70.6288 139.058 70.4765 138.988 70.3088C138.918 70.1411 138.882 69.9613 138.882 69.7797C138.881 69.598 138.917 69.4181 138.986 69.2501C139.055 69.0821 139.157 68.9294 139.285 68.8007C139.413 68.672 139.565 68.5698 139.733 68.4999C139.901 68.4301 140.081 68.3939 140.262 68.3936C140.444 68.3932 140.624 68.4286 140.792 68.4978L204.177 94.6015C204.516 94.7412 204.786 95.01 204.927 95.3486C205.068 95.6873 205.069 96.0681 204.929 96.4074C204.79 96.7466 204.521 97.0164 204.182 97.1575C203.844 97.2986 203.463 97.2994 203.123 97.1597Z" fill="#CCCCCC"/>
<path d="M239.993 64.1386L203.042 48.9211C202.874 48.852 202.721 48.7504 202.593 48.6222C202.464 48.494 202.362 48.3417 202.292 48.174C202.222 48.0063 202.186 47.8265 202.186 47.6449C202.185 47.4632 202.221 47.2833 202.29 47.1153C202.359 46.9473 202.461 46.7946 202.589 46.6659C202.717 46.5372 202.869 46.435 203.037 46.3652C203.205 46.2953 203.384 46.2592 203.566 46.2588C203.748 46.2584 203.928 46.2938 204.096 46.363L241.047 61.5804C241.386 61.7201 241.656 61.9889 241.797 62.3275C241.938 62.6662 241.939 63.047 241.799 63.3863C241.659 63.7255 241.39 63.9953 241.052 64.1364C240.713 64.2775 240.332 64.2783 239.993 64.1386Z" fill="#CCCCCC"/>
<path d="M227.143 69.1523L199.414 57.7327C199.074 57.593 198.805 57.3242 198.664 56.9856C198.522 56.6469 198.522 56.2661 198.661 55.9268C198.801 55.5876 199.07 55.3178 199.408 55.1767C199.747 55.0356 200.128 55.0348 200.467 55.1745L228.196 66.5942C228.536 66.7339 228.806 67.0027 228.947 67.3413C229.088 67.68 229.088 68.0608 228.949 68.4C228.809 68.7393 228.54 69.0091 228.202 69.1502C227.863 69.2913 227.482 69.2921 227.143 69.1523Z" fill="#CCCCCC"/>
<path d="M219.675 114.281L136.109 79.8665C135.941 79.7973 135.789 79.6957 135.66 79.5675C135.531 79.4393 135.429 79.287 135.359 79.1194C135.289 78.9517 135.253 78.7719 135.253 78.5902C135.253 78.4085 135.288 78.2286 135.357 78.0606C135.426 77.8927 135.528 77.74 135.656 77.6112C135.784 77.4825 135.937 77.3803 136.104 77.3105C136.272 77.2406 136.452 77.2045 136.633 77.2041C136.815 77.2037 136.995 77.2391 137.163 77.3083L220.729 111.723C221.068 111.863 221.338 112.132 221.479 112.47C221.62 112.809 221.621 113.19 221.481 113.529C221.342 113.868 221.073 114.138 220.734 114.279C220.396 114.42 220.015 114.421 219.675 114.281Z" fill="#CCCCCC"/>
<path d="M195.866 114.782L132.481 88.678C132.313 88.6088 132.16 88.5072 132.031 88.379C131.902 88.2508 131.8 88.0986 131.73 87.9309C131.661 87.7632 131.624 87.5834 131.624 87.4017C131.624 87.2201 131.659 87.0401 131.728 86.8721C131.797 86.7042 131.899 86.5515 132.027 86.4228C132.155 86.2941 132.308 86.1919 132.475 86.122C132.643 86.0521 132.823 86.016 133.004 86.0156C133.186 86.0153 133.366 86.0507 133.534 86.1198L196.919 112.224C197.087 112.293 197.24 112.394 197.369 112.523C197.497 112.651 197.6 112.803 197.669 112.971C197.739 113.138 197.775 113.318 197.776 113.5C197.776 113.682 197.741 113.861 197.672 114.029C197.602 114.197 197.501 114.35 197.373 114.479C197.244 114.608 197.092 114.71 196.924 114.78C196.757 114.849 196.577 114.886 196.395 114.886C196.214 114.886 196.034 114.851 195.866 114.782Z" fill="#CCCCCC"/>
<path d="M212.418 131.904L128.852 97.4895C128.512 97.3498 128.243 97.0811 128.101 96.7424C127.96 96.4037 127.96 96.0229 128.099 95.6837C128.239 95.3445 128.508 95.0746 128.846 94.9335C129.185 94.7924 129.566 94.7917 129.905 94.9314L213.471 129.346C213.81 129.486 214.08 129.755 214.221 130.093C214.362 130.432 214.363 130.813 214.223 131.152C214.084 131.491 213.815 131.761 213.476 131.902C213.138 132.043 212.757 132.044 212.418 131.904Z" fill="#CCCCCC"/>
<path d="M208.789 140.716L125.223 106.301C124.884 106.161 124.614 105.893 124.473 105.554C124.332 105.215 124.331 104.834 124.471 104.495C124.611 104.156 124.879 103.886 125.218 103.745C125.557 103.604 125.938 103.603 126.277 103.743L209.843 138.158C210.011 138.227 210.163 138.328 210.292 138.457C210.421 138.585 210.523 138.737 210.593 138.905C210.663 139.072 210.699 139.252 210.699 139.434C210.7 139.616 210.664 139.796 210.595 139.964C210.526 140.131 210.424 140.284 210.296 140.413C210.168 140.542 210.016 140.644 209.848 140.714C209.68 140.784 209.5 140.82 209.319 140.82C209.137 140.82 208.957 140.785 208.789 140.716Z" fill="#CCCCCC"/>
<path d="M168.022 140.062C169.694 140.15 171.371 140.099 173.035 139.909C174.533 139.734 176.094 139.492 177.408 138.705C177.976 138.381 178.459 137.927 178.819 137.381C179.179 136.835 179.405 136.212 179.478 135.562C179.536 134.944 179.396 134.323 179.078 133.79C178.76 133.257 178.28 132.839 177.709 132.597C177.129 132.353 176.494 132.27 175.871 132.357C175.247 132.444 174.66 132.698 174.169 133.093C173.645 133.548 173.231 134.115 172.957 134.753C172.683 135.39 172.556 136.081 172.586 136.775C172.655 139.622 174.908 142.433 177.409 143.618C180.227 144.952 184.074 143.818 184.796 140.533C184.946 139.85 184.015 139.613 183.626 140.052C183.095 140.637 182.808 141.403 182.822 142.194C182.837 142.984 183.153 143.739 183.706 144.304C184.259 144.869 185.006 145.202 185.796 145.235C186.586 145.267 187.358 144.997 187.956 144.479L186.908 144.048C187.213 145.323 187.848 146.496 188.749 147.448C189.651 148.4 190.787 149.098 192.044 149.472C192.664 149.658 193.307 149.756 193.954 149.763C194.741 149.765 195.549 150.16 196.302 150.405L201.724 152.172C202.522 152.432 203.028 151.221 202.224 150.959L197.313 149.359C196.494 149.092 195.678 148.818 194.857 148.559C194.271 148.374 193.628 148.474 193.016 148.365C191.871 148.148 190.811 147.61 189.959 146.814C189.108 146.018 188.501 144.996 188.208 143.867C188.19 143.755 188.143 143.649 188.073 143.56C188.002 143.471 187.91 143.401 187.805 143.358C187.7 143.315 187.585 143.299 187.473 143.313C187.36 143.326 187.252 143.369 187.161 143.436C186.817 143.762 186.359 143.94 185.886 143.93C185.412 143.921 184.962 143.724 184.632 143.384C184.303 143.044 184.122 142.587 184.127 142.114C184.133 141.64 184.325 141.188 184.663 140.856L183.493 140.374C183.028 142.493 180.443 143.288 178.58 142.676C176.497 141.99 174.706 139.996 174.084 137.908C173.918 137.406 173.857 136.875 173.905 136.348C173.954 135.822 174.11 135.311 174.364 134.848C174.591 134.425 174.945 134.084 175.376 133.873C175.806 133.662 176.292 133.592 176.765 133.672C177.188 133.731 177.57 133.953 177.833 134.289C178.095 134.626 178.216 135.051 178.17 135.475C178.101 135.952 177.915 136.405 177.63 136.794C177.344 137.182 176.967 137.494 176.533 137.703C175.36 138.333 173.956 138.489 172.653 138.632C171.168 138.794 169.673 138.836 168.181 138.759C167.344 138.717 167.176 140.019 168.022 140.062Z" fill="#0C8CE9"/>
<path d="M257.666 103.15V207.368H71.2842V84.2988H100.451L127.345 103.15H257.666Z" fill="white"/>
<path d="M158.784 187.805H82.6665V193.851H158.784V187.805Z" fill="#0C8CE9"/>
<path d="M120.725 176.067H82.6665V182.114H120.725V176.067Z" fill="#0C8CE9"/>
<path d="M258.022 207.724H70.9287V83.9434H100.563L127.459 102.795H258.022V207.724ZM71.6401 207.012H257.311V103.506H127.234L100.339 84.6547H71.6401V207.012Z" fill="#3F3D56"/>
<path d="M333.565 195.145L327.259 197.399L315.564 174.146L324.872 170.819L333.565 195.145Z" fill="#9F616A"/>
<path d="M317.023 207.951L316.931 207.693C316.184 205.594 316.3 203.284 317.253 201.27C318.207 199.256 319.92 197.702 322.018 196.949L334.438 192.511L337.359 200.683L317.023 207.951Z" fill="#2F2E41"/>
<path d="M292.556 201.382H285.858L282.672 175.55L292.557 175.55L292.556 201.382Z" fill="#9F616A"/>
<path d="M294.263 207.874L272.668 207.874V207.6C272.668 206.497 272.886 205.404 273.308 204.384C273.731 203.364 274.35 202.438 275.13 201.657C275.911 200.877 276.837 200.257 277.857 199.835C278.877 199.413 279.97 199.195 281.074 199.195H281.074L294.264 199.196L294.263 207.874Z" fill="#2F2E41"/>
<path d="M307.818 36.3471L304.906 30.5918C304.906 30.5918 294.055 33.3103 293.069 39.5989L307.818 36.3471Z" fill="#0C8CE9"/>
<path d="M319.836 102.154L311.915 146.355L332.947 183.549L320.383 188.466L299.078 152.412L296.347 142.578L294.707 193.929L283.376 193.585L278.181 145.636L286.513 101.062L319.836 102.154Z" fill="#2F2E41"/>
<path d="M318.197 82.1843L317.923 56.2646C317.923 45.2795 310.694 37.1828 309.691 36.4338C309.22 34.9289 308.374 33.8887 307.177 33.3443C304.767 32.252 301.82 33.5627 301.695 33.6217L292.853 36.9366L292.812 37.058C292.718 37.3354 283.796 66.6117 281.556 73.9593C281.237 75.0135 281.053 75.6168 281.053 75.6168C281.053 75.6168 281.088 77.3159 281.15 79.9582C281.348 89.043 281.816 109.28 282.003 110.129C282.003 110.129 298.335 112.605 304.802 112.605C316.436 112.605 323.825 110.379 323.992 110.341L324.259 110.285L318.197 82.1843Z" fill="#3F3D56"/>
<path d="M301.593 27.3149C307.386 24.1481 309.515 16.8848 306.349 11.0918C303.182 5.29874 295.918 3.1697 290.125 6.33644C284.332 9.50317 282.203 16.7665 285.37 22.5595C288.537 28.3526 295.8 30.4816 301.593 27.3149Z" fill="#9F616A"/>
<path opacity="0.2" d="M297.184 76.6983L281.15 79.9578C281.088 77.3156 281.053 75.6165 281.053 75.6165C281.053 75.6165 281.237 75.0131 281.556 73.959L297.184 76.6983Z" fill="black"/>
<path d="M249.702 73.2815C250.272 73.7696 250.941 74.127 251.664 74.3284C252.386 74.5299 253.144 74.5705 253.884 74.4474C254.623 74.3243 255.327 74.0405 255.945 73.616C256.564 73.1914 257.081 72.6365 257.462 71.9903L275.335 75.5807L271.779 66.7999L255.352 64.7366C254.224 64.1692 252.927 64.0353 251.707 64.3603C250.487 64.6852 249.428 65.4464 248.732 66.4997C248.035 67.553 247.75 68.8251 247.929 70.075C248.107 71.3249 248.739 72.4658 249.702 73.2815Z" fill="#9F616A"/>
<path d="M270.872 66.2724L264.434 65.3828L262.287 74.3277L270.414 74.793L270.872 66.2724Z" fill="#0C8CE9"/>
<path d="M268.67 64.5484L287.719 62.4351L297.824 44.5055C298.869 42.6525 300.552 41.243 302.559 40.54C304.567 39.837 306.761 39.8886 308.734 40.6853C310.706 41.482 312.321 42.9692 313.277 44.8693C314.233 46.7693 314.464 48.9524 313.929 51.0108L313.871 51.2335L296.883 76.0194L265.119 77.586L268.67 64.5484Z" fill="#3F3D56"/>
<path d="M306.041 27.2042L296.119 27.5603C295.515 27.582 293.873 21.055 293.658 19.7009C293.489 18.8194 293.004 18.0299 292.294 17.4797C291.585 16.9296 290.699 16.6565 289.803 16.7114C289.061 16.7816 287.188 15.394 285.255 13.7509C281.586 10.6316 281.777 4.77293 285.807 2.13705C285.918 2.06501 286.026 1.99923 286.132 1.93971C288.674 0.51655 291.649 0.0386352 294.563 0.00219115C297.204 -0.0308454 299.92 0.301598 302.247 1.55177C306.419 3.79305 308.639 8.6909 308.834 13.4225C309.029 18.1541 307.512 22.7808 305.791 27.1925" fill="#2F2E41"/>
<path d="M348.453 208.435H10.5466C10.4523 208.435 10.3618 208.398 10.2951 208.331C10.2284 208.264 10.1909 208.174 10.1909 208.079C10.1909 207.985 10.2284 207.895 10.2951 207.828C10.3618 207.761 10.4523 207.724 10.5466 207.724H348.453C348.547 207.724 348.638 207.761 348.704 207.828C348.771 207.895 348.809 207.985 348.809 208.079C348.809 208.174 348.771 208.264 348.704 208.331C348.638 208.398 348.547 208.435 348.453 208.435Z" fill="#CBCBCB"/>
</g>
<path d="M51.4671 270.275L48.5871 266.403C47.7338 266.573 46.9018 266.659 46.0911 266.659C43.9791 266.659 42.0378 266.168 40.2671 265.187C38.5178 264.205 37.1205 262.84 36.0751 261.091C35.0511 259.32 34.5391 257.336 34.5391 255.139C34.5391 252.941 35.0511 250.968 36.0751 249.219C37.1205 247.469 38.5178 246.104 40.2671 245.123C42.0378 244.141 43.9791 243.651 46.0911 243.651C48.2031 243.651 50.1338 244.141 51.8831 245.123C53.6538 246.104 55.0405 247.469 56.0431 249.219C57.0671 250.968 57.5791 252.941 57.5791 255.139C57.5791 257.059 57.1845 258.819 56.3951 260.419C55.6271 261.997 54.5498 263.309 53.1631 264.355L58.0911 270.275H51.4671ZM40.1391 255.139C40.1391 257.123 40.6725 258.712 41.7391 259.907C42.8271 261.08 44.2778 261.667 46.0911 261.667C47.8831 261.667 49.3125 261.069 50.3791 259.875C51.4671 258.68 52.0111 257.101 52.0111 255.139C52.0111 253.155 51.4671 251.576 50.3791 250.403C49.3125 249.208 47.8831 248.611 46.0911 248.611C44.2778 248.611 42.8271 249.197 41.7391 250.371C40.6725 251.544 40.1391 253.133 40.1391 255.139ZM78.1579 248.579V266.435H72.6859V264.003C72.1312 264.792 71.3739 265.432 70.4139 265.923C69.4752 266.392 68.4299 266.627 67.2779 266.627C65.9125 266.627 64.7072 266.328 63.6619 265.731C62.6165 265.112 61.8059 264.227 61.2299 263.075C60.6539 261.923 60.3659 260.568 60.3659 259.011V248.579H65.8059V258.275C65.8059 259.469 66.1152 260.397 66.7339 261.059C67.3525 261.72 68.1845 262.051 69.2299 262.051C70.2965 262.051 71.1392 261.72 71.7579 261.059C72.3765 260.397 72.6859 259.469 72.6859 258.275V248.579H78.1579ZM84.6804 246.723C83.7204 246.723 82.931 246.445 82.3124 245.891C81.715 245.315 81.4164 244.611 81.4164 243.779C81.4164 242.925 81.715 242.221 82.3124 241.667C82.931 241.091 83.7204 240.803 84.6804 240.803C85.619 240.803 86.387 241.091 86.9844 241.667C87.603 242.221 87.9124 242.925 87.9124 243.779C87.9124 244.611 87.603 245.315 86.9844 245.891C86.387 246.445 85.619 246.723 84.6804 246.723ZM87.4004 248.579V266.435H81.9284V248.579H87.4004ZM90.1179 257.507C90.1179 255.651 90.4912 254.029 91.2379 252.643C92.0059 251.256 93.0619 250.189 94.4059 249.443C95.7712 248.696 97.3285 248.323 99.0779 248.323C101.318 248.323 103.185 248.909 104.678 250.083C106.193 251.256 107.185 252.909 107.654 255.043H101.83C101.339 253.677 100.39 252.995 98.9819 252.995C97.9792 252.995 97.1792 253.389 96.5819 254.179C95.9845 254.947 95.6859 256.056 95.6859 257.507C95.6859 258.957 95.9845 260.077 96.5819 260.867C97.1792 261.635 97.9792 262.019 98.9819 262.019C100.39 262.019 101.339 261.336 101.83 259.971H107.654C107.185 262.061 106.193 263.704 104.678 264.899C103.163 266.093 101.297 266.691 99.0779 266.691C97.3285 266.691 95.7712 266.317 94.4059 265.571C93.0619 264.824 92.0059 263.757 91.2379 262.371C90.4912 260.984 90.1179 259.363 90.1179 257.507ZM121.333 266.435L115.893 258.947V266.435H110.421V242.755H115.893V255.843L121.301 248.579H128.053L120.629 257.539L128.117 266.435H121.333ZM135.575 257.475C135.575 255.64 135.917 254.029 136.599 252.643C137.303 251.256 138.253 250.189 139.447 249.443C140.642 248.696 141.975 248.323 143.447 248.323C144.706 248.323 145.805 248.579 146.743 249.091C147.703 249.603 148.439 250.275 148.951 251.107V248.579H154.423V266.435H148.951V263.907C148.418 264.739 147.671 265.411 146.711 265.923C145.773 266.435 144.674 266.691 143.415 266.691C141.965 266.691 140.642 266.317 139.447 265.571C138.253 264.803 137.303 263.725 136.599 262.339C135.917 260.931 135.575 259.309 135.575 257.475ZM148.951 257.507C148.951 256.141 148.567 255.064 147.799 254.275C147.053 253.485 146.135 253.091 145.047 253.091C143.959 253.091 143.031 253.485 142.263 254.275C141.517 255.043 141.143 256.109 141.143 257.475C141.143 258.84 141.517 259.928 142.263 260.739C143.031 261.528 143.959 261.923 145.047 261.923C146.135 261.923 147.053 261.528 147.799 260.739C148.567 259.949 148.951 258.872 148.951 257.507ZM169.102 248.387C171.193 248.387 172.857 249.069 174.094 250.435C175.353 251.779 175.982 253.635 175.982 256.003V266.435H170.542V256.739C170.542 255.544 170.233 254.616 169.614 253.955C168.995 253.293 168.163 252.963 167.118 252.963C166.073 252.963 165.241 253.293 164.622 253.955C164.003 254.616 163.694 255.544 163.694 256.739V266.435H158.222V248.579H163.694V250.947C164.249 250.157 164.995 249.539 165.934 249.091C166.873 248.621 167.929 248.387 169.102 248.387ZM178.537 257.475C178.537 255.64 178.878 254.029 179.561 252.643C180.265 251.256 181.214 250.189 182.409 249.443C183.603 248.696 184.937 248.323 186.409 248.323C187.582 248.323 188.649 248.568 189.609 249.059C190.59 249.549 191.358 250.211 191.913 251.043V242.755H197.385V266.435H191.913V263.875C191.401 264.728 190.665 265.411 189.705 265.923C188.766 266.435 187.667 266.691 186.409 266.691C184.937 266.691 183.603 266.317 182.409 265.571C181.214 264.803 180.265 263.725 179.561 262.339C178.878 260.931 178.537 259.309 178.537 257.475ZM191.913 257.507C191.913 256.141 191.529 255.064 190.761 254.275C190.014 253.485 189.097 253.091 188.009 253.091C186.921 253.091 185.993 253.485 185.225 254.275C184.478 255.043 184.105 256.109 184.105 257.475C184.105 258.84 184.478 259.928 185.225 260.739C185.993 261.528 186.921 261.923 188.009 261.923C189.097 261.923 190.014 261.528 190.761 260.739C191.529 259.949 191.913 258.872 191.913 257.507ZM215.933 266.659C214.29 266.659 212.818 266.392 211.517 265.859C210.215 265.325 209.17 264.536 208.381 263.491C207.613 262.445 207.207 261.187 207.165 259.715H212.989C213.074 260.547 213.362 261.187 213.853 261.635C214.343 262.061 214.983 262.275 215.773 262.275C216.583 262.275 217.223 262.093 217.693 261.731C218.162 261.347 218.397 260.824 218.397 260.163C218.397 259.608 218.205 259.149 217.821 258.787C217.458 258.424 216.999 258.125 216.445 257.891C215.911 257.656 215.143 257.389 214.141 257.091C212.69 256.643 211.506 256.195 210.589 255.747C209.671 255.299 208.882 254.637 208.221 253.763C207.559 252.888 207.229 251.747 207.229 250.339C207.229 248.248 207.986 246.616 209.501 245.443C211.015 244.248 212.989 243.651 215.421 243.651C217.895 243.651 219.89 244.248 221.405 245.443C222.919 246.616 223.73 248.259 223.837 250.371H217.917C217.874 249.645 217.607 249.08 217.117 248.675C216.626 248.248 215.997 248.035 215.229 248.035C214.567 248.035 214.034 248.216 213.629 248.579C213.223 248.92 213.021 249.421 213.021 250.083C213.021 250.808 213.362 251.373 214.045 251.779C214.727 252.184 215.794 252.621 217.245 253.091C218.695 253.581 219.869 254.051 220.765 254.499C221.682 254.947 222.471 255.597 223.133 256.451C223.794 257.304 224.125 258.403 224.125 259.747C224.125 261.027 223.794 262.189 223.133 263.235C222.493 264.28 221.554 265.112 220.317 265.731C219.079 266.349 217.618 266.659 215.933 266.659ZM230.084 246.723C229.124 246.723 228.335 246.445 227.716 245.891C227.119 245.315 226.82 244.611 226.82 243.779C226.82 242.925 227.119 242.221 227.716 241.667C228.335 241.091 229.124 240.803 230.084 240.803C231.023 240.803 231.791 241.091 232.388 241.667C233.007 242.221 233.316 242.925 233.316 243.779C233.316 244.611 233.007 245.315 232.388 245.891C231.791 246.445 231.023 246.723 230.084 246.723ZM232.804 248.579V266.435H227.332V248.579H232.804ZM259.394 248.387C261.612 248.387 263.372 249.059 264.674 250.403C265.996 251.747 266.658 253.613 266.658 256.003V266.435H261.218V256.739C261.218 255.587 260.908 254.701 260.29 254.083C259.692 253.443 258.86 253.123 257.794 253.123C256.727 253.123 255.884 253.443 255.266 254.083C254.668 254.701 254.37 255.587 254.37 256.739V266.435H248.93V256.739C248.93 255.587 248.62 254.701 248.002 254.083C247.404 253.443 246.572 253.123 245.506 253.123C244.439 253.123 243.596 253.443 242.978 254.083C242.38 254.701 242.082 255.587 242.082 256.739V266.435H236.61V248.579H242.082V250.819C242.636 250.072 243.362 249.485 244.258 249.059C245.154 248.611 246.167 248.387 247.298 248.387C248.642 248.387 249.836 248.675 250.882 249.251C251.948 249.827 252.78 250.648 253.378 251.715C253.996 250.733 254.839 249.933 255.906 249.315C256.972 248.696 258.135 248.387 259.394 248.387ZM275.797 251.107C276.33 250.275 277.066 249.603 278.005 249.091C278.943 248.579 280.042 248.323 281.301 248.323C282.773 248.323 284.106 248.696 285.301 249.443C286.495 250.189 287.434 251.256 288.117 252.643C288.821 254.029 289.173 255.64 289.173 257.475C289.173 259.309 288.821 260.931 288.117 262.339C287.434 263.725 286.495 264.803 285.301 265.571C284.106 266.317 282.773 266.691 281.301 266.691C280.063 266.691 278.965 266.435 278.005 265.923C277.066 265.411 276.33 264.749 275.797 263.939V274.947H270.325V248.579H275.797V251.107ZM283.605 257.475C283.605 256.109 283.221 255.043 282.453 254.275C281.706 253.485 280.778 253.091 279.669 253.091C278.581 253.091 277.653 253.485 276.885 254.275C276.138 255.064 275.765 256.141 275.765 257.507C275.765 258.872 276.138 259.949 276.885 260.739C277.653 261.528 278.581 261.923 279.669 261.923C280.757 261.923 281.685 261.528 282.453 260.739C283.221 259.928 283.605 258.84 283.605 257.475ZM297.355 242.755V266.435H291.883V242.755H297.355ZM317.993 257.219C317.993 257.731 317.961 258.264 317.897 258.819H305.513C305.598 259.928 305.95 260.781 306.569 261.379C307.209 261.955 307.988 262.243 308.905 262.243C310.27 262.243 311.22 261.667 311.753 260.515H317.577C317.278 261.688 316.734 262.744 315.945 263.683C315.177 264.621 314.206 265.357 313.033 265.891C311.86 266.424 310.548 266.691 309.097 266.691C307.348 266.691 305.79 266.317 304.425 265.571C303.06 264.824 301.993 263.757 301.225 262.371C300.457 260.984 300.073 259.363 300.073 257.507C300.073 255.651 300.446 254.029 301.193 252.643C301.961 251.256 303.028 250.189 304.393 249.443C305.758 248.696 307.326 248.323 309.097 248.323C310.825 248.323 312.361 248.685 313.705 249.411C315.049 250.136 316.094 251.171 316.841 252.515C317.609 253.859 317.993 255.427 317.993 257.219ZM312.393 255.779C312.393 254.84 312.073 254.093 311.433 253.539C310.793 252.984 309.993 252.707 309.033 252.707C308.116 252.707 307.337 252.973 306.697 253.507C306.078 254.04 305.694 254.797 305.545 255.779H312.393ZM44.264 283.971V288.355H38.312V306.435H32.84V288.355H26.888V283.971H44.264ZM45.7622 297.475C45.7622 295.64 46.1036 294.029 46.7862 292.643C47.4902 291.256 48.4396 290.189 49.6342 289.443C50.8289 288.696 52.1622 288.323 53.6342 288.323C54.8929 288.323 55.9916 288.579 56.9302 289.091C57.8902 289.603 58.6262 290.275 59.1382 291.107V288.579H64.6102V306.435H59.1382V303.907C58.6049 304.739 57.8582 305.411 56.8982 305.923C55.9596 306.435 54.8609 306.691 53.6022 306.691C52.1516 306.691 50.8289 306.317 49.6342 305.571C48.4396 304.803 47.4902 303.725 46.7862 302.339C46.1036 300.931 45.7622 299.309 45.7622 297.475ZM59.1382 297.507C59.1382 296.141 58.7542 295.064 57.9862 294.275C57.2396 293.485 56.3222 293.091 55.2342 293.091C54.1462 293.091 53.2182 293.485 52.4502 294.275C51.7036 295.043 51.3302 296.109 51.3302 297.475C51.3302 298.84 51.7036 299.928 52.4502 300.739C53.2182 301.528 54.1462 301.923 55.2342 301.923C56.3222 301.923 57.2396 301.528 57.9862 300.739C58.7542 299.949 59.1382 298.872 59.1382 297.507ZM75.673 306.691C74.1157 306.691 72.729 306.424 71.513 305.891C70.297 305.357 69.337 304.632 68.633 303.715C67.929 302.776 67.5343 301.731 67.449 300.579H72.857C72.921 301.197 73.209 301.699 73.721 302.083C74.233 302.467 74.8623 302.659 75.609 302.659C76.2917 302.659 76.8143 302.531 77.177 302.275C77.561 301.997 77.753 301.645 77.753 301.219C77.753 300.707 77.4863 300.333 76.953 300.099C76.4197 299.843 75.5557 299.565 74.361 299.267C73.081 298.968 72.0143 298.659 71.161 298.339C70.3077 297.997 69.5717 297.475 68.953 296.771C68.3343 296.045 68.025 295.075 68.025 293.859C68.025 292.835 68.3023 291.907 68.857 291.075C69.433 290.221 70.265 289.549 71.353 289.059C72.4623 288.568 73.7743 288.323 75.289 288.323C77.529 288.323 79.289 288.877 80.569 289.987C81.8703 291.096 82.617 292.568 82.809 294.403H77.753C77.6677 293.784 77.3903 293.293 76.921 292.931C76.473 292.568 75.8757 292.387 75.129 292.387C74.489 292.387 73.9983 292.515 73.657 292.771C73.3157 293.005 73.145 293.336 73.145 293.763C73.145 294.275 73.4117 294.659 73.945 294.915C74.4997 295.171 75.353 295.427 76.505 295.683C77.8277 296.024 78.905 296.365 79.737 296.707C80.569 297.027 81.2943 297.56 81.913 298.307C82.553 299.032 82.8837 300.013 82.905 301.251C82.905 302.296 82.6063 303.235 82.009 304.067C81.433 304.877 80.5903 305.517 79.481 305.987C78.393 306.456 77.1237 306.691 75.673 306.691ZM97.0048 306.435L91.5647 298.947V306.435H86.0927V282.755H91.5647V295.843L96.9727 288.579H103.725L96.3007 297.539L103.789 306.435H97.0048ZM137.775 283.971V306.435H132.303V292.963L127.279 306.435H122.863L117.807 292.931V306.435H112.335V283.971H118.799L125.103 299.523L131.343 283.971H137.775ZM140.462 297.475C140.462 295.64 140.804 294.029 141.486 292.643C142.19 291.256 143.14 290.189 144.334 289.443C145.529 288.696 146.862 288.323 148.334 288.323C149.593 288.323 150.692 288.579 151.63 289.091C152.59 289.603 153.326 290.275 153.838 291.107V288.579H159.31V306.435H153.838V303.907C153.305 304.739 152.558 305.411 151.598 305.923C150.66 306.435 149.561 306.691 148.302 306.691C146.852 306.691 145.529 306.317 144.334 305.571C143.14 304.803 142.19 303.725 141.486 302.339C140.804 300.931 140.462 299.309 140.462 297.475ZM153.838 297.507C153.838 296.141 153.454 295.064 152.686 294.275C151.94 293.485 151.022 293.091 149.934 293.091C148.846 293.091 147.918 293.485 147.15 294.275C146.404 295.043 146.03 296.109 146.03 297.475C146.03 298.84 146.404 299.928 147.15 300.739C147.918 301.528 148.846 301.923 149.934 301.923C151.022 301.923 151.94 301.528 152.686 300.739C153.454 299.949 153.838 298.872 153.838 297.507ZM173.989 288.387C176.08 288.387 177.744 289.069 178.981 290.435C180.24 291.779 180.869 293.635 180.869 296.003V306.435H175.429V296.739C175.429 295.544 175.12 294.616 174.501 293.955C173.882 293.293 173.05 292.963 172.005 292.963C170.96 292.963 170.128 293.293 169.509 293.955C168.89 294.616 168.581 295.544 168.581 296.739V306.435H163.109V288.579H168.581V290.947C169.136 290.157 169.882 289.539 170.821 289.091C171.76 288.621 172.816 288.387 173.989 288.387ZM183.423 297.475C183.423 295.64 183.765 294.029 184.447 292.643C185.151 291.256 186.101 290.189 187.295 289.443C188.49 288.696 189.823 288.323 191.295 288.323C192.554 288.323 193.653 288.579 194.591 289.091C195.551 289.603 196.287 290.275 196.799 291.107V288.579H202.271V306.435H196.799V303.907C196.266 304.739 195.519 305.411 194.559 305.923C193.621 306.435 192.522 306.691 191.263 306.691C189.813 306.691 188.49 306.317 187.295 305.571C186.101 304.803 185.151 303.725 184.447 302.339C183.765 300.931 183.423 299.309 183.423 297.475ZM196.799 297.507C196.799 296.141 196.415 295.064 195.647 294.275C194.901 293.485 193.983 293.091 192.895 293.091C191.807 293.091 190.879 293.485 190.111 294.275C189.365 295.043 188.991 296.109 188.991 297.475C188.991 298.84 189.365 299.928 190.111 300.739C190.879 301.528 191.807 301.923 192.895 301.923C193.983 301.923 194.901 301.528 195.647 300.739C196.415 299.949 196.799 298.872 196.799 297.507ZM212.854 288.323C214.113 288.323 215.212 288.579 216.15 289.091C217.11 289.603 217.846 290.275 218.358 291.107V288.579H223.83V306.403C223.83 308.045 223.5 309.528 222.838 310.851C222.198 312.195 221.206 313.261 219.862 314.051C218.54 314.84 216.886 315.235 214.902 315.235C212.257 315.235 210.113 314.605 208.47 313.347C206.828 312.109 205.889 310.424 205.654 308.291H211.062C211.233 308.973 211.638 309.507 212.278 309.891C212.918 310.296 213.708 310.499 214.646 310.499C215.777 310.499 216.673 310.168 217.334 309.507C218.017 308.867 218.358 307.832 218.358 306.403V303.875C217.825 304.707 217.089 305.389 216.15 305.923C215.212 306.435 214.113 306.691 212.854 306.691C211.382 306.691 210.049 306.317 208.854 305.571C207.66 304.803 206.71 303.725 206.006 302.339C205.324 300.931 204.982 299.309 204.982 297.475C204.982 295.64 205.324 294.029 206.006 292.643C206.71 291.256 207.66 290.189 208.854 289.443C210.049 288.696 211.382 288.323 212.854 288.323ZM218.358 297.507C218.358 296.141 217.974 295.064 217.206 294.275C216.46 293.485 215.542 293.091 214.454 293.091C213.366 293.091 212.438 293.485 211.67 294.275C210.924 295.043 210.55 296.109 210.55 297.475C210.55 298.84 210.924 299.928 211.67 300.739C212.438 301.528 213.366 301.923 214.454 301.923C215.542 301.923 216.46 301.528 217.206 300.739C217.974 299.949 218.358 298.872 218.358 297.507ZM244.461 297.219C244.461 297.731 244.429 298.264 244.365 298.819H231.981C232.066 299.928 232.418 300.781 233.037 301.379C233.677 301.955 234.456 302.243 235.373 302.243C236.738 302.243 237.688 301.667 238.221 300.515H244.045C243.746 301.688 243.202 302.744 242.413 303.683C241.645 304.621 240.674 305.357 239.501 305.891C238.328 306.424 237.016 306.691 235.565 306.691C233.816 306.691 232.258 306.317 230.893 305.571C229.528 304.824 228.461 303.757 227.693 302.371C226.925 300.984 226.541 299.363 226.541 297.507C226.541 295.651 226.914 294.029 227.661 292.643C228.429 291.256 229.496 290.189 230.861 289.443C232.226 288.696 233.794 288.323 235.565 288.323C237.293 288.323 238.829 288.685 240.173 289.411C241.517 290.136 242.562 291.171 243.309 292.515C244.077 293.859 244.461 295.427 244.461 297.219ZM238.861 295.779C238.861 294.84 238.541 294.093 237.901 293.539C237.261 292.984 236.461 292.707 235.501 292.707C234.584 292.707 233.805 292.973 233.165 293.507C232.546 294.04 232.162 294.797 232.013 295.779H238.861ZM269.972 288.387C272.19 288.387 273.95 289.059 275.252 290.403C276.574 291.747 277.236 293.613 277.236 296.003V306.435H271.796V296.739C271.796 295.587 271.486 294.701 270.868 294.083C270.27 293.443 269.438 293.123 268.372 293.123C267.305 293.123 266.462 293.443 265.844 294.083C265.246 294.701 264.948 295.587 264.948 296.739V306.435H259.508V296.739C259.508 295.587 259.198 294.701 258.58 294.083C257.982 293.443 257.15 293.123 256.084 293.123C255.017 293.123 254.174 293.443 253.556 294.083C252.958 294.701 252.66 295.587 252.66 296.739V306.435H247.188V288.579H252.66V290.819C253.214 290.072 253.94 289.485 254.836 289.059C255.732 288.611 256.745 288.387 257.876 288.387C259.22 288.387 260.414 288.675 261.46 289.251C262.526 289.827 263.358 290.648 263.956 291.715C264.574 290.733 265.417 289.933 266.484 289.315C267.55 288.696 268.713 288.387 269.972 288.387ZM297.735 297.219C297.735 297.731 297.703 298.264 297.639 298.819H285.255C285.34 299.928 285.692 300.781 286.311 301.379C286.951 301.955 287.729 302.243 288.647 302.243C290.012 302.243 290.961 301.667 291.495 300.515H297.319C297.02 301.688 296.476 302.744 295.687 303.683C294.919 304.621 293.948 305.357 292.775 305.891C291.601 306.424 290.289 306.691 288.839 306.691C287.089 306.691 285.532 306.317 284.167 305.571C282.801 304.824 281.735 303.757 280.967 302.371C280.199 300.984 279.815 299.363 279.815 297.507C279.815 295.651 280.188 294.029 280.935 292.643C281.703 291.256 282.769 290.189 284.135 289.443C285.5 288.696 287.068 288.323 288.839 288.323C290.567 288.323 292.103 288.685 293.447 289.411C294.791 290.136 295.836 291.171 296.583 292.515C297.351 293.859 297.735 295.427 297.735 297.219ZM292.135 295.779C292.135 294.84 291.815 294.093 291.175 293.539C290.535 292.984 289.735 292.707 288.775 292.707C287.857 292.707 287.079 292.973 286.439 293.507C285.82 294.04 285.436 294.797 285.287 295.779H292.135ZM311.342 288.387C313.432 288.387 315.096 289.069 316.334 290.435C317.592 291.779 318.222 293.635 318.222 296.003V306.435H312.782V296.739C312.782 295.544 312.472 294.616 311.854 293.955C311.235 293.293 310.403 292.963 309.358 292.963C308.312 292.963 307.48 293.293 306.862 293.955C306.243 294.616 305.934 295.544 305.934 296.739V306.435H300.462V288.579H305.934V290.947C306.488 290.157 307.235 289.539 308.174 289.091C309.112 288.621 310.168 288.387 311.342 288.387ZM331.816 301.795V306.435H329.032C327.048 306.435 325.501 305.955 324.392 304.995C323.283 304.013 322.728 302.424 322.728 300.227V293.123H320.552V288.579H322.728V284.227H328.2V288.579H331.784V293.123H328.2V300.291C328.2 300.824 328.328 301.208 328.584 301.443C328.84 301.677 329.267 301.795 329.864 301.795H331.816Z" fill="#1E1E1E"/>
<path d="M23.9276 364.547C22.893 364.547 21.9383 364.307 21.0636 363.827C20.1996 363.336 19.5116 362.659 18.9996 361.795C18.4983 360.92 18.2476 359.939 18.2476 358.851C18.2476 357.763 18.4983 356.787 18.9996 355.923C19.5116 355.059 20.1996 354.387 21.0636 353.907C21.9383 353.416 22.893 353.171 23.9276 353.171C24.973 353.171 25.9276 353.416 26.7916 353.907C27.6663 354.387 28.3543 355.059 28.8556 355.923C29.357 356.787 29.6076 357.763 29.6076 358.851C29.6076 359.939 29.357 360.92 28.8556 361.795C28.3543 362.659 27.6663 363.336 26.7916 363.827C25.9276 364.307 24.973 364.547 23.9276 364.547ZM23.9276 362.963C24.6636 362.963 25.3196 362.797 25.8956 362.467C26.4716 362.125 26.9196 361.645 27.2396 361.027C27.5703 360.397 27.7356 359.672 27.7356 358.851C27.7356 358.029 27.5703 357.309 27.2396 356.691C26.9196 356.072 26.4716 355.597 25.8956 355.267C25.3196 354.936 24.6636 354.771 23.9276 354.771C23.1916 354.771 22.5356 354.936 21.9596 355.267C21.3836 355.597 20.9303 356.072 20.5996 356.691C20.2796 357.309 20.1196 358.029 20.1196 358.851C20.1196 359.672 20.2796 360.397 20.5996 361.027C20.9303 361.645 21.3836 362.125 21.9596 362.467C22.5356 362.797 23.1916 362.963 23.9276 362.963ZM33.1465 356.899C33.4132 356.451 33.7652 356.104 34.2025 355.859C34.6505 355.603 35.1785 355.475 35.7865 355.475V357.363H35.3225C34.6078 357.363 34.0638 357.544 33.6905 357.907C33.3278 358.269 33.1465 358.899 33.1465 359.795V364.435H31.3225V355.619H33.1465V356.899ZM40.9351 355.475C41.6178 355.475 42.2205 355.613 42.7431 355.891C43.2765 356.157 43.6925 356.493 43.9911 356.899V355.619H45.8311V364.579C45.8311 365.389 45.6605 366.109 45.3191 366.739C44.9778 367.379 44.4818 367.88 43.8311 368.243C43.1911 368.605 42.4231 368.787 41.5271 368.787C40.3325 368.787 39.3405 368.504 38.5511 367.939C37.7618 367.384 37.3138 366.627 37.2071 365.667H39.0151C39.1538 366.125 39.4471 366.493 39.8951 366.771C40.3538 367.059 40.8978 367.203 41.5271 367.203C42.2631 367.203 42.8551 366.979 43.3031 366.531C43.7618 366.083 43.9911 365.432 43.9911 364.579V363.107C43.6818 363.523 43.2605 363.875 42.7271 364.163C42.2045 364.44 41.6071 364.579 40.9351 364.579C40.1671 364.579 39.4631 364.387 38.8231 364.003C38.1938 363.608 37.6925 363.064 37.3191 362.371C36.9565 361.667 36.7751 360.872 36.7751 359.987C36.7751 359.101 36.9565 358.317 37.3191 357.635C37.6925 356.952 38.1938 356.424 38.8231 356.051C39.4631 355.667 40.1671 355.475 40.9351 355.475ZM43.9911 360.019C43.9911 359.411 43.8631 358.883 43.6071 358.435C43.3618 357.987 43.0365 357.645 42.6311 357.411C42.2258 357.176 41.7885 357.059 41.3191 357.059C40.8498 357.059 40.4125 357.176 40.0071 357.411C39.6018 357.635 39.2711 357.971 39.0151 358.419C38.7698 358.856 38.6471 359.379 38.6471 359.987C38.6471 360.595 38.7698 361.128 39.0151 361.587C39.2711 362.045 39.6018 362.397 40.0071 362.643C40.4231 362.877 40.8605 362.995 41.3191 362.995C41.7885 362.995 42.2258 362.877 42.6311 362.643C43.0365 362.408 43.3618 362.067 43.6071 361.619C43.8631 361.16 43.9911 360.627 43.9911 360.019ZM47.5389 359.987C47.5389 359.101 47.7202 358.317 48.0829 357.635C48.4562 356.952 48.9575 356.424 49.5869 356.051C50.2269 355.667 50.9309 355.475 51.6989 355.475C52.3922 355.475 52.9949 355.613 53.5069 355.891C54.0295 356.157 54.4455 356.493 54.7549 356.899V355.619H56.5949V364.435H54.7549V363.123C54.4455 363.539 54.0242 363.885 53.4909 364.163C52.9575 364.44 52.3495 364.579 51.6669 364.579C50.9095 364.579 50.2162 364.387 49.5869 364.003C48.9575 363.608 48.4562 363.064 48.0829 362.371C47.7202 361.667 47.5389 360.872 47.5389 359.987ZM54.7549 360.019C54.7549 359.411 54.6269 358.883 54.3709 358.435C54.1255 357.987 53.8002 357.645 53.3949 357.411C52.9895 357.176 52.5522 357.059 52.0829 357.059C51.6135 357.059 51.1762 357.176 50.7709 357.411C50.3655 357.635 50.0349 357.971 49.7789 358.419C49.5335 358.856 49.4109 359.379 49.4109 359.987C49.4109 360.595 49.5335 361.128 49.7789 361.587C50.0349 362.045 50.3655 362.397 50.7709 362.643C51.1869 362.877 51.6242 362.995 52.0829 362.995C52.5522 362.995 52.9895 362.877 53.3949 362.643C53.8002 362.408 54.1255 362.067 54.3709 361.619C54.6269 361.16 54.7549 360.627 54.7549 360.019ZM63.3586 355.475C64.052 355.475 64.6706 355.619 65.2146 355.907C65.7693 356.195 66.2013 356.621 66.5106 357.187C66.82 357.752 66.9746 358.435 66.9746 359.235V364.435H65.1666V359.507C65.1666 358.717 64.9693 358.115 64.5746 357.699C64.18 357.272 63.6413 357.059 62.9586 357.059C62.276 357.059 61.732 357.272 61.3266 357.699C60.932 358.115 60.7346 358.717 60.7346 359.507V364.435H58.9106V355.619H60.7346V356.627C61.0333 356.264 61.412 355.981 61.8706 355.779C62.34 355.576 62.836 355.475 63.3586 355.475ZM70.1492 354.451C69.8186 354.451 69.5412 354.339 69.3172 354.115C69.0932 353.891 68.9812 353.613 68.9812 353.283C68.9812 352.952 69.0932 352.675 69.3172 352.451C69.5412 352.227 69.8186 352.115 70.1492 352.115C70.4692 352.115 70.7412 352.227 70.9652 352.451C71.1892 352.675 71.3012 352.952 71.3012 353.283C71.3012 353.613 71.1892 353.891 70.9652 354.115C70.7412 354.339 70.4692 354.451 70.1492 354.451ZM71.0452 355.619V364.435H69.2212V355.619H71.0452ZM74.976 362.947H78.976V364.435H72.864V362.947L76.88 357.107H72.864V355.619H78.976V357.107L74.976 362.947ZM88.8913 359.811C88.8913 360.141 88.8699 360.44 88.8273 360.707H82.0913C82.1446 361.411 82.4059 361.976 82.8753 362.403C83.3446 362.829 83.9206 363.043 84.6033 363.043C85.5846 363.043 86.2779 362.632 86.6833 361.811H88.6513C88.3846 362.621 87.8993 363.288 87.1953 363.811C86.5019 364.323 85.6379 364.579 84.6033 364.579C83.7606 364.579 83.0033 364.392 82.3313 364.019C81.6699 363.635 81.1473 363.101 80.7633 362.419C80.3899 361.725 80.2033 360.925 80.2033 360.019C80.2033 359.112 80.3846 358.317 80.7473 357.635C81.1206 356.941 81.6379 356.408 82.2993 356.035C82.9713 355.661 83.7393 355.475 84.6033 355.475C85.4353 355.475 86.1766 355.656 86.8273 356.019C87.4779 356.381 87.9846 356.893 88.3473 357.555C88.7099 358.205 88.8913 358.957 88.8913 359.811ZM86.9873 359.235C86.9766 358.563 86.7366 358.024 86.2673 357.619C85.7979 357.213 85.2166 357.011 84.5233 357.011C83.8939 357.011 83.3553 357.213 82.9073 357.619C82.4593 358.013 82.1926 358.552 82.1073 359.235H86.9873ZM101.386 362.163H96.7305L95.9305 364.435H94.0265L98.0105 353.299H100.122L104.106 364.435H102.186L101.386 362.163ZM100.874 360.675L99.0665 355.507L97.2425 360.675H100.874ZM107.583 352.595V364.435H105.759V352.595H107.583ZM111.722 352.595V364.435H109.898V352.595H111.722ZM126.352 353.315L122.672 360.403V364.435H120.848V360.403L117.152 353.315H119.184L121.76 358.771L124.336 353.315H126.352ZM131.544 364.579C130.712 364.579 129.96 364.392 129.288 364.019C128.616 363.635 128.088 363.101 127.704 362.419C127.32 361.725 127.128 360.925 127.128 360.019C127.128 359.123 127.325 358.328 127.72 357.635C128.115 356.941 128.653 356.408 129.336 356.035C130.019 355.661 130.781 355.475 131.624 355.475C132.467 355.475 133.229 355.661 133.912 356.035C134.595 356.408 135.133 356.941 135.528 357.635C135.923 358.328 136.12 359.123 136.12 360.019C136.12 360.915 135.917 361.709 135.512 362.403C135.107 363.096 134.552 363.635 133.848 364.019C133.155 364.392 132.387 364.579 131.544 364.579ZM131.544 362.995C132.013 362.995 132.451 362.883 132.856 362.659C133.272 362.435 133.608 362.099 133.864 361.651C134.12 361.203 134.248 360.659 134.248 360.019C134.248 359.379 134.125 358.84 133.88 358.403C133.635 357.955 133.309 357.619 132.904 357.395C132.499 357.171 132.061 357.059 131.592 357.059C131.123 357.059 130.685 357.171 130.28 357.395C129.885 357.619 129.571 357.955 129.336 358.403C129.101 358.84 128.984 359.379 128.984 360.019C128.984 360.968 129.224 361.704 129.704 362.227C130.195 362.739 130.808 362.995 131.544 362.995ZM145.827 355.619V364.435H144.003V363.395C143.715 363.757 143.336 364.045 142.867 364.259C142.408 364.461 141.918 364.563 141.395 364.563C140.702 364.563 140.078 364.419 139.523 364.131C138.979 363.843 138.547 363.416 138.227 362.851C137.918 362.285 137.763 361.603 137.763 360.803V355.619H139.571V360.531C139.571 361.32 139.768 361.928 140.163 362.355C140.558 362.771 141.096 362.979 141.779 362.979C142.462 362.979 143 362.771 143.395 362.355C143.8 361.928 144.003 361.32 144.003 360.531V355.619H145.827ZM149.978 356.899C150.244 356.451 150.596 356.104 151.034 355.859C151.482 355.603 152.01 355.475 152.618 355.475V357.363H152.154C151.439 357.363 150.895 357.544 150.522 357.907C150.159 358.269 149.978 358.899 149.978 359.795V364.435H148.154V355.619H149.978V356.899ZM166.067 356.627C166.067 357.192 165.933 357.725 165.667 358.227C165.4 358.728 164.973 359.139 164.387 359.459C163.8 359.768 163.048 359.923 162.131 359.923H160.115V364.435H158.291V353.315H162.131C162.984 353.315 163.704 353.464 164.291 353.763C164.888 354.051 165.331 354.445 165.619 354.947C165.917 355.448 166.067 356.008 166.067 356.627ZM162.131 358.435C162.824 358.435 163.341 358.28 163.683 357.971C164.024 357.651 164.195 357.203 164.195 356.627C164.195 355.411 163.507 354.803 162.131 354.803H160.115V358.435H162.131ZM169.55 356.899C169.817 356.451 170.169 356.104 170.606 355.859C171.054 355.603 171.582 355.475 172.19 355.475V357.363H171.726C171.012 357.363 170.468 357.544 170.094 357.907C169.732 358.269 169.55 358.899 169.55 359.795V364.435H167.726V355.619H169.55V356.899ZM177.611 364.579C176.779 364.579 176.027 364.392 175.355 364.019C174.683 363.635 174.155 363.101 173.771 362.419C173.387 361.725 173.195 360.925 173.195 360.019C173.195 359.123 173.392 358.328 173.787 357.635C174.182 356.941 174.72 356.408 175.403 356.035C176.086 355.661 176.848 355.475 177.691 355.475C178.534 355.475 179.296 355.661 179.979 356.035C180.662 356.408 181.2 356.941 181.595 357.635C181.99 358.328 182.187 359.123 182.187 360.019C182.187 360.915 181.984 361.709 181.579 362.403C181.174 363.096 180.619 363.635 179.915 364.019C179.222 364.392 178.454 364.579 177.611 364.579ZM177.611 362.995C178.08 362.995 178.518 362.883 178.923 362.659C179.339 362.435 179.675 362.099 179.931 361.651C180.187 361.203 180.315 360.659 180.315 360.019C180.315 359.379 180.192 358.84 179.947 358.403C179.702 357.955 179.376 357.619 178.971 357.395C178.566 357.171 178.128 357.059 177.659 357.059C177.19 357.059 176.752 357.171 176.347 357.395C175.952 357.619 175.638 357.955 175.403 358.403C175.168 358.84 175.051 359.379 175.051 360.019C175.051 360.968 175.291 361.704 175.771 362.227C176.262 362.739 176.875 362.995 177.611 362.995ZM184.838 354.451C184.507 354.451 184.23 354.339 184.006 354.115C183.782 353.891 183.67 353.613 183.67 353.283C183.67 352.952 183.782 352.675 184.006 352.451C184.23 352.227 184.507 352.115 184.838 352.115C185.158 352.115 185.43 352.227 185.654 352.451C185.878 352.675 185.99 352.952 185.99 353.283C185.99 353.613 185.878 353.891 185.654 354.115C185.43 354.339 185.158 354.451 184.838 354.451ZM185.734 366.163C185.734 367.027 185.515 367.651 185.078 368.035C184.651 368.429 184.027 368.627 183.206 368.627H182.262V367.091H182.886C183.259 367.091 183.521 367.016 183.67 366.867C183.83 366.728 183.91 366.493 183.91 366.163V355.619H185.734V366.163ZM196.129 359.811C196.129 360.141 196.107 360.44 196.065 360.707H189.329C189.382 361.411 189.643 361.976 190.113 362.403C190.582 362.829 191.158 363.043 191.841 363.043C192.822 363.043 193.515 362.632 193.921 361.811H195.889C195.622 362.621 195.137 363.288 194.433 363.811C193.739 364.323 192.875 364.579 191.841 364.579C190.998 364.579 190.241 364.392 189.569 364.019C188.907 363.635 188.385 363.101 188.001 362.419C187.627 361.725 187.441 360.925 187.441 360.019C187.441 359.112 187.622 358.317 187.985 357.635C188.358 356.941 188.875 356.408 189.537 356.035C190.209 355.661 190.977 355.475 191.841 355.475C192.673 355.475 193.414 355.656 194.065 356.019C194.715 356.381 195.222 356.893 195.585 357.555C195.947 358.205 196.129 358.957 196.129 359.811ZM194.225 359.235C194.214 358.563 193.974 358.024 193.505 357.619C193.035 357.213 192.454 357.011 191.761 357.011C191.131 357.011 190.593 357.213 190.145 357.619C189.697 358.013 189.43 358.552 189.345 359.235H194.225ZM197.236 360.019C197.236 359.112 197.417 358.317 197.78 357.635C198.153 356.941 198.665 356.408 199.316 356.035C199.966 355.661 200.713 355.475 201.556 355.475C202.622 355.475 203.502 355.731 204.196 356.243C204.9 356.744 205.374 357.464 205.62 358.403H203.652C203.492 357.965 203.236 357.624 202.884 357.379C202.532 357.133 202.089 357.011 201.556 357.011C200.809 357.011 200.212 357.277 199.764 357.811C199.326 358.333 199.108 359.069 199.108 360.019C199.108 360.968 199.326 361.709 199.764 362.243C200.212 362.776 200.809 363.043 201.556 363.043C202.612 363.043 203.31 362.579 203.652 361.651H205.62C205.364 362.547 204.884 363.261 204.18 363.795C203.476 364.317 202.601 364.579 201.556 364.579C200.713 364.579 199.966 364.392 199.316 364.019C198.665 363.635 198.153 363.101 197.78 362.419C197.417 361.725 197.236 360.925 197.236 360.019ZM209.486 357.107V361.987C209.486 362.317 209.56 362.557 209.71 362.707C209.87 362.845 210.136 362.915 210.51 362.915H211.63V364.435H210.19C209.368 364.435 208.739 364.243 208.302 363.859C207.864 363.475 207.646 362.851 207.646 361.987V357.107H206.606V355.619H207.646V353.427H209.486V355.619H211.63V357.107H209.486ZM216.431 364.579C215.737 364.579 215.113 364.456 214.559 364.211C214.015 363.955 213.583 363.613 213.263 363.187C212.943 362.749 212.772 362.264 212.751 361.731H214.639C214.671 362.104 214.847 362.419 215.167 362.675C215.497 362.92 215.908 363.043 216.399 363.043C216.911 363.043 217.305 362.947 217.583 362.755C217.871 362.552 218.015 362.296 218.015 361.987C218.015 361.656 217.855 361.411 217.535 361.251C217.225 361.091 216.729 360.915 216.047 360.723C215.385 360.541 214.847 360.365 214.431 360.195C214.015 360.024 213.652 359.763 213.343 359.411C213.044 359.059 212.895 358.595 212.895 358.019C212.895 357.549 213.033 357.123 213.311 356.739C213.588 356.344 213.983 356.035 214.495 355.811C215.017 355.587 215.615 355.475 216.287 355.475C217.289 355.475 218.095 355.731 218.703 356.243C219.321 356.744 219.652 357.432 219.695 358.307H217.871C217.839 357.912 217.679 357.597 217.391 357.363C217.103 357.128 216.713 357.011 216.223 357.011C215.743 357.011 215.375 357.101 215.119 357.283C214.863 357.464 214.735 357.704 214.735 358.003C214.735 358.237 214.82 358.435 214.991 358.595C215.161 358.755 215.369 358.883 215.615 358.979C215.86 359.064 216.223 359.176 216.703 359.315C217.343 359.485 217.865 359.661 218.271 359.843C218.687 360.013 219.044 360.269 219.343 360.611C219.641 360.952 219.796 361.405 219.807 361.971C219.807 362.472 219.668 362.92 219.391 363.315C219.113 363.709 218.719 364.019 218.207 364.243C217.705 364.467 217.113 364.579 216.431 364.579ZM234.366 364.435L232.99 363.059C232.456 363.592 231.875 363.992 231.246 364.259C230.616 364.515 229.912 364.643 229.134 364.643C228.344 364.643 227.646 364.504 227.038 364.227C226.43 363.949 225.96 363.555 225.63 363.043C225.299 362.52 225.134 361.917 225.134 361.235C225.134 360.467 225.352 359.784 225.79 359.187C226.227 358.579 226.878 358.099 227.742 357.747C227.432 357.373 227.214 357.027 227.086 356.707C226.958 356.376 226.894 356.013 226.894 355.619C226.894 355.128 227.016 354.691 227.262 354.307C227.518 353.923 227.88 353.619 228.35 353.395C228.819 353.171 229.363 353.059 229.982 353.059C230.611 353.059 231.144 353.181 231.582 353.427C232.03 353.661 232.36 353.987 232.574 354.403C232.798 354.819 232.888 355.283 232.846 355.795H231.022C231.032 355.4 230.936 355.096 230.734 354.883C230.531 354.659 230.254 354.547 229.902 354.547C229.55 354.547 229.262 354.653 229.038 354.867C228.824 355.069 228.718 355.32 228.718 355.619C228.718 355.907 228.798 356.195 228.958 356.483C229.128 356.76 229.422 357.123 229.838 357.571L232.782 360.499L233.918 358.627H235.886L234.446 361.091L234.046 361.747L236.75 364.435H234.366ZM229.134 363.091C230.136 363.091 231.022 362.68 231.79 361.859L228.846 358.899C227.587 359.4 226.958 360.157 226.958 361.171C226.958 361.715 227.16 362.173 227.566 362.547C227.971 362.909 228.494 363.091 229.134 363.091ZM249.126 353.315V354.803H246.166V364.435H244.342V354.803H241.366V353.315H249.126ZM250.285 359.987C250.285 359.101 250.466 358.317 250.829 357.635C251.202 356.952 251.704 356.424 252.333 356.051C252.973 355.667 253.677 355.475 254.445 355.475C255.138 355.475 255.741 355.613 256.253 355.891C256.776 356.157 257.192 356.493 257.501 356.899V355.619H259.341V364.435H257.501V363.123C257.192 363.539 256.77 363.885 256.237 364.163C255.704 364.44 255.096 364.579 254.413 364.579C253.656 364.579 252.962 364.387 252.333 364.003C251.704 363.608 251.202 363.064 250.829 362.371C250.466 361.667 250.285 360.872 250.285 359.987ZM257.501 360.019C257.501 359.411 257.373 358.883 257.117 358.435C256.872 357.987 256.546 357.645 256.141 357.411C255.736 357.176 255.298 357.059 254.829 357.059C254.36 357.059 253.922 357.176 253.517 357.411C253.112 357.635 252.781 357.971 252.525 358.419C252.28 358.856 252.157 359.379 252.157 359.987C252.157 360.595 252.28 361.128 252.525 361.587C252.781 362.045 253.112 362.397 253.517 362.643C253.933 362.877 254.37 362.995 254.829 362.995C255.298 362.995 255.736 362.877 256.141 362.643C256.546 362.408 256.872 362.067 257.117 361.619C257.373 361.16 257.501 360.627 257.501 360.019ZM264.857 364.579C264.164 364.579 263.54 364.456 262.985 364.211C262.441 363.955 262.009 363.613 261.689 363.187C261.369 362.749 261.198 362.264 261.177 361.731H263.065C263.097 362.104 263.273 362.419 263.593 362.675C263.924 362.92 264.334 363.043 264.825 363.043C265.337 363.043 265.732 362.947 266.009 362.755C266.297 362.552 266.441 362.296 266.441 361.987C266.441 361.656 266.281 361.411 265.961 361.251C265.652 361.091 265.156 360.915 264.473 360.723C263.812 360.541 263.273 360.365 262.857 360.195C262.441 360.024 262.078 359.763 261.769 359.411C261.47 359.059 261.321 358.595 261.321 358.019C261.321 357.549 261.46 357.123 261.737 356.739C262.014 356.344 262.409 356.035 262.921 355.811C263.444 355.587 264.041 355.475 264.713 355.475C265.716 355.475 266.521 355.731 267.129 356.243C267.748 356.744 268.078 357.432 268.121 358.307H266.297C266.265 357.912 266.105 357.597 265.817 357.363C265.529 357.128 265.14 357.011 264.649 357.011C264.169 357.011 263.801 357.101 263.545 357.283C263.289 357.464 263.161 357.704 263.161 358.003C263.161 358.237 263.246 358.435 263.417 358.595C263.588 358.755 263.796 358.883 264.041 358.979C264.286 359.064 264.649 359.176 265.129 359.315C265.769 359.485 266.292 359.661 266.697 359.843C267.113 360.013 267.47 360.269 267.769 360.611C268.068 360.952 268.222 361.405 268.233 361.971C268.233 362.472 268.094 362.92 267.817 363.315C267.54 363.709 267.145 364.019 266.633 364.243C266.132 364.467 265.54 364.579 264.857 364.579ZM273.612 360.035L277.676 364.435H275.212L271.948 360.643V364.435H270.124V352.595H271.948V359.475L275.148 355.619H277.676L273.612 360.035ZM282.103 364.579C281.41 364.579 280.786 364.456 280.231 364.211C279.687 363.955 279.255 363.613 278.935 363.187C278.615 362.749 278.444 362.264 278.423 361.731H280.311C280.343 362.104 280.519 362.419 280.839 362.675C281.17 362.92 281.58 363.043 282.071 363.043C282.583 363.043 282.978 362.947 283.255 362.755C283.543 362.552 283.687 362.296 283.687 361.987C283.687 361.656 283.527 361.411 283.207 361.251C282.898 361.091 282.402 360.915 281.719 360.723C281.058 360.541 280.519 360.365 280.103 360.195C279.687 360.024 279.324 359.763 279.015 359.411C278.716 359.059 278.567 358.595 278.567 358.019C278.567 357.549 278.706 357.123 278.983 356.739C279.26 356.344 279.655 356.035 280.167 355.811C280.69 355.587 281.287 355.475 281.959 355.475C282.962 355.475 283.767 355.731 284.375 356.243C284.994 356.744 285.324 357.432 285.367 358.307H283.543C283.511 357.912 283.351 357.597 283.063 357.363C282.775 357.128 282.386 357.011 281.895 357.011C281.415 357.011 281.047 357.101 280.791 357.283C280.535 357.464 280.407 357.704 280.407 358.003C280.407 358.237 280.492 358.435 280.663 358.595C280.834 358.755 281.042 358.883 281.287 358.979C281.532 359.064 281.895 359.176 282.375 359.315C283.015 359.485 283.538 359.661 283.943 359.843C284.359 360.013 284.716 360.269 285.015 360.611C285.314 360.952 285.468 361.405 285.479 361.971C285.479 362.472 285.34 362.92 285.063 363.315C284.786 363.709 284.391 364.019 283.879 364.243C283.378 364.467 282.786 364.579 282.103 364.579ZM292.374 354.451C292.044 354.451 291.766 354.339 291.542 354.115C291.318 353.891 291.206 353.613 291.206 353.283C291.206 352.952 291.318 352.675 291.542 352.451C291.766 352.227 292.044 352.115 292.374 352.115C292.694 352.115 292.966 352.227 293.19 352.451C293.414 352.675 293.526 352.952 293.526 353.283C293.526 353.613 293.414 353.891 293.19 354.115C292.966 354.339 292.694 354.451 292.374 354.451ZM293.27 355.619V364.435H291.446V355.619H293.27ZM300.033 355.475C300.726 355.475 301.345 355.619 301.889 355.907C302.444 356.195 302.876 356.621 303.185 357.187C303.494 357.752 303.649 358.435 303.649 359.235V364.435H301.841V359.507C301.841 358.717 301.644 358.115 301.249 357.699C300.854 357.272 300.316 357.059 299.633 357.059C298.95 357.059 298.406 357.272 298.001 357.699C297.606 358.115 297.409 358.717 297.409 359.507V364.435H295.585V355.619H297.409V356.627C297.708 356.264 298.086 355.981 298.545 355.779C299.014 355.576 299.51 355.475 300.033 355.475ZM315.044 364.547C314.009 364.547 313.055 364.307 312.18 363.827C311.316 363.336 310.628 362.659 310.116 361.795C309.615 360.92 309.364 359.939 309.364 358.851C309.364 357.763 309.615 356.787 310.116 355.923C310.628 355.059 311.316 354.387 312.18 353.907C313.055 353.416 314.009 353.171 315.044 353.171C316.089 353.171 317.044 353.416 317.908 353.907C318.783 354.387 319.471 355.059 319.972 355.923C320.473 356.787 320.724 357.763 320.724 358.851C320.724 359.939 320.473 360.92 319.972 361.795C319.471 362.659 318.783 363.336 317.908 363.827C317.044 364.307 316.089 364.547 315.044 364.547ZM315.044 362.963C315.78 362.963 316.436 362.797 317.012 362.467C317.588 362.125 318.036 361.645 318.356 361.027C318.687 360.397 318.852 359.672 318.852 358.851C318.852 358.029 318.687 357.309 318.356 356.691C318.036 356.072 317.588 355.597 317.012 355.267C316.436 354.936 315.78 354.771 315.044 354.771C314.308 354.771 313.652 354.936 313.076 355.267C312.5 355.597 312.047 356.072 311.716 356.691C311.396 357.309 311.236 358.029 311.236 358.851C311.236 359.672 311.396 360.397 311.716 361.027C312.047 361.645 312.5 362.125 313.076 362.467C313.652 362.797 314.308 362.963 315.044 362.963ZM326.887 355.475C327.58 355.475 328.199 355.619 328.743 355.907C329.297 356.195 329.729 356.621 330.039 357.187C330.348 357.752 330.503 358.435 330.503 359.235V364.435H328.695V359.507C328.695 358.717 328.497 358.115 328.103 357.699C327.708 357.272 327.169 357.059 326.487 357.059C325.804 357.059 325.26 357.272 324.855 357.699C324.46 358.115 324.263 358.717 324.263 359.507V364.435H322.439V355.619H324.263V356.627C324.561 356.264 324.94 355.981 325.399 355.779C325.868 355.576 326.364 355.475 326.887 355.475ZM340.829 359.811C340.829 360.141 340.808 360.44 340.765 360.707H334.029C334.083 361.411 334.344 361.976 334.813 362.403C335.283 362.829 335.859 363.043 336.541 363.043C337.523 363.043 338.216 362.632 338.621 361.811H340.589C340.323 362.621 339.837 363.288 339.133 363.811C338.44 364.323 337.576 364.579 336.541 364.579C335.699 364.579 334.941 364.392 334.269 364.019C333.608 363.635 333.085 363.101 332.701 362.419C332.328 361.725 332.141 360.925 332.141 360.019C332.141 359.112 332.323 358.317 332.685 357.635C333.059 356.941 333.576 356.408 334.237 356.035C334.909 355.661 335.677 355.475 336.541 355.475C337.373 355.475 338.115 355.656 338.765 356.019C339.416 356.381 339.923 356.893 340.285 357.555C340.648 358.205 340.829 358.957 340.829 359.811ZM338.925 359.235C338.915 358.563 338.675 358.024 338.205 357.619C337.736 357.213 337.155 357.011 336.461 357.011C335.832 357.011 335.293 357.213 334.845 357.619C334.397 358.013 334.131 358.552 334.045 359.235H338.925ZM166.156 396.547C165.409 396.547 164.737 396.419 164.14 396.163C163.543 395.896 163.073 395.523 162.732 395.043C162.391 394.563 162.22 394.003 162.22 393.363H164.172C164.215 393.843 164.401 394.237 164.732 394.547C165.073 394.856 165.548 395.011 166.156 395.011C166.785 395.011 167.276 394.861 167.628 394.563C167.98 394.253 168.156 393.859 168.156 393.379C168.156 393.005 168.044 392.701 167.82 392.467C167.607 392.232 167.335 392.051 167.004 391.923C166.684 391.795 166.236 391.656 165.66 391.507C164.935 391.315 164.343 391.123 163.884 390.931C163.436 390.728 163.052 390.419 162.732 390.003C162.412 389.587 162.252 389.032 162.252 388.339C162.252 387.699 162.412 387.139 162.732 386.659C163.052 386.179 163.5 385.811 164.076 385.555C164.652 385.299 165.319 385.171 166.076 385.171C167.153 385.171 168.033 385.443 168.716 385.987C169.409 386.52 169.793 387.256 169.868 388.195H167.852C167.82 387.789 167.628 387.443 167.276 387.155C166.924 386.867 166.46 386.723 165.884 386.723C165.361 386.723 164.935 386.856 164.604 387.123C164.273 387.389 164.108 387.773 164.108 388.275C164.108 388.616 164.209 388.899 164.412 389.123C164.625 389.336 164.892 389.507 165.212 389.635C165.532 389.763 165.969 389.901 166.524 390.051C167.26 390.253 167.857 390.456 168.316 390.659C168.785 390.861 169.18 391.176 169.5 391.603C169.831 392.019 169.996 392.579 169.996 393.283C169.996 393.848 169.841 394.381 169.532 394.883C169.233 395.384 168.791 395.789 168.204 396.099C167.628 396.397 166.945 396.547 166.156 396.547ZM173.892 388.915C174.201 388.509 174.623 388.168 175.156 387.891C175.689 387.613 176.292 387.475 176.964 387.475C177.732 387.475 178.431 387.667 179.06 388.051C179.7 388.424 180.201 388.952 180.564 389.635C180.927 390.317 181.108 391.101 181.108 391.987C181.108 392.872 180.927 393.667 180.564 394.371C180.201 395.064 179.7 395.608 179.06 396.003C178.431 396.387 177.732 396.579 176.964 396.579C176.292 396.579 175.695 396.445 175.172 396.179C174.649 395.901 174.223 395.56 173.892 395.155V400.627H172.068V387.619H173.892V388.915ZM179.252 391.987C179.252 391.379 179.124 390.856 178.868 390.419C178.623 389.971 178.292 389.635 177.876 389.411C177.471 389.176 177.033 389.059 176.564 389.059C176.105 389.059 175.668 389.176 175.252 389.411C174.847 389.645 174.516 389.987 174.26 390.435C174.015 390.883 173.892 391.411 173.892 392.019C173.892 392.627 174.015 393.16 174.26 393.619C174.516 394.067 174.847 394.408 175.252 394.643C175.668 394.877 176.105 394.995 176.564 394.995C177.033 394.995 177.471 394.877 177.876 394.643C178.292 394.397 178.623 394.045 178.868 393.587C179.124 393.128 179.252 392.595 179.252 391.987ZM186.656 396.579C185.824 396.579 185.072 396.392 184.4 396.019C183.728 395.635 183.2 395.101 182.816 394.419C182.432 393.725 182.24 392.925 182.24 392.019C182.24 391.123 182.437 390.328 182.832 389.635C183.227 388.941 183.765 388.408 184.448 388.035C185.131 387.661 185.893 387.475 186.736 387.475C187.579 387.475 188.341 387.661 189.024 388.035C189.707 388.408 190.245 388.941 190.64 389.635C191.035 390.328 191.232 391.123 191.232 392.019C191.232 392.915 191.029 393.709 190.624 394.403C190.219 395.096 189.664 395.635 188.96 396.019C188.267 396.392 187.499 396.579 186.656 396.579ZM186.656 394.995C187.125 394.995 187.563 394.883 187.968 394.659C188.384 394.435 188.72 394.099 188.976 393.651C189.232 393.203 189.36 392.659 189.36 392.019C189.36 391.379 189.237 390.84 188.992 390.403C188.747 389.955 188.421 389.619 188.016 389.395C187.611 389.171 187.173 389.059 186.704 389.059C186.235 389.059 185.797 389.171 185.392 389.395C184.997 389.619 184.683 389.955 184.448 390.403C184.213 390.84 184.096 391.379 184.096 392.019C184.096 392.968 184.336 393.704 184.816 394.227C185.307 394.739 185.92 394.995 186.656 394.995ZM195.083 389.107V393.987C195.083 394.317 195.158 394.557 195.307 394.707C195.467 394.845 195.734 394.915 196.107 394.915H197.227V396.435H195.787C194.966 396.435 194.336 396.243 193.899 395.859C193.462 395.475 193.243 394.851 193.243 393.987V389.107H192.203V387.619H193.243V385.427H195.083V387.619H197.227V389.107H195.083Z" fill="#1E1E1E"/>
<defs>
<clipPath id="clip0_1241_4015">
<rect width="338.618" height="208.435" fill="white" transform="translate(10.1909)"/>
</clipPath>
</defs>
</svg>
