<svg width="375" height="332" viewBox="0 0 375 332" fill="none" xmlns="http://www.w3.org/2000/svg">
<g filter="url(#filter0_d_1712_19758)">
<rect x="16" y="41.4805" width="343" height="245.52" rx="10.6632" fill="white"/>
</g>
<g clip-path="url(#clip0_1712_19758)">
<path d="M28.77 70.0142C28.8167 69.0809 29.1433 68.3622 29.75 67.8582C30.366 67.3449 31.1733 67.0882 32.172 67.0882C32.8533 67.0882 33.4367 67.2096 33.922 67.4522C34.4073 67.6856 34.7713 68.0076 35.014 68.4182C35.266 68.8196 35.392 69.2769 35.392 69.7902C35.392 70.3782 35.238 70.8776 34.93 71.2882C34.6313 71.6896 34.272 71.9602 33.852 72.1002V72.1562C34.3933 72.3242 34.8133 72.6229 35.112 73.0522C35.42 73.4816 35.574 74.0322 35.574 74.7042C35.574 75.2642 35.4433 75.7636 35.182 76.2022C34.93 76.6409 34.552 76.9862 34.048 77.2382C33.5533 77.4809 32.956 77.6022 32.256 77.6022C31.2013 77.6022 30.3427 77.3362 29.68 76.8042C29.0173 76.2722 28.6673 75.4882 28.63 74.4522H30.534C30.5527 74.9096 30.7067 75.2782 30.996 75.5582C31.2947 75.8289 31.7007 75.9642 32.214 75.9642C32.69 75.9642 33.054 75.8336 33.306 75.5722C33.5673 75.3016 33.698 74.9562 33.698 74.5362C33.698 73.9762 33.5207 73.5749 33.166 73.3322C32.8113 73.0896 32.2607 72.9682 31.514 72.9682H31.108V71.3582H31.514C32.8393 71.3582 33.502 70.9149 33.502 70.0282C33.502 69.6269 33.3807 69.3142 33.138 69.0902C32.9047 68.8662 32.564 68.7542 32.116 68.7542C31.6773 68.7542 31.3367 68.8756 31.094 69.1182C30.8607 69.3516 30.7253 69.6502 30.688 70.0142H28.77ZM46.828 69.6642C47.416 69.6642 47.9387 69.7949 48.396 70.0562C48.8533 70.3082 49.208 70.6862 49.46 71.1902C49.7213 71.6849 49.852 72.2822 49.852 72.9822V77.5322H47.892V73.2482C47.892 72.6322 47.738 72.1609 47.43 71.8342C47.122 71.4982 46.702 71.3302 46.17 71.3302C45.6287 71.3302 45.1993 71.4982 44.882 71.8342C44.574 72.1609 44.42 72.6322 44.42 73.2482V77.5322H42.46V67.1722H44.42V70.7422C44.672 70.4062 45.008 70.1449 45.428 69.9582C45.848 69.7622 46.3147 69.6642 46.828 69.6642ZM56.521 75.5442V74.0042L61.099 67.4522H63.381V73.8362H64.613V75.5442H63.381V77.5322H61.421V75.5442H56.521ZM61.547 69.5522L58.677 73.8362H61.547V69.5522ZM73.6095 69.0202H69.0735V71.4142C69.2695 71.1716 69.5495 70.9756 69.9135 70.8262C70.2775 70.6676 70.6648 70.5882 71.0755 70.5882C71.8221 70.5882 72.4335 70.7516 72.9095 71.0782C73.3855 71.4049 73.7308 71.8249 73.9455 72.3382C74.1601 72.8422 74.2675 73.3836 74.2675 73.9622C74.2675 75.0356 73.9595 75.8989 73.3435 76.5522C72.7368 77.2056 71.8688 77.5322 70.7395 77.5322C69.6755 77.5322 68.8261 77.2662 68.1915 76.7342C67.5568 76.2022 67.1975 75.5069 67.1135 74.6482H69.0175C69.1015 75.0216 69.2881 75.3202 69.5775 75.5442C69.8761 75.7682 70.2541 75.8802 70.7115 75.8802C71.2621 75.8802 71.6775 75.7076 71.9575 75.3622C72.2375 75.0169 72.3775 74.5596 72.3775 73.9902C72.3775 73.4116 72.2328 72.9729 71.9435 72.6742C71.6635 72.3662 71.2481 72.2122 70.6975 72.2122C70.3055 72.2122 69.9788 72.3102 69.7175 72.5062C69.4561 72.7022 69.2695 72.9636 69.1575 73.2902H67.2815V67.2982H73.6095V69.0202ZM90.7284 69.6642C91.6804 69.6642 92.4457 69.9582 93.0244 70.5462C93.6124 71.1249 93.9064 71.9369 93.9064 72.9822V77.5322H91.9464V73.2482C91.9464 72.6416 91.7924 72.1796 91.4844 71.8622C91.1764 71.5356 90.7564 71.3722 90.2244 71.3722C89.6924 71.3722 89.2677 71.5356 88.9504 71.8622C88.6424 72.1796 88.4884 72.6416 88.4884 73.2482V77.5322H86.5284V73.2482C86.5284 72.6416 86.3744 72.1796 86.0664 71.8622C85.7584 71.5356 85.3384 71.3722 84.8064 71.3722C84.265 71.3722 83.8357 71.5356 83.5184 71.8622C83.2104 72.1796 83.0564 72.6416 83.0564 73.2482V77.5322H81.0964V69.7762H83.0564V70.7142C83.3084 70.3876 83.6304 70.1309 84.0224 69.9442C84.4237 69.7576 84.8624 69.6642 85.3384 69.6642C85.945 69.6642 86.4864 69.7949 86.9624 70.0562C87.4384 70.3082 87.807 70.6722 88.0684 71.1482C88.3204 70.7002 88.6844 70.3409 89.1604 70.0702C89.6457 69.7996 90.1684 69.6642 90.7284 69.6642Z" fill="#1E1E1E"/>
<path d="M34.528 86.7051V88.0611H32.296V95.0811H30.616V88.0611H28.384V86.7051H34.528ZM39.5944 95.1891C38.9544 95.1891 38.3784 95.0491 37.8664 94.7691C37.3544 94.4811 36.9504 94.0771 36.6544 93.5571C36.3664 93.0371 36.2224 92.4371 36.2224 91.7571C36.2224 91.0771 36.3704 90.4771 36.6664 89.9571C36.9704 89.4371 37.3824 89.0371 37.9024 88.7571C38.4224 88.4691 39.0024 88.3251 39.6424 88.3251C40.2824 88.3251 40.8624 88.4691 41.3824 88.7571C41.9024 89.0371 42.3104 89.4371 42.6064 89.9571C42.9104 90.4771 43.0624 91.0771 43.0624 91.7571C43.0624 92.4371 42.9064 93.0371 42.5944 93.5571C42.2904 94.0771 41.8744 94.4811 41.3464 94.7691C40.8264 95.0491 40.2424 95.1891 39.5944 95.1891ZM39.5944 93.7251C39.8984 93.7251 40.1824 93.6531 40.4464 93.5091C40.7184 93.3571 40.9344 93.1331 41.0944 92.8371C41.2544 92.5411 41.3344 92.1811 41.3344 91.7571C41.3344 91.1251 41.1664 90.6411 40.8304 90.3051C40.5024 89.9611 40.0984 89.7891 39.6184 89.7891C39.1384 89.7891 38.7344 89.9611 38.4064 90.3051C38.0864 90.6411 37.9264 91.1251 37.9264 91.7571C37.9264 92.3891 38.0824 92.8771 38.3944 93.2211C38.7144 93.5571 39.1144 93.7251 39.5944 93.7251ZM44.7513 91.7331C44.7513 91.0611 44.8833 90.4651 45.1473 89.9451C45.4193 89.4251 45.7873 89.0251 46.2513 88.7451C46.7153 88.4651 47.2313 88.3251 47.7993 88.3251C48.2313 88.3251 48.6433 88.4211 49.0353 88.6131C49.4273 88.7971 49.7393 89.0451 49.9713 89.3571V86.2011H51.6753V95.0811H49.9713V94.0971C49.7633 94.4251 49.4713 94.6891 49.0953 94.8891C48.7193 95.0891 48.2833 95.1891 47.7873 95.1891C47.2273 95.1891 46.7153 95.0451 46.2513 94.7571C45.7873 94.4691 45.4193 94.0651 45.1473 93.5451C44.8833 93.0171 44.7513 92.4131 44.7513 91.7331ZM49.9833 91.7571C49.9833 91.3491 49.9033 91.0011 49.7433 90.7131C49.5833 90.4171 49.3673 90.1931 49.0953 90.0411C48.8233 89.8811 48.5313 89.8011 48.2193 89.8011C47.9073 89.8011 47.6193 89.8771 47.3553 90.0291C47.0913 90.1811 46.8753 90.4051 46.7073 90.7011C46.5473 90.9891 46.4673 91.3331 46.4673 91.7331C46.4673 92.1331 46.5473 92.4851 46.7073 92.7891C46.8753 93.0851 47.0913 93.3131 47.3553 93.4731C47.6273 93.6331 47.9153 93.7131 48.2193 93.7131C48.5313 93.7131 48.8233 93.6371 49.0953 93.4851C49.3673 93.3251 49.5833 93.1011 49.7433 92.8131C49.9033 92.5171 49.9833 92.1651 49.9833 91.7571ZM53.7727 91.7331C53.7727 91.0611 53.9047 90.4651 54.1687 89.9451C54.4407 89.4251 54.8047 89.0251 55.2607 88.7451C55.7247 88.4651 56.2407 88.3251 56.8087 88.3251C57.3047 88.3251 57.7367 88.4251 58.1047 88.6251C58.4807 88.8251 58.7807 89.0771 59.0047 89.3811V88.4331H60.6967V95.0811H59.0047V94.1091C58.7887 94.4211 58.4887 94.6811 58.1047 94.8891C57.7287 95.0891 57.2927 95.1891 56.7967 95.1891C56.2367 95.1891 55.7247 95.0451 55.2607 94.7571C54.8047 94.4691 54.4407 94.0651 54.1687 93.5451C53.9047 93.0171 53.7727 92.4131 53.7727 91.7331ZM59.0047 91.7571C59.0047 91.3491 58.9247 91.0011 58.7647 90.7131C58.6047 90.4171 58.3887 90.1931 58.1167 90.0411C57.8447 89.8811 57.5527 89.8011 57.2407 89.8011C56.9287 89.8011 56.6407 89.8771 56.3767 90.0291C56.1127 90.1811 55.8967 90.4051 55.7287 90.7011C55.5687 90.9891 55.4887 91.3331 55.4887 91.7331C55.4887 92.1331 55.5687 92.4851 55.7287 92.7891C55.8967 93.0851 56.1127 93.3131 56.3767 93.4731C56.6487 93.6331 56.9367 93.7131 57.2407 93.7131C57.5527 93.7131 57.8447 93.6371 58.1167 93.4851C58.3887 93.3251 58.6047 93.1011 58.7647 92.8131C58.9247 92.5171 59.0047 92.1651 59.0047 91.7571ZM69.5862 88.4331L65.4702 98.2251H63.6822L65.1222 94.9131L62.4582 88.4331H64.3422L66.0582 93.0771L67.7982 88.4331H69.5862Z" fill="#8B9390"/>
</g>
<path d="M28.4395 239.748H318.123" stroke="#F7F8F8" stroke-width="0.888601"/>
<path d="M28.4395 196.879H318.123" stroke="#F7F8F8" stroke-width="0.888601"/>
<path d="M28.4395 154.011H318.123" stroke="#F7F8F8" stroke-width="0.888601"/>
<path d="M28.4395 112.116H318.123" stroke="#F7F8F8" stroke-width="0.888601"/>
<g clip-path="url(#clip1_1712_19758)">
<path d="M37.2899 259.938V267.381H35.7971V262.54L33.803 267.381H32.6727L30.6681 262.54V267.381H29.1752V259.938H30.8707L33.2379 265.472L35.6051 259.938H37.2899ZM42.2776 267.477C41.7089 267.477 41.1971 267.352 40.7421 267.104C40.2871 266.848 39.9281 266.489 39.6651 266.027C39.4092 265.565 39.2812 265.031 39.2812 264.427C39.2812 263.823 39.4128 263.29 39.6758 262.828C39.9459 262.366 40.312 262.01 40.7741 261.761C41.2362 261.505 41.7516 261.377 42.3203 261.377C42.889 261.377 43.4044 261.505 43.8664 261.761C44.3285 262.01 44.6911 262.366 44.9541 262.828C45.2242 263.29 45.3593 263.823 45.3593 264.427C45.3593 265.031 45.2207 265.565 44.9434 266.027C44.6733 266.489 44.3036 266.848 43.8344 267.104C43.3724 267.352 42.8534 267.477 42.2776 267.477ZM42.2776 266.176C42.5477 266.176 42.8001 266.112 43.0347 265.984C43.2764 265.849 43.4683 265.65 43.6105 265.387C43.7527 265.124 43.8238 264.804 43.8238 264.427C43.8238 263.866 43.6745 263.435 43.3759 263.137C43.0845 262.831 42.7255 262.678 42.2989 262.678C41.8724 262.678 41.5134 262.831 41.222 263.137C40.9376 263.435 40.7954 263.866 40.7954 264.427C40.7954 264.989 40.934 265.422 41.2113 265.728C41.4956 266.027 41.8511 266.176 42.2776 266.176ZM50.6165 261.388C51.3203 261.388 51.889 261.612 52.3227 262.06C52.7563 262.501 52.9731 263.119 52.9731 263.915V267.381H51.4803V264.118C51.4803 263.649 51.363 263.29 51.1284 263.041C50.8938 262.785 50.5739 262.657 50.1687 262.657C49.7564 262.657 49.4294 262.785 49.1877 263.041C48.9531 263.29 48.8358 263.649 48.8358 264.118V267.381H47.3429V261.473H48.8358V262.209C49.0348 261.953 49.2872 261.754 49.5929 261.612C49.9057 261.463 50.2469 261.388 50.6165 261.388Z" fill="#1E1E1E"/>
<path d="M34.6602 160.188C34.6602 156.507 37.644 153.523 41.3247 153.523C45.0054 153.523 47.9892 156.507 47.9892 160.188V240.235H34.6602V160.188Z" fill="#F2F2F2"/>
</g>
<g clip-path="url(#clip2_1712_19758)">
<path d="M82.4453 261.337V262.542H80.462V268.78H78.9691V262.542H76.9858V261.337H82.4453ZM90 262.873V268.78H88.4965V268.034C88.3046 268.29 88.0522 268.492 87.7394 268.642C87.4338 268.784 87.0996 268.855 86.7371 268.855C86.275 268.855 85.8663 268.759 85.5108 268.567C85.1554 268.368 84.8746 268.08 84.6684 267.703C84.4694 267.319 84.3699 266.864 84.3699 266.338V262.873H85.8627V266.125C85.8627 266.594 85.98 266.957 86.2146 267.213C86.4492 267.462 86.7691 267.586 87.1743 267.586C87.5866 267.586 87.91 267.462 88.1446 267.213C88.3792 266.957 88.4965 266.594 88.4965 266.125V262.873H90ZM97.8531 265.699C97.8531 265.912 97.8389 266.104 97.8105 266.274H93.4919C93.5274 266.701 93.6767 267.035 93.9397 267.277C94.2028 267.518 94.5262 267.639 94.9101 267.639C95.4646 267.639 95.8591 267.401 96.0937 266.925H97.7038C97.5332 267.494 97.2062 267.963 96.7228 268.332C96.2394 268.695 95.6458 268.876 94.9421 268.876C94.3734 268.876 93.8615 268.752 93.4066 268.503C92.9587 268.247 92.6068 267.888 92.3509 267.426C92.1021 266.964 91.9777 266.431 91.9777 265.827C91.9777 265.215 92.1021 264.678 92.3509 264.216C92.5997 263.754 92.948 263.399 93.3959 263.15C93.8438 262.901 94.3591 262.777 94.9421 262.777C95.5037 262.777 96.0048 262.898 96.4456 263.139C96.8934 263.381 97.2382 263.726 97.4799 264.174C97.7287 264.615 97.8531 265.123 97.8531 265.699ZM96.307 265.272C96.2999 264.888 96.1612 264.583 95.8911 264.355C95.621 264.12 95.2904 264.003 94.8994 264.003C94.5298 264.003 94.217 264.117 93.9611 264.344C93.7122 264.565 93.5594 264.874 93.5025 265.272H96.307Z" fill="#1E1E1E"/>
<path d="M80.8672 187.468C80.8672 183.788 83.851 180.804 87.5317 180.804C91.2124 180.804 94.1962 183.788 94.1962 187.468V240.235H80.8672V187.468Z" fill="#F2F2F2"/>
</g>
<g clip-path="url(#clip3_1712_19758)">
<path d="M130.897 258.966L128.818 266.409H127.058L125.661 261.11L124.2 266.409L122.452 266.42L120.447 258.966H122.046L123.358 264.746L124.872 258.966H126.536L127.965 264.714L129.287 258.966H130.897ZM138.252 263.328C138.252 263.541 138.238 263.733 138.209 263.903H133.891C133.926 264.33 134.075 264.664 134.338 264.906C134.601 265.147 134.925 265.268 135.309 265.268C135.863 265.268 136.258 265.03 136.492 264.554H138.103C137.932 265.122 137.605 265.592 137.122 265.961C136.638 266.324 136.045 266.505 135.341 266.505C134.772 266.505 134.26 266.381 133.805 266.132C133.357 265.876 133.006 265.517 132.75 265.055C132.501 264.593 132.376 264.06 132.376 263.455C132.376 262.844 132.501 262.307 132.75 261.845C132.998 261.383 133.347 261.028 133.795 260.779C134.243 260.53 134.758 260.406 135.341 260.406C135.902 260.406 136.404 260.527 136.844 260.768C137.292 261.01 137.637 261.355 137.879 261.803C138.127 262.243 138.252 262.752 138.252 263.328ZM136.706 262.901C136.699 262.517 136.56 262.211 136.29 261.984C136.02 261.749 135.689 261.632 135.298 261.632C134.929 261.632 134.616 261.746 134.36 261.973C134.111 262.194 133.958 262.503 133.901 262.901H136.706ZM139.846 263.434C139.846 262.837 139.964 262.307 140.198 261.845C140.44 261.383 140.767 261.028 141.179 260.779C141.591 260.53 142.05 260.406 142.555 260.406C142.939 260.406 143.305 260.491 143.653 260.662C144.001 260.825 144.279 261.046 144.485 261.323V258.518H145.999V266.409H144.485V265.535C144.3 265.826 144.04 266.061 143.706 266.239C143.372 266.416 142.985 266.505 142.544 266.505C142.046 266.505 141.591 266.377 141.179 266.121C140.767 265.865 140.44 265.506 140.198 265.044C139.964 264.575 139.846 264.038 139.846 263.434ZM144.495 263.455C144.495 263.093 144.424 262.784 144.282 262.528C144.14 262.265 143.948 262.066 143.706 261.931C143.465 261.788 143.205 261.717 142.928 261.717C142.651 261.717 142.395 261.785 142.16 261.92C141.926 262.055 141.734 262.254 141.584 262.517C141.442 262.773 141.371 263.079 141.371 263.434C141.371 263.79 141.442 264.102 141.584 264.373C141.734 264.636 141.926 264.838 142.16 264.98C142.402 265.122 142.658 265.194 142.928 265.194C143.205 265.194 143.465 265.126 143.706 264.991C143.948 264.849 144.14 264.65 144.282 264.394C144.424 264.131 144.495 263.818 144.495 263.455Z" fill="#1E1E1E"/>
<path d="M127.074 137.779C127.074 134.098 130.058 131.114 133.739 131.114C137.419 131.114 140.403 134.098 140.403 137.779V240.234H127.074V137.779Z" fill="#F2F2F2"/>
</g>
<g clip-path="url(#clip4_1712_19758)">
<path d="M176.902 260.309V261.514H174.919V267.752H173.426V261.514H171.443V260.309H176.902ZM182.207 261.759C182.655 261.759 183.053 261.859 183.401 262.058C183.75 262.25 184.02 262.538 184.212 262.922C184.411 263.298 184.51 263.753 184.51 264.286V267.752H183.018V264.489C183.018 264.02 182.9 263.661 182.666 263.412C182.431 263.156 182.111 263.028 181.706 263.028C181.294 263.028 180.967 263.156 180.725 263.412C180.49 263.661 180.373 264.02 180.373 264.489V267.752H178.88V259.861H180.373V262.58C180.565 262.324 180.821 262.125 181.141 261.983C181.461 261.834 181.816 261.759 182.207 261.759ZM192.396 261.845V267.752H190.892V267.006C190.7 267.261 190.448 267.464 190.135 267.613C189.829 267.756 189.495 267.827 189.133 267.827C188.671 267.827 188.262 267.731 187.906 267.539C187.551 267.34 187.27 267.052 187.064 266.675C186.865 266.291 186.765 265.836 186.765 265.31V261.845H188.258V265.097C188.258 265.566 188.376 265.929 188.61 266.184C188.845 266.433 189.165 266.558 189.57 266.558C189.982 266.558 190.306 266.433 190.54 266.184C190.775 265.929 190.892 265.566 190.892 265.097V261.845H192.396Z" fill="#0C8CE9"/>
<path d="M175.061 175.777C175.061 172.096 178.044 169.112 181.725 169.112C185.406 169.112 188.39 172.096 188.39 175.777V240.235H175.061V175.777Z" fill="#0C8CE9"/>
</g>
<g clip-path="url(#clip5_1712_19758)">
<path d="M221.412 258.966V260.171H218.309V262.08H220.687V263.264H218.309V266.409H216.816V258.966H221.412ZM224.852 261.419C225.044 261.106 225.293 260.861 225.598 260.683C225.911 260.505 226.267 260.416 226.665 260.416V261.984H226.27C225.801 261.984 225.446 262.094 225.204 262.315C224.969 262.535 224.852 262.919 224.852 263.466V266.409H223.359V260.502H224.852V261.419ZM229.316 259.798C229.053 259.798 228.832 259.716 228.655 259.553C228.484 259.382 228.399 259.172 228.399 258.924C228.399 258.675 228.484 258.469 228.655 258.305C228.832 258.135 229.053 258.049 229.316 258.049C229.579 258.049 229.796 258.135 229.966 258.305C230.144 258.469 230.233 258.675 230.233 258.924C230.233 259.172 230.144 259.382 229.966 259.553C229.796 259.716 229.579 259.798 229.316 259.798ZM230.052 260.502V266.409H228.559V260.502H230.052Z" fill="#1E1E1E"/>
<path d="M216.824 137.779C216.824 134.098 219.808 131.114 223.489 131.114C227.169 131.114 230.153 134.098 230.153 137.779V240.234H216.824V137.779Z" fill="#F2F2F2"/>
</g>
<g clip-path="url(#clip6_1712_19758)">
<path d="M256.743 267.827C256.225 267.827 255.755 267.738 255.336 267.56C254.924 267.382 254.597 267.126 254.355 266.792C254.113 266.458 253.989 266.064 253.982 265.609H255.581C255.602 265.914 255.709 266.156 255.901 266.334C256.1 266.511 256.37 266.6 256.711 266.6C257.06 266.6 257.333 266.519 257.533 266.355C257.732 266.184 257.831 265.964 257.831 265.694C257.831 265.474 257.764 265.292 257.629 265.15C257.493 265.008 257.323 264.898 257.117 264.82C256.918 264.734 256.64 264.642 256.285 264.542C255.802 264.4 255.407 264.262 255.101 264.126C254.803 263.984 254.543 263.775 254.323 263.497C254.11 263.213 254.003 262.836 254.003 262.367C254.003 261.926 254.113 261.542 254.334 261.215C254.554 260.888 254.863 260.64 255.261 260.469C255.659 260.291 256.114 260.202 256.626 260.202C257.394 260.202 258.016 260.391 258.492 260.768C258.976 261.137 259.242 261.656 259.292 262.324H257.65C257.636 262.068 257.525 261.859 257.319 261.695C257.12 261.525 256.854 261.439 256.52 261.439C256.228 261.439 255.993 261.514 255.816 261.663C255.645 261.813 255.56 262.029 255.56 262.314C255.56 262.513 255.624 262.68 255.752 262.815C255.887 262.943 256.05 263.049 256.242 263.135C256.441 263.213 256.719 263.305 257.074 263.412C257.557 263.554 257.952 263.696 258.258 263.839C258.563 263.981 258.826 264.194 259.047 264.478C259.267 264.763 259.377 265.136 259.377 265.598C259.377 265.996 259.274 266.366 259.068 266.707C258.862 267.048 258.56 267.322 258.162 267.528C257.764 267.727 257.291 267.827 256.743 267.827ZM261.176 264.777C261.176 264.18 261.294 263.65 261.528 263.188C261.77 262.726 262.093 262.371 262.498 262.122C262.911 261.873 263.369 261.749 263.874 261.749C264.315 261.749 264.699 261.837 265.026 262.015C265.36 262.193 265.626 262.417 265.825 262.687V261.845H267.329V267.752H265.825V266.888C265.633 267.165 265.367 267.397 265.026 267.581C264.692 267.759 264.304 267.848 263.863 267.848C263.366 267.848 262.911 267.72 262.498 267.464C262.093 267.208 261.77 266.849 261.528 266.387C261.294 265.918 261.176 265.381 261.176 264.777ZM265.825 264.798C265.825 264.436 265.754 264.126 265.612 263.871C265.47 263.608 265.278 263.408 265.036 263.273C264.795 263.131 264.535 263.06 264.258 263.06C263.981 263.06 263.725 263.128 263.49 263.263C263.256 263.398 263.064 263.597 262.914 263.86C262.772 264.116 262.701 264.421 262.701 264.777C262.701 265.132 262.772 265.445 262.914 265.715C263.064 265.978 263.256 266.181 263.49 266.323C263.732 266.465 263.988 266.536 264.258 266.536C264.535 266.536 264.795 266.469 265.036 266.334C265.278 266.192 265.47 265.993 265.612 265.737C265.754 265.474 265.825 265.161 265.825 264.798ZM271.414 263.071V265.929C271.414 266.128 271.46 266.273 271.552 266.366C271.652 266.451 271.815 266.494 272.043 266.494H272.736V267.752H271.798C270.539 267.752 269.91 267.141 269.91 265.918V263.071H269.206V261.845H269.91V260.384H271.414V261.845H272.736V263.071H271.414Z" fill="#1E1E1E"/>
<path d="M256.811 175.777C256.811 172.096 259.794 169.112 263.475 169.112C267.156 169.112 270.14 172.096 270.14 175.777V240.235H256.811V175.777Z" fill="#F2F2F2"/>
</g>
<g clip-path="url(#clip7_1712_19758)">
<path d="M299.841 265.857C299.322 265.857 298.853 265.768 298.434 265.59C298.021 265.413 297.694 265.157 297.452 264.823C297.211 264.488 297.086 264.094 297.079 263.639H298.679C298.7 263.945 298.807 264.186 298.999 264.364C299.198 264.542 299.468 264.631 299.809 264.631C300.157 264.631 300.431 264.549 300.63 264.385C300.829 264.215 300.929 263.994 300.929 263.724C300.929 263.504 300.861 263.323 300.726 263.18C300.591 263.038 300.42 262.928 300.214 262.85C300.015 262.765 299.738 262.672 299.383 262.573C298.899 262.43 298.505 262.292 298.199 262.157C297.9 262.015 297.641 261.805 297.421 261.528C297.207 261.243 297.101 260.866 297.101 260.397C297.101 259.957 297.211 259.573 297.431 259.246C297.652 258.919 297.961 258.67 298.359 258.499C298.757 258.322 299.212 258.233 299.724 258.233C300.492 258.233 301.114 258.421 301.59 258.798C302.073 259.167 302.34 259.686 302.39 260.355H300.747C300.733 260.099 300.623 259.889 300.417 259.726C300.218 259.555 299.951 259.47 299.617 259.47C299.326 259.47 299.091 259.544 298.913 259.694C298.743 259.843 298.657 260.06 298.657 260.344C298.657 260.543 298.721 260.71 298.849 260.845C298.984 260.973 299.148 261.08 299.34 261.165C299.539 261.243 299.816 261.336 300.172 261.442C300.655 261.584 301.05 261.727 301.355 261.869C301.661 262.011 301.924 262.224 302.144 262.509C302.365 262.793 302.475 263.166 302.475 263.628C302.475 264.026 302.372 264.396 302.166 264.737C301.959 265.078 301.657 265.352 301.259 265.558C300.861 265.757 300.388 265.857 299.841 265.857ZM310.235 259.875V265.782H308.731V265.036C308.539 265.292 308.287 265.494 307.974 265.644C307.668 265.786 307.334 265.857 306.972 265.857C306.51 265.857 306.101 265.761 305.745 265.569C305.39 265.37 305.109 265.082 304.903 264.705C304.704 264.321 304.604 263.866 304.604 263.34V259.875H306.097V263.127C306.097 263.596 306.215 263.959 306.449 264.215C306.684 264.464 307.004 264.588 307.409 264.588C307.821 264.588 308.145 264.464 308.379 264.215C308.614 263.959 308.731 263.596 308.731 263.127V259.875H310.235ZM315.87 259.79C316.573 259.79 317.142 260.013 317.576 260.461C318.009 260.902 318.226 261.52 318.226 262.317V265.782H316.733V262.519C316.733 262.05 316.616 261.691 316.382 261.442C316.147 261.186 315.827 261.058 315.422 261.058C315.01 261.058 314.683 261.186 314.441 261.442C314.206 261.691 314.089 262.05 314.089 262.519V265.782H312.596V259.875H314.089V260.611C314.288 260.355 314.54 260.156 314.846 260.013C315.159 259.864 315.5 259.79 315.87 259.79Z" fill="#1E1E1E"/>
<path d="M301.24 119.268C301.24 115.587 304.224 112.604 307.905 112.604C311.585 112.604 314.569 115.587 314.569 119.268V240.235H301.24V119.268Z" fill="#F2F2F2"/>
</g>
<g clip-path="url(#clip8_1712_19758)">
<path d="M332.02 118.202C331.22 117.786 330.82 117.142 330.82 116.27C330.82 115.838 330.928 115.446 331.144 115.094C331.368 114.734 331.7 114.45 332.14 114.242C332.588 114.026 333.132 113.918 333.772 113.918C334.412 113.918 334.952 114.026 335.392 114.242C335.84 114.45 336.172 114.734 336.388 115.094C336.612 115.446 336.724 115.838 336.724 116.27C336.724 116.71 336.616 117.098 336.4 117.434C336.184 117.762 335.896 118.018 335.536 118.202C335.976 118.394 336.32 118.674 336.568 119.042C336.816 119.41 336.94 119.846 336.94 120.35C336.94 120.894 336.8 121.37 336.52 121.778C336.248 122.178 335.872 122.486 335.392 122.702C334.912 122.918 334.372 123.026 333.772 123.026C333.172 123.026 332.632 122.918 332.152 122.702C331.68 122.486 331.304 122.178 331.024 121.778C330.752 121.37 330.616 120.894 330.616 120.35C330.616 119.846 330.74 119.41 330.988 119.042C331.236 118.666 331.58 118.386 332.02 118.202ZM335.092 116.51C335.092 116.118 334.972 115.814 334.732 115.598C334.5 115.382 334.18 115.274 333.772 115.274C333.372 115.274 333.052 115.382 332.812 115.598C332.58 115.814 332.464 116.122 332.464 116.522C332.464 116.882 332.584 117.17 332.824 117.386C333.072 117.602 333.388 117.71 333.772 117.71C334.156 117.71 334.472 117.602 334.72 117.386C334.968 117.162 335.092 116.87 335.092 116.51ZM333.772 118.934C333.316 118.934 332.944 119.05 332.656 119.282C332.376 119.514 332.236 119.846 332.236 120.278C332.236 120.678 332.372 121.006 332.644 121.262C332.924 121.51 333.3 121.634 333.772 121.634C334.244 121.634 334.616 121.506 334.888 121.25C335.16 120.994 335.296 120.67 335.296 120.278C335.296 119.854 335.156 119.526 334.876 119.294C334.596 119.054 334.228 118.934 333.772 118.934ZM343.092 116.09C343.596 116.09 344.044 116.202 344.436 116.426C344.828 116.642 345.132 116.966 345.348 117.398C345.572 117.822 345.684 118.334 345.684 118.934V122.834H344.004V119.162C344.004 118.634 343.872 118.23 343.608 117.95C343.344 117.662 342.984 117.518 342.528 117.518C342.064 117.518 341.696 117.662 341.424 117.95C341.16 118.23 341.028 118.634 341.028 119.162V122.834H339.348V113.954H341.028V117.014C341.244 116.726 341.532 116.502 341.892 116.342C342.252 116.174 342.652 116.09 343.092 116.09Z" fill="#1E1E1E" fill-opacity="0.5"/>
<path d="M335.127 155.369C335.047 155.033 334.907 154.781 334.707 154.613C334.515 154.445 334.235 154.361 333.867 154.361C333.315 154.361 332.907 154.585 332.643 155.033C332.387 155.473 332.255 156.193 332.247 157.193C332.439 156.873 332.719 156.625 333.087 156.449C333.455 156.265 333.855 156.173 334.287 156.173C334.807 156.173 335.267 156.285 335.667 156.509C336.067 156.733 336.379 157.061 336.603 157.493C336.827 157.917 336.939 158.429 336.939 159.029C336.939 159.597 336.823 160.105 336.591 160.553C336.367 160.993 336.035 161.337 335.595 161.585C335.155 161.833 334.631 161.957 334.023 161.957C333.191 161.957 332.535 161.773 332.055 161.405C331.583 161.037 331.251 160.525 331.059 159.869C330.875 159.205 330.783 158.389 330.783 157.421C330.783 155.957 331.035 154.853 331.539 154.109C332.043 153.357 332.839 152.981 333.927 152.981C334.767 152.981 335.419 153.209 335.883 153.665C336.347 154.121 336.615 154.689 336.687 155.369H335.127ZM333.903 157.553C333.479 157.553 333.123 157.677 332.835 157.925C332.547 158.173 332.403 158.533 332.403 159.005C332.403 159.477 332.535 159.849 332.799 160.121C333.071 160.393 333.451 160.529 333.939 160.529C334.371 160.529 334.711 160.397 334.959 160.133C335.215 159.869 335.343 159.513 335.343 159.065C335.343 158.601 335.219 158.233 334.971 157.961C334.731 157.689 334.375 157.553 333.903 157.553ZM343.092 155.189C343.596 155.189 344.044 155.301 344.436 155.525C344.828 155.741 345.132 156.065 345.348 156.497C345.572 156.921 345.684 157.433 345.684 158.033V161.933H344.004V158.261C344.004 157.733 343.872 157.329 343.608 157.049C343.344 156.761 342.984 156.617 342.528 156.617C342.064 156.617 341.696 156.761 341.424 157.049C341.16 157.329 341.028 157.733 341.028 158.261V161.933H339.348V153.053H341.028V156.113C341.244 155.825 341.532 155.601 341.892 155.441C342.252 155.273 342.652 155.189 343.092 155.189Z" fill="#1E1E1E" fill-opacity="0.5"/>
<path d="M332.793 199.135C333.561 198.495 334.173 197.963 334.629 197.539C335.085 197.107 335.465 196.659 335.769 196.195C336.073 195.731 336.225 195.275 336.225 194.827C336.225 194.419 336.129 194.099 335.937 193.867C335.745 193.635 335.449 193.519 335.049 193.519C334.649 193.519 334.341 193.655 334.125 193.927C333.909 194.191 333.797 194.555 333.789 195.019H332.157C332.189 194.059 332.473 193.331 333.009 192.835C333.553 192.339 334.241 192.091 335.073 192.091C335.985 192.091 336.685 192.335 337.173 192.823C337.661 193.303 337.905 193.939 337.905 194.731C337.905 195.355 337.737 195.951 337.401 196.519C337.065 197.087 336.681 197.583 336.249 198.007C335.817 198.423 335.253 198.927 334.557 199.519H338.097V200.911H332.169V199.663L332.793 199.135ZM343.98 194.287C344.484 194.287 344.932 194.399 345.324 194.623C345.716 194.839 346.02 195.163 346.236 195.595C346.46 196.019 346.572 196.531 346.572 197.131V201.031H344.892V197.359C344.892 196.831 344.76 196.427 344.496 196.147C344.232 195.859 343.872 195.715 343.416 195.715C342.952 195.715 342.584 195.859 342.312 196.147C342.048 196.427 341.916 196.831 341.916 197.359V201.031H340.236V192.151H341.916V195.211C342.132 194.923 342.42 194.699 342.78 194.539C343.14 194.371 343.54 194.287 343.98 194.287Z" fill="#1E1E1E" fill-opacity="0.5"/>
<path d="M330.509 235.642C330.509 234.258 330.757 233.174 331.253 232.39C331.757 231.606 332.589 231.214 333.749 231.214C334.909 231.214 335.737 231.606 336.233 232.39C336.737 233.174 336.989 234.258 336.989 235.642C336.989 237.034 336.737 238.126 336.233 238.918C335.737 239.71 334.909 240.106 333.749 240.106C332.589 240.106 331.757 239.71 331.253 238.918C330.757 238.126 330.509 237.034 330.509 235.642ZM335.333 235.642C335.333 235.05 335.293 234.554 335.213 234.154C335.141 233.746 334.989 233.414 334.757 233.158C334.533 232.902 334.197 232.774 333.749 232.774C333.301 232.774 332.961 232.902 332.729 233.158C332.505 233.414 332.353 233.746 332.273 234.154C332.201 234.554 332.165 235.05 332.165 235.642C332.165 236.25 332.201 236.762 332.273 237.178C332.345 237.586 332.497 237.918 332.729 238.174C332.961 238.422 333.301 238.546 333.749 238.546C334.197 238.546 334.537 238.422 334.769 238.174C335.001 237.918 335.153 237.586 335.225 237.178C335.297 236.762 335.333 236.25 335.333 235.642ZM343.092 233.386C343.596 233.386 344.044 233.498 344.436 233.722C344.828 233.938 345.132 234.262 345.348 234.694C345.572 235.118 345.684 235.63 345.684 236.23V240.13H344.004V236.458C344.004 235.93 343.872 235.526 343.608 235.246C343.344 234.958 342.984 234.814 342.528 234.814C342.064 234.814 341.696 234.958 341.424 235.246C341.16 235.526 341.028 235.93 341.028 236.458V240.13H339.348V231.25H341.028V234.31C341.244 234.022 341.532 233.798 341.892 233.638C342.252 233.47 342.652 233.386 343.092 233.386Z" fill="#1E1E1E" fill-opacity="0.5"/>
</g>
<defs>
<filter id="filter0_d_1712_19758" x="-26.6529" y="0.60482" width="428.306" height="330.825" filterUnits="userSpaceOnUse" color-interpolation-filters="sRGB">
<feFlood flood-opacity="0" result="BackgroundImageFix"/>
<feColorMatrix in="SourceAlpha" type="matrix" values="0 0 0 0 0 0 0 0 0 0 0 0 0 0 0 0 0 0 127 0" result="hardAlpha"/>
<feOffset dy="1.7772"/>
<feGaussianBlur stdDeviation="21.3264"/>
<feColorMatrix type="matrix" values="0 0 0 0 0 0 0 0 0 0 0 0 0 0 0 0 0 0 0.04 0"/>
<feBlend mode="normal" in2="BackgroundImageFix" result="effect1_dropShadow_1712_19758"/>
<feBlend mode="normal" in="SourceGraphic" in2="effect1_dropShadow_1712_19758" result="shape"/>
</filter>
<clipPath id="clip0_1712_19758">
<rect width="71" height="46.0499" fill="white" transform="translate(28 55.5322)"/>
</clipPath>
<clipPath id="clip1_1712_19758">
<rect width="25.7694" height="119.837" fill="white" transform="translate(28.4395 153.523)"/>
</clipPath>
<clipPath id="clip2_1712_19758">
<rect width="22.215" height="92.5571" fill="white" transform="translate(76.4258 180.804)"/>
</clipPath>
<clipPath id="clip3_1712_19758">
<rect width="25.7694" height="142.246" fill="white" transform="translate(120.855 131.114)"/>
</clipPath>
<clipPath id="clip4_1712_19758">
<rect width="23.1036" height="104.249" fill="white" transform="translate(169.729 169.112)"/>
</clipPath>
<clipPath id="clip5_1712_19758">
<rect width="15.9948" height="142.246" fill="white" transform="translate(215.047 131.114)"/>
</clipPath>
<clipPath id="clip6_1712_19758">
<rect width="20.4378" height="104.249" fill="white" transform="translate(253.256 169.112)"/>
</clipPath>
<clipPath id="clip7_1712_19758">
<rect width="23.1036" height="160.757" fill="white" transform="translate(295.91 112.604)"/>
</clipPath>
<clipPath id="clip8_1712_19758">
<rect width="18" height="142" fill="white" transform="translate(329 104)"/>
</clipPath>
</defs>
</svg>
