<svg width="375" height="812" viewBox="0 0 375 812" fill="none" xmlns="http://www.w3.org/2000/svg">
<path d="M270.471 174.102C398.611 249.9 495.566 341.535 561.335 449.007C627.105 556.48 658.65 671.757 655.969 794.838C655.125 917.449 619.194 1038.78 548.176 1158.84C477.84 1277.75 388.806 1367.67 281.074 1428.61C174.496 1490.23 57.6987 1517.76 -69.3181 1511.19C-195.18 1505.31 -321.604 1464.81 -448.589 1389.7L-904.004 1120.3L-184.943 -95.2899L270.471 174.102ZM-316.04 1122.15C-204.062 1188.39 -98.8083 1209.35 -0.278117 1185.04C98.2521 1160.73 180.636 1092.59 246.875 980.613C313.113 868.636 333.5 763.04 308.037 663.827C282.574 564.614 213.853 481.888 101.875 415.65L-38.3854 332.682L-456.301 1039.18L-316.04 1122.15Z" fill="#0C8CE9"/>
</svg>
