<svg width="46" height="46" viewBox="0 0 46 46" fill="none" xmlns="http://www.w3.org/2000/svg">
<circle cx="23" cy="23" r="20.5" fill="#F5F5F5" stroke="white" stroke-width="5"/>
<path d="M22.4925 13.7891H18.7535C15.6785 13.7891 13.7505 15.9661 13.7505 19.0481V27.3621C13.7505 30.4441 15.6695 32.6211 18.7535 32.6211H27.5775C30.6625 32.6211 32.5815 30.4441 32.5815 27.3621V23.3341" stroke="black" stroke-width="1.5" stroke-linecap="round" stroke-linejoin="round"/>
<path fill-rule="evenodd" clip-rule="evenodd" d="M19.8281 21.9205L27.3011 14.4475C28.2321 13.5175 29.7411 13.5175 30.6721 14.4475L31.8891 15.6645C32.8201 16.5955 32.8201 18.1055 31.8891 19.0355L24.3801 26.5445C23.9731 26.9515 23.4211 27.1805 22.8451 27.1805H19.0991L19.1931 23.4005C19.2071 22.8445 19.4341 22.3145 19.8281 21.9205Z" stroke="black" stroke-width="1.5" stroke-linecap="round" stroke-linejoin="round"/>
<path d="M26.1655 15.6016L30.7315 20.1676" stroke="black" stroke-width="1.5" stroke-linecap="round" stroke-linejoin="round"/>
</svg>
