<svg width="275" height="165" viewBox="0 0 275 165" fill="none" xmlns="http://www.w3.org/2000/svg">
<g clip-path="url(#clip0_1191_8500)">
<path d="M210.546 162.553C207.026 159.578 204.887 154.878 205.448 150.303C206.009 145.728 209.482 141.522 213.988 140.551C218.494 139.579 223.63 142.268 224.999 146.67C225.752 138.184 226.62 129.342 231.132 122.116C235.217 115.572 242.292 110.89 249.961 110.053C257.629 109.215 265.703 112.379 270.485 118.431C275.268 124.484 276.439 133.283 273.089 140.232C270.622 145.351 266.076 149.16 261.313 152.26C245.922 162.19 227.462 166.229 209.33 163.632L210.546 162.553Z" fill="#F2F2F2"/>
<path d="M262.903 112.553C256.575 117.707 250.771 123.471 245.573 129.762C237.438 139.574 230.855 150.574 226.053 162.381C225.702 163.242 227.1 163.617 227.448 162.765C235.304 143.577 247.846 126.665 263.925 113.576C264.648 112.988 263.619 111.97 262.903 112.553Z" fill="white"/>
<path d="M88.527 161.744C93.3627 157.658 96.3 151.203 95.5297 144.919C94.7594 138.636 89.9883 132.859 83.7996 131.524C77.6109 130.19 70.5562 133.884 68.6765 139.929C67.642 128.274 66.4499 116.13 60.2531 106.204C54.6421 97.2169 44.9237 90.786 34.3912 89.6355C23.8586 88.4851 12.7692 92.8303 6.20048 101.144C-0.368278 109.457 -1.97661 121.542 2.62398 131.087C6.01307 138.118 12.257 143.35 18.799 147.607C39.6704 161.188 65.5614 166.852 90.197 163.226" fill="#F2F2F2"/>
<path d="M16.616 93.0705C25.3066 100.149 33.2794 108.066 40.4189 116.707C47.5596 125.339 53.8462 134.643 59.1904 144.488C62.1775 150.011 64.861 155.693 67.2287 161.509C67.7115 162.692 65.7905 163.207 65.3131 162.037C61.1193 151.784 55.9307 141.967 49.8217 132.727C43.7425 123.52 36.7845 114.924 29.0454 107.06C24.6682 102.615 20.0498 98.4136 15.2113 94.4753C14.2195 93.6677 15.6324 92.2696 16.616 93.0705Z" fill="white"/>
<path d="M197.399 164.052H82.0259V45.6753C82.0259 20.4898 102.516 0 127.701 0H151.724C176.91 0 197.399 20.4898 197.399 45.6753V164.052Z" fill="#F2F2F2"/>
<path d="M173.377 164.051H82.026V45.675C82.0008 36.0245 85.0567 26.6179 90.7488 18.8248C90.9586 18.5388 91.1679 18.2565 91.3838 17.9773C94.137 14.3663 97.4134 11.1861 101.105 8.54179C101.313 8.39007 101.523 8.24098 101.735 8.09189C104.824 5.95429 108.166 4.20684 111.683 2.88933C111.892 2.81015 112.105 2.73082 112.318 2.65472C115.499 1.51935 118.797 0.741618 122.151 0.335899C122.359 0.307498 122.572 0.285274 122.786 0.263049C126.054 -0.086381 129.35 -0.086381 132.618 0.263049C132.831 0.285274 133.044 0.307495 133.254 0.336202C136.607 0.741948 139.904 1.51958 143.085 2.65474C143.298 2.73083 143.51 2.81016 143.72 2.88949C147.194 4.19039 150.496 5.91176 153.552 8.01518C153.765 8.16104 153.977 8.31013 154.187 8.45922C156.256 9.93624 158.199 11.5817 159.997 13.3789C161.439 14.8204 162.783 16.357 164.02 17.9783C164.235 18.2565 164.444 18.5388 164.653 18.8244C170.346 26.6176 173.402 36.0243 173.377 45.675V164.051Z" fill="#CCCCCC"/>
<path d="M165.948 111.106C168.741 111.106 171.006 108.842 171.006 106.049C171.006 103.256 168.741 100.991 165.948 100.991C163.155 100.991 160.891 103.256 160.891 106.049C160.891 108.842 163.155 111.106 165.948 111.106Z" fill="#0C8CE9"/>
<path d="M187.948 160.506H184.073L182.229 145.559L187.949 145.559L187.948 160.506Z" fill="#FFB8B8"/>
<path d="M181.305 159.398H188.778V164.104H176.599C176.599 163.486 176.721 162.874 176.957 162.303C177.194 161.732 177.54 161.214 177.977 160.777C178.414 160.34 178.933 159.993 179.504 159.757C180.075 159.52 180.687 159.398 181.305 159.398Z" fill="#2F2E41"/>
<path d="M207.23 160.506H203.355L201.511 145.559L207.23 145.559L207.23 160.506Z" fill="#FFB8B8"/>
<path d="M200.586 159.398H208.06V164.104H195.88C195.88 163.486 196.002 162.874 196.239 162.303C196.475 161.732 196.822 161.214 197.259 160.777C197.696 160.34 198.214 159.993 198.785 159.757C199.356 159.52 199.968 159.398 200.586 159.398Z" fill="#2F2E41"/>
<path d="M168.508 107.051C168.229 106.64 168.044 106.173 167.965 105.683C167.886 105.193 167.916 104.691 168.052 104.214C168.188 103.736 168.427 103.295 168.752 102.919C169.077 102.544 169.48 102.245 169.934 102.043L183.107 65.7344L189.589 69.2719L174.548 103.97C174.837 104.754 174.829 105.617 174.525 106.395C174.22 107.173 173.641 107.813 172.897 108.193C172.152 108.573 171.294 108.666 170.485 108.456C169.676 108.245 168.973 107.745 168.508 107.051Z" fill="#FFB8B8"/>
<path d="M205.25 113.873C204.819 113.626 204.448 113.288 204.162 112.882C203.876 112.476 203.683 112.012 203.596 111.523C203.509 111.035 203.53 110.533 203.658 110.053C203.785 109.573 204.017 109.128 204.335 108.747L200.254 70.3389L207.631 70.6759L209.327 108.455C209.931 109.033 210.302 109.812 210.37 110.645C210.438 111.479 210.198 112.307 209.695 112.975C209.192 113.643 208.462 114.103 207.643 114.269C206.824 114.434 205.972 114.293 205.25 113.873Z" fill="#FFB8B8"/>
<path d="M193.482 59.0095C197.769 59.0095 201.245 55.5337 201.245 51.246C201.245 46.9583 197.769 43.4824 193.482 43.4824C189.194 43.4824 185.718 46.9583 185.718 51.246C185.718 55.5337 189.194 59.0095 193.482 59.0095Z" fill="#FFB8B8"/>
<path d="M205.201 105.138H181.795L181.823 104.956C181.865 104.684 185.994 77.6331 182.949 68.7835C182.643 67.9138 182.67 66.9619 183.024 66.1108C183.379 65.2598 184.035 64.5698 184.867 64.1738C189.221 62.1238 197.577 59.5995 204.63 65.7255C205.667 66.6418 206.478 67.787 206.997 69.0705C207.516 70.354 207.729 71.7407 207.62 73.1208L205.201 105.138Z" fill="#0C8CE9"/>
<path d="M186.29 81.6312L175.753 79.4934L180.692 67.7886C180.988 66.6549 181.721 65.6848 182.731 65.091C183.741 64.4971 184.945 64.3281 186.079 64.6209C187.214 64.9138 188.186 65.6446 188.782 66.6531C189.378 67.6616 189.55 68.8654 189.26 70.0005L186.29 81.6312Z" fill="#0C8CE9"/>
<path d="M199.786 85.6004L199.153 71.0787C198.672 68.3489 200.235 65.7683 202.638 65.3465C205.042 64.9262 207.39 66.8195 207.872 69.5694L210.253 83.1385L199.786 85.6004Z" fill="#0C8CE9"/>
<path d="M204.422 103.399C208.188 117.743 208.599 135.979 207.583 155.871L202.525 155.238L193.359 117.307L188.301 155.871L182.612 155.555C180.912 134.683 179.257 116.765 181.979 104.98L204.422 103.399Z" fill="#2F2E41"/>
<path d="M198.597 57.2457C197.149 58.7884 194.459 57.9602 194.27 55.8526C194.255 55.689 194.256 55.5243 194.273 55.3609C194.371 54.4273 194.91 53.5797 194.781 52.5939C194.752 52.3486 194.66 52.1148 194.515 51.9147C193.361 50.3692 190.652 52.6059 189.563 51.2068C188.895 50.349 189.68 48.9983 189.168 48.0394C188.491 46.7739 186.487 47.3982 185.231 46.7052C183.833 45.9341 183.917 43.7891 184.837 42.4845C185.959 40.8934 187.927 40.0444 189.87 39.922C191.813 39.7997 193.743 40.325 195.557 41.032C197.619 41.8353 199.663 42.9455 200.931 44.7579C202.474 46.9621 202.622 49.9254 201.851 52.5027C201.381 54.0706 199.78 55.9858 198.597 57.2457Z" fill="#2F2E41"/>
<path d="M265.512 164.255H32.1429C32.0432 164.254 31.9478 164.215 31.8774 164.144C31.8071 164.074 31.7676 163.978 31.7676 163.878C31.7676 163.779 31.8071 163.683 31.8774 163.613C31.9478 163.542 32.0432 163.502 32.1429 163.502H265.512C265.611 163.502 265.707 163.542 265.777 163.613C265.847 163.683 265.887 163.779 265.887 163.878C265.887 163.978 265.847 164.074 265.777 164.144C265.707 164.215 265.611 164.254 265.512 164.255Z" fill="#3F3D56"/>
<path d="M148.247 129.755H107.155C106.614 129.758 106.094 129.546 105.709 129.166C105.323 128.786 105.105 128.269 105.101 127.728V36.0074C105.105 35.4662 105.323 34.9488 105.709 34.5686C106.094 34.1885 106.614 33.9766 107.155 33.9795H148.247C148.788 33.9766 149.309 34.1885 149.694 34.5686C150.079 34.9488 150.298 35.4662 150.302 36.0074V127.728C150.298 128.269 150.079 128.786 149.694 129.166C149.309 129.546 148.788 129.758 148.247 129.755Z" fill="white"/>
<path d="M150.302 63.6572H105.101V64.2894H150.302V63.6572Z" fill="#CCCCCC"/>
<path d="M150.46 99.7266H105.259V100.359H150.46V99.7266Z" fill="#CCCCCC"/>
<path d="M119.957 33.9795H119.325V130.071H119.957V33.9795Z" fill="#CCCCCC"/>
<path d="M135.762 33.9795H135.129V130.071H135.762V33.9795Z" fill="#CCCCCC"/>
</g>
<defs>
<clipPath id="clip0_1191_8500">
<rect width="275" height="164.412" fill="white"/>
</clipPath>
</defs>
</svg>
