<svg width="16" height="19" viewBox="0 0 16 19" fill="none" xmlns="http://www.w3.org/2000/svg">
<mask id="mask0_4787_1881" style="mask-type:luminance" maskUnits="userSpaceOnUse" x="0" y="0" width="16" height="16">
<path fill-rule="evenodd" clip-rule="evenodd" d="M0.5 0.833008H15.9141V15.2897H0.5V0.833008Z" fill="white"/>
</mask>
<g mask="url(#mask0_4787_1881)">
<path fill-rule="evenodd" clip-rule="evenodd" d="M8.20584 2.08301C5.29334 2.08301 3.26334 4.36467 3.26334 6.41217C3.26334 8.14467 2.78251 8.94551 2.35751 9.65217C2.01668 10.2197 1.74751 10.668 1.74751 11.6422C1.88668 13.2138 2.92418 14.0397 8.20584 14.0397C13.4583 14.0397 14.5283 13.1772 14.6667 11.588C14.6642 10.668 14.395 10.2197 14.0542 9.65217C13.6292 8.94551 13.1483 8.14467 13.1483 6.41217C13.1483 4.36467 11.1183 2.08301 8.20584 2.08301ZM8.20584 15.2897C4.30918 15.2897 0.787511 15.0147 0.500011 11.6955C0.497511 10.3222 0.916678 9.62384 1.28668 9.00884C1.66084 8.38551 2.01334 7.79801 2.01334 6.41217C2.01334 3.71801 4.50168 0.833008 8.20584 0.833008C11.91 0.833008 14.3983 3.71801 14.3983 6.41217C14.3983 7.79801 14.7508 8.38551 15.125 9.00884C15.495 9.62384 15.9142 10.3222 15.9142 11.6422C15.6233 15.0147 12.1025 15.2897 8.20584 15.2897Z" fill="#FAFAFA"/>
</g>
<path fill-rule="evenodd" clip-rule="evenodd" d="M8.16535 18.7495H8.16368C7.22951 18.7487 6.34535 18.337 5.67451 17.5895C5.44368 17.3337 5.46451 16.9379 5.72118 16.7079C5.97785 16.4762 6.37285 16.497 6.60368 16.7545C7.03535 17.2354 7.58951 17.4995 8.16451 17.4995H8.16535C8.74285 17.4995 9.29951 17.2354 9.73201 16.7537C9.96368 16.4979 10.3587 16.477 10.6145 16.7079C10.8712 16.9387 10.892 17.3345 10.6612 17.5904C9.98785 18.3379 9.10201 18.7495 8.16535 18.7495Z" fill="#FAFAFA"/>
</svg>
