<svg width="217" height="122" viewBox="0 0 217 122" fill="none" xmlns="http://www.w3.org/2000/svg">
<g clip-path="url(#clip0_1241_3601)">
<path d="M150.498 38.5609H146.373C146.241 38.5614 146.113 38.5123 146.015 38.4234C145.917 38.3345 145.856 38.2121 145.843 38.0804L145.018 29.6182H151.853L151.027 38.0803C151.015 38.2121 150.954 38.3344 150.856 38.4234C150.758 38.5123 150.63 38.5613 150.498 38.5609Z" fill="#E6E6E6"/>
<path d="M151.842 30.683H145.028C144.887 30.6828 144.752 30.6267 144.652 30.5269C144.552 30.4271 144.496 30.2918 144.496 30.1507V28.8731C144.496 28.732 144.552 28.5967 144.652 28.4969C144.752 28.3971 144.887 28.341 145.028 28.3408H151.842C151.983 28.341 152.118 28.3971 152.218 28.4969C152.318 28.5967 152.374 28.732 152.374 28.8731V30.1507C152.374 30.2918 152.318 30.4271 152.218 30.5269C152.118 30.6267 151.983 30.6828 151.842 30.683Z" fill="#CCCCCC"/>
<path d="M102.241 29.4703H85.9009V24.51C91.0642 20.9167 95.639 21.2291 101.657 24.8018L102.241 29.4703Z" fill="#0C8CE9"/>
<path d="M82.1175 117.576L78.5402 117.576L78.0054 103.778L82.1181 103.779L82.1175 117.576Z" fill="#FFB8B8"/>
<path d="M83.0294 121.043L71.4951 121.043V120.897C71.4951 120.307 71.6112 119.723 71.8368 119.179C72.0625 118.634 72.3932 118.139 72.81 117.722C73.2269 117.305 73.7219 116.975 74.2666 116.749C74.8113 116.523 75.3951 116.407 75.9846 116.407L83.0297 116.408L83.0294 121.043Z" fill="#2F2E41"/>
<path d="M102.266 117.576L105.843 117.576L106.378 103.778L102.265 103.779L102.266 117.576Z" fill="#FFB8B8"/>
<path d="M101.354 116.408L108.398 116.407C108.988 116.407 109.572 116.523 110.117 116.749C110.661 116.975 111.156 117.305 111.573 117.722C111.99 118.139 112.321 118.634 112.546 119.179C112.772 119.723 112.888 120.307 112.888 120.897V121.043L101.354 121.043L101.354 116.408Z" fill="#2F2E41"/>
<path d="M102.36 115.807C102.061 115.806 101.772 115.704 101.539 115.517C101.306 115.331 101.144 115.071 101.078 114.779L92.2115 76.1068C92.192 76.0085 92.1385 75.9203 92.0603 75.8576C91.9822 75.795 91.8844 75.7619 91.7843 75.7643H91.7821C91.6815 75.7624 91.5836 75.7962 91.5056 75.8597C91.4276 75.9232 91.3746 76.0122 91.356 76.1111L83.2139 114.523C83.1504 114.817 82.9885 115.08 82.7549 115.269C82.5213 115.459 82.23 115.562 81.9294 115.564H78.0508C77.8719 115.564 77.6948 115.527 77.5305 115.456C77.3662 115.385 77.2181 115.281 77.0954 115.151C76.9726 115.021 76.8778 114.867 76.8167 114.699C76.7556 114.531 76.7295 114.352 76.7401 114.173L79.629 65.4875L80.7915 65.1436L80.8133 65.1438L103.648 65.3436L108.511 113.976C108.528 114.149 108.51 114.324 108.459 114.491C108.407 114.657 108.323 114.812 108.211 114.946C108.1 115.079 107.962 115.189 107.808 115.269C107.653 115.349 107.484 115.398 107.31 115.412L102.465 115.803C102.43 115.806 102.395 115.807 102.36 115.807Z" fill="#2F2E41"/>
<path d="M92.9302 20.5801C96.8881 20.5801 100.097 17.3715 100.097 13.4136C100.097 9.45562 96.8881 6.24707 92.9302 6.24707C88.9722 6.24707 85.7637 9.45562 85.7637 13.4136C85.7637 17.3715 88.9722 20.5801 92.9302 20.5801Z" fill="#FFB8B8"/>
<path d="M88.5401 70.8251C87.2828 70.8407 86.0305 70.6645 84.8264 70.3025C83.7554 69.9795 82.7619 69.4408 81.9069 68.7195C81.0519 67.9981 80.3536 67.1095 79.855 66.1082C79.6969 65.8068 79.6619 65.456 79.7572 65.1294C80.5476 62.4318 84.367 48.41 81.9301 37.2632C81.5861 35.7148 81.5575 34.1129 81.846 32.5531C82.1345 30.9933 82.7342 29.5076 83.6093 28.1846C84.464 26.872 85.5744 25.745 86.8741 24.8708C88.1739 23.9966 89.6363 23.3931 91.1744 23.0964L91.1744 23.0961C91.5786 23.0172 91.985 22.9525 92.3822 22.9035C94.0823 22.6942 95.8077 22.8633 97.4348 23.3987C99.062 23.934 100.551 24.8224 101.794 26.0002C103.075 27.2012 104.074 28.6705 104.721 30.3028C105.367 31.9352 105.645 33.6903 105.534 35.4424L103.661 65.4972C103.648 65.7225 103.577 65.9406 103.454 66.1301C103.331 66.3195 103.162 66.4738 102.961 66.5777C100.804 67.7081 94.3246 70.8251 88.5401 70.8251Z" fill="#3F3D56"/>
<path d="M101.026 8.13864C100.282 6.26775 98.9179 4.70878 97.1628 3.72195C95.4076 2.73512 93.3671 2.38013 91.3818 2.71623L93.6413 4.54215C90.8339 4.63669 87.8787 4.43568 85.8742 6.40353C86.5124 6.38583 87.3488 7.75079 87.9869 7.73308C86.7938 7.75668 85.712 8.59497 85.185 9.66562C84.6969 10.7656 84.5827 11.9952 84.8599 13.1662C85.0956 14.336 86.8931 17.0765 87.377 18.1674C87.2938 15.3166 92.906 8.51681 95.6466 9.22645C94.2542 9.74307 93.046 10.6604 92.1743 11.8628C94.0387 10.9219 96.1473 10.5768 98.2144 10.8745C98.6864 10.9827 99.1733 11.01 99.6544 10.9551C99.9493 10.8968 100.224 10.7638 100.453 10.569C100.682 10.3741 100.857 10.1238 100.962 9.84197C101.066 9.56017 101.097 9.25627 101.05 8.9593C101.004 8.66232 100.882 8.3822 100.697 8.14567L101.026 8.13864Z" fill="#2F2E41"/>
<path d="M88.0462 69.021C87.8651 69.0207 87.6861 68.9829 87.5204 68.9101L73.9231 62.9751C73.6343 62.8513 73.3999 62.6273 73.263 62.3444C73.1262 62.0615 73.096 61.7387 73.1782 61.4354L82.1796 27.4313C82.347 26.7986 82.6388 26.2056 83.0382 25.6871C83.4375 25.1685 83.9362 24.7349 84.5052 24.4114C85.0742 24.088 85.702 23.8813 86.3518 23.8035C87.0016 23.7256 87.6605 23.7782 88.2897 23.9581L91.889 24.9853L89.3552 67.7842C89.3422 67.9954 89.2785 68.2003 89.1695 68.3816C89.0605 68.5629 88.9094 68.7153 88.7291 68.8259C88.5239 68.9529 88.2875 69.0205 88.0462 69.021Z" fill="#0C8CE9"/>
<path d="M113.212 61.435L112.614 59.1796L111.747 55.8999L111.33 54.3272L110.464 51.0563L104.211 27.4307C104.044 26.7977 103.752 26.2044 103.353 25.6856C102.954 25.1668 102.455 24.7329 101.886 24.4095C101.317 24.0861 100.689 23.8796 100.039 23.8021C99.3888 23.7247 98.7298 23.7778 98.1006 23.9584L94.5029 24.9855L96.2857 55.0888L96.4696 58.2313L96.5863 60.2125V60.2154L96.7729 63.3404L97.0357 67.7842C97.0571 68.1179 97.2042 68.431 97.4472 68.6606C97.6903 68.8902 98.0114 69.0191 98.3457 69.0214C98.5265 69.0203 98.7052 68.9826 98.871 68.9105L112.468 62.9756C112.757 62.8518 112.992 62.6277 113.128 62.3446C113.265 62.0614 113.295 61.7384 113.212 61.435Z" fill="#0C8CE9"/>
<path d="M111.33 54.3275L96.4698 58.2316L96.2856 55.0891L110.464 51.0566L111.33 54.3275Z" fill="#CCCCCC"/>
<path d="M112.614 59.1791L96.7729 63.3399L96.5864 60.2149V60.212L111.747 55.8994L112.614 59.1791Z" fill="#CCCCCC"/>
<path d="M89.9219 55.766L89.7378 58.8501L75.1636 54.5084L76.0182 51.2812L89.9219 55.766Z" fill="#CCCCCC"/>
<path d="M89.6182 60.8809L74.746 56.0811L73.8911 59.3169L89.4373 63.9475L89.6182 60.8809Z" fill="#CCCCCC"/>
<path d="M75.0052 64.1062C75.4486 63.9905 75.8612 63.7789 76.214 63.4865C76.5668 63.194 76.8512 62.8278 77.0471 62.4136C77.2431 61.9993 77.3458 61.5471 77.3481 61.0889C77.3504 60.6307 77.2522 60.1775 77.0604 59.7613L84.0521 37.8118L79.0943 36.7734L72.6841 58.2933C72.0063 58.6619 71.4873 59.2663 71.2253 59.992C70.9634 60.7176 70.9767 61.5142 71.2628 62.2307C71.5489 62.9472 72.0879 63.5339 72.7776 63.8796C73.4674 64.2252 74.26 64.3059 75.0052 64.1062Z" fill="#FFB8B8"/>
<path d="M84.2462 27.0204C85.6698 27.1656 86.4706 28.7663 86.1166 30.7593L84.4181 40.3235C84.2908 41.0405 83.7008 41.6081 83.2103 41.4855L77.465 40.0494C77.0229 39.9389 76.8601 39.3108 77.1106 38.6823L80.5597 30.0299C81.3087 28.1509 82.866 26.8796 84.2462 27.0204Z" fill="#3F3D56"/>
<path d="M92.9039 1.64599e-10C95.3294 0.000260149 97.6596 0.944525 99.401 2.63284C101.142 4.32116 102.158 6.62097 102.234 9.04527H103.992C104.146 9.04527 104.295 9.10676 104.404 9.2162C104.514 9.32564 104.575 9.47407 104.575 9.62884V11.9631C104.575 12.1179 104.514 12.2663 104.404 12.3757C104.295 12.4852 104.146 12.5467 103.992 12.5467H84.1505C83.9957 12.5467 83.8473 12.4852 83.7378 12.3757C83.6284 12.2663 83.5669 12.1179 83.5669 11.9631V9.33703C83.5669 8.11088 83.8084 6.89672 84.2776 5.7639C84.7469 4.63107 85.4346 3.60176 86.3016 2.73474C87.1687 1.86771 88.198 1.17995 89.3308 0.710722C90.4636 0.241495 91.6778 -7.28021e-06 92.9039 1.64599e-10Z" fill="#0C8CE9"/>
<path d="M94.0195 57.7162H89.895C89.7626 57.7166 89.6349 57.6676 89.5369 57.5787C89.4388 57.4898 89.3776 57.3674 89.3652 57.2357L88.5396 48.7734H95.3749L94.5493 57.2356C94.5369 57.3673 94.4757 57.4897 94.3776 57.5786C94.2796 57.6676 94.1519 57.7166 94.0195 57.7162Z" fill="#E6E6E6"/>
<path d="M95.3639 49.8382H88.5504C88.4093 49.8381 88.274 49.7819 88.1742 49.6822C88.0744 49.5824 88.0182 49.4471 88.0181 49.3059V48.0284C88.0182 47.8873 88.0744 47.752 88.1742 47.6522C88.274 47.5524 88.4093 47.4963 88.5504 47.4961H95.3639C95.505 47.4963 95.6403 47.5524 95.7401 47.6522C95.8399 47.752 95.896 47.8873 95.8962 48.0284V49.3059C95.896 49.4471 95.8399 49.5824 95.7401 49.6822C95.6403 49.7819 95.505 49.8381 95.3639 49.8382Z" fill="#CCCCCC"/>
<path d="M92.0457 53.178C92.2061 53.1965 92.3648 53.2277 92.5203 53.2711L103.505 43.8512L102.863 40.3949L107.952 38.7441L109.683 44.7523C109.823 45.2377 109.802 45.7554 109.623 46.2276C109.443 46.6998 109.116 47.1011 108.689 47.3712L94.7772 56.1744C94.7871 56.7963 94.6074 57.4064 94.262 57.9237C93.9166 58.441 93.4219 58.8409 92.8438 59.0701C92.2656 59.2994 91.6313 59.3472 91.0253 59.2072C90.4193 59.0672 89.8702 58.746 89.4512 58.2864C89.0322 57.8267 88.763 57.2504 88.6796 56.634C88.5961 56.0177 88.7022 55.3905 88.9839 54.836C89.2655 54.2814 89.7094 53.8257 90.2563 53.5296C90.8033 53.2334 91.4274 53.1108 92.0457 53.178Z" fill="#FFB8B8"/>
<path d="M103.533 27.8105C105.054 27.3848 106.574 28.5422 107.083 30.5141L109.526 39.9767C109.709 40.686 109.353 41.4398 108.798 41.5197L102.289 42.4559C101.788 42.528 101.347 42.0143 101.329 41.338L101.076 32.0262C101.021 30.004 102.059 28.2232 103.533 27.8105Z" fill="#3F3D56"/>
<path d="M191.019 88.2553C188.023 84.2692 185.654 79.8479 183.995 75.145C183.899 74.8637 183.905 74.5574 184.014 74.2807C184.123 74.0039 184.326 73.7747 184.588 73.6337L194.842 68.139C195.008 68.0494 195.192 67.9989 195.381 67.9913C195.569 67.9836 195.757 68.019 195.929 68.0949C196.105 68.1713 196.261 68.2868 196.386 68.4326C196.51 68.5784 196.6 68.7507 196.648 68.9364C197.841 73.4682 200.085 77.6555 203.197 81.1594C203.325 81.302 203.419 81.472 203.471 81.6563C203.524 81.8407 203.533 82.0347 203.5 82.2234C203.467 82.4091 203.393 82.5849 203.282 82.7375C203.171 82.8902 203.027 83.0155 202.861 83.104L192.606 88.5987C192.344 88.7386 192.04 88.7809 191.75 88.718C191.459 88.6551 191.2 88.4911 191.019 88.2553Z" fill="#CCCCCC"/>
<path d="M191.719 87.7302C191.774 87.799 191.852 87.8464 191.938 87.8643C192.025 87.8821 192.115 87.8692 192.193 87.8279L202.447 82.333C202.497 82.3071 202.54 82.2699 202.573 82.2245C202.606 82.1791 202.628 82.1267 202.638 82.0713C202.649 82.0128 202.646 81.9527 202.629 81.8956C202.613 81.8385 202.583 81.786 202.543 81.7422C199.339 78.1351 197.03 73.8245 195.801 69.1591C195.787 69.1014 195.759 69.0478 195.721 69.0025C195.682 68.9572 195.634 68.9214 195.58 68.8979C195.528 68.8749 195.472 68.8642 195.416 68.8665C195.36 68.8688 195.305 68.8842 195.256 68.9113L185.001 74.406C184.923 74.448 184.863 74.5158 184.83 74.5977C184.797 74.6796 184.793 74.7704 184.82 74.8545C186.45 79.4732 188.776 83.8154 191.719 87.7302Z" fill="white"/>
<path d="M195.515 75.981L189.93 78.4464C189.718 78.5399 189.477 78.5453 189.261 78.4615C189.044 78.3776 188.87 78.2113 188.776 77.9991L188.638 77.6862C188.544 77.4738 188.539 77.2329 188.623 77.0165C188.707 76.8001 188.873 76.6258 189.085 76.5319L194.67 74.0664C194.883 73.9729 195.123 73.9675 195.34 74.0514C195.556 74.1353 195.731 74.3015 195.825 74.5137L195.963 74.8267C196.056 75.0391 196.062 75.2799 195.978 75.4963C195.894 75.7127 195.728 75.887 195.515 75.981Z" fill="#CCCCCC"/>
<path d="M197.558 79.7739L191.973 82.2394C191.76 82.3329 191.519 82.3383 191.303 82.2544C191.087 82.1706 190.912 82.0043 190.818 81.7921L190.68 81.4791C190.587 81.2667 190.581 81.0259 190.665 80.8095C190.749 80.5931 190.915 80.4188 191.128 80.3248L196.713 77.8594C196.925 77.7659 197.166 77.7605 197.382 77.8444C197.599 77.9282 197.773 78.0945 197.867 78.3067L198.005 78.6197C198.099 78.8321 198.104 79.0729 198.02 79.2893C197.936 79.5057 197.77 79.68 197.558 79.7739Z" fill="#CCCCCC"/>
<path d="M184.459 76.6136C184.074 76.3657 183.747 76.0363 183.503 75.6486C183.259 75.2609 183.102 74.8244 183.045 74.3697C182.988 73.9151 183.031 73.4534 183.171 73.0172C183.311 72.581 183.546 72.1808 183.857 71.845L181.502 38.4189L188.287 39.0769L188.473 71.8111C189.003 72.3722 189.308 73.108 189.331 73.8792C189.354 74.6504 189.094 75.4033 188.599 75.9953C188.104 76.5872 187.41 76.9771 186.647 77.0911C185.884 77.2051 185.105 77.0352 184.459 76.6136Z" fill="#A0616A"/>
<path d="M183.038 49.6502C182.879 49.536 182.748 49.3875 182.654 49.2158C182.56 49.044 182.506 48.8534 182.495 48.658L181.998 39.6489C181.949 38.7563 182.232 37.8771 182.793 37.1808C183.353 36.4846 184.152 36.0205 185.034 35.8782C185.917 35.7359 186.821 35.9253 187.572 36.41C188.323 36.8947 188.868 37.6403 189.102 38.5031L191.286 46.5577C191.377 46.8938 191.33 47.2521 191.157 47.5541C190.984 47.8561 190.698 48.0771 190.362 48.1686L184.15 49.8529C183.961 49.9045 183.763 49.913 183.571 49.8779C183.378 49.8429 183.196 49.7651 183.038 49.6502Z" fill="#3F3D56"/>
<path d="M171.474 117.708H167.897L166.195 103.91H171.474L171.474 117.708Z" fill="#A0616A"/>
<path d="M165.341 116.686H172.24V121.029H160.998C160.998 120.459 161.11 119.894 161.328 119.367C161.546 118.84 161.866 118.361 162.27 117.958C162.673 117.554 163.152 117.234 163.679 117.016C164.206 116.798 164.771 116.686 165.341 116.686Z" fill="#2F2E41"/>
<path d="M184.896 117.708H181.318L179.617 103.91H184.896L184.896 117.708Z" fill="#A0616A"/>
<path d="M178.764 116.686H185.663V121.029H174.42C174.42 120.459 174.532 119.894 174.751 119.367C174.969 118.84 175.289 118.361 175.692 117.958C176.096 117.554 176.574 117.234 177.101 117.016C177.628 116.798 178.193 116.686 178.764 116.686Z" fill="#2F2E41"/>
<path d="M171.305 110.757L167.367 110.569C167.031 110.553 166.715 110.409 166.482 110.167C166.249 109.925 166.118 109.603 166.116 109.267C165.078 93.2423 163.64 76.0598 165.841 69.4219C165.84 69.2328 165.879 69.0456 165.957 68.8732C166.035 68.7007 166.149 68.5471 166.292 68.4229C166.434 68.2986 166.602 68.2066 166.783 68.1531C166.965 68.0997 167.156 68.0861 167.343 68.1132L183.097 70.4001C183.409 70.4437 183.694 70.5982 183.9 70.8351C184.107 71.072 184.221 71.3755 184.222 71.6898C186.233 79.5494 186.324 93.8017 186.248 108.61C186.249 108.784 186.216 108.955 186.151 109.116C186.085 109.276 185.989 109.422 185.867 109.545C185.745 109.668 185.6 109.766 185.44 109.832C185.28 109.899 185.108 109.933 184.935 109.933H180.689C180.376 109.935 180.073 109.823 179.835 109.62C179.597 109.416 179.44 109.134 179.392 108.824L176.773 92.173C176.735 91.9294 176.61 91.7078 176.421 91.5493C176.232 91.3907 175.992 91.3059 175.745 91.3105C175.499 91.315 175.262 91.4086 175.079 91.574C174.896 91.7394 174.779 91.9655 174.75 92.2103L172.671 109.601C172.632 109.92 172.478 110.213 172.238 110.426C171.997 110.639 171.688 110.757 171.367 110.758C171.346 110.758 171.325 110.758 171.305 110.757Z" fill="#2F2E41"/>
<path d="M174.077 71.6911C170.605 69.762 167.892 69.2551 166.584 69.1246C166.41 69.1078 166.242 69.0559 166.089 68.972C165.935 68.8881 165.801 68.7739 165.693 68.6365C165.583 68.498 165.502 68.3387 165.456 68.1681C165.409 67.9975 165.397 67.8192 165.422 67.644L169.196 39.618C169.414 37.9784 170.047 36.4217 171.036 35.096C172.025 33.7703 173.337 32.7197 174.846 32.0442C176.308 31.3724 177.917 31.0858 179.52 31.2114C181.124 31.3371 182.668 31.871 184.007 32.7623C184.136 32.8483 184.263 32.9362 184.388 33.0259C185.93 34.1555 187.103 35.7163 187.759 37.5116C188.415 39.3068 188.525 41.2561 188.075 43.1137C185.76 52.5836 184.965 68.1085 184.829 71.1246C184.818 71.3817 184.732 71.6298 184.58 71.8378C184.429 72.0458 184.219 72.2042 183.978 72.2932C182.553 72.8107 181.05 73.0783 179.535 73.0842C177.626 73.0957 175.747 72.616 174.077 71.6911Z" fill="#3F3D56"/>
<path d="M177.235 28.2392C181.193 28.2392 184.401 25.0307 184.401 21.0727C184.401 17.1148 181.193 13.9062 177.235 13.9062C173.277 13.9062 170.068 17.1148 170.068 21.0727C170.068 25.0307 173.277 28.2392 177.235 28.2392Z" fill="#A0616A"/>
<path d="M182.306 26.7421C180.969 28.1662 178.486 27.4017 178.312 25.4562C178.298 25.3051 178.299 25.1531 178.315 25.0022C178.405 24.1404 178.903 23.3581 178.784 22.4481C178.757 22.2216 178.672 22.0058 178.538 21.8211C177.473 20.3945 174.972 22.4592 173.967 21.1677C173.35 20.3758 174.075 19.129 173.602 18.2439C172.977 17.0757 171.128 17.652 169.968 17.0122C168.678 16.3004 168.755 14.3204 169.604 13.1161C170.64 11.6474 172.457 10.8637 174.25 10.7508C176.044 10.6378 177.826 11.1227 179.5 11.7753C181.403 12.5169 183.29 13.5417 184.461 15.2147C185.885 17.2494 186.022 19.9848 185.31 22.3639C184.876 23.8112 183.398 25.5792 182.306 26.7421Z" fill="#2F2E41"/>
<path d="M187.981 33.7099C187.856 33.1205 186.779 32.3151 185.239 31.6586C182.762 30.6556 180.084 30.2518 177.422 30.4799C174.76 30.7081 172.19 31.5619 169.92 32.9716C169.762 32.9802 169.611 33.0405 169.49 33.1433C169.369 33.2461 169.286 33.3857 169.252 33.5406L164.07 56.4602L163.396 59.4451L162.949 61.4205L162.275 64.3967L161.916 65.9869C161.893 66.0885 161.892 66.1939 161.914 66.296C161.935 66.3981 161.977 66.4944 162.039 66.5787C162.1 66.663 162.179 66.7332 162.269 66.7846C162.36 66.836 162.46 66.8674 162.564 66.8768L184.941 68.8084C184.961 68.8084 184.985 68.8113 185.005 68.8113C185.19 68.8102 185.367 68.7391 185.501 68.6124C185.636 68.4857 185.717 68.3128 185.729 68.1286L185.942 64.8869L186.169 61.4205L186.269 59.9178L186.493 56.4602L187.984 33.7478V33.7274L187.981 33.7099Z" fill="#0C8CE9"/>
<path d="M151.265 35.1519C151.301 35.3093 151.324 35.4694 151.335 35.6305L163.869 42.8614L166.915 41.1075L170.163 45.3595L163.646 50.0048L149.346 38.7237C148.763 38.9395 148.128 38.9727 147.525 38.8188C146.923 38.6648 146.381 38.3311 145.973 37.862C145.565 37.3929 145.309 36.8106 145.24 36.1926C145.171 35.5746 145.291 34.9502 145.585 34.4023C145.88 33.8545 146.334 33.4092 146.887 33.1258C147.441 32.8423 148.067 32.734 148.684 32.8154C149.3 32.8968 149.878 33.1639 150.339 33.5813C150.8 33.9987 151.123 34.5465 151.265 35.1519Z" fill="#A0616A"/>
<path d="M164.317 42.2468C164.296 42.0522 164.319 41.8554 164.384 41.6709C164.449 41.4864 164.555 41.319 164.694 41.1808L171.073 34.8C171.705 34.1678 172.549 33.7921 173.442 33.7452C174.334 33.6983 175.213 33.9836 175.908 34.546C176.602 35.1085 177.064 35.9082 177.205 36.7911C177.345 37.674 177.153 38.5775 176.666 39.3274L172.123 46.3279C171.933 46.6197 171.635 46.8243 171.295 46.8967C170.954 46.9692 170.599 46.9037 170.307 46.7145L164.908 43.2106C164.743 43.1044 164.605 42.9627 164.503 42.7959C164.4 42.6291 164.337 42.4415 164.317 42.2468Z" fill="#3F3D56"/>
<path d="M186.493 56.46L186.268 59.9176L163.396 59.4449L164.07 56.46H186.493Z" fill="#CCCCCC"/>
<path d="M186.169 61.4199L185.941 64.8863L162.275 64.3961L162.949 61.4199H186.169Z" fill="#CCCCCC"/>
<path d="M177.375 7.14844C174.949 7.1487 172.619 8.09297 170.878 9.78129C169.137 11.4696 168.121 13.7694 168.045 16.1937H166.287C166.132 16.1937 165.984 16.2552 165.875 16.3646C165.765 16.4741 165.704 16.6225 165.704 16.7773V19.1115C165.704 19.2663 165.765 19.4147 165.875 19.5242C165.984 19.6336 166.132 19.6951 166.287 19.6951H186.128C186.283 19.6951 186.432 19.6336 186.541 19.5242C186.651 19.4147 186.712 19.2663 186.712 19.1115V16.4855C186.712 15.2593 186.47 14.0452 186.001 12.9123C185.532 11.7795 184.844 10.7502 183.977 9.88317C183.11 9.01615 182.081 8.32839 180.948 7.85916C179.815 7.38993 178.601 7.14843 177.375 7.14844Z" fill="#0C8CE9"/>
<path d="M31.5459 100.098C29.6992 100.747 27.7165 100.91 25.7888 100.57C23.861 100.231 22.0532 99.4005 20.5395 98.1594C16.6845 94.9238 15.4758 89.5931 14.4923 84.6572L11.5835 70.0576L17.6735 74.251C22.053 77.2666 26.5313 80.3788 29.5636 84.7467C32.596 89.1147 33.9197 95.0773 31.4832 99.8036" fill="#E6E6E6"/>
<path d="M31.0252 117.774C31.6416 113.284 32.2754 108.736 31.843 104.198C31.4591 100.168 30.2295 96.232 27.7263 93.0044C26.3976 91.2945 24.7809 89.8295 22.9487 88.6751C22.471 88.3736 22.0312 89.1307 22.5069 89.431C25.6771 91.4345 28.1291 94.393 29.5094 97.8799C31.0339 101.758 31.2787 105.985 31.016 110.104C30.8572 112.595 30.5204 115.069 30.1811 117.541C30.1544 117.653 30.1711 117.77 30.2278 117.87C30.2846 117.97 30.3771 118.045 30.4868 118.079C30.5987 118.109 30.718 118.094 30.8188 118.037C30.9196 117.98 30.9938 117.885 31.0252 117.774Z" fill="#F2F2F2"/>
<path d="M25.0884 109.829C24.2964 111.033 23.2078 112.012 21.9273 112.673C20.6469 113.334 19.2179 113.654 17.7779 113.602C14.0772 113.427 10.9919 110.844 8.21465 108.392L0 101.139L5.43674 100.878C9.34651 100.691 13.3572 100.517 17.0811 101.723C20.805 102.928 24.2394 105.83 24.9204 109.685" fill="#E6E6E6"/>
<path d="M32.7673 120.354C29.8005 115.105 26.3593 109.271 20.2105 107.406C18.5008 106.889 16.7081 106.704 14.9289 106.861C14.3682 106.909 14.5082 107.773 15.0679 107.725C18.0502 107.477 21.0268 108.265 23.4965 109.955C25.873 111.573 27.7234 113.821 29.2896 116.206C30.2489 117.667 31.1082 119.19 31.9677 120.711C32.2423 121.197 33.0452 120.846 32.7673 120.354Z" fill="#F2F2F2"/>
<path d="M216.708 121.528H8.95878C8.88139 121.528 8.80718 121.497 8.75246 121.442C8.69774 121.388 8.66699 121.314 8.66699 121.236C8.66699 121.159 8.69774 121.085 8.75246 121.03C8.80718 120.975 8.88139 120.944 8.95878 120.944H216.708C216.786 120.944 216.86 120.975 216.915 121.03C216.969 121.085 217 121.159 217 121.236C217 121.314 216.969 121.388 216.915 121.442C216.86 121.497 216.786 121.528 216.708 121.528Z" fill="#CCCCCC"/>
</g>
<defs>
<clipPath id="clip0_1241_3601">
<rect width="217" height="121.528" fill="white"/>
</clipPath>
</defs>
</svg>
