<svg width="341" height="195" viewBox="0 0 341 195" fill="none" xmlns="http://www.w3.org/2000/svg">
<g clip-path="url(#clip0_1241_3929)">
<path d="M56.061 88.5733V33.8277C56.061 33.0459 56.3716 32.2961 56.9244 31.7433C57.4773 31.1905 58.2271 30.8799 59.0089 30.8799C59.7907 30.8799 60.5405 31.1905 61.0933 31.7433C61.6461 32.2961 61.9567 33.0459 61.9567 33.8277V88.5733C61.9567 89.3551 61.6461 90.1049 61.0933 90.6577C60.5405 91.2105 59.7907 91.5211 59.0089 91.5211C58.2271 91.5211 57.4773 91.2105 56.9244 90.6577C56.3716 90.1049 56.061 89.3551 56.061 88.5733Z" fill="#F0F0F0"/>
<path d="M49.0073 88.5733V33.8277C49.0073 33.0459 49.3179 32.2961 49.8707 31.7433C50.4236 31.1905 51.1733 30.8799 51.9552 30.8799C52.737 30.8799 53.4868 31.1905 54.0396 31.7433C54.5924 32.2961 54.903 33.0459 54.903 33.8277V88.5733C54.903 89.3551 54.5924 90.1049 54.0396 90.6577C53.4868 91.2105 52.737 91.5211 51.9552 91.5211C51.1733 91.5211 50.4236 91.2105 49.8707 90.6577C49.3179 90.1049 49.0073 89.3551 49.0073 88.5733Z" fill="#F0F0F0"/>
<path d="M41.9536 88.5733V33.8277C41.9536 33.0459 42.2642 32.2961 42.817 31.7433C43.3698 31.1905 44.1196 30.8799 44.9014 30.8799C45.6833 30.8799 46.4331 31.1905 46.9859 31.7433C47.5387 32.2961 47.8493 33.0459 47.8493 33.8277V88.5733C47.8493 89.3551 47.5387 90.1049 46.9859 90.6577C46.4331 91.2105 45.6833 91.5211 44.9014 91.5211C44.1196 91.5211 43.3698 91.2105 42.817 90.6577C42.2642 90.1049 41.9536 89.3551 41.9536 88.5733Z" fill="#F0F0F0"/>
<path d="M308.271 176.013C307.084 176.014 305.906 175.809 304.789 175.408L304.616 175.346L304.696 174.965C302.694 170.922 303.394 165.383 306.487 160.829C309.298 156.689 313.574 153.679 317.346 151.024C317.824 150.687 318.393 150.501 318.978 150.49C319.563 150.479 320.138 150.643 320.63 150.961C321.121 151.279 321.506 151.737 321.734 152.276C321.963 152.815 322.026 153.41 321.914 153.984L320.565 160.905C319.592 165.897 318.433 170.622 314.999 173.569C313.113 175.147 310.731 176.012 308.271 176.013Z" fill="#E6E6E6"/>
<path d="M317.105 187.972C315.799 187.964 314.515 187.63 313.37 187C312.226 186.37 311.257 185.464 310.551 184.365L310.453 184.213L310.686 184.007C311.29 180.714 314.128 177.781 317.939 176.519C321.403 175.373 325.227 175.56 328.598 175.725C329.044 175.747 329.473 175.9 329.831 176.166C330.189 176.432 330.461 176.798 330.61 177.218C330.76 177.638 330.782 178.093 330.673 178.526C330.564 178.959 330.329 179.349 329.998 179.648L326.204 183.072C323.448 185.559 320.699 187.806 317.382 187.966C317.29 187.97 317.197 187.972 317.105 187.972Z" fill="#E6E6E6"/>
<path d="M305.333 191.631C304.772 187.46 304.196 183.235 304.589 179.019C304.938 175.275 306.056 171.618 308.331 168.619C309.533 167.036 311.002 165.674 312.673 164.597C313.107 164.317 313.506 165.02 313.074 165.299C310.178 167.179 307.951 169.927 306.71 173.149C305.325 176.751 305.102 180.679 305.341 184.506C305.485 186.82 305.791 189.119 306.1 191.415C306.125 191.518 306.11 191.627 306.058 191.719C306.007 191.812 305.922 191.882 305.822 191.915C305.771 191.929 305.718 191.932 305.666 191.925C305.614 191.919 305.564 191.901 305.518 191.875C305.473 191.849 305.433 191.814 305.401 191.772C305.369 191.73 305.346 191.682 305.333 191.631Z" fill="#F2F2F2"/>
<path d="M303.749 194.03C306.445 189.153 309.573 183.732 315.161 182C316.713 181.52 318.343 181.348 319.961 181.493C320.471 181.538 320.343 182.341 319.835 182.297C317.117 182.068 314.406 182.802 312.175 184.368C310.015 185.871 308.333 187.961 306.91 190.176C306.038 191.534 305.257 192.948 304.476 194.361C304.226 194.813 303.497 194.487 303.749 194.03Z" fill="#F2F2F2"/>
<path d="M302.536 193.958L305.259 194.02L288.843 106.327L286.121 106.84L290.407 129.589H276.597L280.884 106.84L278.162 106.327L261.883 194.02L264.469 193.958L273.027 148.539H293.978L302.536 193.958ZM273.661 145.17L275.963 132.958H291.042L293.343 145.17H273.661Z" fill="#CACACA"/>
<path d="M183.66 89.9702V61.1718C183.66 60.3167 184.983 59.6211 186.608 59.6211C188.233 59.6211 189.556 60.3167 189.556 61.1718V89.9702C189.556 90.8253 188.233 91.5209 186.608 91.5209C184.983 91.5209 183.66 90.8253 183.66 89.9702Z" fill="#F0F0F0"/>
<path d="M176.606 89.9702V61.1718C176.606 60.3167 177.929 59.6211 179.554 59.6211C181.18 59.6211 182.502 60.3167 182.502 61.1718V89.9702C182.502 90.8253 181.18 91.5209 179.554 91.5209C177.929 91.5209 176.606 90.8253 176.606 89.9702Z" fill="#F0F0F0"/>
<path d="M169.553 89.9702V61.1718C169.553 60.3167 170.875 59.6211 172.501 59.6211C174.126 59.6211 175.448 60.3167 175.448 61.1718V89.9702C175.448 90.8253 174.126 91.5209 172.501 91.5209C170.875 91.5209 169.553 90.8253 169.553 89.9702Z" fill="#F0F0F0"/>
<path d="M228.894 68.7914C228.881 68.7039 228.85 68.6201 228.802 68.5455C228.754 68.4709 228.692 68.4071 228.618 68.3584L206.394 53.6871C206.729 53.5473 207.009 53.3019 207.192 52.9883C207.414 52.6011 207.474 52.1418 207.358 51.7106C207.243 51.2795 206.961 50.9116 206.575 50.6873L204.752 49.6345C204.365 49.4124 203.905 49.3526 203.474 49.4682C203.043 49.5837 202.675 49.8651 202.451 50.251C202.33 50.4631 202.257 50.6994 202.237 50.9429L186.195 40.3524C185.657 39.0476 184.84 37.876 183.802 36.9191C182.764 35.9623 181.53 35.2433 180.186 34.8121V30.1426H174.29V34.8121C172.334 35.4376 170.627 36.6684 169.416 38.3269C168.205 39.9855 167.552 41.9859 167.552 44.0395V45.3029H173.448C173.448 46.3081 173.847 47.2721 174.558 47.9829C175.269 48.6937 176.233 49.093 177.238 49.093C178.243 49.093 179.207 48.6937 179.918 47.9829C180.629 47.2721 181.028 46.3081 181.028 45.3029H186.924V44.0395C186.923 43.4339 186.866 42.8297 186.753 42.2346L227.336 69.0262L210.478 89.5222C210.347 89.5216 210.217 89.5204 210.085 89.5204C208.74 89.5204 207.437 89.5522 206.195 89.607C206.27 89.3988 206.303 89.1778 206.292 88.9569C206.267 88.5112 206.067 88.0933 205.736 87.7946C205.404 87.4958 204.968 87.3404 204.522 87.3623L202.419 87.4719C201.973 87.4964 201.555 87.6963 201.257 88.028C200.958 88.3596 200.802 88.7959 200.824 89.2418C200.84 89.5051 200.918 89.761 201.053 89.988C197.335 90.3831 194.925 90.9278 194.925 91.2049C194.925 91.659 201.395 91.2267 209.493 91.2059C209.53 91.3112 209.594 91.4047 209.679 91.4769C209.765 91.549 209.867 91.5972 209.977 91.6165C210.087 91.6358 210.2 91.6255 210.305 91.5867C210.41 91.5479 210.502 91.4819 210.573 91.3955L210.729 91.206C218.803 91.2285 225.246 91.658 225.246 91.2049C225.246 90.7776 219.518 89.7148 212.096 89.5444L228.758 69.2868C228.814 69.2183 228.855 69.1389 228.879 69.0536C228.902 68.9682 228.907 68.8789 228.894 68.7914Z" fill="#CCCCCC"/>
<path d="M229.502 194.168H177.613C176.565 194.167 175.559 193.75 174.818 193.008C174.077 192.267 173.66 191.262 173.658 190.213V105.056C173.657 104.119 173.285 103.221 172.622 102.558C171.96 101.896 171.061 101.523 170.124 101.522H48.7511C47.8141 101.523 46.9158 101.896 46.2533 102.558C45.5908 103.221 45.2181 104.119 45.217 105.056V190.213C45.2158 191.262 44.7987 192.267 44.0572 193.009C43.3158 193.75 42.3104 194.167 41.2618 194.168H39.4864C38.4378 194.167 37.4325 193.75 36.691 193.009C35.9495 192.267 35.5324 191.262 35.5312 190.213V100.469C35.5341 97.9572 36.5332 95.5488 38.3096 93.7725C40.0859 91.9961 42.4943 90.997 45.0064 90.9941H223.982C226.494 90.997 228.903 91.9962 230.679 93.7725C232.455 95.5488 233.455 97.9572 233.457 100.469V190.213C233.456 191.262 233.039 192.267 232.298 193.009C231.556 193.75 230.551 194.167 229.502 194.168Z" fill="#E4E4E4"/>
<path d="M233.247 113.104H173.869V115.63H233.247V113.104Z" fill="white"/>
<path d="M233.247 147.214H173.869V149.741H233.247V147.214Z" fill="white"/>
<path d="M124.718 90.5783L123.011 89.8597L121.84 81.3047H106.25L104.982 89.8248L103.455 90.5882C103.382 90.6247 103.323 90.6848 103.289 90.7588C103.254 90.8328 103.245 90.9163 103.264 90.9957C103.283 91.0752 103.328 91.146 103.392 91.1967C103.456 91.2474 103.535 91.275 103.617 91.275H124.577C124.661 91.275 124.742 91.246 124.807 91.193C124.871 91.14 124.916 91.0662 124.932 90.9842C124.949 90.9022 124.937 90.8169 124.898 90.7429C124.858 90.6689 124.795 90.6108 124.718 90.5783Z" fill="#E6E6E6"/>
<path d="M152.422 82.4433H75.84C75.4382 82.4424 75.0532 82.2821 74.7694 81.9977C74.4856 81.7132 74.3262 81.3278 74.3262 80.926V70.127H153.936V80.926C153.936 81.3278 153.777 81.7132 153.493 81.9977C153.209 82.2821 152.824 82.4424 152.422 82.4433Z" fill="#CCCCCC"/>
<path d="M154.016 75.2313H74.2563V29.0243C74.2569 28.5394 74.4498 28.0745 74.7927 27.7316C75.1356 27.3887 75.6005 27.1959 76.0854 27.1953H152.187C152.672 27.1959 153.137 27.3887 153.48 27.7316C153.823 28.0745 154.016 28.5394 154.016 29.0243V75.2313Z" fill="#3F3D56"/>
<path d="M149.252 71.8775H79.0199C78.6461 71.8771 78.2877 71.7284 78.0233 71.4641C77.759 71.1997 77.6103 70.8413 77.6099 70.4675V31.9589C77.6103 31.5851 77.759 31.2267 78.0233 30.9623C78.2877 30.698 78.6461 30.5493 79.0199 30.5488H149.252C149.626 30.5493 149.984 30.698 150.249 30.9623C150.513 31.2267 150.662 31.5851 150.662 31.9589V70.4675C150.662 70.8413 150.513 71.1997 150.249 71.4641C149.984 71.7284 149.626 71.8771 149.252 71.8775Z" fill="white"/>
<path d="M227.984 34.9693C228.655 34.8725 229.34 34.9242 229.99 35.1207C230.64 35.3173 231.238 35.6538 231.744 36.1068C232.249 36.5597 232.65 37.118 232.916 37.7423C233.182 38.3666 233.309 39.0417 233.286 39.7201L248.684 45.6471L241.708 50.6316L228.155 44.239C227.018 44.1253 225.962 43.5985 225.187 42.7583C224.413 41.9181 223.973 40.8229 223.952 39.6803C223.931 38.5377 224.33 37.4271 225.073 36.5588C225.816 35.6905 226.851 35.125 227.984 34.9693Z" fill="#9E616A"/>
<path d="M286.451 32.0596L289.056 36.7958C288.427 39.7998 286.799 42.5026 284.439 44.4647C280.451 47.8284 259.597 60.3563 259.597 60.3563L233.27 47.1393L237.875 41.0192L258.545 47.9462C266.212 40.7058 275.465 35.3567 285.565 32.3253L286.451 32.0596Z" fill="#E4E4E4"/>
<path d="M281.607 110.432C292.955 110.432 302.154 107.435 302.154 103.737C302.154 100.039 292.955 97.042 281.607 97.042C270.26 97.042 261.061 100.039 261.061 103.737C261.061 107.435 270.26 110.432 281.607 110.432Z" fill="#CACACA"/>
<path d="M235.512 188.284L230.056 186.776L233.277 165.014L241.33 167.24L235.512 188.284Z" fill="#9E616A"/>
<path d="M235.442 193.958L217.849 189.095L217.911 188.873C218.413 187.057 219.616 185.514 221.255 184.585C222.894 183.656 224.835 183.416 226.651 183.918L226.651 183.918L237.396 186.888L235.442 193.958Z" fill="#2F2E41"/>
<path d="M219.693 188.356L214.515 186.069L220.87 165.008L228.513 168.382L219.693 188.356Z" fill="#9E616A"/>
<path d="M218.797 193.958L202.101 186.585L202.194 186.374C202.955 184.651 204.37 183.3 206.126 182.619C207.883 181.939 209.839 181.984 211.562 182.745L211.563 182.745L221.761 187.248L218.797 193.958Z" fill="#2F2E41"/>
<path d="M297.598 87.3681C297.598 87.3681 300.342 95.8718 283.502 106.626L261.814 128.237L239.279 182.143L225.9 176.145L228.524 169.141L230.285 164.441L231.186 162.037L232.152 159.459L246.475 121.227L258.506 100.161L258.855 88.7306L261.814 80.6731L283.284 73.0547L297.598 87.3681Z" fill="#2F2E41"/>
<path d="M286.649 87.79C286.649 87.79 289.393 96.2936 272.553 107.048L250.865 128.659L228.33 182.565L214.951 176.567L217.575 169.563L219.336 164.863L220.237 162.458L221.202 159.881L235.525 121.649L239.554 114.596C244.868 105.291 251.326 96.6869 258.776 88.9851L262.725 84.9029L263.147 78.5861L272.335 73.4766L286.649 87.79Z" fill="#2F2E41"/>
<path d="M273.674 46.1593L280.412 31.8413L292.171 30.2373C292.171 30.2373 301.352 41.9348 298.942 58.3718C298.038 64.5357 297.301 70.6723 297.257 76.0588C297.245 77.4921 298.499 78.132 298.52 79.4278C298.541 80.7006 296.144 82.774 296.836 83.639C297.825 84.8311 298.415 86.3044 298.52 87.8501C297.686 89.8362 272.43 79.0765 261.814 80.6733L273.674 46.1593Z" fill="#E4E4E4"/>
<path d="M290.375 23.0295C293.377 17.9806 291.717 11.4545 286.668 8.45322C281.619 5.4519 275.093 7.11184 272.092 12.1608C269.09 17.2097 270.75 23.7358 275.799 26.7371C280.848 29.7384 287.374 28.0785 290.375 23.0295Z" fill="#9E616A"/>
<path d="M288.033 13.7761C288.013 14.0559 287.984 14.4265 287.952 14.8458C287.919 15.9937 288.242 17.1236 288.878 18.08C289.473 19.0862 288.763 25.1636 288.763 25.1636C306.184 13.02 292.419 0.819942 287.034 1.90445C287.147 0.360147 282.755 0.971926 282.755 0.971926C281.082 -1.63389 277.415 1.82511 277.415 1.82511L278.122 0.634637C275.275 1.35884 272.461 10.1584 272.461 10.1584C273.427 13.9546 288.145 12.2318 288.033 13.7761Z" fill="#2F2E41"/>
<path d="M220.452 51.7921C226.438 43.8292 231.17 34.997 234.485 25.6023C234.677 25.0403 234.663 24.4285 234.446 23.8756C234.229 23.3228 233.823 22.8649 233.3 22.5833L212.815 11.6068C212.483 11.4278 212.116 11.3269 211.739 11.3116C211.363 11.2963 210.988 11.3671 210.643 11.5186C210.292 11.6712 209.98 11.902 209.732 12.1933C209.483 12.4846 209.304 12.8288 209.209 13.1996C206.824 22.2527 202.342 30.6174 196.126 37.6169C195.87 37.9018 195.682 38.2413 195.577 38.6097C195.472 38.978 195.453 39.3654 195.52 39.7424C195.585 40.1134 195.734 40.4647 195.955 40.7696C196.176 41.0744 196.464 41.3248 196.796 41.5016L217.282 52.4782C217.806 52.7576 218.412 52.842 218.993 52.7164C219.573 52.5908 220.09 52.2632 220.452 51.7921Z" fill="#CCCCCC"/>
<path d="M219.054 50.7412C218.943 50.8787 218.789 50.9735 218.616 51.0091C218.443 51.0448 218.264 51.0191 218.108 50.9364L197.622 39.9596C197.523 39.9078 197.437 39.8336 197.371 39.7429C197.305 39.6522 197.261 39.5474 197.242 39.4368C197.221 39.32 197.227 39.1999 197.26 39.0858C197.292 38.9718 197.351 38.8669 197.431 38.7793C203.832 31.5736 208.446 22.9624 210.9 13.6426C210.928 13.5275 210.983 13.4205 211.06 13.33C211.136 13.2394 211.233 13.1679 211.342 13.1209C211.445 13.0751 211.556 13.0536 211.669 13.0582C211.781 13.0629 211.891 13.0935 211.989 13.1477L232.474 24.1242C232.629 24.208 232.75 24.3435 232.816 24.5071C232.882 24.6707 232.889 24.8521 232.835 25.0202C229.581 34.2467 224.933 42.9208 219.054 50.7412Z" fill="white"/>
<path d="M211.886 23.5764L226.016 31.8582C227.422 32.6822 228.695 30.4991 227.291 29.6764L213.162 21.3946C211.756 20.5706 210.483 22.7537 211.886 23.5764Z" fill="#0C8CE9"/>
<path d="M209.36 28.2092L223.489 36.491C224.895 37.315 226.168 35.1319 224.765 34.3092L210.635 26.0274C209.229 25.2034 207.956 27.3865 209.36 28.2092Z" fill="#0C8CE9"/>
<path d="M206.412 33.2619L220.541 41.5437C221.947 42.3677 223.22 40.1847 221.817 39.362L207.687 31.0802C206.281 30.2562 205.008 32.4392 206.412 33.2619Z" fill="#0C8CE9"/>
<path d="M203.464 37.4738L217.593 45.7556C218.999 46.5796 220.272 44.3966 218.869 43.5739L204.739 35.2921C203.333 34.4681 202.06 36.6511 203.464 37.4738Z" fill="#0C8CE9"/>
<path d="M267.877 86.1875L273.181 98.1159C273.309 98.4015 273.364 98.7144 273.34 99.0264C273.317 99.3385 273.216 99.6397 273.047 99.9029C272.848 100.218 272.56 100.466 272.22 100.617C271.879 100.769 271.502 100.816 271.135 100.753C271.01 100.734 270.887 100.701 270.769 100.656C270.3 100.475 269.922 100.115 269.718 99.656L264.413 87.7276C264.312 87.5002 264.257 87.2551 264.251 87.0063C264.244 86.7575 264.287 86.5099 264.376 86.2776C264.556 85.8085 264.916 85.4302 265.375 85.226C265.834 85.0218 266.356 85.0083 266.825 85.1887C267.294 85.369 267.672 85.7283 267.877 86.1875Z" fill="#0C8CE9"/>
<path d="M272.753 97.1543L273.816 99.5618L274.359 102.975C274.395 103.2 274.356 103.43 274.247 103.63C274.139 103.83 273.967 103.988 273.759 104.081C273.551 104.173 273.319 104.195 273.098 104.141C272.876 104.088 272.679 103.963 272.536 103.785L270.337 101.049L269.29 98.6943L272.753 97.1543Z" fill="#3F3D56"/>
<path d="M263.234 82.8688L263.995 87.6444C264.02 87.8007 264.08 87.9493 264.171 88.0785C264.263 88.2078 264.383 88.3143 264.522 88.3898C264.661 88.4653 264.816 88.5079 264.974 88.5141C265.132 88.5203 265.29 88.4901 265.434 88.4258L266.188 88.0907L267.642 91.3613C267.688 91.4632 267.772 91.5429 267.876 91.5828C267.98 91.6228 268.096 91.6197 268.198 91.5744C268.3 91.5291 268.38 91.4451 268.42 91.341C268.46 91.2369 268.457 91.1211 268.412 91.0191L266.957 87.7484L267.711 87.4133C267.961 87.302 268.156 87.0963 268.255 86.8412C268.354 86.5861 268.347 86.3024 268.237 86.0521C268.2 85.9692 268.152 85.8915 268.095 85.8209L265.058 82.0579C264.915 81.8808 264.718 81.7559 264.497 81.7026C264.275 81.6493 264.043 81.6705 263.835 81.7629C263.627 81.8554 263.455 82.0139 263.347 82.2139C263.238 82.4139 263.199 82.6441 263.234 82.8688Z" fill="#3F3D56"/>
<path d="M265.435 91.4891C265.554 90.8209 265.819 90.1871 266.21 89.6322C266.601 89.0774 267.109 88.615 267.698 88.2777C268.287 87.9404 268.943 87.7363 269.619 87.6798C270.296 87.6234 270.976 87.7159 271.613 87.951L282.085 75.2002L284.62 83.3907L274.287 94.2433C273.822 95.2869 272.989 96.1234 271.948 96.5943C270.907 97.0652 269.729 97.1378 268.638 96.7983C267.547 96.4588 266.618 95.7308 266.027 94.7523C265.437 93.7737 265.226 92.6127 265.435 91.4891Z" fill="#9E616A"/>
<path d="M278.618 90.6606L274.006 83.9987L287.102 66.5369L280.356 52.0798L280.847 34.8834L286.422 33.8535L286.491 33.8882C289.202 35.4484 291.297 37.8888 292.429 40.8042C293.819 44.2811 296.924 57.3333 298.651 64.8038C298.99 66.2515 298.953 67.762 298.543 69.1913C298.133 70.6206 297.364 71.9211 296.309 72.969L278.618 90.6606Z" fill="#E4E4E4"/>
<path d="M148.76 58.4708C148.722 58.7943 148.709 59.1204 148.722 59.446L125.109 76.6251L118.622 73.7541L113.009 82.9781L124 89.1766C124.887 89.6773 125.914 89.8766 126.925 89.7444C127.935 89.6122 128.876 89.1557 129.605 88.4434L153.371 65.2299C154.588 65.539 155.869 65.4705 157.046 65.0333C158.223 64.5962 159.238 63.8112 159.958 62.7827C160.677 61.7543 161.067 60.5312 161.074 59.2761C161.081 58.0209 160.707 56.7933 159.999 55.7564C159.292 54.7195 158.286 53.9226 157.114 53.4715C155.943 53.0204 154.662 52.9367 153.442 53.2313C152.222 53.526 151.121 54.1851 150.284 55.1211C149.448 56.057 148.917 57.2254 148.76 58.4708Z" fill="#FFB6B6"/>
<path d="M124.345 77.2526L117.459 88.7273C117.263 89.0538 116.999 89.3342 116.685 89.5494C116.371 89.7647 116.014 89.9097 115.639 89.9747C115.264 90.0396 114.879 90.0229 114.511 89.9257C114.143 89.8286 113.8 89.6532 113.506 89.4116L103.195 80.9439C101.531 79.9318 100.336 78.3011 99.872 76.4093C99.408 74.5174 99.7131 72.5188 100.72 70.8515C101.727 69.1842 103.355 67.9843 105.245 67.5148C107.136 67.0453 109.135 67.3445 110.805 68.3469L123.089 73.442C123.441 73.588 123.757 73.8081 124.016 74.0873C124.275 74.3664 124.471 74.6981 124.59 75.0597C124.709 75.4214 124.749 75.8044 124.707 76.1828C124.664 76.5613 124.541 76.9261 124.345 77.2526Z" fill="#0C8CE9"/>
<path d="M94.8405 176.989H108.338V154.621H94.8405V176.989Z" fill="#CACACA"/>
<path d="M107.662 166.457L105.929 169.01L138.324 190.992L140.057 188.439L107.662 166.457Z" fill="#CACACA"/>
<path d="M95.5166 166.457L63.1216 188.439L64.854 190.993L97.249 169.01L95.5166 166.457Z" fill="#CACACA"/>
<path d="M139.19 193.958C141.533 193.958 143.433 192.059 143.433 189.716C143.433 187.373 141.533 185.474 139.19 185.474C136.848 185.474 134.948 187.373 134.948 189.716C134.948 192.059 136.848 193.958 139.19 193.958Z" fill="#CACACA"/>
<path d="M101.397 193.958C103.739 193.958 105.639 192.059 105.639 189.716C105.639 187.373 103.739 185.474 101.397 185.474C99.0536 185.474 97.1543 187.373 97.1543 189.716C97.1543 192.059 99.0536 193.958 101.397 193.958Z" fill="#CACACA"/>
<path d="M63.9878 193.958C66.3307 193.958 68.23 192.059 68.23 189.716C68.23 187.373 66.3307 185.474 63.9878 185.474C61.6449 185.474 59.7456 187.373 59.7456 189.716C59.7456 192.059 61.6449 193.958 63.9878 193.958Z" fill="#CACACA"/>
<path d="M102.939 167.733H99.854V189.716H102.939V167.733Z" fill="#CACACA"/>
<path d="M98.6966 164.648H104.481V134.953H98.6966V164.648Z" fill="#CACACA"/>
<path d="M85.0063 139.581V132.639C85.0078 131.361 85.5161 130.136 86.4199 129.232C87.3236 128.328 88.5489 127.82 89.827 127.818H115.666C116.944 127.82 118.169 128.328 119.073 129.232C119.977 130.136 120.485 131.361 120.487 132.639V139.581C120.485 140.859 119.977 142.084 119.073 142.988C118.169 143.892 116.944 144.4 115.666 144.402H89.827C88.5489 144.4 87.3236 143.892 86.4199 142.988C85.5161 142.084 85.0078 140.859 85.0063 139.581Z" fill="#3F3D56"/>
<path d="M131.674 187.031L138.82 187.031L142.22 168.497L131.673 168.497L131.674 187.031Z" fill="#FFB8B8"/>
<path d="M129.852 193.958L152.894 193.957V193.666C152.894 192.488 152.662 191.322 152.211 190.234C151.76 189.146 151.1 188.157 150.267 187.324C149.434 186.491 148.446 185.831 147.357 185.38C146.269 184.929 145.103 184.697 143.925 184.697H143.925L129.852 184.698L129.852 193.958Z" fill="#2F2E41"/>
<path d="M142.362 175.538L156.609 143.592C157.798 140.899 157.929 137.858 156.977 135.072C156.024 132.287 154.058 129.963 151.468 128.563L120.568 111.993L106.467 110.794L93.4605 109.611L93.3667 109.77C93.2468 109.973 90.4502 114.803 92.3406 120.1C93.7745 124.117 97.5042 127.255 103.426 129.427C117.249 134.495 133.217 138.827 139.44 140.454C139.715 140.524 139.972 140.652 140.195 140.829C140.417 141.006 140.599 141.227 140.729 141.48C140.86 141.729 140.937 142.003 140.957 142.283C140.977 142.564 140.938 142.846 140.844 143.111L127.608 172.847C127.47 173.224 127.42 173.627 127.463 174.027C127.505 174.426 127.639 174.811 127.854 175.15C128.068 175.49 128.358 175.775 128.7 175.985C129.043 176.195 129.429 176.324 129.829 176.361L139.718 177.081C139.802 177.089 139.886 177.093 139.969 177.093C140.475 177.093 140.971 176.946 141.396 176.67C141.821 176.394 142.156 176.001 142.362 175.538Z" fill="#2F2E41"/>
<path d="M127.011 187.031L134.157 187.031L137.557 168.497L127.01 168.497L127.011 187.031Z" fill="#FFB8B8"/>
<path d="M125.189 193.958L148.23 193.957V193.666C148.231 192.488 147.999 191.322 147.548 190.234C147.097 189.146 146.437 188.157 145.604 187.324C144.771 186.491 143.782 185.831 142.694 185.38C141.606 184.929 140.44 184.697 139.262 184.697H139.261L125.188 184.698L125.189 193.958Z" fill="#2F2E41"/>
<path d="M137.116 177.287L151.363 145.34C152.552 142.648 152.684 139.606 151.731 136.821C150.778 134.036 148.812 131.712 146.222 130.311L115.322 113.741L101.221 112.542L91.0338 111.658L91.0352 111.519C90.9152 111.721 88.1187 116.552 90.009 121.848C91.4429 125.866 92.2583 129.004 98.1803 131.175C112.003 136.244 127.971 140.576 134.194 142.202C134.469 142.273 134.726 142.4 134.949 142.577C135.171 142.754 135.353 142.976 135.483 143.228C135.614 143.477 135.691 143.751 135.711 144.032C135.731 144.313 135.692 144.594 135.598 144.859L122.362 174.595C122.224 174.972 122.174 175.376 122.217 175.775C122.26 176.175 122.393 176.559 122.608 176.899C122.822 177.238 123.112 177.524 123.454 177.734C123.797 177.944 124.183 178.072 124.583 178.109L134.472 178.829C134.556 178.837 134.64 178.841 134.723 178.841C135.23 178.841 135.725 178.694 136.15 178.418C136.575 178.142 136.91 177.749 137.116 177.287Z" fill="#2F2E41"/>
<path d="M128.18 39.686C130.01 31.9939 125.257 24.2753 117.565 22.4461C109.873 20.6168 102.154 25.3695 100.325 33.0616C98.4956 40.7536 103.248 48.4722 110.94 50.3015C118.632 52.1308 126.351 47.3781 128.18 39.686Z" fill="#FFB8B8"/>
<path d="M163.6 91.3771C169.587 83.4142 174.319 74.582 177.634 65.1872C177.826 64.6253 177.812 64.0134 177.595 63.4606C177.378 62.9078 176.972 62.4498 176.449 62.1683L155.964 51.1917C155.632 51.0128 155.264 50.9118 154.888 50.8966C154.512 50.8813 154.137 50.9521 153.792 51.1036C153.441 51.2562 153.129 51.4869 152.881 51.7782C152.632 52.0695 152.453 52.4137 152.358 52.7846C149.973 61.8376 145.491 70.2023 139.274 77.2019C139.019 77.4868 138.831 77.8263 138.726 78.1946C138.621 78.563 138.602 78.9504 138.669 79.3274C138.734 79.6984 138.883 80.0497 139.104 80.3545C139.325 80.6594 139.613 80.9097 139.945 81.0866L160.431 92.0632C160.955 92.3426 161.561 92.427 162.142 92.3014C162.722 92.1757 163.239 91.8482 163.6 91.3771Z" fill="#CCCCCC"/>
<path d="M162.202 90.3261C162.092 90.4637 161.937 90.5584 161.765 90.5941C161.592 90.6297 161.413 90.604 161.257 90.5214L140.771 79.5446C140.672 79.4927 140.586 79.4186 140.52 79.3278C140.454 79.2371 140.41 79.1324 140.391 79.0218C140.37 78.905 140.376 78.7848 140.408 78.6708C140.441 78.5567 140.5 78.4518 140.58 78.3643C146.98 71.1586 151.594 62.5474 154.049 53.2276C154.077 53.1124 154.132 53.0054 154.209 52.9149C154.285 52.8244 154.382 52.7529 154.491 52.7059C154.593 52.66 154.705 52.6386 154.818 52.6432C154.93 52.6478 155.04 52.6785 155.138 52.7327L175.623 63.7092C175.778 63.793 175.899 63.9284 175.965 64.092C176.031 64.2556 176.038 64.4371 175.984 64.6051C172.73 73.8317 168.082 82.5058 162.202 90.3261Z" fill="white"/>
<path d="M155.035 63.1623L169.165 71.4441C170.571 72.2681 171.844 70.085 170.44 69.2624L156.311 60.9805C154.905 60.1565 153.632 62.3396 155.035 63.1623Z" fill="#CCCCCC"/>
<path d="M152.508 67.7941L166.638 76.0759C168.044 76.8999 169.317 74.7169 167.913 73.8942L153.784 65.6124C152.378 64.7884 151.105 66.9715 152.508 67.7941Z" fill="#CCCCCC"/>
<path d="M150.524 72.4087L163.374 80.0372C164.652 80.7962 166.02 79.227 164.743 78.4692L151.893 70.8408C150.615 70.0818 149.247 71.6509 150.524 72.4087Z" fill="#CCCCCC"/>
<path d="M146.613 77.0588L160.742 85.3406C162.148 86.1646 163.421 83.9815 162.018 83.1588L147.888 74.877C146.482 74.053 145.209 76.2361 146.613 77.0588Z" fill="#CCCCCC"/>
<path d="M122.507 113.153L94.1764 112.983L94.1687 112.782C93.6285 98.5672 95.3657 85.6909 99.4797 73.4176C99.5379 72.9582 99.6007 72.4672 99.6624 71.9852C100.365 66.4942 100.923 62.1346 106.145 60.511C105.71 59.9325 105.453 59.2395 105.407 58.5172C105.374 58.0372 105.437 57.5554 105.592 57.1C105.747 56.6445 105.991 56.2244 106.31 55.8642C106.615 55.5164 106.987 55.2327 107.403 55.0298C107.819 54.8269 108.271 54.7088 108.733 54.6823L118.817 54.3389C119.346 54.3353 119.862 54.5102 120.281 54.8353C121.048 55.4056 121.588 56.2306 121.803 57.1625C122.017 58.0944 121.893 59.0724 121.453 59.9212C121.334 60.1577 121.289 60.2654 121.271 60.3123C121.63 62.1905 122.693 64.4215 123.819 66.7825C125.431 70.163 127.257 73.9942 127.727 78.0931C127.981 80.3062 127.875 82.5458 127.415 84.7253C127.205 85.8998 127.156 87.0975 127.271 88.2851C127.363 90.0461 127.45 91.7087 126.455 93.3167C126.201 93.7526 125.911 94.2174 125.57 94.7322L124.17 98.0794L122.507 113.153Z" fill="#0C8CE9"/>
<path d="M79.9927 133.045V75.1568C79.9948 73.2705 80.7451 71.4621 82.0789 70.1282C83.4127 68.7944 85.2212 68.0441 87.1075 68.042H89.0753C90.9617 68.0441 92.7701 68.7944 94.1039 70.1282C95.4378 71.4621 96.188 73.2705 96.1902 75.1568V133.045C96.188 134.931 95.4378 136.739 94.1039 138.073C92.7701 139.407 90.9617 140.157 89.0753 140.159H87.1075C85.2212 140.157 83.4127 139.407 82.0789 138.073C80.7451 136.739 79.9948 134.931 79.9927 133.045Z" fill="#3F3D56"/>
<path d="M155.964 80.9349C155.761 81.1894 155.578 81.4597 155.417 81.743L126.293 83.8695L122.299 78.0068L112.663 82.8786L118.726 93.9445C119.215 94.8384 119.982 95.5494 120.91 95.9707C121.838 96.3919 122.878 96.5007 123.874 96.2806L156.312 89.1095C157.182 90.0141 158.307 90.6325 159.537 90.8822C160.767 91.132 162.044 91.0013 163.198 90.5077C164.352 90.014 165.329 89.1807 165.997 88.1186C166.666 87.0565 166.996 85.8159 166.942 84.5619C166.889 83.3079 166.455 82.0999 165.698 81.0985C164.942 80.0971 163.898 79.3499 162.706 78.9561C161.514 78.5624 160.231 78.5408 159.027 78.8943C157.822 79.2478 156.754 79.9595 155.964 80.9349Z" fill="#FFB6B6"/>
<path d="M125.313 83.9992L113.408 90.1102C113.069 90.2841 112.697 90.3829 112.316 90.3999C111.936 90.417 111.556 90.3518 111.203 90.2089C110.851 90.066 110.533 89.8488 110.271 89.5719C110.01 89.295 109.811 88.9651 109.689 88.6045L105.401 75.9704C104.522 74.2359 104.366 72.224 104.966 70.3745C105.567 68.525 106.875 66.9886 108.605 66.1012C103.328 68.8101 114.319 61.1154 118.514 69.2881L126.258 80.0997C126.48 80.4094 126.632 80.7631 126.704 81.1369C126.777 81.5107 126.768 81.8957 126.679 82.2658C126.589 82.6358 126.421 82.9822 126.185 83.2813C125.949 83.5805 125.652 83.8253 125.313 83.9992Z" fill="#0C8CE9"/>
<path d="M107.785 50.2976C106.924 50.2976 105.973 49.8823 104.901 49.0408C101.747 46.564 99.4922 43.1208 98.4831 39.2393C97.474 35.3579 97.7662 31.2525 99.3148 27.5531C100.094 25.6913 101.552 23.1609 104.07 21.6779C105.881 20.6124 108.007 20.2275 109.858 19.9503C111.461 19.7101 113.084 19.5189 114.682 19.3828C116.591 19.2195 118.796 19.1093 120.807 19.8734C122.281 20.4335 123.535 21.4226 124.748 22.3791C125.171 22.7122 125.608 23.0573 126.046 23.3764C127.107 24.2041 128.331 24.7984 129.637 25.1205C129.913 25.1777 130.173 25.2933 130.4 25.4597C130.627 25.6261 130.816 25.8393 130.954 26.0849C131.094 26.3345 131.179 26.6114 131.204 26.8968C131.228 27.1823 131.191 27.4696 131.094 27.7393C130.905 28.2698 130.734 28.7481 131.08 29.2663C131.208 29.4488 131.379 29.5972 131.577 29.6985C131.776 29.7997 131.996 29.8507 132.219 29.847C132.337 29.8451 132.453 29.8726 132.558 29.927C132.662 29.9815 132.751 30.0611 132.817 30.1587C132.883 30.2555 132.925 30.3671 132.939 30.4838C132.953 30.6005 132.937 30.7187 132.895 30.8282L132.839 30.9709C132.988 30.9848 133.13 31.0344 133.255 31.1155C133.38 31.1967 133.483 31.307 133.556 31.4369C133.664 31.6218 133.706 31.8381 133.674 32.05C133.643 32.262 133.54 32.4568 133.383 32.6024C132.105 33.8184 130.512 34.652 128.785 35.0086C127.603 35.2405 126.387 35.2377 125.206 35.0004L125.016 34.9633L125.039 34.7528C120.262 33.049 115.95 35.9405 113.491 39.2461L113.136 39.022C113.197 38.8988 113.233 38.7645 113.24 38.6273C113.248 38.49 113.228 38.3526 113.181 38.2233C113.132 38.0682 113.052 37.9243 112.947 37.8C112.842 37.6756 112.713 37.5732 112.569 37.4987C112.276 37.3779 111.954 37.3465 111.643 37.4085C111.333 37.4705 111.047 37.6231 110.823 37.847C110.595 38.0861 110.419 38.3701 110.307 38.6808C110.195 38.9916 110.148 39.3223 110.171 39.652C110.235 40.3507 110.413 41.0343 110.698 41.6758C110.813 41.9826 110.933 42.3 111.03 42.62C111.574 44.4376 111.429 46.392 110.623 48.1093C110.251 48.8928 109.578 49.8917 108.485 50.2014C108.257 50.2657 108.022 50.2981 107.785 50.2976Z" fill="#2F2E41"/>
<path d="M340.484 194.801H0.516572C0.383838 194.8 0.256676 194.747 0.162955 194.653C0.0692341 194.559 0.0166016 194.432 0.0166016 194.299C0.0166016 194.167 0.0692341 194.039 0.162955 193.945C0.256676 193.851 0.383838 193.798 0.516572 193.798H340.484C340.617 193.798 340.744 193.851 340.838 193.945C340.932 194.039 340.985 194.166 340.985 194.299C340.985 194.432 340.932 194.56 340.838 194.654C340.744 194.748 340.617 194.801 340.484 194.801Z" fill="#CACACA"/>
</g>
<defs>
<clipPath id="clip0_1241_3929">
<rect width="340.97" height="194.8" fill="white" transform="translate(0.0151367)"/>
</clipPath>
</defs>
</svg>
