<svg width="261" height="232" viewBox="0 0 261 232" fill="none" xmlns="http://www.w3.org/2000/svg">
<g clip-path="url(#clip0_1241_4013)">
<path d="M224.303 191.631C219.899 204.53 214.235 217.4 206.98 229.651C206.819 229.926 206.656 230.197 206.492 230.472L188.529 224.789C188.633 224.529 188.746 224.238 188.867 223.921C196.112 205.184 239.823 91.0298 237.861 68.5225C238.072 70.3648 244.91 131.334 224.303 191.631Z" fill="#E6E6E6"/>
<path d="M210.445 230.747C210.201 230.996 209.951 231.244 209.699 231.486L196.224 227.223C196.406 227.003 196.618 226.743 196.862 226.45C200.853 221.576 212.717 206.984 224.303 191.631C236.753 175.132 248.884 157.756 250.584 150.616C250.242 152.24 239.61 201.663 210.445 230.747Z" fill="#E6E6E6"/>
<path d="M217.181 40.6745C217.176 40.6745 217.171 40.6759 217.166 40.6761V11.7912C217.166 8.664 215.924 5.66486 213.712 3.45357C211.501 1.24229 208.502 0 205.375 0H114.943C111.816 0 108.817 1.24229 106.605 3.45357C104.394 5.66486 103.152 8.664 103.152 11.7912V26.5991C102.902 26.6044 102.665 26.7073 102.49 26.8857C102.315 27.0641 102.217 27.3038 102.217 27.5535V34.888C102.217 35.1377 102.315 35.3774 102.49 35.5557C102.665 35.7341 102.902 35.8369 103.152 35.8422V43.5258H103.104C102.978 43.5257 102.854 43.5505 102.738 43.5985C102.622 43.6466 102.516 43.7171 102.428 43.8059C102.339 43.8947 102.268 44.0001 102.22 44.1162C102.172 44.2322 102.147 44.3566 102.147 44.4822V58.6653C102.147 58.7909 102.172 58.9153 102.22 59.0313C102.268 59.1474 102.339 59.2528 102.428 59.3416C102.516 59.4304 102.622 59.5009 102.738 59.549C102.854 59.597 102.978 59.6218 103.104 59.6218H103.152V65.2548H103.137C103.011 65.2548 102.887 65.2796 102.771 65.3276C102.655 65.3757 102.549 65.4461 102.461 65.535C102.372 65.6238 102.301 65.7292 102.253 65.8453C102.205 65.9613 102.18 66.0857 102.18 66.2113V80.5331C102.18 80.6587 102.205 80.7831 102.253 80.8991C102.301 81.0152 102.372 81.1206 102.461 81.2094C102.549 81.2982 102.655 81.3687 102.771 81.4168C102.887 81.4648 103.011 81.4896 103.137 81.4896H103.152V219.927C103.152 223.054 104.394 226.054 106.605 228.265C108.817 230.476 111.816 231.718 114.943 231.718H205.375C208.502 231.718 211.501 230.476 213.712 228.265C215.924 226.054 217.166 223.054 217.166 219.927V68.7619C217.171 68.7619 217.176 68.7633 217.181 68.7633C217.404 68.7634 217.626 68.7193 217.833 68.6337C218.039 68.5482 218.227 68.4227 218.385 68.2646C218.543 68.1064 218.669 67.9187 218.754 67.7121C218.84 67.5054 218.884 67.284 218.884 67.0603V42.3776C218.884 41.9259 218.704 41.4927 218.385 41.1733C218.066 40.8539 217.632 40.6745 217.181 40.6745Z" fill="#3F3D56"/>
<path d="M210.126 15.0918V216.624C210.125 219.025 209.17 221.327 207.472 223.025C205.774 224.722 203.471 225.676 201.07 225.676H119.248C116.847 225.676 114.544 224.722 112.846 223.025C111.148 221.327 110.193 219.025 110.192 216.624V15.0918C110.192 12.6901 111.146 10.3868 112.845 8.68849C114.543 6.99021 116.846 6.03613 119.248 6.03613H131.492V7.62526C131.493 9.60262 132.279 11.4987 133.677 12.897C135.075 14.2952 136.971 15.0811 138.949 15.0819H180.576C182.551 15.0776 184.444 14.29 185.838 12.8921C187.233 11.4942 188.017 9.60003 188.017 7.62526V6.05265H201.07C203.469 6.05265 205.77 7.00446 207.467 8.69916C209.165 10.3939 210.121 12.693 210.126 15.0918Z" fill="white"/>
<path d="M77.4448 113.083C76.9609 112.896 76.4419 112.817 75.9242 112.852C75.4065 112.887 74.9028 113.035 74.4485 113.285C73.9942 113.536 73.6004 113.883 73.2948 114.303C72.9893 114.722 72.7794 115.203 72.6799 115.713L43.5225 131.567L48.649 137.337L75.7269 119.959C76.5935 120.069 77.4705 119.858 78.1916 119.365C78.9128 118.872 79.4281 118.132 79.6398 117.284C79.8516 116.437 79.7451 115.541 79.3405 114.767C78.936 113.992 78.2615 113.393 77.4448 113.083Z" fill="#FFB8B8"/>
<path d="M70.008 227.153L73.6412 224.803L66.3058 209.671L60.9434 213.139L70.008 227.153Z" fill="#FFB8B8"/>
<path d="M82.831 223.645L71.4122 231.031L68.5586 226.619L75.7305 221.98C76.8569 221.251 78.2265 221 79.5381 221.281C80.8497 221.562 81.9958 222.353 82.7243 223.48L82.831 223.645Z" fill="#2F2E41"/>
<path d="M29.2422 227.7H33.5692L35.6284 211.01H29.2422V227.7Z" fill="#FFB8B8"/>
<path d="M41.9141 231.718H28.3147V226.463H36.8562C37.5204 226.463 38.1781 226.594 38.7918 226.848C39.4054 227.103 39.963 227.475 40.4327 227.945C40.9023 228.415 41.2749 228.972 41.5291 229.586C41.7832 230.199 41.9141 230.857 41.9141 231.521V231.718Z" fill="#2F2E41"/>
<path d="M128.518 32.7046H119.597C119.378 32.7046 119.168 32.6176 119.013 32.4627C118.859 32.3078 118.771 32.0977 118.771 31.8787C118.771 31.6596 118.859 31.4495 119.013 31.2946C119.168 31.1398 119.378 31.0527 119.597 31.0527H128.518C128.737 31.0527 128.947 31.1398 129.102 31.2946C129.257 31.4495 129.344 31.6596 129.344 31.8787C129.344 32.0977 129.257 32.3078 129.102 32.4627C128.947 32.6176 128.737 32.7046 128.518 32.7046Z" fill="#3F3D56"/>
<path d="M128.518 35.0181H119.597C119.378 35.0181 119.168 34.9311 119.013 34.7762C118.859 34.6213 118.771 34.4112 118.771 34.1922C118.771 33.9731 118.859 33.763 119.013 33.6081C119.168 33.4532 119.378 33.3662 119.597 33.3662H128.518C128.737 33.3662 128.947 33.4532 129.102 33.6081C129.257 33.763 129.344 33.9731 129.344 34.1922C129.344 34.4112 129.257 34.6213 129.102 34.7762C128.947 34.9311 128.737 35.0181 128.518 35.0181Z" fill="#3F3D56"/>
<path d="M128.518 37.3306H119.597C119.378 37.3306 119.168 37.2436 119.013 37.0887C118.859 36.9338 118.771 36.7237 118.771 36.5047C118.771 36.2856 118.859 36.0755 119.013 35.9206C119.168 35.7657 119.378 35.6787 119.597 35.6787H128.518C128.737 35.6787 128.947 35.7657 129.102 35.9206C129.257 36.0755 129.344 36.2856 129.344 36.5047C129.344 36.7237 129.257 36.9338 129.102 37.0887C128.947 37.2436 128.737 37.3306 128.518 37.3306Z" fill="#3F3D56"/>
<path d="M197.663 35.0341H197.363L197.247 34.9383C197.627 34.4856 197.835 33.9136 197.835 33.3227C197.832 32.8366 197.686 32.3621 197.413 31.9594C197.141 31.5566 196.756 31.2436 196.305 31.06C195.855 30.8764 195.361 30.8304 194.884 30.9278C194.408 31.0252 193.971 31.2616 193.63 31.6072C193.288 31.9528 193.056 32.3921 192.964 32.8694C192.871 33.3467 192.923 33.8406 193.111 34.2888C193.3 34.7369 193.617 35.1191 194.022 35.387C194.428 35.6549 194.904 35.7966 195.39 35.7939C195.979 35.7898 196.549 35.582 197.002 35.2059L197.115 35.3017V35.6056L199.011 37.5053L199.579 36.9371L197.663 35.0341ZM195.39 35.0341C195.052 35.0354 194.72 34.9363 194.438 34.7493C194.156 34.5624 193.936 34.2959 193.805 33.9837C193.674 33.6715 193.639 33.3276 193.704 32.9953C193.769 32.6631 193.93 32.3576 194.169 32.1173C194.407 31.877 194.711 31.7129 195.043 31.6455C195.375 31.5782 195.719 31.6108 196.032 31.7391C196.346 31.8674 196.614 32.0857 196.803 32.3664C196.992 32.6471 197.094 32.9776 197.095 33.3161L197.095 33.3227C197.096 33.5461 197.053 33.7676 196.969 33.9746C196.885 34.1815 196.761 34.3698 196.604 34.5287C196.446 34.6876 196.26 34.814 196.054 34.9007C195.848 34.9874 195.627 35.0327 195.403 35.034C195.399 35.0341 195.395 35.0341 195.39 35.0341Z" fill="#3F3D56"/>
<path d="M146.691 63.1004H130.665C129.702 63.1004 128.777 62.7175 128.096 62.036C127.414 61.3544 127.031 60.4301 127.031 59.4662C127.031 58.5024 127.414 57.578 128.096 56.8965C128.777 56.2149 129.702 55.832 130.665 55.832H146.691C147.654 55.832 148.579 56.2149 149.26 56.8965C149.942 57.578 150.325 58.5024 150.325 59.4662C150.325 60.4301 149.942 61.3544 149.26 62.036C148.579 62.7175 147.654 63.1004 146.691 63.1004Z" fill="#0C8CE9"/>
<path d="M195.75 71.029H129.014C128.488 71.029 127.984 70.8202 127.612 70.4484C127.24 70.0767 127.031 69.5725 127.031 69.0467C127.031 68.521 127.24 68.0168 127.612 67.645C127.984 67.2733 128.488 67.0645 129.014 67.0645H195.75C196.276 67.0645 196.78 67.2733 197.152 67.645C197.524 68.0168 197.733 68.521 197.733 69.0467C197.733 69.5725 197.524 70.0767 197.152 70.4484C196.78 70.8202 196.276 71.029 195.75 71.029Z" fill="#E6E6E6"/>
<path d="M153.528 78.9577H129.014C128.488 78.9577 127.984 78.7489 127.612 78.3771C127.24 78.0054 127.031 77.5012 127.031 76.9754C127.031 76.4497 127.24 75.9455 127.612 75.5738C127.984 75.202 128.488 74.9932 129.014 74.9932H153.528C154.054 74.9932 154.558 75.202 154.929 75.5738C155.301 75.9455 155.51 76.4497 155.51 76.9754C155.51 77.5012 155.301 78.0054 154.929 78.3771C154.558 78.7489 154.054 78.9577 153.528 78.9577Z" fill="#E6E6E6"/>
<path d="M146.691 150.981H130.665C129.702 150.981 128.777 150.598 128.096 149.917C127.414 149.235 127.031 148.311 127.031 147.347C127.031 146.383 127.414 145.459 128.096 144.777C128.777 144.096 129.702 143.713 130.665 143.713H146.691C147.654 143.713 148.579 144.096 149.26 144.777C149.942 145.459 150.325 146.383 150.325 147.347C150.325 148.311 149.942 149.235 149.26 149.917C148.579 150.598 147.654 150.981 146.691 150.981Z" fill="#0C8CE9"/>
<path d="M195.75 158.91H129.014C128.488 158.91 127.984 158.701 127.612 158.329C127.24 157.958 127.031 157.453 127.031 156.928C127.031 156.402 127.24 155.898 127.612 155.526C127.984 155.154 128.488 154.945 129.014 154.945H195.75C196.276 154.945 196.78 155.154 197.152 155.526C197.524 155.898 197.733 156.402 197.733 156.928C197.733 157.453 197.524 157.958 197.152 158.329C196.78 158.701 196.276 158.91 195.75 158.91Z" fill="#E6E6E6"/>
<path d="M153.528 166.84H129.014C128.488 166.84 127.984 166.631 127.612 166.259C127.24 165.887 127.031 165.383 127.031 164.857C127.031 164.332 127.24 163.827 127.612 163.456C127.984 163.084 128.488 162.875 129.014 162.875H153.528C154.054 162.875 154.558 163.084 154.929 163.456C155.301 163.827 155.51 164.332 155.51 164.857C155.51 165.383 155.301 165.887 154.929 166.259C154.558 166.631 154.054 166.84 153.528 166.84Z" fill="#E6E6E6"/>
<path d="M146.691 191.618H130.665C129.702 191.618 128.777 191.235 128.096 190.554C127.414 189.872 127.031 188.948 127.031 187.984C127.031 187.02 127.414 186.096 128.096 185.414C128.777 184.732 129.702 184.35 130.665 184.35H146.691C147.654 184.35 148.579 184.732 149.26 185.414C149.942 186.096 150.325 187.02 150.325 187.984C150.325 188.948 149.942 189.872 149.26 190.554C148.579 191.235 147.654 191.618 146.691 191.618Z" fill="#0C8CE9"/>
<path d="M195.75 199.547H129.014C128.488 199.547 127.984 199.338 127.612 198.966C127.24 198.594 127.031 198.09 127.031 197.564C127.031 197.039 127.24 196.534 127.612 196.163C127.984 195.791 128.488 195.582 129.014 195.582H195.75C196.276 195.582 196.78 195.791 197.152 196.163C197.524 196.534 197.733 197.039 197.733 197.564C197.733 198.09 197.524 198.594 197.152 198.966C196.78 199.338 196.276 199.547 195.75 199.547Z" fill="#E6E6E6"/>
<path d="M153.528 207.476H129.014C128.488 207.476 127.984 207.267 127.612 206.896C127.24 206.524 127.031 206.02 127.031 205.494C127.031 204.968 127.24 204.464 127.612 204.092C127.984 203.721 128.488 203.512 129.014 203.512H153.528C154.054 203.512 154.558 203.721 154.929 204.092C155.301 204.464 155.51 204.968 155.51 205.494C155.51 206.02 155.301 206.524 154.929 206.896C154.558 207.267 154.054 207.476 153.528 207.476Z" fill="#E6E6E6"/>
<path d="M205.166 130.333H77.6393C76.8948 130.332 76.181 130.036 75.6545 129.509C75.1281 128.983 74.8319 128.269 74.8311 127.524V92.8346C74.8319 92.0901 75.128 91.3763 75.6545 90.8498C76.1809 90.3233 76.8947 90.0272 77.6393 90.0264H205.166C205.91 90.0272 206.624 90.3234 207.151 90.8498C207.677 91.3763 207.973 92.0901 207.974 92.8346V127.524C207.973 128.269 207.677 128.983 207.151 129.509C206.624 130.036 205.91 130.332 205.166 130.333Z" fill="#0C8CE9"/>
<path d="M31.7931 171.604C33.0122 180.157 26.5566 218.052 27.2735 218.048L36.544 217.999C36.8744 217.364 41.1297 196.917 42.4644 193.637C44.3277 189.084 46.2076 184.475 46.941 179.612C47.6315 175.046 47.2912 170.394 46.8419 165.799C46.8628 165.662 46.8509 165.522 46.8071 165.391C46.7634 165.26 46.6891 165.141 46.5903 165.044C46.4916 164.947 46.3712 164.875 46.2392 164.834C46.1071 164.793 45.9672 164.784 45.831 164.808L33.3922 164.167C30.8284 164.035 30.2205 163.473 30.6104 165.99C30.8813 167.87 31.5222 169.701 31.7931 171.604Z" fill="#2F2E41"/>
<path d="M34.2374 150.805C31.71 154.44 29.0604 158.622 29.8995 162.973C30.5372 166.277 33.0547 168.838 35.4301 171.233C44.9252 180.768 63.6478 222.838 63.6478 222.838C72.6832 217.056 63.4326 223.003 72.6011 216.891C71.7884 216.829 53.3235 150.452 51.7938 150.363C45.6058 149.953 40.2669 149.348 34.2374 150.805Z" fill="#2F2E41"/>
<path d="M44.235 116.215C42.9513 115.07 33.9297 111.54 33.9297 111.54C33.7638 111.518 33.5955 111.523 33.4312 111.555C32.9178 111.684 32.6836 112.322 32.7932 112.838C32.9029 113.354 32.0032 121.833 31.7714 125.688C31.3652 132.417 35.3278 147.66 35.2929 148.126C35.1572 149.788 34.4293 151.346 33.2418 152.517C33.5505 152.9 53.1522 153.668 54.4855 154.122C54.7547 153.78 52.9677 129.603 52.8855 128.238C52.7484 126.164 45.9297 117.785 44.235 116.215Z" fill="#E6E6E6"/>
<path d="M30.254 168.675C30.7185 168.444 31.1267 168.114 31.4498 167.708C31.7729 167.302 32.0031 166.83 32.1241 166.326C32.2451 165.821 32.254 165.296 32.1502 164.788C32.0464 164.279 31.8323 163.8 31.5232 163.383L39.7936 117.612L32.0759 117.511L26.3326 162.772C25.667 163.338 25.232 164.128 25.1101 164.993C24.9882 165.858 25.1879 166.738 25.6713 167.466C26.1546 168.193 26.8881 168.718 27.7328 168.941C28.5774 169.164 29.4745 169.07 30.254 168.675Z" fill="#FFB8B8"/>
<path d="M30.187 121.009C29.8652 121.033 29.5446 120.949 29.2752 120.771C28.816 120.378 32.5625 114.362 33.3025 114.273C35.711 113.995 38.1888 113.903 40.5246 114.554C42.8604 115.205 45.0574 116.685 46.1014 118.875C46.5375 119.787 43.3758 124.376 41.9387 123.702C40.2174 122.896 32.4534 121.066 30.187 121.009Z" fill="#E6E6E6"/>
<path d="M38.6883 111.047C43.4759 111.047 47.3571 107.165 47.3571 102.378C47.3571 97.5901 43.4759 93.709 38.6883 93.709C33.9007 93.709 30.0195 97.5901 30.0195 102.378C30.0195 107.165 33.9007 111.047 38.6883 111.047Z" fill="#FFB8B8"/>
<path d="M30.1733 116.711C31.3779 116.837 32.5949 116.659 33.713 116.193C34.831 115.727 35.8144 114.989 36.5732 114.044C37.3319 113.1 37.8418 111.981 38.0562 110.789C38.2706 109.597 38.1826 108.37 37.8003 107.221C37.4553 106.184 36.8787 105.233 36.5627 104.186C36.2468 103.14 36.2382 101.903 36.9389 101.064C38.3099 99.4226 40.9523 100.455 43.0659 100.129C45.318 99.781 47.0457 97.6204 47.226 95.3487C47.4062 93.0771 46.2221 90.8291 44.4595 89.3848C42.697 87.9405 40.4237 87.2293 38.1559 87.0065C35.2434 86.7203 32.3063 87.1888 29.6273 88.3669C26.9484 89.545 24.6179 91.3929 22.8602 93.7328C21.1026 96.0727 19.9769 98.8257 19.5917 101.727C19.2065 104.628 19.5746 107.579 20.6607 110.297C21.6082 112.667 23.1558 114.875 25.3541 116.174C27.5523 117.472 30.4556 117.721 32.6464 116.411" fill="#2F2E41"/>
<path d="M122.993 105.885H100.84C99.4327 105.885 98.2881 104.254 98.2881 102.25C98.2881 100.246 99.4327 98.6162 100.84 98.6162H122.993C124.4 98.6162 125.544 100.246 125.544 102.25C125.544 104.254 124.4 105.885 122.993 105.885Z" fill="white"/>
<path d="M182.535 113.813H100.27C99.7446 113.813 99.2404 113.604 98.8687 113.233C98.4969 112.861 98.2881 112.357 98.2881 111.831C98.2881 111.305 98.4969 110.801 98.8687 110.429C99.2404 110.057 99.7446 109.849 100.27 109.849H182.535C183.061 109.849 183.565 110.057 183.937 110.429C184.308 110.801 184.517 111.305 184.517 111.831C184.517 112.357 184.308 112.861 183.937 113.233C183.565 113.604 183.061 113.813 182.535 113.813Z" fill="#E6E6E6"/>
<path d="M140.312 121.742H100.27C99.7446 121.742 99.2404 121.533 98.8687 121.161C98.4969 120.79 98.2881 120.285 98.2881 119.76C98.2881 119.234 98.4969 118.73 98.8687 118.358C99.2404 117.986 99.7446 117.777 100.27 117.777H140.312C140.838 117.777 141.342 117.986 141.714 118.358C142.086 118.73 142.295 119.234 142.295 119.76C142.295 120.285 142.086 120.79 141.714 121.161C141.342 121.533 140.838 121.742 140.312 121.742Z" fill="#E6E6E6"/>
<path d="M261 231.264H0V231.924H261V231.264Z" fill="#3F3D56"/>
</g>
<defs>
<clipPath id="clip0_1241_4013">
<rect width="261" height="231.924" fill="white"/>
</clipPath>
</defs>
</svg>
