<svg width="339" height="209" viewBox="0 0 339 209" fill="none" xmlns="http://www.w3.org/2000/svg">
<g clip-path="url(#clip0_1241_3811)">
<path d="M16.778 192.156C16.9197 197.445 17.8058 202.688 19.4101 207.73C19.4457 207.847 19.4852 207.962 19.5236 208.079H29.3453C29.335 207.974 29.3243 207.857 29.314 207.73C28.6592 200.202 32.4003 154.927 36.9148 147.091C36.5192 147.726 16.0165 168.235 16.778 192.156Z" fill="#F1F1F1"/>
<path d="M17.5151 207.73C17.5973 207.847 17.6826 207.964 17.7701 208.079H25.1386C25.0828 207.98 25.0181 207.862 24.943 207.73C23.7258 205.533 20.123 198.965 16.7788 192.156C13.1864 184.839 9.88768 177.244 10.1655 174.495C10.0794 175.115 7.59242 194.014 17.5151 207.73Z" fill="#F1F1F1"/>
<path d="M231.849 42.8885C232.13 43.5838 232.56 44.209 233.109 44.7201C233.658 45.2311 234.312 45.6156 235.026 45.8465C235.739 46.0774 236.495 46.149 237.239 46.0563C237.983 45.9636 238.698 45.7088 239.333 45.31L253.554 56.7168L254.434 47.2845L240.795 37.8984C240.054 36.8759 238.964 36.1606 237.731 35.8881C236.498 35.6157 235.208 35.8049 234.106 36.42C233.003 37.0351 232.164 38.0333 231.748 39.2255C231.332 40.4177 231.368 41.721 231.849 42.8885Z" fill="#9F616A"/>
<path d="M253.872 46.3985L248.564 42.6484L242.544 49.604L249.547 53.7542L253.872 46.3985Z" fill="#0C8CE9"/>
<path d="M252.709 43.8547L270.596 50.737L287.814 39.4624C289.594 38.2971 291.737 37.8193 293.842 38.1181C295.948 38.417 297.874 39.472 299.259 41.0864C300.643 42.7007 301.394 44.7639 301.369 46.8907C301.344 49.0176 300.546 51.0627 299.124 52.6443L298.97 52.8153L272.487 67.0139L243.56 53.799L252.709 43.8547Z" fill="#3F3D56"/>
<path d="M247.666 207.368H61.2842L68.0423 75.4062H97.209L124.104 94.2579H254.424L247.666 207.368Z" fill="#E5E5E5"/>
<path d="M202.042 167.126L94.3154 122.761C93.9388 122.606 93.6393 122.307 93.4826 121.931C93.3259 121.555 93.3248 121.132 93.4795 120.755L142.292 2.22753C142.448 1.85092 142.747 1.55141 143.123 1.3947C143.499 1.23799 143.922 1.23689 144.299 1.39163L252.025 45.7563C252.402 45.9119 252.701 46.2105 252.858 46.5867C253.015 46.9629 253.016 47.3858 252.861 47.7628L204.048 166.29C203.893 166.667 203.594 166.966 203.218 167.123C202.842 167.28 202.419 167.281 202.042 167.126Z" fill="white"/>
<path d="M202.042 167.126L94.3154 122.761C93.9388 122.606 93.6393 122.307 93.4826 121.931C93.3259 121.555 93.3248 121.132 93.4795 120.755L142.292 2.22753C142.448 1.85092 142.747 1.55141 143.123 1.3947C143.499 1.23799 143.922 1.23689 144.299 1.39163L252.025 45.7563C252.402 45.9119 252.701 46.2105 252.858 46.5867C253.015 46.9629 253.016 47.3858 252.861 47.7628L204.048 166.29C203.893 166.667 203.594 166.966 203.218 167.123C202.842 167.28 202.419 167.281 202.042 167.126ZM144.065 1.96011C143.839 1.86725 143.585 1.86791 143.359 1.96193C143.133 2.05596 142.954 2.23567 142.861 2.46165L94.048 120.989C93.9551 121.215 93.9558 121.469 94.0498 121.695C94.1438 121.92 94.3236 122.1 94.5495 122.193L202.276 166.558C202.502 166.65 202.756 166.65 202.981 166.556C203.207 166.462 203.386 166.282 203.48 166.056L252.293 47.5287C252.385 47.3025 252.385 47.0487 252.291 46.823C252.197 46.5973 252.017 46.4181 251.791 46.3248L144.065 1.96011Z" fill="#3F3D56"/>
<path d="M174.49 60.0642L147.772 49.0608C147.395 48.9052 147.096 48.6066 146.939 48.2304C146.782 47.8542 146.781 47.4313 146.936 47.0543L157.939 20.3359C158.095 19.9593 158.394 19.6598 158.77 19.5031C159.146 19.3464 159.569 19.3453 159.946 19.5L186.664 30.5034C187.041 30.659 187.34 30.9576 187.497 31.3338C187.654 31.71 187.655 32.1329 187.5 32.5099L176.497 59.2283C176.341 59.6049 176.043 59.9044 175.666 60.0611C175.29 60.2178 174.867 60.2189 174.49 60.0642ZM159.712 20.0685C159.486 19.9756 159.232 19.9763 159.006 20.0703C158.78 20.1644 158.601 20.3441 158.508 20.57L147.505 47.2884C147.412 47.5146 147.412 47.7684 147.506 47.9941C147.6 48.2198 147.78 48.399 148.006 48.4923L174.724 59.4957C174.951 59.5886 175.204 59.5879 175.43 59.4939C175.656 59.3999 175.835 59.2201 175.928 58.9942L186.932 32.2758C187.025 32.0496 187.024 31.7958 186.93 31.5701C186.836 31.3444 186.656 31.1652 186.43 31.0719L159.712 20.0685Z" fill="#F2F2F2"/>
<path d="M165.47 60.1727L138.752 49.1694C138.413 49.0293 138.143 48.7605 138.002 48.422C137.861 48.0835 137.86 47.7028 137.999 47.3635L149.003 20.6451C149.143 20.3062 149.411 20.0366 149.75 19.8956C150.089 19.7545 150.469 19.7535 150.808 19.8928L177.527 30.8962C177.866 31.0362 178.135 31.305 178.276 31.6435C178.417 31.9821 178.418 32.3628 178.279 32.702L167.276 59.4204C167.136 59.7594 166.867 60.029 166.528 60.17C166.19 60.311 165.809 60.312 165.47 60.1727Z" fill="#0C8CE9"/>
<path d="M216.933 96.6592L133.367 62.2444C133.199 62.1752 133.046 62.0736 132.917 61.9454C132.789 61.8172 132.686 61.665 132.617 61.4973C132.547 61.3296 132.511 61.1498 132.51 60.9681C132.51 60.7865 132.545 60.6065 132.614 60.4386C132.684 60.2706 132.785 60.1179 132.913 59.9892C133.042 59.8605 133.194 59.7583 133.362 59.6884C133.529 59.6186 133.709 59.5824 133.891 59.582C134.072 59.5817 134.252 59.6171 134.42 59.6863L217.986 94.1011C218.326 94.2408 218.595 94.5095 218.737 94.8482C218.878 95.1868 218.878 95.5676 218.739 95.9069C218.599 96.2461 218.33 96.5159 217.992 96.657C217.653 96.7981 217.272 96.7989 216.933 96.6592Z" fill="#CCCCCC"/>
<path d="M193.123 97.1597L129.738 71.0559C129.57 70.9867 129.418 70.8852 129.289 70.757C129.16 70.6288 129.058 70.4765 128.988 70.3088C128.918 70.1411 128.882 69.9613 128.882 69.7797C128.881 69.598 128.917 69.4181 128.986 69.2501C129.055 69.0821 129.157 68.9294 129.285 68.8007C129.413 68.672 129.565 68.5698 129.733 68.4999C129.901 68.4301 130.081 68.3939 130.262 68.3936C130.444 68.3932 130.624 68.4286 130.792 68.4978L194.177 94.6015C194.516 94.7412 194.786 95.01 194.927 95.3486C195.068 95.6873 195.069 96.0681 194.929 96.4074C194.79 96.7466 194.521 97.0164 194.182 97.1575C193.844 97.2986 193.463 97.2994 193.123 97.1597Z" fill="#CCCCCC"/>
<path d="M229.993 64.1386L193.042 48.9211C192.874 48.852 192.721 48.7504 192.593 48.6222C192.464 48.494 192.362 48.3417 192.292 48.174C192.222 48.0063 192.186 47.8265 192.186 47.6449C192.185 47.4632 192.221 47.2833 192.29 47.1153C192.359 46.9473 192.461 46.7946 192.589 46.6659C192.717 46.5372 192.869 46.435 193.037 46.3652C193.205 46.2953 193.384 46.2592 193.566 46.2588C193.748 46.2584 193.928 46.2938 194.096 46.363L231.047 61.5804C231.386 61.7201 231.656 61.9889 231.797 62.3275C231.938 62.6662 231.939 63.047 231.799 63.3863C231.659 63.7255 231.39 63.9953 231.052 64.1364C230.713 64.2775 230.332 64.2783 229.993 64.1386Z" fill="#CCCCCC"/>
<path d="M217.143 69.1523L189.414 57.7327C189.074 57.593 188.805 57.3242 188.664 56.9856C188.522 56.6469 188.522 56.2661 188.661 55.9268C188.801 55.5876 189.07 55.3178 189.408 55.1767C189.747 55.0356 190.128 55.0348 190.467 55.1745L218.196 66.5942C218.536 66.7339 218.806 67.0027 218.947 67.3413C219.088 67.68 219.088 68.0608 218.949 68.4C218.809 68.7393 218.54 69.0091 218.202 69.1502C217.863 69.2913 217.482 69.2921 217.143 69.1523Z" fill="#CCCCCC"/>
<path d="M209.675 114.281L126.109 79.8665C125.941 79.7973 125.789 79.6957 125.66 79.5675C125.531 79.4393 125.429 79.287 125.359 79.1194C125.289 78.9517 125.253 78.7719 125.253 78.5902C125.253 78.4085 125.288 78.2286 125.357 78.0606C125.426 77.8927 125.528 77.74 125.656 77.6112C125.784 77.4825 125.937 77.3803 126.104 77.3105C126.272 77.2406 126.452 77.2045 126.633 77.2041C126.815 77.2037 126.995 77.2391 127.163 77.3083L210.729 111.723C211.068 111.863 211.338 112.132 211.479 112.47C211.62 112.809 211.621 113.19 211.481 113.529C211.342 113.868 211.073 114.138 210.734 114.279C210.396 114.42 210.015 114.421 209.675 114.281Z" fill="#CCCCCC"/>
<path d="M185.866 114.782L122.481 88.678C122.313 88.6088 122.16 88.5072 122.031 88.379C121.902 88.2508 121.8 88.0986 121.73 87.9309C121.661 87.7632 121.624 87.5834 121.624 87.4017C121.624 87.2201 121.659 87.0401 121.728 86.8721C121.797 86.7042 121.899 86.5515 122.027 86.4228C122.155 86.2941 122.308 86.1919 122.475 86.122C122.643 86.0521 122.823 86.016 123.004 86.0156C123.186 86.0153 123.366 86.0507 123.534 86.1198L186.919 112.224C187.087 112.293 187.24 112.394 187.369 112.523C187.497 112.651 187.6 112.803 187.669 112.971C187.739 113.138 187.775 113.318 187.776 113.5C187.776 113.682 187.741 113.861 187.672 114.029C187.602 114.197 187.501 114.35 187.373 114.479C187.244 114.608 187.092 114.71 186.924 114.78C186.757 114.849 186.577 114.886 186.395 114.886C186.214 114.886 186.034 114.851 185.866 114.782Z" fill="#CCCCCC"/>
<path d="M202.418 131.904L118.852 97.4895C118.512 97.3498 118.243 97.0811 118.101 96.7424C117.96 96.4037 117.96 96.0229 118.099 95.6837C118.239 95.3445 118.508 95.0746 118.846 94.9335C119.185 94.7924 119.566 94.7917 119.905 94.9314L203.471 129.346C203.81 129.486 204.08 129.755 204.221 130.093C204.362 130.432 204.363 130.813 204.223 131.152C204.084 131.491 203.815 131.761 203.476 131.902C203.138 132.043 202.757 132.044 202.418 131.904Z" fill="#CCCCCC"/>
<path d="M198.789 140.716L115.223 106.301C114.884 106.161 114.614 105.893 114.473 105.554C114.332 105.215 114.331 104.834 114.471 104.495C114.611 104.156 114.879 103.886 115.218 103.745C115.557 103.604 115.938 103.603 116.277 103.743L199.843 138.158C200.011 138.227 200.163 138.328 200.292 138.457C200.421 138.585 200.523 138.737 200.593 138.905C200.663 139.072 200.699 139.252 200.699 139.434C200.7 139.616 200.664 139.796 200.595 139.964C200.526 140.131 200.424 140.284 200.296 140.413C200.168 140.542 200.016 140.644 199.848 140.714C199.68 140.784 199.5 140.82 199.319 140.82C199.137 140.82 198.957 140.785 198.789 140.716Z" fill="#CCCCCC"/>
<path d="M158.022 140.062C159.694 140.15 161.371 140.099 163.035 139.909C164.533 139.734 166.094 139.492 167.408 138.705C167.976 138.381 168.459 137.927 168.819 137.381C169.179 136.835 169.405 136.212 169.478 135.562C169.536 134.944 169.396 134.323 169.078 133.79C168.76 133.257 168.28 132.839 167.709 132.597C167.129 132.353 166.494 132.27 165.871 132.357C165.247 132.444 164.66 132.698 164.169 133.093C163.645 133.548 163.231 134.115 162.957 134.753C162.683 135.39 162.556 136.081 162.586 136.775C162.655 139.622 164.908 142.433 167.409 143.618C170.227 144.952 174.074 143.818 174.796 140.533C174.946 139.85 174.015 139.613 173.626 140.052C173.095 140.637 172.808 141.403 172.822 142.194C172.837 142.984 173.153 143.739 173.706 144.304C174.259 144.869 175.006 145.202 175.796 145.235C176.586 145.267 177.358 144.997 177.956 144.479L176.908 144.048C177.213 145.323 177.848 146.496 178.749 147.448C179.651 148.4 180.787 149.098 182.044 149.472C182.664 149.658 183.307 149.756 183.954 149.763C184.741 149.765 185.549 150.16 186.302 150.405L191.724 152.172C192.522 152.432 193.028 151.221 192.224 150.959L187.313 149.359C186.494 149.092 185.678 148.818 184.857 148.559C184.271 148.374 183.628 148.474 183.016 148.365C181.871 148.148 180.811 147.61 179.959 146.814C179.108 146.018 178.501 144.996 178.208 143.867C178.19 143.755 178.143 143.649 178.073 143.56C178.002 143.471 177.91 143.401 177.805 143.358C177.7 143.315 177.585 143.299 177.473 143.313C177.36 143.326 177.252 143.369 177.161 143.436C176.817 143.762 176.359 143.94 175.886 143.93C175.412 143.921 174.962 143.724 174.632 143.384C174.303 143.044 174.122 142.587 174.127 142.114C174.133 141.64 174.325 141.188 174.663 140.856L173.493 140.374C173.028 142.493 170.443 143.288 168.58 142.676C166.497 141.99 164.706 139.996 164.084 137.908C163.918 137.406 163.857 136.875 163.905 136.348C163.954 135.822 164.11 135.311 164.364 134.848C164.591 134.425 164.945 134.084 165.376 133.873C165.806 133.662 166.292 133.592 166.765 133.672C167.188 133.731 167.57 133.953 167.833 134.289C168.095 134.626 168.216 135.051 168.17 135.475C168.101 135.952 167.915 136.405 167.63 136.794C167.344 137.182 166.967 137.494 166.533 137.703C165.36 138.333 163.956 138.489 162.653 138.632C161.168 138.794 159.673 138.836 158.181 138.759C157.344 138.717 157.176 140.019 158.022 140.062Z" fill="#0C8CE9"/>
<path d="M247.666 103.15V207.368H61.2842V84.2988H90.4508L117.345 103.15H247.666Z" fill="white"/>
<path d="M148.784 187.805H72.6665V193.851H148.784V187.805Z" fill="#0C8CE9"/>
<path d="M110.725 176.067H72.6665V182.114H110.725V176.067Z" fill="#0C8CE9"/>
<path d="M248.022 207.724H60.9287V83.9434H90.5633L117.459 102.795H248.022V207.724ZM61.6401 207.012H247.311V103.506H117.234L90.3388 84.6547H61.6401V207.012Z" fill="#3F3D56"/>
<path d="M323.565 195.145L317.259 197.399L305.564 174.146L314.872 170.819L323.565 195.145Z" fill="#9F616A"/>
<path d="M307.023 207.951L306.931 207.693C306.184 205.594 306.3 203.284 307.253 201.27C308.207 199.256 309.92 197.702 312.018 196.949L324.438 192.511L327.359 200.683L307.023 207.951Z" fill="#2F2E41"/>
<path d="M282.556 201.382H275.858L272.672 175.55L282.557 175.55L282.556 201.382Z" fill="#9F616A"/>
<path d="M284.263 207.874L262.668 207.874V207.6C262.668 206.497 262.886 205.404 263.308 204.384C263.731 203.364 264.35 202.438 265.13 201.657C265.911 200.877 266.837 200.257 267.857 199.835C268.877 199.413 269.97 199.195 271.074 199.195H271.074L284.264 199.196L284.263 207.874Z" fill="#2F2E41"/>
<path d="M297.818 36.3471L294.906 30.5918C294.906 30.5918 284.055 33.3103 283.069 39.5989L297.818 36.3471Z" fill="#0C8CE9"/>
<path d="M309.836 102.154L301.915 146.355L322.947 183.549L310.383 188.466L289.078 152.412L286.347 142.578L284.707 193.929L273.376 193.585L268.181 145.636L276.513 101.062L309.836 102.154Z" fill="#2F2E41"/>
<path d="M308.197 82.1843L307.923 56.2646C307.923 45.2795 300.694 37.1828 299.691 36.4338C299.22 34.9289 298.374 33.8887 297.177 33.3443C294.767 32.252 291.82 33.5627 291.695 33.6217L282.853 36.9366L282.812 37.058C282.718 37.3354 273.796 66.6117 271.556 73.9593C271.237 75.0135 271.053 75.6168 271.053 75.6168C271.053 75.6168 271.088 77.3159 271.15 79.9582C271.348 89.043 271.816 109.28 272.003 110.129C272.003 110.129 288.335 112.605 294.802 112.605C306.436 112.605 313.825 110.379 313.992 110.341L314.259 110.285L308.197 82.1843Z" fill="#3F3D56"/>
<path d="M291.593 27.3149C297.386 24.1481 299.515 16.8848 296.349 11.0918C293.182 5.29874 285.918 3.1697 280.125 6.33644C274.332 9.50317 272.203 16.7665 275.37 22.5595C278.537 28.3526 285.8 30.4816 291.593 27.3149Z" fill="#9F616A"/>
<path opacity="0.2" d="M287.184 76.6983L271.15 79.9578C271.088 77.3156 271.053 75.6165 271.053 75.6165C271.053 75.6165 271.237 75.0131 271.556 73.959L287.184 76.6983Z" fill="black"/>
<path d="M239.702 73.2815C240.272 73.7696 240.941 74.127 241.664 74.3284C242.386 74.5299 243.144 74.5705 243.884 74.4474C244.623 74.3243 245.327 74.0405 245.945 73.616C246.564 73.1914 247.081 72.6365 247.462 71.9903L265.335 75.5807L261.779 66.7999L245.352 64.7366C244.224 64.1692 242.927 64.0353 241.707 64.3603C240.487 64.6852 239.428 65.4464 238.732 66.4997C238.035 67.553 237.75 68.8251 237.929 70.075C238.107 71.3249 238.739 72.4658 239.702 73.2815Z" fill="#9F616A"/>
<path d="M260.872 66.2724L254.434 65.3828L252.287 74.3277L260.414 74.793L260.872 66.2724Z" fill="#0C8CE9"/>
<path d="M258.67 64.5484L277.719 62.4351L287.824 44.5055C288.869 42.6525 290.552 41.243 292.559 40.54C294.567 39.837 296.761 39.8886 298.734 40.6853C300.706 41.482 302.321 42.9692 303.277 44.8693C304.233 46.7693 304.464 48.9524 303.929 51.0108L303.871 51.2335L286.883 76.0194L255.119 77.586L258.67 64.5484Z" fill="#3F3D56"/>
<path d="M296.041 27.2042L286.119 27.5603C285.515 27.582 283.873 21.055 283.658 19.7009C283.489 18.8194 283.004 18.0299 282.294 17.4797C281.585 16.9296 280.699 16.6565 279.803 16.7114C279.061 16.7816 277.188 15.394 275.255 13.7509C271.586 10.6316 271.777 4.77293 275.807 2.13705C275.918 2.06501 276.026 1.99923 276.132 1.93971C278.674 0.51655 281.649 0.0386352 284.563 0.00219115C287.204 -0.0308454 289.92 0.301598 292.247 1.55177C296.419 3.79305 298.639 8.6909 298.834 13.4225C299.029 18.1541 297.512 22.7808 295.791 27.1925" fill="#2F2E41"/>
<path d="M338.453 208.435H0.546609C0.452274 208.435 0.361802 208.398 0.295097 208.331C0.228392 208.264 0.190918 208.174 0.190918 208.079C0.190918 207.985 0.228392 207.895 0.295097 207.828C0.361802 207.761 0.452274 207.724 0.546609 207.724H338.453C338.547 207.724 338.638 207.761 338.704 207.828C338.771 207.895 338.809 207.985 338.809 208.079C338.809 208.174 338.771 208.264 338.704 208.331C338.638 208.398 338.547 208.435 338.453 208.435Z" fill="#CBCBCB"/>
</g>
<defs>
<clipPath id="clip0_1241_3811">
<rect width="338.618" height="208.435" fill="white" transform="translate(0.190918)"/>
</clipPath>
</defs>
</svg>
