<svg width="282" height="214" viewBox="0 0 282 214" fill="none" xmlns="http://www.w3.org/2000/svg">
<path d="M135.091 142.92V171H128.251V142.92H135.091ZM158.448 151.8C157.941 150.867 157.208 150.16 156.248 149.68C155.314 149.173 154.208 148.92 152.928 148.92C150.714 148.92 148.941 149.653 147.608 151.12C146.274 152.56 145.608 154.493 145.608 156.92C145.608 159.507 146.301 161.533 147.688 163C149.101 164.44 151.034 165.16 153.488 165.16C155.168 165.16 156.581 164.733 157.728 163.88C158.901 163.027 159.754 161.8 160.288 160.2H151.608V155.16H166.488V161.52C165.981 163.227 165.114 164.813 163.888 166.28C162.688 167.747 161.154 168.933 159.288 169.84C157.421 170.747 155.314 171.2 152.968 171.2C150.194 171.2 147.714 170.6 145.528 169.4C143.368 168.173 141.674 166.48 140.448 164.32C139.248 162.16 138.648 159.693 138.648 156.92C138.648 154.147 139.248 151.68 140.448 149.52C141.674 147.333 143.368 145.64 145.528 144.44C147.688 143.213 150.154 142.6 152.928 142.6C156.288 142.6 159.114 143.413 161.408 145.04C163.728 146.667 165.261 148.92 166.008 151.8H158.448ZM176.876 142.92V171H170.036V142.92H176.876ZM180.433 156.92C180.433 154.147 181.033 151.68 182.233 149.52C183.433 147.333 185.1 145.64 187.233 144.44C189.393 143.213 191.833 142.6 194.553 142.6C197.887 142.6 200.74 143.48 203.113 145.24C205.487 147 207.073 149.4 207.873 152.44H200.353C199.793 151.267 198.993 150.373 197.953 149.76C196.94 149.147 195.78 148.84 194.473 148.84C192.367 148.84 190.66 149.573 189.353 151.04C188.047 152.507 187.393 154.467 187.393 156.92C187.393 159.373 188.047 161.333 189.353 162.8C190.66 164.267 192.367 165 194.473 165C195.78 165 196.94 164.693 197.953 164.08C198.993 163.467 199.793 162.573 200.353 161.4H207.873C207.073 164.44 205.487 166.84 203.113 168.6C200.74 170.333 197.887 171.2 194.553 171.2C191.833 171.2 189.393 170.6 187.233 169.4C185.1 168.173 183.433 166.48 182.233 164.32C181.033 162.16 180.433 159.693 180.433 156.92ZM218.662 142.92V171H211.822V142.92H218.662ZM240.859 166.04H230.379L228.699 171H221.539L231.699 142.92H239.619L249.779 171H242.539L240.859 166.04ZM239.099 160.76L235.619 150.48L232.179 160.76H239.099ZM277.751 171H270.911L259.471 153.68V171H252.631V142.92H259.471L270.911 160.32V142.92H277.751V171Z" fill="#0C8CE9"/>
<path d="M55.4922 67.66C68.0722 67.66 79.0655 70.1533 88.4722 75.14C97.8789 80.1267 105.132 87.1533 110.232 96.22C115.446 105.173 118.052 115.543 118.052 127.33C118.052 139.003 115.446 149.373 110.232 158.44C105.132 167.507 97.8222 174.533 88.3022 179.52C78.8955 184.507 67.9589 187 55.4922 187H10.7822V67.66H55.4922ZM53.6222 161.84C64.6155 161.84 73.1722 158.837 79.2922 152.83C85.4122 146.823 88.4722 138.323 88.4722 127.33C88.4722 116.337 85.4122 107.78 79.2922 101.66C73.1722 95.54 64.6155 92.48 53.6222 92.48H39.8522V161.84H53.6222Z" fill="#0C8CE9"/>
</svg>
