<svg width="198" height="148" viewBox="0 0 198 148" fill="none" xmlns="http://www.w3.org/2000/svg">
<g clip-path="url(#clip0_1241_2629)">
<path d="M13.4893 124.448C12.5375 124.448 11.5838 124.493 10.6523 124.584L10.5168 124.598C4.33867 125.226 -0.180321 128.874 0.00552978 133.082L0.041458 133.843C0.0651521 134.324 0.090396 134.842 0.111176 135.415C0.122427 135.698 0.457834 135.916 0.875183 135.916H152.842C163.556 135.841 174.232 135.746 184.57 135.635C186.51 135.64 188.449 135.524 190.375 135.289C193.248 134.898 195.242 134.122 196.472 132.917H196.472C198.001 131.423 198.05 129.542 197.957 127.416C197.769 123.124 197.582 118.615 197.395 114.12C197.231 110.158 197.067 106.207 196.903 102.424C196.802 100.179 196.576 98.1973 194.84 96.6829C192.957 95.045 189.525 94.2148 184.636 94.2148C184.577 94.2148 184.519 94.2148 184.459 94.2151C169.14 94.2778 153.961 100.342 146.689 109.304C145.851 110.337 145.071 111.441 144.316 112.51C143.213 114.151 141.996 115.712 140.673 117.181C139.938 117.973 139.132 118.696 138.266 119.341C138.207 119.388 138.139 119.438 138.068 119.486C137.904 119.609 137.733 119.727 137.567 119.832C136.603 120.475 135.574 121.013 134.497 121.439L134.389 121.48C134.308 121.514 134.221 121.547 134.133 121.577C133.512 121.806 132.879 122.001 132.237 122.161C129.465 122.864 126.313 123.033 122.868 122.661C119.687 122.307 116.56 121.573 113.553 120.476C110.364 119.316 107.378 117.869 104.491 116.47C103.223 115.855 101.912 115.22 100.602 114.617C100.355 114.504 100.113 114.393 99.8673 114.283C98.2674 113.565 96.8169 112.972 95.433 112.47C92.0334 111.228 88.4763 110.47 84.8658 110.217C81.0558 109.977 77.6984 110.43 74.889 111.56C74.1086 111.873 73.354 112.248 72.6323 112.679C69.3048 114.669 67.2534 117.605 65.2697 120.444C62.8022 123.975 60.2505 127.628 55.212 129.521C49.398 131.707 40.9116 130.799 34.9075 129.219C33.0198 128.722 31.1344 128.151 29.311 127.598C28.5746 127.375 27.8376 127.153 27.1001 126.933C25.651 126.502 24.465 126.172 23.3677 125.893L23.0206 125.805C22.8276 125.756 22.6344 125.708 22.4376 125.662C21.1343 125.347 19.9207 125.099 18.7256 124.904L18.4428 124.857C17.8759 124.771 17.3459 124.699 16.8258 124.639L16.6182 124.615C15.5791 124.503 14.5345 124.447 13.4893 124.448Z" fill="#F2F2F2"/>
<path d="M31.2148 135.895C31.2146 135.811 31.2475 135.731 31.3063 135.672C31.3652 135.613 31.4452 135.579 31.5287 135.579H166.457C166.54 135.58 166.62 135.613 166.678 135.672C166.737 135.731 166.77 135.811 166.77 135.894C166.77 135.977 166.737 136.057 166.678 136.116C166.62 136.175 166.54 136.208 166.457 136.209H31.5287C31.4455 136.208 31.3658 136.175 31.3071 136.117C31.2483 136.058 31.2151 135.978 31.2148 135.895Z" fill="#CACACA"/>
<path d="M137.606 11.3803C137.61 14.248 136.528 17.0108 134.576 19.1118C134.428 19.273 134.272 19.4291 134.113 19.5798C128.232 15.0528 122.063 10.9114 115.646 7.18146C115.726 6.9805 115.81 6.7822 115.903 6.58653C116.995 4.2359 118.856 2.32836 121.18 1.1794C123.503 0.0304331 126.149 -0.291133 128.68 0.267885C131.21 0.826903 133.475 2.23302 135.098 4.25367C136.721 6.27433 137.606 8.78849 137.606 11.3803Z" fill="#FF6584"/>
<path d="M146.836 34.5427L146.825 34.6616C139.34 34.146 131.855 33.6296 124.371 33.1122C118.964 32.7394 113.369 32.3163 108.591 29.7568C106.777 28.7864 105.011 27.4908 102.954 27.4009C100.402 27.2872 98.176 29.072 96.4256 30.9334C86.0791 41.9541 83.0833 58.8052 71.4756 68.4853C78.7966 50.4315 87.5372 32.9864 97.6154 16.314C99.4769 13.2336 101.685 9.94435 105.141 8.93958C108.438 7.97976 111.812 9.38115 114.847 11.1792C115.498 11.5652 116.132 11.9697 116.746 12.3717C121.423 15.4335 126.024 18.6127 130.548 21.909C136.103 25.9519 141.533 30.1631 146.836 34.5427Z" fill="#F2F2F2"/>
<path d="M171.046 57.917C163.045 46.6234 153.749 36.3055 143.349 27.1737C140.358 24.5455 137.28 22.0141 134.113 19.5798C128.231 15.0529 122.063 10.9114 115.646 7.18148C113.542 5.95989 111.412 4.78678 109.258 3.66214C107.584 2.79223 105.802 1.99634 103.872 2.12062C102.522 2.23604 101.232 2.73205 100.152 3.55109C97.7801 5.28299 96.2094 7.98793 94.9165 10.566C93.7848 12.8267 92.7298 15.1324 91.6536 17.4248C91.1962 18.4005 90.7387 19.3735 90.2654 20.3413C88.6155 23.7311 86.9268 27.1023 85.1993 30.4551C82.9729 34.7756 80.6822 39.0635 78.3272 43.3187C73.38 52.2638 68.1597 61.0476 62.6661 69.6701C54.5909 82.3434 45.9516 94.6324 36.7483 106.537C35.6193 107.994 35.1539 108.333 34.009 109.779C33.7446 110.117 33.274 109.641 33.5357 109.306C43.0837 97.2378 51.3968 85.8363 59.7787 72.9277C66.0981 63.1946 72.0703 53.2457 77.6953 43.0808C79.5012 39.8206 81.2692 36.5401 82.9994 33.2393C85.7995 27.8956 88.5027 22.5015 91.1089 17.0573C91.7964 15.6242 92.4768 14.1858 93.1502 12.7421C95.2893 8.1598 98.4041 1.34589 104.419 1.43843C106.188 1.46487 107.83 2.18143 109.38 2.97467C110.958 3.78642 112.508 4.6484 114.055 5.52361C114.673 5.87263 115.289 6.22695 115.903 6.58655C118.333 7.9985 120.727 9.46952 123.084 10.9996C127.019 13.5512 130.849 16.2552 134.576 19.1118C136.345 20.4682 138.087 21.8555 139.803 23.2736C150.571 32.182 160.252 42.3268 168.648 53.4986C169.661 54.8445 170.652 56.2053 171.623 57.5812C171.871 57.9328 171.292 58.266 171.046 57.917Z" fill="#E4E4E4"/>
<path d="M143.944 23.8084C144.294 23.4188 144.641 23.0292 144.993 22.6395C147.767 19.5714 150.744 16.539 154.553 14.7801C156.37 13.915 158.353 13.4553 160.364 13.4331C162.444 13.4398 164.477 13.9853 166.398 14.7489C167.307 15.1119 168.195 15.5237 169.07 15.9624C170.07 16.4655 171.052 17.0021 172.029 17.5432C173.863 18.5584 175.674 19.6182 177.461 20.7225C181.017 22.9201 184.461 25.2853 187.794 27.8183C189.522 29.1319 191.214 30.4885 192.871 31.8882C194.412 33.1885 195.921 34.5236 197.399 35.8936C197.716 36.1853 198.188 35.7133 197.871 35.4216C197.482 35.0587 197.088 34.698 196.694 34.3418C195.58 33.3354 194.449 32.3484 193.3 31.3806C191.205 29.6128 189.056 27.9133 186.853 26.282C183.426 23.7438 179.882 21.3779 176.219 19.1841C174.389 18.0886 172.534 17.0392 170.653 16.0358C170.085 15.733 169.511 15.4369 168.93 15.1564C167.611 14.4913 166.241 13.9336 164.833 13.4888C162.838 12.8435 160.728 12.6361 158.646 12.8809C156.635 13.1734 154.698 13.8434 152.937 14.8558C149.197 16.9465 146.296 20.1793 143.472 23.3342C143.187 23.6548 143.657 24.129 143.944 23.8084Z" fill="#E4E4E4"/>
<path d="M67.3039 55.6012L58.3409 52.323L53.8907 50.6953C52.4414 50.1652 50.9955 49.5617 49.4972 49.1822C48.1952 48.8102 46.8128 48.8278 45.5206 49.2328C44.3683 49.6593 43.3135 50.3132 42.4189 51.1555C41.505 51.9971 40.6547 52.9052 39.8749 53.8724C38.906 55.0368 37.9514 56.2133 36.9926 57.386C33.0352 62.2257 29.1037 67.0865 25.1981 71.9682C21.2926 76.8499 17.4131 81.7523 13.5598 86.6754C9.69711 91.6106 5.86094 96.5664 2.05135 101.543C1.58466 102.152 1.11838 102.762 0.652495 103.373C0.3951 103.71 -0.185281 103.377 0.075747 103.036C3.91345 98.0091 7.77791 93.0031 11.6691 88.0178C15.5699 83.0205 19.4976 78.0445 23.4523 73.0896C27.4069 68.1348 31.3882 63.2015 35.3963 58.2897C36.3948 57.0661 37.3949 55.8437 38.3968 54.6228C39.2418 53.5928 40.0774 52.5518 41.0043 51.5931C42.7057 49.8335 44.8314 48.2785 47.3758 48.2363C48.8718 48.2115 50.3196 48.6862 51.7096 49.189C53.208 49.7311 54.7029 50.2833 56.1994 50.8307L65.2251 54.1319L67.4815 54.9572C67.8819 55.1036 67.7089 55.7494 67.3039 55.6012Z" fill="#E4E4E4"/>
<path d="M155.732 18.6409C160.287 16.3 166.12 16.7585 170.306 19.6831C162.322 21.0605 154.426 22.9035 146.657 25.2025C149.883 23.3121 152.407 20.3501 155.732 18.6409Z" fill="#F2F2F2"/>
<path d="M170.351 19.6748L171.228 20.3875C170.931 20.1381 170.623 19.9042 170.306 19.6829C170.321 19.6803 170.336 19.6774 170.351 19.6748Z" fill="#F2F2F2"/>
<path d="M42.7569 55.6347C43.6392 54.5608 44.5931 53.4362 45.9128 53L47.1449 53.0486C37.7658 69.6218 25.0986 84.1033 9.9209 95.6043C20.8662 82.2811 31.8115 68.9579 42.7569 55.6347Z" fill="#F2F2F2"/>
<path d="M135.17 116.062L127.709 112.77V109.94L130.368 109.925C130.781 109.923 131.182 109.791 131.516 109.549C131.85 109.307 132.1 108.966 132.23 108.575L134.098 102.971C134.197 102.674 134.224 102.358 134.177 102.049C134.13 101.739 134.01 101.446 133.827 101.192C133.644 100.938 133.403 100.731 133.125 100.589C132.846 100.446 132.538 100.372 132.225 100.372H127.709V97.7384H133.378C133.825 97.7384 134.259 97.5868 134.608 97.3085C134.958 97.0301 135.203 96.6414 135.303 96.2059L136.589 90.6102C136.656 90.3208 136.656 90.0201 136.59 89.7305C136.525 89.4409 136.394 89.1698 136.209 88.9375C136.024 88.7052 135.789 88.5176 135.522 88.3887C135.254 88.2597 134.961 88.1927 134.664 88.1927H127.709V87.5344C127.709 87.1852 127.57 86.8503 127.323 86.6034C127.076 86.3565 126.741 86.2178 126.392 86.2178C126.043 86.2178 125.708 86.3565 125.461 86.6034C125.214 86.8503 125.076 87.1852 125.076 87.5344V88.1927H78.4446V87.5344C78.4446 87.1852 78.3059 86.8503 78.059 86.6034C77.812 86.3565 77.4771 86.2178 77.128 86.2178C76.7788 86.2178 76.4439 86.3565 76.197 86.6034C75.95 86.8503 75.8113 87.1852 75.8113 87.5344V88.1927H70.2822C69.9853 88.1927 69.6921 88.2597 69.4246 88.3887C69.1571 88.5176 68.9222 88.7052 68.7372 88.9375C68.5522 89.1698 68.422 89.4409 68.3563 89.7305C68.2905 90.0201 68.2909 90.3208 68.3575 90.6102L69.6438 96.2059C69.744 96.6414 69.9888 97.0301 70.3384 97.3085C70.688 97.5868 71.1217 97.7384 71.5686 97.7384H75.8113V100.372H72.7218C72.4106 100.372 72.1037 100.445 71.8263 100.586C71.5489 100.728 71.3087 100.932 71.1255 101.184C70.9422 101.435 70.821 101.727 70.7718 102.034C70.7225 102.341 70.7466 102.656 70.8421 102.952L72.7486 108.869C72.8773 109.269 73.13 109.617 73.47 109.863C73.81 110.109 74.2197 110.241 74.6394 110.238L75.8113 110.232V112.77L69.7767 116.062C69.5174 116.062 69.2606 116.113 69.0209 116.212C68.7813 116.311 68.5636 116.457 68.3802 116.64C68.1968 116.823 68.0513 117.041 67.9521 117.281C67.8528 117.52 67.8018 117.777 67.8018 118.037C67.8018 118.56 68.0098 119.063 68.3802 119.433C68.7506 119.803 69.2529 120.012 69.7767 120.012H75.8113V134.495C75.8113 134.844 75.95 135.179 76.197 135.426C76.4439 135.673 76.7788 135.811 77.128 135.811C77.4772 135.811 77.8121 135.673 78.059 135.426C78.3059 135.179 78.4446 134.844 78.4446 134.495V120.012H125.076V134.495C125.076 134.844 125.214 135.179 125.461 135.426C125.708 135.673 126.043 135.811 126.392 135.811C126.741 135.811 127.076 135.673 127.323 135.426C127.57 135.179 127.709 134.844 127.709 134.495V120.012H135.17C135.694 120.012 136.196 119.803 136.566 119.433C136.937 119.063 137.145 118.56 137.145 118.037C137.145 117.777 137.094 117.52 136.995 117.281C136.895 117.041 136.75 116.823 136.566 116.64C136.383 116.457 136.165 116.311 135.926 116.212C135.686 116.113 135.429 116.062 135.17 116.062ZM78.4446 97.7384H125.076V100.372H78.4446V97.7384ZM78.4446 112.77V110.217L125.076 109.955V112.77H78.4446Z" fill="#CCCCCC"/>
<path d="M23.8948 110.475L26.0061 103.599C23.4658 100.803 20.2814 98.6696 16.7295 97.3838C20.1998 103.133 16.8371 110.633 18.2383 117.2C18.6911 119.245 19.5982 121.162 20.8925 122.809C22.1868 124.456 23.8351 125.79 25.7152 126.713L28.9191 130.683C30.5987 127.749 31.6222 124.485 31.919 121.117C32.2158 117.749 31.7789 114.356 30.6383 111.173C29.9808 109.394 29.1018 107.704 28.0221 106.145C26.1182 108.383 23.8948 110.475 23.8948 110.475Z" fill="#F2F2F2"/>
<path d="M12.2858 111.354L11.109 104.258C7.58844 102.889 3.78679 102.4 0.0341797 102.833C5.70424 106.431 6.03931 114.643 10.2225 119.897C11.5398 121.525 13.2066 122.836 15.0995 123.733C16.9923 124.63 19.0627 125.089 21.1572 125.077L25.7953 127.201C25.9899 123.825 25.4503 120.448 24.2139 117.301C22.9774 114.154 21.0733 111.312 18.6329 108.972C17.2509 107.672 15.7107 106.552 14.0487 105.638C13.3429 108.49 12.2858 111.354 12.2858 111.354Z" fill="#F2F2F2"/>
<path d="M178.988 81.3645L174.369 75.8503C175.623 72.2868 177.727 69.0832 180.5 66.5176C179.538 73.1637 185.552 78.7663 186.814 85.3619C187.192 87.4221 187.101 89.5409 186.549 91.5613C185.997 93.5817 184.997 95.4519 183.624 97.0334L182.215 101.936C179.527 99.8857 177.315 97.2766 175.732 94.2888C174.149 91.301 173.233 88.0055 173.046 84.6295C172.96 82.7345 173.113 80.8362 173.502 78.9795C176.126 80.3014 178.988 81.3645 178.988 81.3645Z" fill="#F2F2F2"/>
<path d="M190.025 77.6611L188.351 70.6659C191.062 68.0355 194.374 66.1067 198 65.0469C194.175 70.5663 197.059 78.263 195.247 84.7293C194.667 86.7417 193.641 88.5978 192.245 90.1598C190.85 91.7219 189.121 92.9499 187.186 93.7529L183.739 97.5132C182.247 94.4788 181.431 91.157 181.347 87.7769C181.263 84.3967 181.912 81.0385 183.251 77.9335C184.019 76.1991 185.003 74.5683 186.178 73.0796C187.938 75.4333 190.025 77.6611 190.025 77.6611Z" fill="#F2F2F2"/>
<path d="M98.8552 141.737L95.8213 143.201L88.7324 132.195L93.21 130.035L98.8552 141.737Z" fill="#FFB6B6"/>
<path d="M99.1971 97.4423L96.5008 101.511C96.5008 101.511 80.4683 112.128 81.1376 116.077C81.3717 117.459 82.389 120.365 83.6976 123.604C84.0997 124.599 85.9891 126.577 86.4319 127.6C88.6676 132.767 89.7808 136.901 90.8545 137.454C92.0469 138.072 91.9247 137.581 92.6553 138.708L96.8859 137.122C96.8859 137.122 97.5448 135.643 97.8721 134.91C98.1994 134.178 97.6862 133.813 97.6862 133.813C97.6862 133.813 97.0651 134.144 97.173 133.449C97.2809 132.753 97.2437 132.534 96.9871 132.352C96.7305 132.169 95.7376 130.306 95.7376 130.306C94.8314 128.976 94.103 127.533 93.571 126.014C93.335 125.347 93.3585 123.75 93.0422 123.105C92.3758 121.747 92.14 120.744 91.0632 120.038C91.0632 120.038 104.619 113.452 105.891 110.302C107.163 107.153 105.854 96.7656 105.854 96.7656L99.1971 97.4423Z" fill="#2F2E41"/>
<path d="M100.463 143.336L90.2049 147.331L90.1544 147.201C89.742 146.142 89.7672 144.963 90.2243 143.922C90.6814 142.882 91.5331 142.066 92.5921 141.653L92.5923 141.653L93.9124 139.502L97.9624 139.562L98.8579 139.213L100.463 143.336Z" fill="#2F2E41"/>
<path d="M124.396 125.714L129.353 125.339L128.736 138.415L125.377 138.669L124.396 125.714Z" fill="#FFB6B6"/>
<path d="M97.1563 101.04C96.0165 96.0212 99.2285 110.986 102.56 113.784C103.87 114.885 109.353 113.746 113.893 114.093C116.675 114.33 119.391 115.068 121.91 116.271C121.186 117.59 121.944 119.56 122.085 121.331C122.342 124.561 122.6 127.531 122.6 127.531C122.6 127.531 122.598 129.643 122.457 129.924C122.316 130.205 122.386 130.417 122.807 130.98C123.229 131.544 122.525 131.543 122.525 131.543C122.525 131.543 122.243 132.105 122.876 132.599C123.509 133.092 125.011 134.529 125.011 134.529L129.04 134.171C129.156 132.833 129.504 132.657 130.267 131.552C130.993 130.506 130.826 124.229 130.315 118.337C130.28 117.938 130.837 116.682 130.799 116.288C130.421 112.335 129.308 109.594 128.817 108.115C128.478 107.095 126.851 106.215 124.652 105.473C124.316 105.36 123.967 105.25 123.607 105.144C117.543 103.345 108.415 102.461 108.415 102.461L103.423 98.0215L97.1563 101.04Z" fill="#2F2E41"/>
<path d="M124.925 137.952L125.837 137.649L128.917 135.019L131.306 135.833L131.306 135.833C132.385 135.475 133.562 135.56 134.577 136.069C135.593 136.579 136.365 137.471 136.723 138.549L136.767 138.681L126.319 142.151L124.925 137.952Z" fill="#2F2E41"/>
<path d="M101.757 72.1406L98.7582 74.4238L95.1421 75.5351C95.1421 75.5351 93.6471 96.5634 92.3001 97.9104C90.9531 99.2574 92.168 99.2936 91.8973 101.043C91.6266 102.793 90.9688 106.38 90.9688 106.38C100.061 111.193 107.9 111.322 114.196 105.69C114.277 105.342 114.236 104.977 114.08 104.655C113.924 104.333 113.663 104.074 113.34 103.92C112.169 103.298 114.421 100.396 113.463 99.911C112.505 99.4258 113.852 95.2163 113.852 95.2163L112.969 86.4337L113.667 85.0298L111.963 76.4394L109.007 75.3598L107.826 72.5147L101.757 72.1406Z" fill="#0C8CE9"/>
<path d="M104.826 70.8698C108.101 70.8698 110.756 68.2144 110.756 64.9388C110.756 61.6632 108.101 59.0078 104.826 59.0078C101.55 59.0078 98.8945 61.6632 98.8945 64.9388C98.8945 68.2144 101.55 70.8698 104.826 70.8698Z" fill="#FFB6B6"/>
<path d="M99.8774 109.515C99.8909 109.135 99.8209 108.757 99.6724 108.407C99.5239 108.057 99.3005 107.744 99.018 107.49C98.7354 107.236 98.4006 107.047 98.0371 106.936C97.6736 106.826 97.2903 106.796 96.914 106.849L92.6883 98.6357L90.334 102.819L94.7078 109.977C94.8395 110.603 95.1963 111.159 95.7105 111.54C96.2248 111.92 96.8608 112.099 97.498 112.042C98.1352 111.985 98.7294 111.696 99.1679 111.231C99.6065 110.765 99.8589 110.154 99.8774 109.515Z" fill="#FFB6B6"/>
<path d="M92.7609 107.506L83.6973 93.458L83.7272 93.3933C83.7614 93.3193 85.8139 88.8865 87.8026 84.8264C88.1088 84.2012 88.4136 83.5848 88.7092 82.9945C88.8368 82.7397 88.9625 82.4903 89.0863 82.2462C89.9216 80.5994 90.6513 79.2384 91.087 78.5919C92.0505 77.1301 93.485 76.0419 95.1524 75.5079L95.1943 75.4971L95.2343 75.5138C96.0499 75.8579 96.7238 76.4697 97.145 77.2482C97.5662 78.0268 97.7095 78.9257 97.5513 79.7966C96.7652 83.9975 95.0134 87.9581 92.4342 91.366L90.9649 93.3027L96.0711 104.404L92.7609 107.506Z" fill="#0C8CE9"/>
<path d="M116.365 112.743V113.121C116.364 113.342 116.277 113.554 116.12 113.71C115.964 113.866 115.752 113.954 115.531 113.954H87.8148C87.5938 113.954 87.3819 113.866 87.2256 113.71C87.0693 113.554 86.9815 113.342 86.9814 113.121V112.743C86.9815 112.522 87.0693 112.311 87.2256 112.154C87.3819 111.998 87.5938 111.91 87.8148 111.91H88.3069C88.2896 111.849 88.2805 111.786 88.2801 111.723V97.5769C88.2802 97.3915 88.3539 97.2138 88.4849 97.0828C88.6159 96.9517 88.7936 96.8781 88.979 96.8779H114.367C114.552 96.8781 114.73 96.9517 114.861 97.0828C114.992 97.2138 115.066 97.3915 115.066 97.5769V111.723C115.066 111.786 115.057 111.849 115.039 111.91H115.531C115.752 111.91 115.964 111.998 116.12 112.154C116.277 112.311 116.364 112.522 116.365 112.743Z" fill="#3F3D56"/>
<path d="M102.219 104.87C101.905 104.87 101.599 104.777 101.339 104.603C101.078 104.429 100.875 104.182 100.755 103.892C100.635 103.603 100.604 103.284 100.665 102.977C100.726 102.67 100.877 102.388 101.099 102.166C101.32 101.945 101.602 101.794 101.91 101.733C102.217 101.671 102.536 101.703 102.825 101.823C103.114 101.943 103.362 102.146 103.536 102.406C103.71 102.667 103.803 102.973 103.803 103.286C103.802 103.706 103.635 104.109 103.338 104.406C103.041 104.703 102.639 104.87 102.219 104.87ZM102.219 101.975C101.959 101.975 101.706 102.052 101.49 102.196C101.275 102.34 101.107 102.545 101.008 102.784C100.908 103.024 100.882 103.288 100.933 103.542C100.984 103.796 101.108 104.03 101.292 104.213C101.475 104.397 101.709 104.521 101.963 104.572C102.217 104.623 102.481 104.597 102.72 104.497C102.96 104.398 103.165 104.23 103.309 104.015C103.453 103.799 103.53 103.545 103.53 103.286C103.529 102.939 103.391 102.605 103.145 102.36C102.9 102.114 102.566 101.976 102.219 101.975Z" fill="white"/>
<path d="M101.673 104.188C102.473 104.188 103.121 103.54 103.121 102.74C103.121 101.941 102.473 101.293 101.673 101.293C100.874 101.293 100.226 101.941 100.226 102.74C100.226 103.54 100.874 104.188 101.673 104.188Z" fill="white"/>
<path d="M123.929 53.6587C123.679 53.9453 123.495 54.2831 123.391 54.6483C123.286 55.0135 123.262 55.3973 123.322 55.7726C123.381 56.1479 123.522 56.5057 123.735 56.8206C123.947 57.1355 124.227 57.3999 124.552 57.5953L122.663 66.6369L127.126 64.8699L128.236 56.5548C128.528 55.9855 128.601 55.3289 128.441 54.7094C128.281 54.0899 127.9 53.5506 127.369 53.1937C126.838 52.8367 126.194 52.6869 125.56 52.7726C124.926 52.8583 124.346 53.1736 123.929 53.6587Z" fill="#FFB6B6"/>
<path d="M128.191 59.7012L126.387 76.3212L126.323 76.3526C126.27 76.3785 123.984 77.5 121.177 78.8356C120.703 79.0609 120.771 80.0369 120.276 80.2702C119.936 80.4309 119.035 79.8478 118.691 80.0089C115.623 81.4435 112.521 82.8385 111.285 83.2165C109.616 83.7453 107.816 83.6874 106.185 83.0523L106.145 83.0343L106.125 82.9961C105.708 82.2152 105.57 81.3156 105.733 80.4455C105.896 79.5755 106.35 78.787 107.022 78.21C110.278 75.4417 114.133 73.468 118.282 72.4448L120.643 71.8655L123.667 60.0261L128.191 59.7012Z" fill="#0C8CE9"/>
<path d="M118.087 53.4863L118.766 59.6496C118.813 59.8033 118.909 59.9379 119.038 60.0335C119.168 60.1291 119.324 60.1807 119.485 60.1807H122.616C122.776 60.1807 122.933 60.1291 123.063 60.0335C123.192 59.9379 123.287 59.8033 123.335 59.6496L123.897 54.9257C124.06 55.0053 124.239 55.0453 124.419 55.0422C124.6 55.0392 124.778 54.9933 124.937 54.9083C125.097 54.8233 125.234 54.7017 125.337 54.5533C125.441 54.405 125.508 54.2342 125.532 54.0551C125.557 53.8759 125.538 53.6935 125.479 53.5228C125.419 53.3521 125.32 53.198 125.189 53.0732C125.058 52.9484 124.899 52.8564 124.726 52.8049C124.553 52.7533 124.37 52.7436 124.192 52.7766C124.122 52.6937 124.034 52.6271 123.936 52.5815C123.837 52.5359 123.73 52.5125 123.621 52.5127H118.806C118.688 52.5127 118.572 52.5403 118.467 52.5934C118.362 52.6464 118.271 52.7234 118.201 52.8181C118.131 52.9128 118.084 53.0226 118.064 53.1387C118.045 53.2547 118.052 53.3738 118.087 53.4863ZM123.996 54.6063L124.34 53.4863C124.38 53.3571 124.384 53.2194 124.351 53.0881C124.366 53.0873 124.38 53.0837 124.395 53.0837C124.611 53.0837 124.819 53.1697 124.972 53.3226C125.125 53.4756 125.211 53.6831 125.211 53.8995C125.211 54.1158 125.125 54.3233 124.972 54.4763C124.819 54.6293 124.611 54.7152 124.395 54.7152C124.255 54.7143 124.117 54.6768 123.996 54.6063Z" fill="#3F3D56"/>
<path d="M109.657 59.8438C109.169 58.4248 106.741 57.4406 102.805 57.3038C98.8684 57.1669 97.8701 61.8056 97.8701 61.8056C95.2423 63.9372 100.676 69.6441 100.939 69.4386L100.821 68.3663C100.625 66.5903 99.7933 65.2046 100.851 63.3537L101.867 63.3654C103.178 63.6176 104.49 63.8698 105.802 64.1221L104.249 62.7548L104.292 62.6871C104.953 63.0311 105.672 63.2493 106.412 63.3307C107.247 63.3797 108.159 63.0476 108.559 62.3133C108.666 62.1114 108.731 61.8902 108.751 61.6628C109.876 62.1124 110.391 63.4999 110.391 63.4999C110.391 63.4999 110.144 61.2628 109.657 59.8438Z" fill="#2F2E41"/>
</g>
<defs>
<clipPath id="clip0_1241_2629">
<path d="M0 32C0 14.3269 14.3269 0 32 0H166C183.673 0 198 14.3269 198 32V147.331H0V32Z" fill="white"/>
</clipPath>
</defs>
</svg>
