<svg width="163" height="141" viewBox="0 0 163 141" fill="none" xmlns="http://www.w3.org/2000/svg">
<g clip-path="url(#clip0_1633_4113)">
<path d="M8.42433 48.0487L0.593201 43.6734C0.487568 38.9922 1.53549 34.3562 3.64598 30.168C5.45148 38.2968 14.9532 42.1643 19.3372 49.2618C20.6874 51.4858 21.5158 53.9828 21.761 56.5676C22.0061 59.1524 21.6618 61.7587 20.7534 64.1936L21.2685 70.4961C17.2211 69.2936 13.4846 67.235 10.3165 64.4621C7.14835 61.6892 4.6239 58.268 2.91707 54.4341C1.98102 52.2739 1.32293 50.0054 0.958343 47.682C4.60955 48.0675 8.42433 48.0487 8.42433 48.0487Z" fill="#F2F2F2"/>
<path d="M149.202 127.647L149.443 122.291C151.946 120.964 154.738 120.263 157.576 120.249C153.67 123.417 154.158 129.524 151.51 133.785C150.673 135.107 149.548 136.226 148.216 137.059C146.885 137.891 145.381 138.415 143.818 138.593L140.549 140.579C140.1 138.098 140.199 135.55 140.838 133.111C141.478 130.672 142.643 128.4 144.253 126.45C145.168 125.365 146.216 124.399 147.373 123.574C148.156 125.622 149.202 127.647 149.202 127.647Z" fill="#F2F2F2"/>
<path d="M140.779 137.822L137.818 137.822L136.41 126.496L140.779 126.496L140.779 137.822Z" fill="#FFB6B6"/>
<path d="M141.534 140.669L131.989 140.669V140.549C131.989 139.572 132.381 138.634 133.077 137.943C133.774 137.252 134.719 136.864 135.704 136.864L137.448 135.552L140.701 136.864L141.534 136.864L141.534 140.669Z" fill="#2F2E41"/>
<path d="M127.026 137.822L124.066 137.822L122.658 126.496L127.027 126.496L127.026 137.822Z" fill="#FFB6B6"/>
<path d="M127.782 140.669L118.237 140.669V140.549C118.237 139.572 118.629 138.634 119.326 137.943C120.022 137.252 120.967 136.864 121.952 136.864L123.696 135.552L126.949 136.864L127.782 136.864L127.782 140.669Z" fill="#2F2E41"/>
<path d="M125.745 75.9033L144.999 76.3808C148.656 78.351 148.712 82.6152 147.513 87.6781C147.513 87.6781 147.918 90.6873 147.109 91.4897C146.3 92.2922 145.896 92.2922 146.3 93.6965C146.705 95.1008 144.567 97.3944 144.827 97.6519C145.087 97.9094 145.693 99.3137 145.693 99.3137L143.671 110.749C143.671 110.749 142.255 130.609 141.851 131.011C141.446 131.412 141.042 131.011 141.446 132.014C141.851 133.017 142.255 132.615 141.851 133.017C141.492 133.4 141.155 133.802 140.84 134.22H135.95C135.95 134.22 135.581 132.214 135.581 132.014C135.581 131.813 135.177 130.609 135.177 130.409C135.177 130.208 135.534 129.853 135.534 129.853C135.658 129.446 135.741 129.027 135.784 128.603C135.784 128.202 136.997 112.755 136.997 112.755L134.57 92.6934L128.705 112.354C128.705 112.354 128.705 129.606 128.301 130.007C127.896 130.409 127.896 130.208 128.099 131.011C128.301 131.813 129.11 131.612 128.503 132.214C127.896 132.816 127.694 131.813 127.896 132.816L128.099 133.819L122.031 133.905C122.031 133.905 121.222 132.214 121.627 131.612C122.031 131.011 122.007 131.175 121.514 130.19C121.02 129.205 120.818 129.004 121.02 128.804C121.222 128.603 121.222 127.536 121.222 127.536L122.234 108.341C122.234 108.341 122.436 88.0793 122.436 87.4775C122.451 87.1678 122.394 86.8588 122.268 86.5749V85.758L123.042 82.8633L125.745 75.9033Z" fill="#2F2E41"/>
<path d="M137.311 36.1888C140.615 36.1888 143.294 33.532 143.294 30.2546C143.294 26.9772 140.615 24.3203 137.311 24.3203C134.007 24.3203 131.329 26.9772 131.329 30.2546C131.329 33.532 134.007 36.1888 137.311 36.1888Z" fill="#FFB6B6"/>
<path d="M134.321 40.1108C133.032 40.8708 132.261 42.2673 131.818 43.6884C130.999 46.3193 130.506 49.0394 130.35 51.7886L129.882 60.0192L124.093 77.5447C129.11 81.756 147.97 78.5018 147.97 78.5018C147.97 78.5018 148.549 78.3104 147.97 77.7361C147.391 77.1618 146.828 77.6706 147.406 77.0963C147.985 76.522 147.586 77.1618 147.393 76.5875C147.2 76.0132 147.393 76.3961 147.586 76.2046C147.779 76.0132 146.092 74.2904 146.092 74.2904L147.636 64.2306L149.566 43.9393C147.25 41.0679 142.593 39.3752 142.593 39.3752L141.39 37.2266L135.373 37.704L134.321 40.1108Z" fill="#E6E6E6"/>
<path d="M133.5 26.7721C133.731 26.7739 133.961 26.8039 134.185 26.8614C134.627 26.9668 135.076 27.0414 135.528 27.0848C136.913 27.214 138.214 27.7999 139.224 28.7488C140.234 29.6978 140.894 30.955 141.099 32.3198C141.447 32.0192 142.238 31.4662 142.886 31.9801C142.896 31.9883 142.902 31.9925 142.925 31.9818C143.355 31.7792 144.12 29.2852 144.143 27.0893C144.155 25.9238 143.97 24.4356 143.02 23.9642L142.97 23.9394L142.957 23.8854C142.893 23.6233 142.184 23.1758 140.951 22.8274C138.711 22.1944 135.371 20.9614 133.491 22.7761C133.348 23.3878 132.885 24.697 132.418 24.8454C131.9 25.0097 131.453 25.1514 131.382 25.7816C131.323 26.6784 131.327 27.5782 131.395 28.4744C131.57 27.926 131.915 27.446 132.38 27.102C132.71 26.8813 133.101 26.7661 133.5 26.7721Z" fill="#2F2E41"/>
<path d="M122.365 59.5616L132.137 53.3535L127.215 46.8633L122.355 52.7936L107.212 53.7149C106.813 53.3243 106.309 53.0572 105.76 52.946C105.212 52.8348 104.642 52.8844 104.121 53.0887C103.601 53.293 103.151 53.6432 102.827 54.0966C102.504 54.55 102.32 55.087 102.299 55.6422C102.278 56.1973 102.42 56.7466 102.708 57.223C102.996 57.6995 103.417 58.0825 103.921 58.3254C104.425 58.5684 104.989 58.6606 105.544 58.5911C106.1 58.5215 106.623 58.293 107.05 57.9336L122.365 59.5616Z" fill="#FFB6B6"/>
<path d="M141.207 44.688C141.774 48.0928 131.063 54.5946 131.063 54.5946C131.063 53.7954 124.67 59.8286 124.382 59.1658C123.562 57.2821 122.985 52.8204 121.839 52.1063C121.184 51.6978 125.786 47.8613 125.786 47.8613C125.786 47.8613 128.195 45.4538 131.357 42.4172C132.234 41.5423 133.321 40.9019 134.515 40.5556C135.71 40.2093 136.973 40.1683 138.188 40.4366C138.188 40.4366 140.64 41.2831 141.207 44.688Z" fill="#E6E6E6"/>
<path d="M161.349 61.1909L154.885 51.6309L148.448 56.6496L154.528 61.3439L155.777 76.3424C155.392 76.7456 155.134 77.2514 155.033 77.7979C154.933 78.3444 154.995 78.9081 155.212 79.4203C155.429 79.9325 155.791 80.371 156.255 80.6823C156.719 80.9936 157.264 81.1644 157.824 81.1737C158.384 81.183 158.934 81.0305 159.409 80.7348C159.883 80.4391 160.26 80.0129 160.494 79.5083C160.728 79.0036 160.809 78.4423 160.727 77.8927C160.645 77.3432 160.404 76.8291 160.033 76.4132L161.349 61.1909Z" fill="#FFB6B6"/>
<path d="M145.96 42.8197C149.379 42.1851 156.159 52.6695 156.159 52.6695C155.354 52.6866 161.57 58.8987 160.908 59.1989C159.027 60.0521 154.542 60.7184 153.846 61.87C153.449 62.5285 149.484 58.0455 149.484 58.0455C149.484 58.0455 147.007 55.7074 143.88 52.6364C142.979 51.7845 142.311 50.7204 141.936 49.5433C141.562 48.3661 141.494 47.1142 141.739 45.9039C141.739 45.9039 142.54 43.4543 145.96 42.8197Z" fill="#E6E6E6"/>
<path d="M100.508 54.6221H18.637C17.3579 54.6235 16.1316 55.1282 15.2272 56.0254C14.3227 56.9226 13.8139 58.139 13.8125 59.4078V109.97C13.814 111.239 14.3227 112.456 15.2272 113.353C16.1316 114.25 17.3579 114.755 18.637 114.756H100.508C101.787 114.755 103.013 114.25 103.918 113.353C104.822 112.456 105.331 111.239 105.332 109.97V59.4078C105.331 58.139 104.822 56.9225 103.918 56.0254C103.013 55.1282 101.787 54.6235 100.508 54.6221Z" fill="#0C8CE9"/>
<path d="M100.508 54.6221H18.637C17.3579 54.6235 16.1316 55.1282 15.2272 56.0254C14.3227 56.9226 13.8139 58.139 13.8125 59.4078V109.97C13.814 111.239 14.3227 112.456 15.2272 113.353C16.1316 114.25 17.3579 114.755 18.637 114.756H100.508C101.787 114.755 103.013 114.25 103.918 113.353C104.822 112.456 105.331 111.239 105.332 109.97V59.4078C105.331 58.139 104.822 56.9225 103.918 56.0254C103.013 55.1282 101.787 54.6235 100.508 54.6221ZM102.091 90.9417C102.072 96.0893 100.019 101.024 96.3735 104.688C92.7282 108.351 87.7805 110.452 82.5919 110.538C74.2846 110.646 87.1883 110.688 77.1691 110.688C54.2585 110.688 30.3691 110.47 21.4556 110.33C20.2829 110.306 19.1661 109.828 18.3436 108.998C17.5212 108.169 17.0583 107.053 17.0538 105.889V59.4116C17.0542 58.9949 17.221 58.5954 17.5177 58.3004C17.8143 58.0054 18.2167 57.839 18.6367 57.8375H100.505C100.924 57.838 101.327 58.0034 101.624 58.2976C101.922 58.5918 102.09 58.9908 102.091 59.4074V90.9417Z" fill="#3F3D56"/>
<path d="M90.4292 25.5068H28.0523C27.5004 25.5076 26.9621 25.6774 26.5111 25.9928C26.0601 26.3083 25.7182 26.7542 25.5321 27.2697L15.8984 54.0802C15.7547 54.4804 15.7098 54.9089 15.7677 55.3299C15.8256 55.7508 15.9845 56.1518 16.2311 56.4992C16.4776 56.8465 16.8047 57.1301 17.1847 57.326C17.5647 57.522 17.9865 57.6246 18.4148 57.6252L102.073 57.7725H102.076C102.519 57.7724 102.955 57.6634 103.345 57.4552C103.734 57.247 104.066 56.9461 104.31 56.5795C104.553 56.2128 104.702 55.7919 104.741 55.3545C104.78 54.9171 104.71 54.4768 104.535 54.0731L92.8883 27.1153C92.6824 26.6377 92.3395 26.2306 91.9023 25.9446C91.4651 25.6587 90.9529 25.5064 90.4292 25.5068Z" fill="#3F3D56"/>
<path d="M104.751 54.6548C104.751 55.0143 104.677 55.37 104.535 55.7005L92.8885 76.4518C92.6812 76.9284 92.3378 77.3344 91.9008 77.6199C91.4637 77.9054 90.9521 78.0579 90.4288 78.0585H28.0528C27.5007 78.058 26.9622 77.8885 26.5108 77.5732C26.0594 77.2579 25.7171 76.8121 25.5305 76.2966L15.8986 55.6933C15.7806 55.3651 15.7289 55.017 15.7465 54.6689C15.7642 54.3208 15.8508 53.9796 16.0014 53.6648C16.1521 53.3499 16.3638 53.0676 16.6245 52.834C16.8852 52.6004 17.1898 52.42 17.5208 52.3032C17.8072 52.2006 18.1093 52.1481 18.4137 52.148L28.6328 52.1289L32.8037 52.1218L87.6875 52.0263L91.8608 52.0191L102.073 52H102.075C102.785 52.0001 103.466 52.2799 103.967 52.7777C104.469 53.2755 104.751 53.9507 104.751 54.6548Z" fill="#3F3D56"/>
<path d="M24.7738 92.5498C26.0107 92.5498 42.9964 93.5795 42.9964 94.8065C42.9964 96.0335 26.0107 96.9931 24.7738 96.9931C24.1798 96.9931 23.6102 96.759 23.1901 96.3424C22.7701 95.9257 22.5342 95.3606 22.5342 94.7714C22.5342 94.1822 22.7701 93.6171 23.1901 93.2005C23.6102 92.7839 24.1798 92.5498 24.7738 92.5498Z" fill="#3F3D56"/>
<path d="M86.5443 9.19629H33.9493C32.5398 9.1979 31.1885 9.75405 30.1918 10.7427C29.1951 11.7314 28.6344 13.0719 28.6328 14.4701V78.0587H90.4288C90.9362 78.0603 91.4334 77.9169 91.8608 77.6457V14.4701C91.8592 13.0719 91.2985 11.7314 90.3018 10.7427C89.3052 9.75406 87.9538 9.19791 86.5443 9.19629Z" fill="#E6E6E6"/>
<path d="M66.4705 13.4727H37.6471C36.3636 13.4739 35.133 13.98 34.2252 14.8801C33.3174 15.7801 32.8066 17.0006 32.8047 18.2737V78.0592H87.6885V34.5201C87.682 28.9399 85.4444 23.5902 81.4667 19.6444C77.489 15.6986 72.0958 13.4791 66.4705 13.4727Z" fill="white"/>
<path d="M78.3381 72.749H42.1549C41.8421 72.749 41.5422 72.8723 41.321 73.0917C41.0998 73.311 40.9756 73.6086 40.9756 73.9189C40.9756 74.2291 41.0998 74.5267 41.321 74.746C41.5422 74.9654 41.8421 75.0887 42.1549 75.0887H78.3381C78.6509 75.0887 78.9509 74.9654 79.172 74.746C79.3932 74.5267 79.5174 74.2291 79.5174 73.9189C79.5174 73.6086 79.3932 73.311 79.172 73.0917C78.9509 72.8723 78.6509 72.749 78.3381 72.749Z" fill="#E4E4E4"/>
<path d="M78.3374 68.1221H42.1541C41.8411 68.1221 41.5408 68.2454 41.3194 68.4651C41.098 68.6847 40.9736 68.9825 40.9736 69.2931C40.9736 69.6037 41.098 69.9015 41.3194 70.1211C41.5408 70.3407 41.8411 70.4641 42.1541 70.4641H78.3374C78.6505 70.4641 78.9507 70.3407 79.1721 70.1211C79.3935 69.9015 79.5179 69.6037 79.5179 69.2931C79.5179 68.9825 79.3935 68.6847 79.1721 68.4651C78.9507 68.2454 78.6505 68.1221 78.3374 68.1221Z" fill="#E4E4E4"/>
<path d="M57.8398 63.498H42.1549C41.8421 63.498 41.5422 63.6213 41.321 63.8407C41.0998 64.0601 40.9756 64.3576 40.9756 64.6679C40.9756 64.9781 41.0998 65.2757 41.321 65.4951C41.5422 65.7145 41.8421 65.8377 42.1549 65.8377H57.8398C58.1525 65.8377 58.4525 65.7145 58.6737 65.4951C58.8948 65.2757 59.0191 64.9781 59.0191 64.6679C59.0191 64.3576 58.8948 64.0601 58.6737 63.8407C58.4525 63.6213 58.1525 63.498 57.8398 63.498Z" fill="#E4E4E4"/>
<path d="M78.3374 53.8096H42.1541C41.8411 53.8096 41.5408 53.9329 41.3194 54.1526C41.098 54.3722 40.9736 54.67 40.9736 54.9806C40.9736 55.2912 41.098 55.589 41.3194 55.8086C41.5408 56.0282 41.8411 56.1516 42.1541 56.1516H78.3374C78.6505 56.1516 78.9507 56.0282 79.1721 55.8086C79.3935 55.589 79.5179 55.2912 79.5179 54.9806C79.5179 54.67 79.3935 54.3722 79.1721 54.1526C78.9507 53.9329 78.6505 53.8096 78.3374 53.8096Z" fill="#E4E4E4"/>
<path d="M78.3381 49.1855H42.1549C41.8421 49.1855 41.5422 49.3088 41.321 49.5282C41.0998 49.7476 40.9756 50.0451 40.9756 50.3554C40.9756 50.6656 41.0998 50.9632 41.321 51.1826C41.5422 51.402 41.8421 51.5252 42.1549 51.5252H78.3381C78.6509 51.5252 78.9509 51.402 79.172 51.1826C79.3932 50.9632 79.5174 50.6656 79.5174 50.3554C79.5174 50.0451 79.3932 49.7476 79.172 49.5282C78.9509 49.3088 78.6509 49.1855 78.3381 49.1855Z" fill="#E4E4E4"/>
<path d="M57.839 44.5586H42.1541C41.8411 44.5586 41.5408 44.682 41.3194 44.9016C41.098 45.1212 40.9736 45.419 40.9736 45.7296C40.9736 46.0402 41.098 46.338 41.3194 46.5577C41.5408 46.7773 41.8411 46.9006 42.1541 46.9006H57.839C58.1521 46.9006 58.4524 46.7773 58.6738 46.5577C58.8951 46.338 59.0195 46.0402 59.0195 45.7296C59.0195 45.419 58.8951 45.1212 58.6738 44.9016C58.4524 44.682 58.1521 44.5586 57.839 44.5586Z" fill="#E4E4E4"/>
<path d="M78.3374 34.8711H42.1541C41.8411 34.8711 41.5408 34.9945 41.3194 35.2141C41.098 35.4337 40.9736 35.7315 40.9736 36.0421C40.9736 36.3527 41.098 36.6505 41.3194 36.8702C41.5408 37.0898 41.8411 37.2131 42.1541 37.2131H78.3374C78.6505 37.2131 78.9507 37.0898 79.1721 36.8702C79.3935 36.6505 79.5179 36.3527 79.5179 36.0421C79.5179 35.7315 79.3935 35.4337 79.1721 35.2141C78.9507 34.9945 78.6505 34.8711 78.3374 34.8711Z" fill="#0C8CE9"/>
<path d="M78.3374 30.2461H42.1541C41.8411 30.2461 41.5408 30.3695 41.3194 30.5891C41.098 30.8087 40.9736 31.1065 40.9736 31.4171C40.9736 31.7277 41.098 32.0255 41.3194 32.2452C41.5408 32.4648 41.8411 32.5881 42.1541 32.5881H78.3374C78.6505 32.5881 78.9507 32.4648 79.1721 32.2452C79.3935 32.0255 79.5179 31.7277 79.5179 31.4171C79.5179 31.1065 79.3935 30.8087 79.1721 30.5891C78.9507 30.3695 78.6505 30.2461 78.3374 30.2461Z" fill="#0C8CE9"/>
<path d="M57.839 25.6191H42.1541C41.8411 25.6191 41.5408 25.7425 41.3194 25.9621C41.098 26.1817 40.9736 26.4796 40.9736 26.7902C40.9736 27.1007 41.098 27.3986 41.3194 27.6182C41.5408 27.8378 41.8411 27.9612 42.1541 27.9612H57.839C58.1521 27.9612 58.4524 27.8378 58.6738 27.6182C58.8951 27.3986 59.0195 27.1007 59.0195 26.7902C59.0195 26.4796 58.8951 26.1817 58.6738 25.9621C58.4524 25.7425 58.1521 25.6191 57.839 25.6191Z" fill="#0C8CE9"/>
<path d="M89.89 18.222C94.9626 18.222 99.0748 14.1429 99.0748 9.11102C99.0748 4.07914 94.9626 0 89.89 0C84.8173 0 80.7051 4.07914 80.7051 9.11102C80.7051 14.1429 84.8173 18.222 89.89 18.222Z" fill="#0C8CE9"/>
<path d="M88.6365 13.853C88.4779 13.853 88.3214 13.8164 88.1796 13.746C88.0377 13.6756 87.9143 13.5735 87.8192 13.4476L85.3134 10.1333C85.2325 10.0269 85.1735 9.90566 85.1399 9.77658C85.1063 9.64749 85.0987 9.51309 85.1175 9.38109C85.1363 9.24908 85.1812 9.12205 85.2496 9.00729C85.318 8.89252 85.4086 8.79227 85.5161 8.71228C85.6236 8.63229 85.746 8.57414 85.8763 8.54114C86.0065 8.50814 86.142 8.50096 86.275 8.52C86.408 8.53904 86.536 8.58393 86.6515 8.6521C86.767 8.72026 86.8678 8.81037 86.9481 8.91725L88.5875 11.0853L92.798 4.82045C92.9483 4.5968 93.182 4.44154 93.4477 4.38883C93.7134 4.33611 93.9894 4.39026 94.2148 4.53936C94.4403 4.68846 94.5968 4.9203 94.65 5.18388C94.7031 5.44745 94.6485 5.72117 94.4982 5.94482L89.4867 13.4017C89.396 13.5366 89.2741 13.6479 89.1311 13.7264C88.9881 13.8048 88.8282 13.8482 88.6649 13.8527C88.6554 13.8529 88.646 13.853 88.6365 13.853Z" fill="white"/>
</g>
<defs>
<clipPath id="clip0_1633_4113">
<rect width="162.413" height="141" fill="white" transform="translate(0.587891)"/>
</clipPath>
</defs>
</svg>
