<svg width="123" height="157" viewBox="0 0 123 157" fill="none" xmlns="http://www.w3.org/2000/svg">
<g filter="url(#filter0_d_1925_5270)">
<path d="M118.999 22.7523V143.558C118.999 146.421 116.663 148.757 113.8 148.757H17.9411C15.0774 148.757 12.7412 146.421 12.7412 143.558V5.19838C12.7412 2.3355 15.0774 0 17.9411 0H96.2029L118.999 22.7523Z" fill="white"/>
<path d="M119 22.7523V143.558C119 146.421 116.664 148.757 113.8 148.757H106.377C109.241 148.757 111.577 146.421 111.577 143.558V22.7523L88.8184 0H96.2414L119 22.7523Z" fill="#E5E5E5"/>
<path d="M119 22.7523H101.403C98.5393 22.7523 96.2031 20.4168 96.2031 17.5539V0L119 22.7523Z" fill="#CECECE"/>
<path d="M97.0326 70.4421H35.3125C33.24 70.4421 31.5444 68.747 31.5444 66.6751C31.5444 64.6033 33.24 62.9082 35.3125 62.9082H97.0326C99.1051 62.9082 100.801 64.6033 100.801 66.6751C100.801 68.7846 99.1427 70.4421 97.0326 70.4421Z" fill="#CECECE"/>
<path d="M97.0326 89.7663H35.3125C33.24 89.7663 31.5444 88.0712 31.5444 85.9994C31.5444 83.9275 33.24 82.2324 35.3125 82.2324H97.0326C99.1051 82.2324 100.801 83.9275 100.801 85.9994C100.801 88.1088 99.1427 89.7663 97.0326 89.7663Z" fill="#CECECE"/>
<path d="M97.0326 109.091H35.3125C33.24 109.091 31.5444 107.395 31.5444 105.324C31.5444 103.252 33.24 101.557 35.3125 101.557H97.0326C99.1051 101.557 100.801 103.252 100.801 105.324C100.801 107.433 99.1427 109.091 97.0326 109.091Z" fill="#CECECE"/>
<path d="M56.1871 50.8534H4V29.7209C4 28.1387 5.28111 26.8203 6.90136 26.8203H56.1871C57.7697 26.8203 59.0885 28.1011 59.0885 29.7209V47.9529C59.0885 49.535 57.8073 50.8534 56.1871 50.8534Z" fill="#F55B4B"/>
<path d="M59.0885 47.5762V47.9529C59.0885 49.535 57.8073 50.8534 56.1871 50.8534H4V29.7209C4 28.1387 5.28111 26.8203 6.90136 26.8203H8.3709V34.3542C8.3709 41.6621 14.2867 47.6138 21.6343 47.6138H59.0885V47.5762Z" fill="#DD4E43"/>
<path d="M4 50.8535L12.7418 60.7982V50.8535H4Z" fill="#DB1B1B"/>
<path d="M18.1301 43.3957V45.9196H10.2549V43.3957H12.1766V33.4887H10.2549V30.9648H18.1301C19.9764 30.9648 21.3706 31.3792 22.3879 32.2456C23.4053 33.112 23.8951 34.2798 23.8951 35.7112C23.8951 36.5399 23.7067 37.2933 23.3676 37.9714C23.0285 38.6494 22.5763 39.1768 22.0111 39.5158C21.4459 39.8925 20.843 40.1185 20.1271 40.2692C19.4112 40.4199 18.5445 40.4575 17.4895 40.4575H16.0576V43.3581H18.1301V43.3957ZM16.0576 37.9714H16.6228C17.9417 37.9714 18.8083 37.7453 19.1851 37.331C19.5619 36.9166 19.7503 36.3516 19.7503 35.7112C19.7503 35.1838 19.5996 34.6941 19.3358 34.3174C19.072 33.9407 18.7706 33.7147 18.4315 33.6017C18.0924 33.5264 17.5272 33.451 16.7359 33.451H16.02V37.9714H16.0576Z" fill="white"/>
<path d="M24.7988 45.9196V43.3957H27.0596V33.4887H24.7988V30.9648H31.8827C33.3899 30.9648 34.558 31.0402 35.5 31.2285C36.4043 31.4169 37.271 31.8312 38.1 32.4339C38.9289 33.0743 39.6072 33.9031 40.097 34.9578C40.5869 36.0125 40.8506 37.1803 40.8506 38.4611C40.8506 39.5158 40.6622 40.4952 40.3231 41.4369C39.984 42.3787 39.5318 43.1321 39.0043 43.7348C38.4767 44.2998 37.8739 44.7895 37.1203 45.1285C36.4043 45.4676 35.7261 45.6936 35.1232 45.8066C34.5203 45.9196 33.5783 45.9573 32.2972 45.9573H24.7988V45.9196ZM30.9784 43.3957H31.9204C33.0508 43.3957 33.9551 43.2451 34.6334 42.9437C35.3116 42.6424 35.8391 42.115 36.216 41.3993C36.6304 40.6459 36.8188 39.7041 36.8188 38.4987C36.8188 37.3686 36.6304 36.3892 36.216 35.5982C35.8015 34.8071 35.2739 34.2421 34.558 33.9407C33.8798 33.6394 32.9754 33.4887 31.9204 33.4887H30.9784V43.3957Z" fill="white"/>
<path d="M42.585 45.9196V43.3957H44.7327V33.4887H42.585V30.9648H55.9991V35.5982H53.1354V33.5264H48.6515V36.9919H51.892V39.5158H48.6515V43.3957H50.95V45.9196H42.585Z" fill="white"/>
<path d="M50.46 57.86H12.7798V50.8535H56.3758V51.9836C56.3381 55.2232 53.7005 57.86 50.46 57.86Z" fill="#E5E5E5"/>
</g>
<defs>
<filter id="filter0_d_1925_5270" x="0" y="0" width="123" height="156.756" filterUnits="userSpaceOnUse" color-interpolation-filters="sRGB">
<feFlood flood-opacity="0" result="BackgroundImageFix"/>
<feColorMatrix in="SourceAlpha" type="matrix" values="0 0 0 0 0 0 0 0 0 0 0 0 0 0 0 0 0 0 127 0" result="hardAlpha"/>
<feOffset dy="4"/>
<feGaussianBlur stdDeviation="2"/>
<feComposite in2="hardAlpha" operator="out"/>
<feColorMatrix type="matrix" values="0 0 0 0 0 0 0 0 0 0 0 0 0 0 0 0 0 0 0.25 0"/>
<feBlend mode="normal" in2="BackgroundImageFix" result="effect1_dropShadow_1925_5270"/>
<feBlend mode="normal" in="SourceGraphic" in2="effect1_dropShadow_1925_5270" result="shape"/>
</filter>
</defs>
</svg>
