<svg width="165" height="134" viewBox="0 0 165 134" fill="none" xmlns="http://www.w3.org/2000/svg">
<g clip-path="url(#clip0_1205_2236)">
<path d="M158.464 -0.00013782H108.934C106.544 -0.000254875 104.225 0.812838 102.359 2.30548C100.492 3.79812 99.1885 5.88147 98.6628 8.21307L73.6371 119.219C73.3641 120.429 73.3593 121.685 73.623 122.898C73.8867 124.111 74.4125 125.251 75.1635 126.239C75.9146 127.228 76.8727 128.039 77.9707 128.618C79.0687 129.197 80.28 129.528 81.5197 129.589L132.436 132.098C135.163 132.232 137.845 131.37 139.982 129.672C142.12 127.974 143.566 125.557 144.052 122.87L158.249 44.3886L159.306 44.6904L162.023 29.815L160.936 29.5433L164.898 7.63609C165.068 6.69773 165.029 5.73346 164.783 4.81203C164.538 3.8906 164.092 3.0347 163.477 2.30536C162.863 1.57601 162.095 0.991184 161.229 0.592567C160.363 0.19395 159.419 -0.0086383 158.466 -0.000755015L158.464 -0.00013782Z" fill="#3F3D56"/>
<path d="M115.454 2.39258H109.673C108.013 2.3926 106.402 2.96044 105.109 4.00184C103.816 5.04324 102.918 6.49557 102.564 8.11774L78.5417 118.217C78.4033 118.851 78.4034 119.508 78.542 120.142C78.6805 120.775 78.9543 121.372 79.3446 121.89C79.7348 122.409 80.2324 122.837 80.8032 123.145C81.3741 123.453 82.0048 123.635 82.6522 123.677L133.403 127.004C134.835 127.098 136.251 126.661 137.382 125.777C138.512 124.893 139.278 123.624 139.532 122.212L160.03 8.41354C160.163 7.67699 160.132 6.92031 159.94 6.19688C159.749 5.47346 159.401 4.80092 158.921 4.22673C158.441 3.65254 157.84 3.19069 157.162 2.87378C156.484 2.55686 155.745 2.3926 154.997 2.39258H149.512C148.982 2.39256 148.466 2.56754 148.044 2.89043C147.623 3.21332 147.32 3.66611 147.182 4.17869C147.06 4.63137 146.792 5.03123 146.42 5.31633C146.048 5.60142 145.592 5.75584 145.123 5.75567H119.086C118.169 5.75564 117.285 5.40927 116.611 4.78577C115.938 4.16228 115.524 3.30761 115.454 2.39258Z" fill="white"/>
<path d="M143.509 79.3616C143.608 79.365 143.705 79.3329 143.781 79.271C143.858 79.2091 143.911 79.1216 143.928 79.0245L155.152 17.0823C155.162 17.0234 155.16 16.9629 155.145 16.905C155.131 16.847 155.103 16.7929 155.066 16.7464C155.028 16.7002 154.981 16.6628 154.928 16.6369C154.875 16.6109 154.816 16.5971 154.757 16.5963L103.695 15.9932H103.691C103.598 15.9939 103.508 16.0262 103.436 16.0846C103.364 16.143 103.314 16.2241 103.294 16.3147L90.0635 76.2464C90.0506 76.3049 90.0504 76.3655 90.0631 76.424C90.0757 76.4826 90.1009 76.5377 90.1368 76.5856C90.1724 76.6332 90.218 76.6723 90.2704 76.7002C90.3228 76.7282 90.3807 76.7442 90.44 76.7472L143.509 79.3616Z" fill="#E6E6E6"/>
<path d="M99.198 83.3672C99.1516 83.3672 99.1065 83.383 99.0702 83.4119C99.0338 83.4408 99.0083 83.4811 98.9977 83.5263L98.5196 85.5757C98.5128 85.6047 98.5124 85.6347 98.5183 85.6639C98.5243 85.693 98.5365 85.7205 98.5541 85.7445C98.5717 85.7684 98.5943 85.7883 98.6203 85.8027C98.6463 85.8171 98.6752 85.8257 98.7048 85.8279L125.718 87.7478C125.768 87.751 125.818 87.7359 125.857 87.7053C125.897 87.6748 125.925 87.6309 125.935 87.5817L126.394 85.2105C126.4 85.1818 126.399 85.1521 126.393 85.1236C126.386 85.0951 126.373 85.0684 126.355 85.0453C126.337 85.0221 126.314 85.0031 126.288 84.9894C126.262 84.9757 126.234 84.9677 126.205 84.966L99.2106 83.3676L99.198 83.3672Z" fill="#E6E6E6"/>
<path d="M132.017 95.3602C132.066 95.3641 132.115 95.3506 132.154 95.322C132.194 95.2934 132.222 95.2516 132.234 95.2042L132.819 92.8281C132.826 92.799 132.827 92.7687 132.821 92.7392C132.816 92.7098 132.803 92.682 132.786 92.6577C132.768 92.6335 132.745 92.6134 132.719 92.5988C132.693 92.5843 132.664 92.5756 132.634 92.5735L98.1366 90.1608C98.0898 90.1571 98.0431 90.1697 98.0045 90.1964C97.9659 90.2232 97.9378 90.2624 97.9248 90.3076L97.3165 92.3609C97.3079 92.3902 97.3059 92.4211 97.3106 92.4514C97.3154 92.4816 97.3269 92.5104 97.3442 92.5356C97.3615 92.5609 97.3842 92.5819 97.4107 92.5973C97.4372 92.6126 97.4668 92.6219 97.4973 92.6244L132.017 95.3602Z" fill="#E6E6E6"/>
<path d="M130.165 102.976C130.214 102.98 130.262 102.967 130.302 102.938C130.341 102.91 130.37 102.868 130.381 102.82L130.967 100.444C130.974 100.415 130.975 100.385 130.969 100.355C130.963 100.326 130.951 100.298 130.933 100.274C130.916 100.25 130.893 100.23 130.867 100.215C130.84 100.2 130.811 100.192 130.781 100.19L96.2841 97.777C96.2373 97.7733 96.1906 97.7859 96.152 97.8126C96.1134 97.8394 96.0852 97.8786 96.0723 97.9238L95.464 99.9771C95.4553 100.006 95.4533 100.037 95.4581 100.068C95.4629 100.098 95.4744 100.127 95.4917 100.152C95.509 100.177 95.5317 100.198 95.5582 100.213C95.5847 100.229 95.6142 100.238 95.6447 100.241L130.165 102.976Z" fill="#E6E6E6"/>
<path d="M70.3532 129.789C70.3532 131.512 54.5845 131.695 35.1766 132.908C15.786 134.12 0 131.512 0 129.789C0 128.066 15.8597 124.6 35.1766 126.67C54.5845 128.749 70.3532 128.066 70.3532 129.789Z" fill="#E6E6E6"/>
<path d="M114.277 115.996C114.326 116.001 114.375 115.988 114.415 115.96C114.456 115.931 114.484 115.889 114.496 115.841L115.733 110.89C115.741 110.861 115.742 110.831 115.736 110.802C115.73 110.772 115.719 110.745 115.701 110.72C115.684 110.696 115.661 110.676 115.636 110.661C115.61 110.646 115.581 110.637 115.551 110.635L94.3663 108.853C94.3168 108.85 94.2678 108.864 94.2278 108.893C94.1879 108.923 94.1596 108.965 94.1481 109.013L93.0923 113.765C93.086 113.793 93.0858 113.823 93.0917 113.852C93.0977 113.88 93.1096 113.907 93.1268 113.931C93.144 113.954 93.166 113.974 93.1914 113.989C93.2168 114.003 93.245 114.012 93.2741 114.015L114.277 115.996Z" fill="#0C8CE9"/>
<path d="M28.738 95.8219C29.0048 95.6392 29.2282 95.4001 29.3925 95.1216C29.5569 94.8431 29.6581 94.5319 29.6892 94.2101C29.7202 93.8882 29.6803 93.5634 29.5722 93.2587C29.4642 92.9539 29.2906 92.6765 29.0637 92.4461L29.9214 73.2988L25.5544 73.7889L25.8082 92.5177C25.4461 92.9243 25.2457 93.4496 25.2451 93.9941C25.2445 94.5386 25.4438 95.0643 25.8051 95.4716C26.1664 95.879 26.6646 96.1395 27.2052 96.204C27.7458 96.2684 28.2913 96.1322 28.7382 95.8211L28.738 95.8219Z" fill="#A0616A"/>
<path d="M36.7046 128.234L39.1902 128.671L41.6467 119.292L38.39 118.647L36.7046 128.234Z" fill="#A0616A"/>
<path d="M43.5787 131.821L35.767 130.448L36.2976 127.43L41.0911 128.273C41.8915 128.413 42.6033 128.866 43.0698 129.532C43.5363 130.197 43.7193 131.021 43.5786 131.821L43.5787 131.821Z" fill="#2F2E41"/>
<path d="M29.8822 129.478H32.4059L33.6064 119.744H29.8818L29.8822 129.478Z" fill="#A0616A"/>
<path d="M37.2725 131.822L29.3411 131.823L29.3409 128.758L34.2079 128.758C35.0206 128.758 35.8001 129.081 36.3748 129.655C36.9495 130.23 37.2724 131.01 37.2725 131.822Z" fill="#2F2E41"/>
<path d="M40.4114 125.989C40.3721 125.989 40.3328 125.987 40.2937 125.982L37.3233 125.738C37.1881 125.722 37.0575 125.678 36.9395 125.611C36.8215 125.543 36.7185 125.451 36.6368 125.342C36.5551 125.234 36.4965 125.109 36.4643 124.977C36.4322 124.844 36.4273 124.707 36.4499 124.573L39.3987 110.023L37.5461 100.251C37.531 100.172 37.4877 100.1 37.4241 100.05C37.3606 100.001 37.2812 99.9752 37.2004 99.9792C37.1197 99.9832 37.0431 100.016 36.9849 100.072C36.9266 100.128 36.8906 100.204 36.8835 100.284L34.1537 125.115C34.1283 125.376 34.0022 125.618 33.8021 125.788C33.602 125.958 33.3436 126.044 33.0813 126.028L30.2828 125.924C30.0376 125.906 29.8073 125.8 29.6352 125.624C29.4632 125.448 29.3614 125.216 29.3491 124.97L29.5727 94.9649L44.0808 93.1514L45.0944 108.804L45.0903 108.821L41.3869 125.221C41.3336 125.44 41.2086 125.634 41.0317 125.774C40.8549 125.913 40.6365 125.989 40.4114 125.989Z" fill="#2F2E41"/>
<path d="M34.357 60.8918C37.1492 60.8918 39.4128 58.6282 39.4128 55.836C39.4128 53.0438 37.1492 50.7803 34.357 50.7803C31.5648 50.7803 29.3013 53.0438 29.3013 55.836C29.3013 58.6282 31.5648 60.8918 34.357 60.8918Z" fill="#A0616A"/>
<path d="M39.1205 97.248C38.3298 97.2527 37.5542 97.0308 36.8856 96.6086C34.4361 95.078 31.6549 95.6862 30.2148 96.1852C30.0719 96.2352 29.9195 96.2523 29.7691 96.2352C29.6186 96.218 29.474 96.1671 29.346 96.0862C29.2194 96.0067 29.1125 95.8997 29.0333 95.7731C28.954 95.6464 28.9044 95.5035 28.8882 95.355L26.2696 71.9659C25.8308 68.047 28.1914 64.3626 31.8826 63.2051C32.0213 63.1616 32.1623 63.1205 32.3056 63.0816C33.4543 62.7702 34.6572 62.7143 35.8298 62.9178C37.0024 63.1214 38.1162 63.5794 39.0927 64.2597C40.0875 64.9474 40.9194 65.8448 41.5299 66.8887C42.1404 67.9326 42.5147 69.0977 42.6264 70.3019L44.8312 93.8478C44.8463 94.0002 44.8257 94.1541 44.7712 94.2972C44.7166 94.4403 44.6296 94.5689 44.5169 94.6726C43.7438 95.3873 41.5005 97.2478 39.1205 97.248Z" fill="#0C8CE9"/>
<path d="M31.1459 76.9817L25.2382 76.332C25.07 76.3135 24.9079 76.259 24.7627 76.1722C24.6176 76.0854 24.4929 75.9684 24.397 75.829C24.3012 75.6896 24.2366 75.5312 24.2075 75.3646C24.1784 75.198 24.1856 75.0271 24.2285 74.8635L25.7324 69.1316C25.7767 68.7019 25.9057 68.2854 26.112 67.9059C26.3182 67.5264 26.5976 67.1916 26.9341 66.9208C27.2705 66.6499 27.6573 66.4484 28.072 66.328C28.4868 66.2075 28.9213 66.1704 29.3505 66.2189C29.7797 66.2673 30.195 66.4004 30.5724 66.6103C30.9499 66.8202 31.282 67.1029 31.5496 67.4419C31.8171 67.7809 32.0149 68.1696 32.1313 68.5855C32.2478 69.0014 32.2806 69.4363 32.228 69.865L32.4514 75.7676C32.4578 75.9366 32.4276 76.1051 32.3631 76.2614C32.2985 76.4178 32.201 76.5583 32.0772 76.6736C31.9534 76.7889 31.8062 76.8761 31.6456 76.9293C31.485 76.9825 31.3149 77.0005 31.1467 76.9821L31.1459 76.9817Z" fill="#0C8CE9"/>
<path d="M44.8071 95.0019C45.0498 94.7883 45.2427 94.5241 45.3722 94.2278C45.5017 93.9316 45.5647 93.6106 45.5567 93.2874C45.5487 92.9642 45.47 92.6467 45.326 92.3573C45.1821 92.0678 44.9764 91.8134 44.7235 91.612L43.2676 72.501L38.9883 73.4643L41.4996 92.0756C41.189 92.5228 41.0534 93.0684 41.1185 93.609C41.1835 94.1496 41.4446 94.6475 41.8524 95.0084C42.2601 95.3692 42.7861 95.5678 43.3306 95.5666C43.875 95.5655 44.4001 95.3645 44.8063 95.0019H44.8071Z" fill="#A0616A"/>
<path d="M37.3482 75.7804C37.2244 75.6652 37.1268 75.5247 37.0622 75.3684C36.9977 75.2121 36.9676 75.0437 36.974 74.8747L37.1973 68.9721C37.1492 68.5456 37.1855 68.1138 37.3042 67.7013C37.423 67.2888 37.6218 66.9038 37.8893 66.5681C38.1568 66.2325 38.4879 65.9528 38.8635 65.7451C39.2391 65.5374 39.6519 65.4057 40.0784 65.3576C40.505 65.3094 40.9368 65.3457 41.3492 65.4644C41.7617 65.5832 42.1468 65.782 42.4824 66.0495C42.818 66.317 43.0977 66.6481 43.3054 67.0237C43.5131 67.3993 43.6448 67.8121 43.693 68.2387L45.1969 73.9706C45.2398 74.1342 45.247 74.3051 45.2179 74.4717C45.1888 74.6383 45.1241 74.7967 45.0283 74.9361C44.9325 75.0754 44.8078 75.1925 44.6626 75.2793C44.5175 75.3661 44.3553 75.4206 44.1872 75.4391L38.2795 76.0888C38.1113 76.1073 37.9411 76.0893 37.7805 76.036C37.62 75.9827 37.4728 75.8954 37.349 75.78L37.3482 75.7804Z" fill="#0C8CE9"/>
<path d="M34.0563 61.0822C33.9662 61.0822 33.8764 61.0718 33.7887 61.0511L33.763 61.045C29.318 60.3657 28.3355 57.7901 28.1199 56.715C27.8968 55.6018 28.1508 54.5273 28.7251 54.1098C28.412 53.1218 28.4623 52.2447 28.8748 51.5034C29.5952 50.2107 31.1557 49.7743 31.3655 49.72C32.6125 48.8001 34.1045 49.4141 34.376 49.5386C36.7883 48.6463 37.7107 49.389 37.877 49.5549C38.9552 49.7486 39.6125 50.165 39.8307 50.7933C40.2405 51.973 38.9445 53.4404 38.8891 53.5024L38.8603 53.5345L36.9295 53.6265C36.7463 53.6353 36.5669 53.6824 36.4031 53.7649C36.2393 53.8475 36.0947 53.9635 35.9786 54.1055C35.8625 54.2475 35.7775 54.4123 35.7293 54.5893C35.681 54.7663 35.6704 54.9514 35.6983 55.1327C35.7506 55.3666 35.8165 55.5972 35.8959 55.8233C36.2253 56.8538 36.4723 57.7341 36.1541 58.0689C36.0819 58.1336 35.9929 58.1767 35.8973 58.1933C35.8018 58.2099 35.7035 58.1992 35.6137 58.1625C35.3117 58.0818 35.1069 58.0987 35.0048 58.2129C34.8463 58.3898 34.8947 58.8377 35.1411 59.4737C35.2184 59.6749 35.2392 59.8934 35.2013 60.1056C35.1633 60.3177 35.068 60.5154 34.9258 60.6773C34.8187 60.8037 34.6854 60.9053 34.5352 60.9752C34.3851 61.0451 34.2215 61.0816 34.0559 61.0822H34.0563Z" fill="#2F2E41"/>
</g>
<defs>
<clipPath id="clip0_1205_2236">
<rect width="165" height="133.219" fill="white"/>
</clipPath>
</defs>
</svg>
