<svg width="88" height="86" viewBox="0 0 88 86" fill="none" xmlns="http://www.w3.org/2000/svg">
<ellipse cx="43.8343" cy="42.8121" rx="15.5647" ry="15.2017" fill="#E9ECF1"/>
<path d="M38.9004 47.5997C38.9004 45.4218 40.6659 43.6562 42.8439 43.6562H44.827C47.0049 43.6562 48.7705 45.4218 48.7705 47.5997H38.9004Z" fill="#0C8CE9"/>
<ellipse cx="43.7962" cy="40.4025" rx="2.43491" ry="2.37812" fill="#0C8CE9"/>
<path d="M54.5858 73.0486C37.488 78.848 18.8138 70.0121 12.8759 53.3131C6.93797 36.6141 15.9849 18.3754 33.0827 12.576C50.1805 6.77657 68.8547 15.6124 74.7926 32.3115C80.7305 49.0105 71.6836 67.2491 54.5858 73.0486ZM34.8297 17.4891C20.5101 22.3462 12.9332 37.6212 17.9063 51.6068C22.8794 65.5924 38.5192 72.9926 52.8388 68.1355C67.1584 63.2784 74.7353 48.0034 69.7622 34.0178C64.7891 20.0321 49.1493 12.632 34.8297 17.4891Z" fill="#E9ECF1"/>
<path d="M35.9373 71.2044C35.5532 72.5851 36.3684 74.0103 37.7897 74.2708C41.3996 74.9325 45.1041 74.998 48.7478 74.4584C53.2544 73.7911 57.5689 72.2129 61.4156 69.8247C65.2623 67.4366 68.5567 64.291 71.0882 60.5889C73.6197 56.8868 75.3326 52.7097 76.1176 48.3244C76.9026 43.9391 76.7422 39.4421 75.6469 35.1208C74.5516 30.7994 72.5454 26.7488 69.7564 23.2276C66.9674 19.7064 63.457 16.7922 59.4496 14.6711C56.2229 12.9633 52.7311 11.7999 49.1215 11.2237C47.6768 10.993 46.3849 12.0852 46.2652 13.5266C46.1473 14.9481 47.2159 16.1722 48.6372 16.4189C51.5272 16.9205 54.3218 17.8726 56.9124 19.2437C60.2687 21.0202 63.2086 23.4609 65.5444 26.4099C67.8802 29.3589 69.5605 32.7514 70.4778 36.3706C71.3952 39.9897 71.5294 43.756 70.872 47.4287C70.2146 51.1015 68.78 54.5998 66.6598 57.7004C64.5397 60.8009 61.7806 63.4354 58.5589 65.4355C55.3373 67.4356 51.7238 68.7574 47.9495 69.3163C45.0477 69.746 42.0999 69.7175 39.2179 69.2372C37.7814 68.9977 36.3242 69.8132 35.9373 71.2044Z" fill="#0C8CE9"/>
</svg>
