<svg width="136" height="24" viewBox="0 0 136 24" fill="none" xmlns="http://www.w3.org/2000/svg">
<path d="M17 18.4297H13L8.54999 21.3897C7.88999 21.8297 7 21.3598 7 20.5598V18.4297C4 18.4297 2 16.4297 2 13.4297V7.42969C2 4.42969 4 2.42969 7 2.42969H17C20 2.42969 22 4.42969 22 7.42969V13.4297C22 16.4297 20 18.4297 17 18.4297Z" stroke="#282A37" stroke-width="1.5" stroke-miterlimit="10" stroke-linecap="round" stroke-linejoin="round"/>
<path d="M11.9998 11.3604V11.1504C11.9998 10.4704 12.4198 10.1104 12.8398 9.82037C13.2498 9.54037 13.6598 9.18039 13.6598 8.52039C13.6598 7.60039 12.9198 6.86035 11.9998 6.86035C11.0798 6.86035 10.3398 7.60039 10.3398 8.52039" stroke="#282A37" stroke-width="1.5" stroke-linecap="round" stroke-linejoin="round"/>
<path d="M11.9955 13.75H12.0045" stroke="#282A37" stroke-width="1.5" stroke-linecap="round" stroke-linejoin="round"/>
<path d="M38.5376 9.61719C38.4912 9.183 38.2957 8.84493 37.951 8.60298C37.6096 8.36103 37.1655 8.24006 36.6186 8.24006C36.2341 8.24006 35.9044 8.29806 35.6293 8.41406C35.3542 8.53007 35.1437 8.6875 34.9979 8.88636C34.852 9.08523 34.7775 9.31226 34.7741 9.56747C34.7741 9.77959 34.8222 9.96354 34.9183 10.1193C35.0178 10.2751 35.152 10.4077 35.321 10.517C35.4901 10.6231 35.6773 10.7126 35.8828 10.7855C36.0883 10.8584 36.2955 10.9197 36.5043 10.9695L37.4588 11.2081C37.8433 11.2976 38.2128 11.4186 38.5675 11.571C38.9254 11.7235 39.2453 11.9157 39.527 12.1477C39.812 12.3797 40.0374 12.6598 40.2031 12.9879C40.3688 13.3161 40.4517 13.7005 40.4517 14.1413C40.4517 14.7379 40.2992 15.2633 39.9943 15.7173C39.6894 16.1681 39.2486 16.5211 38.6719 16.7763C38.0985 17.0282 37.4041 17.1541 36.5888 17.1541C35.7966 17.1541 35.1089 17.0315 34.5256 16.7862C33.9455 16.541 33.4915 16.183 33.1634 15.7124C32.8385 15.2417 32.6629 14.6683 32.6364 13.9922H34.451C34.4775 14.3468 34.5869 14.6418 34.7791 14.8771C34.9714 15.1125 35.2216 15.2881 35.5298 15.4041C35.8414 15.5201 36.1894 15.5781 36.5739 15.5781C36.9749 15.5781 37.3262 15.5185 37.6278 15.3991C37.9328 15.2765 38.1714 15.1075 38.3438 14.892C38.5161 14.6733 38.6039 14.4181 38.6072 14.1264C38.6039 13.8613 38.526 13.6425 38.3736 13.4702C38.2211 13.2945 38.0073 13.1487 37.7322 13.0327C37.4605 12.9134 37.1423 12.8073 36.7777 12.7145L35.6193 12.4162C34.7808 12.2008 34.1179 11.8743 33.6307 11.4368C33.1468 10.996 32.9048 10.411 32.9048 9.68182C32.9048 9.08191 33.0672 8.55658 33.392 8.10582C33.7202 7.65507 34.166 7.3054 34.7294 7.05682C35.2929 6.80492 35.9309 6.67898 36.6435 6.67898C37.366 6.67898 37.9991 6.80492 38.5426 7.05682C39.0895 7.3054 39.5187 7.65175 39.8303 8.09588C40.1418 8.53669 40.3026 9.0438 40.3125 9.61719H38.5376ZM45.8297 9.36364V10.7557H41.4398V9.36364H45.8297ZM42.5236 7.53409H44.3233V14.7031C44.3233 14.9451 44.3598 15.1307 44.4327 15.2599C44.5089 15.3859 44.6084 15.4721 44.731 15.5185C44.8536 15.5649 44.9895 15.5881 45.1387 15.5881C45.2514 15.5881 45.3541 15.5798 45.4469 15.5632C45.543 15.5466 45.6159 15.5317 45.6657 15.5185L45.9689 16.9254C45.8728 16.9586 45.7353 16.995 45.5563 17.0348C45.3806 17.0746 45.1652 17.0978 44.91 17.1044C44.4592 17.1177 44.0532 17.0497 43.6919 16.9006C43.3307 16.7481 43.044 16.5128 42.8319 16.1946C42.623 15.8764 42.5203 15.4787 42.5236 15.0014V7.53409ZM47.3349 17V9.36364H49.1346V17H47.3349ZM48.2397 8.27983C47.9547 8.27983 47.7094 8.18537 47.5039 7.99645C47.2984 7.80421 47.1957 7.57386 47.1957 7.3054C47.1957 7.03362 47.2984 6.80327 47.5039 6.61435C47.7094 6.42211 47.9547 6.32599 48.2397 6.32599C48.5281 6.32599 48.7733 6.42211 48.9755 6.61435C49.181 6.80327 49.2837 7.03362 49.2837 7.3054C49.2837 7.57386 49.181 7.80421 48.9755 7.99645C48.7733 8.18537 48.5281 8.27983 48.2397 8.27983ZM52.785 6.81818V17H50.9853V6.81818H52.785ZM56.4354 6.81818V17H54.6357V6.81818H56.4354ZM63.5584 12.5256V17H61.7587V9.36364H63.4789V10.6612H63.5684C63.744 10.2337 64.0241 9.89394 64.4086 9.64205C64.7963 9.39015 65.2753 9.2642 65.8453 9.2642C66.3723 9.2642 66.8314 9.37689 67.2225 9.60227C67.6169 9.82765 67.9218 10.1541 68.1373 10.5817C68.356 11.0092 68.4637 11.5279 68.4604 12.1378V17H66.6607V12.4162C66.6607 11.9058 66.5281 11.5064 66.263 11.218C66.0011 10.9297 65.6382 10.7855 65.1742 10.7855C64.8593 10.7855 64.5792 10.8551 64.334 10.9943C64.092 11.1302 63.9015 11.3274 63.7623 11.5859C63.6264 11.8445 63.5584 12.1577 63.5584 12.5256ZM73.6706 17.1491C72.905 17.1491 72.2438 16.9901 71.687 16.6719C71.1335 16.3504 70.7076 15.8963 70.4093 15.3097C70.111 14.7197 69.9618 14.0253 69.9618 13.2266C69.9618 12.4411 70.111 11.7517 70.4093 11.1584C70.7109 10.5618 71.1318 10.0978 71.6721 9.76633C72.2123 9.43158 72.847 9.2642 73.5762 9.2642C74.0468 9.2642 74.4909 9.34044 74.9086 9.4929C75.3295 9.64205 75.7007 9.87405 76.0222 10.1889C76.347 10.5038 76.6022 10.9048 76.7878 11.392C76.9734 11.8759 77.0662 12.4527 77.0662 13.1222V13.674H70.807V12.4609H75.3411C75.3378 12.1162 75.2632 11.8097 75.1174 11.5412C74.9715 11.2694 74.7677 11.0556 74.5059 10.8999C74.2473 10.7441 73.9457 10.6662 73.601 10.6662C73.2331 10.6662 72.91 10.7557 72.6316 10.9347C72.3532 11.1103 72.1361 11.3423 71.9803 11.6307C71.8278 11.9157 71.7499 12.2289 71.7466 12.5703V13.6293C71.7466 14.0734 71.8278 14.4545 71.9902 14.7727C72.1526 15.0876 72.3797 15.3295 72.6713 15.4986C72.963 15.6643 73.3044 15.7472 73.6955 15.7472C73.9573 15.7472 74.1943 15.7107 74.4064 15.6378C74.6185 15.5616 74.8025 15.4505 74.9583 15.3047C75.1141 15.1589 75.2317 14.9782 75.3113 14.7628L76.9917 14.9517C76.8856 15.3958 76.6834 15.7836 76.3851 16.1151C76.0901 16.4432 75.7123 16.6984 75.2516 16.8807C74.7909 17.0597 74.2639 17.1491 73.6706 17.1491ZM81.9695 17.1491C81.2038 17.1491 80.5426 16.9901 79.9858 16.6719C79.4323 16.3504 79.0064 15.8963 78.7081 15.3097C78.4098 14.7197 78.2607 14.0253 78.2607 13.2266C78.2607 12.4411 78.4098 11.7517 78.7081 11.1584C79.0097 10.5618 79.4306 10.0978 79.9709 9.76633C80.5111 9.43158 81.1458 9.2642 81.875 9.2642C82.3456 9.2642 82.7898 9.34044 83.2074 9.4929C83.6283 9.64205 83.9995 9.87405 84.321 10.1889C84.6458 10.5038 84.901 10.9048 85.0866 11.392C85.2723 11.8759 85.3651 12.4527 85.3651 13.1222V13.674H79.1058V12.4609H83.6399C83.6366 12.1162 83.562 11.8097 83.4162 11.5412C83.2704 11.2694 83.0665 11.0556 82.8047 10.8999C82.5462 10.7441 82.2446 10.6662 81.8999 10.6662C81.532 10.6662 81.2088 10.7557 80.9304 10.9347C80.652 11.1103 80.4349 11.3423 80.2791 11.6307C80.1267 11.9157 80.0488 12.2289 80.0455 12.5703V13.6293C80.0455 14.0734 80.1267 14.4545 80.2891 14.7727C80.4515 15.0876 80.6785 15.3295 80.9702 15.4986C81.2618 15.6643 81.6032 15.7472 81.9943 15.7472C82.2562 15.7472 82.4931 15.7107 82.7053 15.6378C82.9174 15.5616 83.1013 15.4505 83.2571 15.3047C83.4129 15.1589 83.5305 14.9782 83.6101 14.7628L85.2905 14.9517C85.1844 15.3958 84.9822 15.7836 84.6839 16.1151C84.389 16.4432 84.0111 16.6984 83.5504 16.8807C83.0897 17.0597 82.5627 17.1491 81.9695 17.1491ZM89.7214 17.1342C89.1215 17.1342 88.5846 16.9801 88.1106 16.6719C87.6367 16.3636 87.2621 15.9162 86.987 15.3295C86.7119 14.7429 86.5744 14.0303 86.5744 13.1918C86.5744 12.3433 86.7136 11.6274 86.992 11.044C87.2737 10.4574 87.6532 10.0149 88.1305 9.71662C88.6078 9.41501 89.1397 9.2642 89.7264 9.2642C90.1738 9.2642 90.5417 9.34044 90.8301 9.4929C91.1184 9.64205 91.3471 9.82268 91.5162 10.0348C91.6852 10.2436 91.8161 10.4408 91.9089 10.6264H91.9835V6.81818H93.7882V17H92.0183V15.7969H91.9089C91.8161 15.9825 91.6819 16.1797 91.5062 16.3885C91.3306 16.594 91.0985 16.7696 90.8102 16.9155C90.5218 17.0613 90.1589 17.1342 89.7214 17.1342ZM90.2235 15.6577C90.6047 15.6577 90.9295 15.5549 91.198 15.3494C91.4664 15.1406 91.6703 14.8506 91.8095 14.4794C91.9487 14.1082 92.0183 13.6757 92.0183 13.1818C92.0183 12.688 91.9487 12.2588 91.8095 11.8942C91.6736 11.5296 91.4714 11.2462 91.2029 11.044C90.9378 10.8419 90.6113 10.7408 90.2235 10.7408C89.8225 10.7408 89.4877 10.8452 89.2193 11.054C88.9508 11.2628 88.7486 11.5511 88.6127 11.919C88.4769 12.2869 88.4089 12.7079 88.4089 13.1818C88.4089 13.6591 88.4769 14.085 88.6127 14.4595C88.752 14.8307 88.9558 15.1241 89.2243 15.3395C89.496 15.5516 89.8291 15.6577 90.2235 15.6577ZM100.978 12.5256V17H99.1786V6.81818H100.939V10.6612H101.028C101.207 10.2304 101.484 9.89062 101.858 9.64205C102.236 9.39015 102.717 9.2642 103.3 9.2642C103.83 9.2642 104.293 9.37524 104.687 9.5973C105.082 9.81937 105.386 10.1442 105.602 10.5717C105.821 10.9993 105.93 11.5213 105.93 12.1378V17H104.13V12.4162C104.13 11.9025 103.998 11.5031 103.733 11.218C103.471 10.9297 103.103 10.7855 102.629 10.7855C102.311 10.7855 102.026 10.8551 101.774 10.9943C101.525 11.1302 101.33 11.3274 101.187 11.5859C101.048 11.8445 100.978 12.1577 100.978 12.5256ZM111.145 17.1491C110.38 17.1491 109.718 16.9901 109.162 16.6719C108.608 16.3504 108.182 15.8963 107.884 15.3097C107.586 14.7197 107.436 14.0253 107.436 13.2266C107.436 12.4411 107.586 11.7517 107.884 11.1584C108.185 10.5618 108.606 10.0978 109.147 9.76633C109.687 9.43158 110.322 9.2642 111.051 9.2642C111.521 9.2642 111.966 9.34044 112.383 9.4929C112.804 9.64205 113.175 9.87405 113.497 10.1889C113.822 10.5038 114.077 10.9048 114.262 11.392C114.448 11.8759 114.541 12.4527 114.541 13.1222V13.674H108.282V12.4609H112.816C112.812 12.1162 112.738 11.8097 112.592 11.5412C112.446 11.2694 112.242 11.0556 111.98 10.8999C111.722 10.7441 111.42 10.6662 111.076 10.6662C110.708 10.6662 110.385 10.7557 110.106 10.9347C109.828 11.1103 109.611 11.3423 109.455 11.6307C109.302 11.9157 109.225 12.2289 109.221 12.5703V13.6293C109.221 14.0734 109.302 14.4545 109.465 14.7727C109.627 15.0876 109.854 15.3295 110.146 15.4986C110.438 15.6643 110.779 15.7472 111.17 15.7472C111.432 15.7472 111.669 15.7107 111.881 15.6378C112.093 15.5616 112.277 15.4505 112.433 15.3047C112.589 15.1589 112.706 14.9782 112.786 14.7628L114.466 14.9517C114.36 15.3958 114.158 15.7836 113.86 16.1151C113.565 16.4432 113.187 16.6984 112.726 16.8807C112.266 17.0597 111.739 17.1491 111.145 17.1491ZM117.863 6.81818V17H116.063V6.81818H117.863ZM119.714 19.8636V9.36364H121.484V10.6264H121.588C121.681 10.4408 121.812 10.2436 121.981 10.0348C122.15 9.82268 122.379 9.64205 122.667 9.4929C122.955 9.34044 123.323 9.2642 123.771 9.2642C124.361 9.2642 124.893 9.41501 125.366 9.71662C125.844 10.0149 126.222 10.4574 126.5 11.044C126.782 11.6274 126.923 12.3433 126.923 13.1918C126.923 14.0303 126.785 14.7429 126.51 15.3295C126.235 15.9162 125.86 16.3636 125.386 16.6719C124.912 16.9801 124.375 17.1342 123.776 17.1342C123.338 17.1342 122.975 17.0613 122.687 16.9155C122.398 16.7696 122.166 16.594 121.991 16.3885C121.818 16.1797 121.684 15.9825 121.588 15.7969H121.513V19.8636H119.714ZM121.479 13.1818C121.479 13.6757 121.548 14.1082 121.688 14.4794C121.83 14.8506 122.034 15.1406 122.299 15.3494C122.567 15.5549 122.892 15.6577 123.273 15.6577C123.671 15.6577 124.004 15.5516 124.273 15.3395C124.541 15.1241 124.743 14.8307 124.879 14.4595C125.018 14.085 125.088 13.6591 125.088 13.1818C125.088 12.7079 125.02 12.2869 124.884 11.919C124.748 11.5511 124.546 11.2628 124.278 11.054C124.009 10.8452 123.674 10.7408 123.273 10.7408C122.889 10.7408 122.562 10.8419 122.294 11.044C122.026 11.2462 121.822 11.5296 121.683 11.8942C121.547 12.2588 121.479 12.688 121.479 13.1818ZM130.184 14.0071V13.8778C130.187 13.2779 130.244 12.8007 130.353 12.446C130.466 12.0914 130.625 11.8063 130.83 11.5909C131.036 11.3722 131.286 11.1716 131.581 10.9893C131.783 10.8634 131.964 10.7259 132.123 10.5767C132.285 10.4242 132.413 10.2552 132.506 10.0696C132.598 9.88068 132.645 9.67022 132.645 9.43821C132.645 9.17637 132.584 8.94934 132.461 8.7571C132.338 8.56487 132.173 8.41572 131.964 8.30966C131.758 8.2036 131.528 8.15057 131.273 8.15057C131.037 8.15057 130.814 8.20194 130.602 8.30469C130.393 8.40412 130.219 8.55658 130.08 8.76207C129.944 8.96425 129.867 9.22112 129.851 9.53267H128.081C128.098 8.90294 128.25 8.37595 128.538 7.9517C128.83 7.52746 129.214 7.20928 129.692 6.99716C130.172 6.78504 130.703 6.67898 131.283 6.67898C131.916 6.67898 132.473 6.79001 132.953 7.01207C133.437 7.23414 133.813 7.55066 134.082 7.96165C134.353 8.36932 134.489 8.85322 134.489 9.41335C134.489 9.79119 134.428 10.1293 134.305 10.4276C134.186 10.7259 134.015 10.991 133.793 11.223C133.571 11.455 133.308 11.6622 133.003 11.8445C132.734 12.0102 132.514 12.1825 132.342 12.3615C132.173 12.5405 132.047 12.7509 131.964 12.9929C131.884 13.2315 131.843 13.5265 131.839 13.8778V14.0071H130.184ZM131.049 17.1094C130.751 17.1094 130.494 17.0033 130.278 16.7912C130.063 16.5791 129.955 16.3205 129.955 16.0156C129.955 15.7173 130.063 15.4621 130.278 15.25C130.494 15.0379 130.751 14.9318 131.049 14.9318C131.344 14.9318 131.599 15.0379 131.815 15.25C132.033 15.4621 132.143 15.7173 132.143 16.0156C132.143 16.2178 132.091 16.4018 131.989 16.5675C131.889 16.7332 131.757 16.8658 131.591 16.9652C131.429 17.0613 131.248 17.1094 131.049 17.1094Z" fill="#282A37"/>
</svg>
